<?xml version="1.0" encoding="utf-8" standalone="no"?>
<!DOCTYPE svg PUBLIC "-//W3C//DTD SVG 1.1//EN"
  "http://www.w3.org/Graphics/SVG/1.1/DTD/svg11.dtd">
<!-- Created with matplotlib (http://matplotlib.org/) -->
<svg height="277.314375pt" version="1.1" viewBox="0 0 420.607527 277.314375" width="420.607527pt" xmlns="http://www.w3.org/2000/svg" xmlns:xlink="http://www.w3.org/1999/xlink">
 <defs>
  <style type="text/css">
*{stroke-linecap:butt;stroke-linejoin:round;}
  </style>
 </defs>
 <g id="figure_1">
  <g id="patch_1">
   <path d="M 0 277.314375 
L 420.607527 277.314375 
L 420.607527 0 
L 0 0 
z
" style="fill:none;"/>
  </g>
  <g id="axes_1">
   <g id="patch_2">
    <path d="M 66.053125 239.758125 
L 400.853125 239.758125 
L 400.853125 22.318125 
L 66.053125 22.318125 
z
" style="fill:#ffffff;"/>
   </g>
   <g id="matplotlib.axis_1">
    <g id="xtick_1">
     <g id="line2d_1">
      <defs>
       <path d="M 0 0 
L 0 3.5 
" id="m9345b701b2" style="stroke:#000000;stroke-width:0.8;"/>
      </defs>
      <g>
       <use style="stroke:#000000;stroke-width:0.8;" x="81.183821" xlink:href="#m9345b701b2" y="239.758125"/>
      </g>
     </g>
     <g id="text_1">
      <!-- 2010 -->
      <defs>
       <path d="M 19.1875 8.296875 
L 53.609375 8.296875 
L 53.609375 0 
L 7.328125 0 
L 7.328125 8.296875 
Q 12.9375 14.109375 22.625 23.890625 
Q 32.328125 33.6875 34.8125 36.53125 
Q 39.546875 41.84375 41.421875 45.53125 
Q 43.3125 49.21875 43.3125 52.78125 
Q 43.3125 58.59375 39.234375 62.25 
Q 35.15625 65.921875 28.609375 65.921875 
Q 23.96875 65.921875 18.8125 64.3125 
Q 13.671875 62.703125 7.8125 59.421875 
L 7.8125 69.390625 
Q 13.765625 71.78125 18.9375 73 
Q 24.125 74.21875 28.421875 74.21875 
Q 39.75 74.21875 46.484375 68.546875 
Q 53.21875 62.890625 53.21875 53.421875 
Q 53.21875 48.921875 51.53125 44.890625 
Q 49.859375 40.875 45.40625 35.40625 
Q 44.1875 33.984375 37.640625 27.21875 
Q 31.109375 20.453125 19.1875 8.296875 
z
" id="DejaVuSans-32"/>
       <path d="M 31.78125 66.40625 
Q 24.171875 66.40625 20.328125 58.90625 
Q 16.5 51.421875 16.5 36.375 
Q 16.5 21.390625 20.328125 13.890625 
Q 24.171875 6.390625 31.78125 6.390625 
Q 39.453125 6.390625 43.28125 13.890625 
Q 47.125 21.390625 47.125 36.375 
Q 47.125 51.421875 43.28125 58.90625 
Q 39.453125 66.40625 31.78125 66.40625 
z
M 31.78125 74.21875 
Q 44.046875 74.21875 50.515625 64.515625 
Q 56.984375 54.828125 56.984375 36.375 
Q 56.984375 17.96875 50.515625 8.265625 
Q 44.046875 -1.421875 31.78125 -1.421875 
Q 19.53125 -1.421875 13.0625 8.265625 
Q 6.59375 17.96875 6.59375 36.375 
Q 6.59375 54.828125 13.0625 64.515625 
Q 19.53125 74.21875 31.78125 74.21875 
z
" id="DejaVuSans-30"/>
       <path d="M 12.40625 8.296875 
L 28.515625 8.296875 
L 28.515625 63.921875 
L 10.984375 60.40625 
L 10.984375 69.390625 
L 28.421875 72.90625 
L 38.28125 72.90625 
L 38.28125 8.296875 
L 54.390625 8.296875 
L 54.390625 0 
L 12.40625 0 
z
" id="DejaVuSans-31"/>
      </defs>
      <g transform="translate(68.458821 254.356562)scale(0.1 -0.1)">
       <use xlink:href="#DejaVuSans-32"/>
       <use x="63.623047" xlink:href="#DejaVuSans-30"/>
       <use x="127.246094" xlink:href="#DejaVuSans-31"/>
       <use x="190.869141" xlink:href="#DejaVuSans-30"/>
      </g>
     </g>
    </g>
    <g id="xtick_2">
     <g id="line2d_2">
      <g>
       <use style="stroke:#000000;stroke-width:0.8;" x="113.116194" xlink:href="#m9345b701b2" y="239.758125"/>
      </g>
     </g>
     <g id="text_2">
      <!-- 2011 -->
      <g transform="translate(100.391194 254.356562)scale(0.1 -0.1)">
       <use xlink:href="#DejaVuSans-32"/>
       <use x="63.623047" xlink:href="#DejaVuSans-30"/>
       <use x="127.246094" xlink:href="#DejaVuSans-31"/>
       <use x="190.869141" xlink:href="#DejaVuSans-31"/>
      </g>
     </g>
    </g>
    <g id="xtick_3">
     <g id="line2d_3">
      <g>
       <use style="stroke:#000000;stroke-width:0.8;" x="145.048568" xlink:href="#m9345b701b2" y="239.758125"/>
      </g>
     </g>
     <g id="text_3">
      <!-- 2012 -->
      <g transform="translate(132.323568 254.356562)scale(0.1 -0.1)">
       <use xlink:href="#DejaVuSans-32"/>
       <use x="63.623047" xlink:href="#DejaVuSans-30"/>
       <use x="127.246094" xlink:href="#DejaVuSans-31"/>
       <use x="190.869141" xlink:href="#DejaVuSans-32"/>
      </g>
     </g>
    </g>
    <g id="xtick_4">
     <g id="line2d_4">
      <g>
       <use style="stroke:#000000;stroke-width:0.8;" x="177.068427" xlink:href="#m9345b701b2" y="239.758125"/>
      </g>
     </g>
     <g id="text_4">
      <!-- 2013 -->
      <defs>
       <path d="M 40.578125 39.3125 
Q 47.65625 37.796875 51.625 33 
Q 55.609375 28.21875 55.609375 21.1875 
Q 55.609375 10.40625 48.1875 4.484375 
Q 40.765625 -1.421875 27.09375 -1.421875 
Q 22.515625 -1.421875 17.65625 -0.515625 
Q 12.796875 0.390625 7.625 2.203125 
L 7.625 11.71875 
Q 11.71875 9.328125 16.59375 8.109375 
Q 21.484375 6.890625 26.8125 6.890625 
Q 36.078125 6.890625 40.9375 10.546875 
Q 45.796875 14.203125 45.796875 21.1875 
Q 45.796875 27.640625 41.28125 31.265625 
Q 36.765625 34.90625 28.71875 34.90625 
L 20.21875 34.90625 
L 20.21875 43.015625 
L 29.109375 43.015625 
Q 36.375 43.015625 40.234375 45.921875 
Q 44.09375 48.828125 44.09375 54.296875 
Q 44.09375 59.90625 40.109375 62.90625 
Q 36.140625 65.921875 28.71875 65.921875 
Q 24.65625 65.921875 20.015625 65.03125 
Q 15.375 64.15625 9.8125 62.3125 
L 9.8125 71.09375 
Q 15.4375 72.65625 20.34375 73.4375 
Q 25.25 74.21875 29.59375 74.21875 
Q 40.828125 74.21875 47.359375 69.109375 
Q 53.90625 64.015625 53.90625 55.328125 
Q 53.90625 49.265625 50.4375 45.09375 
Q 46.96875 40.921875 40.578125 39.3125 
z
" id="DejaVuSans-33"/>
      </defs>
      <g transform="translate(164.343427 254.356562)scale(0.1 -0.1)">
       <use xlink:href="#DejaVuSans-32"/>
       <use x="63.623047" xlink:href="#DejaVuSans-30"/>
       <use x="127.246094" xlink:href="#DejaVuSans-31"/>
       <use x="190.869141" xlink:href="#DejaVuSans-33"/>
      </g>
     </g>
    </g>
    <g id="xtick_5">
     <g id="line2d_5">
      <g>
       <use style="stroke:#000000;stroke-width:0.8;" x="209.000801" xlink:href="#m9345b701b2" y="239.758125"/>
      </g>
     </g>
     <g id="text_5">
      <!-- 2014 -->
      <defs>
       <path d="M 37.796875 64.3125 
L 12.890625 25.390625 
L 37.796875 25.390625 
z
M 35.203125 72.90625 
L 47.609375 72.90625 
L 47.609375 25.390625 
L 58.015625 25.390625 
L 58.015625 17.1875 
L 47.609375 17.1875 
L 47.609375 0 
L 37.796875 0 
L 37.796875 17.1875 
L 4.890625 17.1875 
L 4.890625 26.703125 
z
" id="DejaVuSans-34"/>
      </defs>
      <g transform="translate(196.275801 254.356562)scale(0.1 -0.1)">
       <use xlink:href="#DejaVuSans-32"/>
       <use x="63.623047" xlink:href="#DejaVuSans-30"/>
       <use x="127.246094" xlink:href="#DejaVuSans-31"/>
       <use x="190.869141" xlink:href="#DejaVuSans-34"/>
      </g>
     </g>
    </g>
    <g id="xtick_6">
     <g id="line2d_6">
      <g>
       <use style="stroke:#000000;stroke-width:0.8;" x="240.933174" xlink:href="#m9345b701b2" y="239.758125"/>
      </g>
     </g>
     <g id="text_6">
      <!-- 2015 -->
      <defs>
       <path d="M 10.796875 72.90625 
L 49.515625 72.90625 
L 49.515625 64.59375 
L 19.828125 64.59375 
L 19.828125 46.734375 
Q 21.96875 47.46875 24.109375 47.828125 
Q 26.265625 48.1875 28.421875 48.1875 
Q 40.625 48.1875 47.75 41.5 
Q 54.890625 34.8125 54.890625 23.390625 
Q 54.890625 11.625 47.5625 5.09375 
Q 40.234375 -1.421875 26.90625 -1.421875 
Q 22.3125 -1.421875 17.546875 -0.640625 
Q 12.796875 0.140625 7.71875 1.703125 
L 7.71875 11.625 
Q 12.109375 9.234375 16.796875 8.0625 
Q 21.484375 6.890625 26.703125 6.890625 
Q 35.15625 6.890625 40.078125 11.328125 
Q 45.015625 15.765625 45.015625 23.390625 
Q 45.015625 31 40.078125 35.4375 
Q 35.15625 39.890625 26.703125 39.890625 
Q 22.75 39.890625 18.8125 39.015625 
Q 14.890625 38.140625 10.796875 36.28125 
z
" id="DejaVuSans-35"/>
      </defs>
      <g transform="translate(228.208174 254.356562)scale(0.1 -0.1)">
       <use xlink:href="#DejaVuSans-32"/>
       <use x="63.623047" xlink:href="#DejaVuSans-30"/>
       <use x="127.246094" xlink:href="#DejaVuSans-31"/>
       <use x="190.869141" xlink:href="#DejaVuSans-35"/>
      </g>
     </g>
    </g>
    <g id="xtick_7">
     <g id="line2d_7">
      <g>
       <use style="stroke:#000000;stroke-width:0.8;" x="272.865548" xlink:href="#m9345b701b2" y="239.758125"/>
      </g>
     </g>
     <g id="text_7">
      <!-- 2016 -->
      <defs>
       <path d="M 33.015625 40.375 
Q 26.375 40.375 22.484375 35.828125 
Q 18.609375 31.296875 18.609375 23.390625 
Q 18.609375 15.53125 22.484375 10.953125 
Q 26.375 6.390625 33.015625 6.390625 
Q 39.65625 6.390625 43.53125 10.953125 
Q 47.40625 15.53125 47.40625 23.390625 
Q 47.40625 31.296875 43.53125 35.828125 
Q 39.65625 40.375 33.015625 40.375 
z
M 52.59375 71.296875 
L 52.59375 62.3125 
Q 48.875 64.0625 45.09375 64.984375 
Q 41.3125 65.921875 37.59375 65.921875 
Q 27.828125 65.921875 22.671875 59.328125 
Q 17.53125 52.734375 16.796875 39.40625 
Q 19.671875 43.65625 24.015625 45.921875 
Q 28.375 48.1875 33.59375 48.1875 
Q 44.578125 48.1875 50.953125 41.515625 
Q 57.328125 34.859375 57.328125 23.390625 
Q 57.328125 12.15625 50.6875 5.359375 
Q 44.046875 -1.421875 33.015625 -1.421875 
Q 20.359375 -1.421875 13.671875 8.265625 
Q 6.984375 17.96875 6.984375 36.375 
Q 6.984375 53.65625 15.1875 63.9375 
Q 23.390625 74.21875 37.203125 74.21875 
Q 40.921875 74.21875 44.703125 73.484375 
Q 48.484375 72.75 52.59375 71.296875 
z
" id="DejaVuSans-36"/>
      </defs>
      <g transform="translate(260.140548 254.356562)scale(0.1 -0.1)">
       <use xlink:href="#DejaVuSans-32"/>
       <use x="63.623047" xlink:href="#DejaVuSans-30"/>
       <use x="127.246094" xlink:href="#DejaVuSans-31"/>
       <use x="190.869141" xlink:href="#DejaVuSans-36"/>
      </g>
     </g>
    </g>
    <g id="xtick_8">
     <g id="line2d_8">
      <g>
       <use style="stroke:#000000;stroke-width:0.8;" x="304.885407" xlink:href="#m9345b701b2" y="239.758125"/>
      </g>
     </g>
     <g id="text_8">
      <!-- 2017 -->
      <defs>
       <path d="M 8.203125 72.90625 
L 55.078125 72.90625 
L 55.078125 68.703125 
L 28.609375 0 
L 18.3125 0 
L 43.21875 64.59375 
L 8.203125 64.59375 
z
" id="DejaVuSans-37"/>
      </defs>
      <g transform="translate(292.160407 254.356562)scale(0.1 -0.1)">
       <use xlink:href="#DejaVuSans-32"/>
       <use x="63.623047" xlink:href="#DejaVuSans-30"/>
       <use x="127.246094" xlink:href="#DejaVuSans-31"/>
       <use x="190.869141" xlink:href="#DejaVuSans-37"/>
      </g>
     </g>
    </g>
    <g id="xtick_9">
     <g id="line2d_9">
      <g>
       <use style="stroke:#000000;stroke-width:0.8;" x="336.81778" xlink:href="#m9345b701b2" y="239.758125"/>
      </g>
     </g>
     <g id="text_9">
      <!-- 2018 -->
      <defs>
       <path d="M 31.78125 34.625 
Q 24.75 34.625 20.71875 30.859375 
Q 16.703125 27.09375 16.703125 20.515625 
Q 16.703125 13.921875 20.71875 10.15625 
Q 24.75 6.390625 31.78125 6.390625 
Q 38.8125 6.390625 42.859375 10.171875 
Q 46.921875 13.96875 46.921875 20.515625 
Q 46.921875 27.09375 42.890625 30.859375 
Q 38.875 34.625 31.78125 34.625 
z
M 21.921875 38.8125 
Q 15.578125 40.375 12.03125 44.71875 
Q 8.5 49.078125 8.5 55.328125 
Q 8.5 64.0625 14.71875 69.140625 
Q 20.953125 74.21875 31.78125 74.21875 
Q 42.671875 74.21875 48.875 69.140625 
Q 55.078125 64.0625 55.078125 55.328125 
Q 55.078125 49.078125 51.53125 44.71875 
Q 48 40.375 41.703125 38.8125 
Q 48.828125 37.15625 52.796875 32.3125 
Q 56.78125 27.484375 56.78125 20.515625 
Q 56.78125 9.90625 50.3125 4.234375 
Q 43.84375 -1.421875 31.78125 -1.421875 
Q 19.734375 -1.421875 13.25 4.234375 
Q 6.78125 9.90625 6.78125 20.515625 
Q 6.78125 27.484375 10.78125 32.3125 
Q 14.796875 37.15625 21.921875 38.8125 
z
M 18.3125 54.390625 
Q 18.3125 48.734375 21.84375 45.5625 
Q 25.390625 42.390625 31.78125 42.390625 
Q 38.140625 42.390625 41.71875 45.5625 
Q 45.3125 48.734375 45.3125 54.390625 
Q 45.3125 60.0625 41.71875 63.234375 
Q 38.140625 66.40625 31.78125 66.40625 
Q 25.390625 66.40625 21.84375 63.234375 
Q 18.3125 60.0625 18.3125 54.390625 
z
" id="DejaVuSans-38"/>
      </defs>
      <g transform="translate(324.09278 254.356562)scale(0.1 -0.1)">
       <use xlink:href="#DejaVuSans-32"/>
       <use x="63.623047" xlink:href="#DejaVuSans-30"/>
       <use x="127.246094" xlink:href="#DejaVuSans-31"/>
       <use x="190.869141" xlink:href="#DejaVuSans-38"/>
      </g>
     </g>
    </g>
    <g id="xtick_10">
     <g id="line2d_10">
      <g>
       <use style="stroke:#000000;stroke-width:0.8;" x="368.750154" xlink:href="#m9345b701b2" y="239.758125"/>
      </g>
     </g>
     <g id="text_10">
      <!-- 2019 -->
      <defs>
       <path d="M 10.984375 1.515625 
L 10.984375 10.5 
Q 14.703125 8.734375 18.5 7.8125 
Q 22.3125 6.890625 25.984375 6.890625 
Q 35.75 6.890625 40.890625 13.453125 
Q 46.046875 20.015625 46.78125 33.40625 
Q 43.953125 29.203125 39.59375 26.953125 
Q 35.25 24.703125 29.984375 24.703125 
Q 19.046875 24.703125 12.671875 31.3125 
Q 6.296875 37.9375 6.296875 49.421875 
Q 6.296875 60.640625 12.9375 67.421875 
Q 19.578125 74.21875 30.609375 74.21875 
Q 43.265625 74.21875 49.921875 64.515625 
Q 56.59375 54.828125 56.59375 36.375 
Q 56.59375 19.140625 48.40625 8.859375 
Q 40.234375 -1.421875 26.421875 -1.421875 
Q 22.703125 -1.421875 18.890625 -0.6875 
Q 15.09375 0.046875 10.984375 1.515625 
z
M 30.609375 32.421875 
Q 37.25 32.421875 41.125 36.953125 
Q 45.015625 41.5 45.015625 49.421875 
Q 45.015625 57.28125 41.125 61.84375 
Q 37.25 66.40625 30.609375 66.40625 
Q 23.96875 66.40625 20.09375 61.84375 
Q 16.21875 57.28125 16.21875 49.421875 
Q 16.21875 41.5 20.09375 36.953125 
Q 23.96875 32.421875 30.609375 32.421875 
z
" id="DejaVuSans-39"/>
      </defs>
      <g transform="translate(356.025154 254.356562)scale(0.1 -0.1)">
       <use xlink:href="#DejaVuSans-32"/>
       <use x="63.623047" xlink:href="#DejaVuSans-30"/>
       <use x="127.246094" xlink:href="#DejaVuSans-31"/>
       <use x="190.869141" xlink:href="#DejaVuSans-39"/>
      </g>
     </g>
    </g>
    <g id="xtick_11">
     <g id="line2d_11">
      <g>
       <use style="stroke:#000000;stroke-width:0.8;" x="400.682527" xlink:href="#m9345b701b2" y="239.758125"/>
      </g>
     </g>
     <g id="text_11">
      <!-- 2020 -->
      <g transform="translate(387.957527 254.356562)scale(0.1 -0.1)">
       <use xlink:href="#DejaVuSans-32"/>
       <use x="63.623047" xlink:href="#DejaVuSans-30"/>
       <use x="127.246094" xlink:href="#DejaVuSans-32"/>
       <use x="190.869141" xlink:href="#DejaVuSans-30"/>
      </g>
     </g>
    </g>
    <g id="text_12">
     <!-- date -->
     <defs>
      <path d="M 45.40625 46.390625 
L 45.40625 75.984375 
L 54.390625 75.984375 
L 54.390625 0 
L 45.40625 0 
L 45.40625 8.203125 
Q 42.578125 3.328125 38.25 0.953125 
Q 33.9375 -1.421875 27.875 -1.421875 
Q 17.96875 -1.421875 11.734375 6.484375 
Q 5.515625 14.40625 5.515625 27.296875 
Q 5.515625 40.1875 11.734375 48.09375 
Q 17.96875 56 27.875 56 
Q 33.9375 56 38.25 53.625 
Q 42.578125 51.265625 45.40625 46.390625 
z
M 14.796875 27.296875 
Q 14.796875 17.390625 18.875 11.75 
Q 22.953125 6.109375 30.078125 6.109375 
Q 37.203125 6.109375 41.296875 11.75 
Q 45.40625 17.390625 45.40625 27.296875 
Q 45.40625 37.203125 41.296875 42.84375 
Q 37.203125 48.484375 30.078125 48.484375 
Q 22.953125 48.484375 18.875 42.84375 
Q 14.796875 37.203125 14.796875 27.296875 
z
" id="DejaVuSans-64"/>
      <path d="M 34.28125 27.484375 
Q 23.390625 27.484375 19.1875 25 
Q 14.984375 22.515625 14.984375 16.5 
Q 14.984375 11.71875 18.140625 8.90625 
Q 21.296875 6.109375 26.703125 6.109375 
Q 34.1875 6.109375 38.703125 11.40625 
Q 43.21875 16.703125 43.21875 25.484375 
L 43.21875 27.484375 
z
M 52.203125 31.203125 
L 52.203125 0 
L 43.21875 0 
L 43.21875 8.296875 
Q 40.140625 3.328125 35.546875 0.953125 
Q 30.953125 -1.421875 24.3125 -1.421875 
Q 15.921875 -1.421875 10.953125 3.296875 
Q 6 8.015625 6 15.921875 
Q 6 25.140625 12.171875 29.828125 
Q 18.359375 34.515625 30.609375 34.515625 
L 43.21875 34.515625 
L 43.21875 35.40625 
Q 43.21875 41.609375 39.140625 45 
Q 35.0625 48.390625 27.6875 48.390625 
Q 23 48.390625 18.546875 47.265625 
Q 14.109375 46.140625 10.015625 43.890625 
L 10.015625 52.203125 
Q 14.9375 54.109375 19.578125 55.046875 
Q 24.21875 56 28.609375 56 
Q 40.484375 56 46.34375 49.84375 
Q 52.203125 43.703125 52.203125 31.203125 
z
" id="DejaVuSans-61"/>
      <path d="M 18.3125 70.21875 
L 18.3125 54.6875 
L 36.8125 54.6875 
L 36.8125 47.703125 
L 18.3125 47.703125 
L 18.3125 18.015625 
Q 18.3125 11.328125 20.140625 9.421875 
Q 21.96875 7.515625 27.59375 7.515625 
L 36.8125 7.515625 
L 36.8125 0 
L 27.59375 0 
Q 17.1875 0 13.234375 3.875 
Q 9.28125 7.765625 9.28125 18.015625 
L 9.28125 47.703125 
L 2.6875 47.703125 
L 2.6875 54.6875 
L 9.28125 54.6875 
L 9.28125 70.21875 
z
" id="DejaVuSans-74"/>
      <path d="M 56.203125 29.59375 
L 56.203125 25.203125 
L 14.890625 25.203125 
Q 15.484375 15.921875 20.484375 11.0625 
Q 25.484375 6.203125 34.421875 6.203125 
Q 39.59375 6.203125 44.453125 7.46875 
Q 49.3125 8.734375 54.109375 11.28125 
L 54.109375 2.78125 
Q 49.265625 0.734375 44.1875 -0.34375 
Q 39.109375 -1.421875 33.890625 -1.421875 
Q 20.796875 -1.421875 13.15625 6.1875 
Q 5.515625 13.8125 5.515625 26.8125 
Q 5.515625 40.234375 12.765625 48.109375 
Q 20.015625 56 32.328125 56 
Q 43.359375 56 49.78125 48.890625 
Q 56.203125 41.796875 56.203125 29.59375 
z
M 47.21875 32.234375 
Q 47.125 39.59375 43.09375 43.984375 
Q 39.0625 48.390625 32.421875 48.390625 
Q 24.90625 48.390625 20.390625 44.140625 
Q 15.875 39.890625 15.1875 32.171875 
z
" id="DejaVuSans-65"/>
     </defs>
     <g transform="translate(222.178125 268.034687)scale(0.1 -0.1)">
      <use xlink:href="#DejaVuSans-64"/>
      <use x="63.476562" xlink:href="#DejaVuSans-61"/>
      <use x="124.755859" xlink:href="#DejaVuSans-74"/>
      <use x="163.964844" xlink:href="#DejaVuSans-65"/>
     </g>
    </g>
   </g>
   <g id="matplotlib.axis_2">
    <g id="ytick_1">
     <g id="line2d_12">
      <defs>
       <path d="M 0 0 
L -3.5 0 
" id="m4ffe47153b" style="stroke:#000000;stroke-width:0.8;"/>
      </defs>
      <g>
       <use style="stroke:#000000;stroke-width:0.8;" x="66.053125" xlink:href="#m4ffe47153b" y="218.739861"/>
      </g>
     </g>
     <g id="text_13">
      <!-- 200000 -->
      <g transform="translate(20.878125 222.539079)scale(0.1 -0.1)">
       <use xlink:href="#DejaVuSans-32"/>
       <use x="63.623047" xlink:href="#DejaVuSans-30"/>
       <use x="127.246094" xlink:href="#DejaVuSans-30"/>
       <use x="190.869141" xlink:href="#DejaVuSans-30"/>
       <use x="254.492188" xlink:href="#DejaVuSans-30"/>
       <use x="318.115234" xlink:href="#DejaVuSans-30"/>
      </g>
     </g>
    </g>
    <g id="ytick_2">
     <g id="line2d_13">
      <g>
       <use style="stroke:#000000;stroke-width:0.8;" x="66.053125" xlink:href="#m4ffe47153b" y="188.936253"/>
      </g>
     </g>
     <g id="text_14">
      <!-- 300000 -->
      <g transform="translate(20.878125 192.735472)scale(0.1 -0.1)">
       <use xlink:href="#DejaVuSans-33"/>
       <use x="63.623047" xlink:href="#DejaVuSans-30"/>
       <use x="127.246094" xlink:href="#DejaVuSans-30"/>
       <use x="190.869141" xlink:href="#DejaVuSans-30"/>
       <use x="254.492188" xlink:href="#DejaVuSans-30"/>
       <use x="318.115234" xlink:href="#DejaVuSans-30"/>
      </g>
     </g>
    </g>
    <g id="ytick_3">
     <g id="line2d_14">
      <g>
       <use style="stroke:#000000;stroke-width:0.8;" x="66.053125" xlink:href="#m4ffe47153b" y="159.132645"/>
      </g>
     </g>
     <g id="text_15">
      <!-- 400000 -->
      <g transform="translate(20.878125 162.931864)scale(0.1 -0.1)">
       <use xlink:href="#DejaVuSans-34"/>
       <use x="63.623047" xlink:href="#DejaVuSans-30"/>
       <use x="127.246094" xlink:href="#DejaVuSans-30"/>
       <use x="190.869141" xlink:href="#DejaVuSans-30"/>
       <use x="254.492188" xlink:href="#DejaVuSans-30"/>
       <use x="318.115234" xlink:href="#DejaVuSans-30"/>
      </g>
     </g>
    </g>
    <g id="ytick_4">
     <g id="line2d_15">
      <g>
       <use style="stroke:#000000;stroke-width:0.8;" x="66.053125" xlink:href="#m4ffe47153b" y="129.329037"/>
      </g>
     </g>
     <g id="text_16">
      <!-- 500000 -->
      <g transform="translate(20.878125 133.128256)scale(0.1 -0.1)">
       <use xlink:href="#DejaVuSans-35"/>
       <use x="63.623047" xlink:href="#DejaVuSans-30"/>
       <use x="127.246094" xlink:href="#DejaVuSans-30"/>
       <use x="190.869141" xlink:href="#DejaVuSans-30"/>
       <use x="254.492188" xlink:href="#DejaVuSans-30"/>
       <use x="318.115234" xlink:href="#DejaVuSans-30"/>
      </g>
     </g>
    </g>
    <g id="ytick_5">
     <g id="line2d_16">
      <g>
       <use style="stroke:#000000;stroke-width:0.8;" x="66.053125" xlink:href="#m4ffe47153b" y="99.525429"/>
      </g>
     </g>
     <g id="text_17">
      <!-- 600000 -->
      <g transform="translate(20.878125 103.324648)scale(0.1 -0.1)">
       <use xlink:href="#DejaVuSans-36"/>
       <use x="63.623047" xlink:href="#DejaVuSans-30"/>
       <use x="127.246094" xlink:href="#DejaVuSans-30"/>
       <use x="190.869141" xlink:href="#DejaVuSans-30"/>
       <use x="254.492188" xlink:href="#DejaVuSans-30"/>
       <use x="318.115234" xlink:href="#DejaVuSans-30"/>
      </g>
     </g>
    </g>
    <g id="ytick_6">
     <g id="line2d_17">
      <g>
       <use style="stroke:#000000;stroke-width:0.8;" x="66.053125" xlink:href="#m4ffe47153b" y="69.721821"/>
      </g>
     </g>
     <g id="text_18">
      <!-- 700000 -->
      <g transform="translate(20.878125 73.52104)scale(0.1 -0.1)">
       <use xlink:href="#DejaVuSans-37"/>
       <use x="63.623047" xlink:href="#DejaVuSans-30"/>
       <use x="127.246094" xlink:href="#DejaVuSans-30"/>
       <use x="190.869141" xlink:href="#DejaVuSans-30"/>
       <use x="254.492188" xlink:href="#DejaVuSans-30"/>
       <use x="318.115234" xlink:href="#DejaVuSans-30"/>
      </g>
     </g>
    </g>
    <g id="ytick_7">
     <g id="line2d_18">
      <g>
       <use style="stroke:#000000;stroke-width:0.8;" x="66.053125" xlink:href="#m4ffe47153b" y="39.918213"/>
      </g>
     </g>
     <g id="text_19">
      <!-- 800000 -->
      <g transform="translate(20.878125 43.717432)scale(0.1 -0.1)">
       <use xlink:href="#DejaVuSans-38"/>
       <use x="63.623047" xlink:href="#DejaVuSans-30"/>
       <use x="127.246094" xlink:href="#DejaVuSans-30"/>
       <use x="190.869141" xlink:href="#DejaVuSans-30"/>
       <use x="254.492188" xlink:href="#DejaVuSans-30"/>
       <use x="318.115234" xlink:href="#DejaVuSans-30"/>
      </g>
     </g>
    </g>
    <g id="text_20">
     <!-- initial claim -->
     <defs>
      <path d="M 9.421875 54.6875 
L 18.40625 54.6875 
L 18.40625 0 
L 9.421875 0 
z
M 9.421875 75.984375 
L 18.40625 75.984375 
L 18.40625 64.59375 
L 9.421875 64.59375 
z
" id="DejaVuSans-69"/>
      <path d="M 54.890625 33.015625 
L 54.890625 0 
L 45.90625 0 
L 45.90625 32.71875 
Q 45.90625 40.484375 42.875 44.328125 
Q 39.84375 48.1875 33.796875 48.1875 
Q 26.515625 48.1875 22.3125 43.546875 
Q 18.109375 38.921875 18.109375 30.90625 
L 18.109375 0 
L 9.078125 0 
L 9.078125 54.6875 
L 18.109375 54.6875 
L 18.109375 46.1875 
Q 21.34375 51.125 25.703125 53.5625 
Q 30.078125 56 35.796875 56 
Q 45.21875 56 50.046875 50.171875 
Q 54.890625 44.34375 54.890625 33.015625 
z
" id="DejaVuSans-6e"/>
      <path d="M 9.421875 75.984375 
L 18.40625 75.984375 
L 18.40625 0 
L 9.421875 0 
z
" id="DejaVuSans-6c"/>
      <path id="DejaVuSans-20"/>
      <path d="M 48.78125 52.59375 
L 48.78125 44.1875 
Q 44.96875 46.296875 41.140625 47.34375 
Q 37.3125 48.390625 33.40625 48.390625 
Q 24.65625 48.390625 19.8125 42.84375 
Q 14.984375 37.3125 14.984375 27.296875 
Q 14.984375 17.28125 19.8125 11.734375 
Q 24.65625 6.203125 33.40625 6.203125 
Q 37.3125 6.203125 41.140625 7.25 
Q 44.96875 8.296875 48.78125 10.40625 
L 48.78125 2.09375 
Q 45.015625 0.34375 40.984375 -0.53125 
Q 36.96875 -1.421875 32.421875 -1.421875 
Q 20.0625 -1.421875 12.78125 6.34375 
Q 5.515625 14.109375 5.515625 27.296875 
Q 5.515625 40.671875 12.859375 48.328125 
Q 20.21875 56 33.015625 56 
Q 37.15625 56 41.109375 55.140625 
Q 45.0625 54.296875 48.78125 52.59375 
z
" id="DejaVuSans-63"/>
      <path d="M 52 44.1875 
Q 55.375 50.25 60.0625 53.125 
Q 64.75 56 71.09375 56 
Q 79.640625 56 84.28125 50.015625 
Q 88.921875 44.046875 88.921875 33.015625 
L 88.921875 0 
L 79.890625 0 
L 79.890625 32.71875 
Q 79.890625 40.578125 77.09375 44.375 
Q 74.3125 48.1875 68.609375 48.1875 
Q 61.625 48.1875 57.5625 43.546875 
Q 53.515625 38.921875 53.515625 30.90625 
L 53.515625 0 
L 44.484375 0 
L 44.484375 32.71875 
Q 44.484375 40.625 41.703125 44.40625 
Q 38.921875 48.1875 33.109375 48.1875 
Q 26.21875 48.1875 22.15625 43.53125 
Q 18.109375 38.875 18.109375 30.90625 
L 18.109375 0 
L 9.078125 0 
L 9.078125 54.6875 
L 18.109375 54.6875 
L 18.109375 46.1875 
Q 21.1875 51.21875 25.484375 53.609375 
Q 29.78125 56 35.6875 56 
Q 41.65625 56 45.828125 52.96875 
Q 50 49.953125 52 44.1875 
z
" id="DejaVuSans-6d"/>
     </defs>
     <g transform="translate(14.798438 159.838125)rotate(-90)scale(0.1 -0.1)">
      <use xlink:href="#DejaVuSans-69"/>
      <use x="27.783203" xlink:href="#DejaVuSans-6e"/>
      <use x="91.162109" xlink:href="#DejaVuSans-69"/>
      <use x="118.945312" xlink:href="#DejaVuSans-74"/>
      <use x="158.154297" xlink:href="#DejaVuSans-69"/>
      <use x="185.9375" xlink:href="#DejaVuSans-61"/>
      <use x="247.216797" xlink:href="#DejaVuSans-6c"/>
      <use x="275" xlink:href="#DejaVuSans-20"/>
      <use x="306.787109" xlink:href="#DejaVuSans-63"/>
      <use x="361.767578" xlink:href="#DejaVuSans-6c"/>
      <use x="389.550781" xlink:href="#DejaVuSans-61"/>
      <use x="450.830078" xlink:href="#DejaVuSans-69"/>
      <use x="478.613281" xlink:href="#DejaVuSans-6d"/>
     </g>
    </g>
   </g>
   <g id="line2d_19">
    <path clip-path="url(#pc944c8e0e4)" d="M 81.271307 84.261511 
L 81.883709 32.201761 
L 83.108512 127.048763 
L 83.720914 117.819778 
L 85.558119 141.798867 
L 86.17052 136.880675 
L 86.782922 140.452042 
L 88.007725 155.238208 
L 88.620127 155.344606 
L 89.232529 152.835143 
L 89.84493 125.115999 
L 90.457332 148.160745 
L 91.069734 150.431184 
L 91.682135 159.326368 
L 92.294537 154.862682 
L 92.906939 154.789663 
L 93.51934 155.920412 
L 94.131742 153.50781 
L 94.744144 159.471214 
L 95.356546 144.736012 
L 95.968947 151.061828 
L 96.581349 145.806856 
L 97.193751 138.161038 
L 97.806152 124.563142 
L 98.418554 128.713593 
L 99.030956 155.055809 
L 99.643357 158.494848 
L 100.255759 151.541368 
L 101.480562 163.616598 
L 102.092964 164.159023 
L 102.705366 164.538125 
L 103.317767 176.481027 
L 103.930169 164.395664 
L 104.542571 167.313437 
L 105.154972 166.976657 
L 105.767374 140.455618 
L 106.379776 160.916093 
L 107.604579 152.844978 
L 108.216981 143.438959 
L 108.829383 156.286997 
L 109.441784 139.81484 
L 110.054186 155.281423 
L 110.666588 103.784067 
L 111.278989 131.780086 
L 111.891391 130.655894 
L 112.503793 121.66653 
L 113.116194 105.812798 
L 113.728596 47.816468 
L 114.340998 114.52022 
L 114.953399 133.516444 
L 116.790604 151.860565 
L 117.403006 164.799801 
L 118.015408 172.902806 
L 118.627809 156.95728 
L 119.240211 167.560807 
L 119.852613 172.706102 
L 120.465015 171.811994 
L 121.077416 172.896845 
L 121.689818 144.81827 
L 122.30222 164.546768 
L 122.914621 162.748717 
L 123.527023 154.371817 
L 124.139425 159.807101 
L 124.751826 170.585277 
L 125.364228 166.097152 
L 125.97663 164.647207 
L 126.589031 169.022674 
L 127.201433 158.951439 
L 127.813835 160.835623 
L 128.426236 157.155772 
L 129.038638 151.491 
L 129.65104 137.089002 
L 130.263441 138.244488 
L 130.875843 168.31007 
L 131.488245 176.686076 
L 132.100646 172.720706 
L 132.713048 175.222421 
L 133.32545 175.563374 
L 133.937852 177.980149 
L 134.550253 174.457064 
L 135.162655 180.332547 
L 135.775057 172.895951 
L 136.387458 180.569486 
L 136.99986 179.281672 
L 137.612262 157.372444 
L 138.224663 171.7807 
L 138.837065 165.940981 
L 139.449467 168.178934 
L 140.061868 158.378018 
L 140.67427 170.155211 
L 141.286672 147.16441 
L 141.899073 167.286912 
L 142.511475 120.747684 
L 143.123877 148.444177 
L 143.736278 152.84319 
L 144.34868 130.017798 
L 144.961082 117.390606 
L 145.573484 85.7505 
L 146.798287 154.101796 
L 147.410689 152.490315 
L 148.02309 158.725826 
L 148.635492 169.559735 
L 149.247894 175.030187 
L 149.860295 178.730901 
L 150.472697 168.54075 
L 151.085099 176.98441 
L 151.6975 183.125145 
L 152.309902 181.970256 
L 152.922304 184.227283 
L 153.534705 162.093931 
L 154.147107 167.930074 
L 154.759509 167.885369 
L 155.37191 178.959197 
L 155.984312 176.692931 
L 156.596714 181.457335 
L 157.209115 179.867909 
L 157.821517 175.149104 
L 158.433919 181.668643 
L 159.046321 166.103709 
L 159.658722 169.69862 
L 160.271124 167.918451 
L 160.883526 168.125586 
L 161.495927 146.557907 
L 162.108329 142.663171 
L 162.720731 176.782342 
L 163.333132 185.082348 
L 163.945534 182.910261 
L 164.557936 183.666975 
L 165.170337 185.402439 
L 165.782739 185.198284 
L 166.395141 186.093883 
L 167.007542 189.017021 
L 167.619944 179.859862 
L 168.232346 187.83799 
L 168.844747 188.624507 
L 170.069551 170.24045 
L 170.681953 175.456975 
L 171.294354 177.03746 
L 171.906756 170.510768 
L 172.519158 135.721613 
L 173.131559 158.048986 
L 173.743961 171.392359 
L 174.356363 129.280457 
L 174.968764 150.432674 
L 175.581166 158.706155 
L 176.193568 141.970535 
L 176.805969 132.271845 
L 177.418371 112.214613 
L 178.030773 112.028937 
L 178.643174 147.998017 
L 179.255576 168.202777 
L 179.867978 162.498068 
L 180.480379 170.529843 
L 181.092781 173.710484 
L 181.705183 185.803298 
L 182.317584 178.268349 
L 183.542388 188.497842 
L 184.15479 184.128037 
L 184.767191 183.72241 
L 185.379593 171.967569 
L 185.991995 171.228439 
L 186.604396 181.108633 
L 187.216798 188.452838 
L 187.8292 188.458799 
L 188.441601 182.900128 
L 189.054003 187.935746 
L 189.666405 183.122165 
L 190.278806 190.543263 
L 190.891208 179.111792 
L 191.50361 177.917859 
L 192.116011 177.938424 
L 192.728413 178.378623 
L 193.340815 163.957551 
L 193.953216 155.861997 
L 195.17802 194.392697 
L 195.790422 192.256077 
L 196.402823 194.075587 
L 197.627627 194.955688 
L 198.240028 198.068376 
L 198.85243 209.903687 
L 199.464832 196.999321 
L 200.077233 202.321947 
L 200.689635 203.18357 
L 201.302037 178.22573 
L 201.914438 170.768868 
L 202.52684 185.348793 
L 203.139242 181.388191 
L 203.751643 179.438737 
L 204.364045 169.812172 
L 204.976447 180.873483 
L 205.588848 168.31305 
L 206.20125 182.410455 
L 206.813652 140.233283 
L 207.426053 154.777444 
L 208.038455 153.68693 
L 209.263259 132.745425 
L 209.87566 118.907908 
L 210.488062 154.329496 
L 211.100464 171.707979 
L 211.712865 171.727054 
L 212.325267 170.953352 
L 212.937669 182.152654 
L 213.55007 185.161626 
L 214.162472 183.621674 
L 215.999677 196.663732 
L 216.612079 190.467562 
L 217.22448 189.186007 
L 217.836882 183.335261 
L 218.449284 189.180046 
L 219.061685 183.533753 
L 219.674087 192.289755 
L 220.286489 197.657385 
L 220.898891 192.692104 
L 222.123694 199.625913 
L 222.736096 184.951212 
L 223.348497 188.5801 
L 223.960899 187.437429 
L 224.573301 187.210326 
L 225.185702 182.155038 
L 225.798104 167.907125 
L 226.410506 192.796118 
L 227.022907 201.565532 
L 227.635309 204.470787 
L 228.247711 198.03589 
L 228.860112 203.998102 
L 229.472514 204.134305 
L 230.084916 203.903625 
L 230.697317 208.381617 
L 231.309719 206.12757 
L 231.922121 206.883986 
L 232.534522 210.522708 
L 233.146924 201.589375 
L 233.759326 196.757912 
L 234.371728 202.000366 
L 234.984129 197.480649 
L 235.596531 198.794988 
L 236.208933 186.153192 
L 236.821334 193.074484 
L 237.433736 171.887993 
L 238.046138 190.608533 
L 238.658539 162.3264 
L 239.270941 180.642803 
L 239.883343 176.768334 
L 241.108146 147.40731 
L 241.720548 120.481836 
L 242.332949 164.038915 
L 242.945351 194.335176 
L 243.557753 186.956399 
L 244.170154 181.736297 
L 244.782556 195.521658 
L 245.394958 194.706529 
L 246.007359 184.297023 
L 246.619761 195.515399 
L 247.232163 200.785571 
L 247.844565 204.424592 
L 248.456966 206.893523 
L 249.069368 202.785095 
L 249.68177 186.500404 
L 250.906573 203.605589 
L 251.518975 207.885089 
L 252.131376 205.959478 
L 252.743778 205.741911 
L 253.35618 202.80864 
L 253.968581 209.597306 
L 254.580983 196.20267 
L 255.193385 201.226069 
L 255.805786 199.904279 
L 256.418188 196.49266 
L 257.03059 187.867794 
L 257.642991 175.68229 
L 258.255393 199.978788 
L 258.867795 209.705195 
L 259.480197 211.555999 
L 260.092598 207.019294 
L 260.705 210.022007 
L 261.317402 210.797497 
L 261.929803 209.775234 
L 262.542205 209.051602 
L 263.154607 219.066806 
L 263.767008 212.975247 
L 264.37941 214.234747 
L 264.991812 210.640432 
L 265.604213 201.894265 
L 266.216615 208.946395 
L 267.441418 201.322632 
L 268.05382 191.58937 
L 268.666222 199.422354 
L 269.278623 187.319705 
L 269.891025 200.074457 
L 270.503427 163.754887 
L 271.115828 184.979526 
L 271.72823 183.082526 
L 272.340632 175.065058 
L 272.953034 157.532787 
L 273.565435 128.46354 
L 274.177837 165.466806 
L 274.790239 190.147471 
L 275.40264 185.377702 
L 276.015042 191.679377 
L 276.627444 201.340514 
L 277.239845 204.174838 
L 277.852247 199.128491 
L 278.464649 204.544998 
L 279.07705 207.745906 
L 279.689452 209.535911 
L 280.301854 208.095204 
L 280.914255 205.317806 
L 281.526657 197.752458 
L 282.139059 206.103131 
L 282.75146 205.316316 
L 283.363862 205.807479 
L 283.976264 200.291725 
L 284.588666 205.36728 
L 285.201067 206.580585 
L 285.813469 204.809654 
L 286.425871 209.113295 
L 287.038272 198.986924 
L 287.650674 204.443666 
L 288.263076 199.766288 
L 288.875477 198.641202 
L 289.487879 189.331747 
L 290.100281 198.31664 
L 290.712682 209.225059 
L 291.325084 213.016972 
L 291.937486 209.339207 
L 292.549887 212.907295 
L 293.162289 213.669969 
L 293.774691 214.064271 
L 294.387092 213.460152 
L 294.999494 220.739385 
L 295.611896 217.056255 
L 296.224297 219.200326 
L 296.836699 218.603956 
L 297.449101 207.241331 
L 298.061503 208.716013 
L 298.673904 207.618942 
L 299.286306 205.104412 
L 299.898708 201.272562 
L 300.511109 211.655543 
L 301.123511 192.574081 
L 301.735913 203.905413 
L 302.348314 173.563552 
L 302.960716 187.366199 
L 303.573118 184.445445 
L 304.185519 176.05722 
L 304.797921 173.867251 
L 305.410323 154.738997 
L 306.635126 193.695889 
L 307.247528 194.604005 
L 307.859929 200.943232 
L 308.472331 205.064177 
L 309.084733 207.020486 
L 309.697135 214.916356 
L 310.309536 205.638493 
L 310.921938 212.115413 
L 311.53434 211.380456 
L 312.146741 210.314679 
L 312.759143 216.252154 
L 313.371545 206.87117 
L 313.983946 211.031456 
L 314.596348 206.338281 
L 315.20875 215.474875 
L 315.821151 214.257398 
L 316.433553 216.681922 
L 317.045955 215.597368 
L 317.658356 209.161577 
L 318.270758 214.955995 
L 318.88316 208.412315 
L 319.495561 210.131685 
L 320.107963 206.927201 
L 320.720365 202.977925 
L 321.332766 193.606776 
L 321.945168 201.524403 
L 322.55757 212.643533 
L 323.169972 219.104657 
L 323.782373 215.186079 
L 324.394775 219.252483 
L 325.007177 220.191296 
L 325.619578 219.864351 
L 326.23198 203.651188 
L 326.844382 215.186377 
L 328.069185 214.869266 
L 328.681587 217.49407 
L 329.293988 210.024988 
L 329.90639 217.073243 
L 330.518792 213.970091 
L 331.131193 213.978138 
L 331.743595 206.189263 
L 332.355997 207.815646 
L 332.968398 196.385963 
L 333.5808 211.333366 
L 334.193202 181.171817 
L 334.805604 194.28451 
L 335.418005 192.667963 
L 336.030407 181.431704 
L 336.642809 173.587395 
L 337.25521 157.961363 
L 337.867612 172.631295 
L 338.480014 200.728944 
L 339.092415 198.414694 
L 339.704817 205.798538 
L 340.317219 208.829565 
L 340.92962 214.981924 
L 341.542022 219.844382 
L 342.154424 211.022813 
L 342.766825 217.194544 
L 343.379227 219.142507 
L 343.991629 220.100992 
L 344.60403 218.424837 
L 345.216432 209.274533 
L 345.828834 210.964099 
L 346.441235 218.698434 
L 347.053637 222.777952 
L 347.666039 221.642136 
L 348.278441 220.166261 
L 348.890842 216.640793 
L 349.503244 217.89165 
L 350.115646 221.266313 
L 350.728047 213.587115 
L 351.340449 216.944789 
L 351.952851 211.954771 
L 352.565252 209.340101 
L 353.177654 199.406558 
L 354.402457 218.35599 
L 355.014859 224.736347 
L 355.627261 223.158544 
L 356.239662 224.689257 
L 356.852064 226.688185 
L 357.464466 225.968726 
L 358.076867 226.605927 
L 358.689269 229.874489 
L 359.301671 226.60086 
L 359.914073 226.807697 
L 360.526474 227.13971 
L 361.138876 220.547152 
L 361.751278 221.570905 
L 362.363679 219.117472 
L 362.976081 219.177974 
L 363.588483 214.324754 
L 364.200884 208.016225 
L 365.425688 213.179104 
L 366.038089 183.590678 
L 366.650491 200.403191 
L 367.262893 202.289759 
L 368.487696 180.739963 
L 369.100098 173.751613 
L 369.712499 175.679906 
L 370.324901 197.949758 
L 370.937303 203.593369 
L 371.549704 202.545772 
L 372.162106 205.97885 
L 372.774508 215.54551 
L 373.38691 217.818631 
L 373.999311 212.605384 
L 374.611713 215.949647 
L 375.224115 220.414227 
L 375.836516 221.697869 
L 376.448918 223.567747 
L 377.06132 219.901307 
L 377.673721 219.813685 
L 378.286123 215.224823 
L 378.898525 217.313162 
L 379.510926 217.537881 
L 380.123328 222.237612 
L 380.73573 221.144714 
L 381.348131 219.009881 
L 381.960533 221.846291 
L 382.572935 212.723704 
L 383.185336 216.975785 
L 383.797738 211.044867 
L 384.41014 211.418604 
L 385.022541 209.204792 
L 385.634943 205.739825 
L 385.634943 205.739825 
" style="fill:none;stroke:#1f77b4;stroke-linecap:square;stroke-width:1.5;"/>
   </g>
   <g id="line2d_20">
    <path clip-path="url(#pc944c8e0e4)" d="M 81.271307 139.413377 
L 95.356546 145.048559 
L 110.054186 150.685231 
L 124.751826 156.08368 
L 140.061868 161.464256 
L 155.37191 166.608144 
L 171.294354 171.717824 
L 187.216798 176.593741 
L 203.751643 181.421376 
L 220.286489 186.020054 
L 237.433736 190.558668 
L 255.193385 195.024254 
L 272.953034 199.262765 
L 291.325084 203.420625 
L 310.309536 207.487583 
L 329.90639 211.454346 
L 350.115646 215.312641 
L 370.937303 219.055192 
L 385.634943 221.562416 
L 385.634943 221.562416 
" style="fill:none;stroke:#ff7f0e;stroke-linecap:square;stroke-width:2;"/>
   </g>
   <g id="line2d_21">
    <path clip-path="url(#pc944c8e0e4)" d="M 325.007177 239.758125 
L 325.007177 22.318125 
" style="fill:none;stroke:#808080;stroke-dasharray:5.55,2.4;stroke-dashoffset:0;stroke-width:1.5;"/>
   </g>
   <g id="patch_3">
    <path d="M 66.053125 239.758125 
L 66.053125 22.318125 
" style="fill:none;stroke:#000000;stroke-linecap:square;stroke-linejoin:miter;stroke-width:0.8;"/>
   </g>
   <g id="patch_4">
    <path d="M 400.853125 239.758125 
L 400.853125 22.318125 
" style="fill:none;stroke:#000000;stroke-linecap:square;stroke-linejoin:miter;stroke-width:0.8;"/>
   </g>
   <g id="patch_5">
    <path d="M 66.053125 239.758125 
L 400.853125 239.758125 
" style="fill:none;stroke:#000000;stroke-linecap:square;stroke-linejoin:miter;stroke-width:0.8;"/>
   </g>
   <g id="patch_6">
    <path d="M 66.053125 22.318125 
L 400.853125 22.318125 
" style="fill:none;stroke:#000000;stroke-linecap:square;stroke-linejoin:miter;stroke-width:0.8;"/>
   </g>
   <g id="text_21">
    <!-- Regression Fit -->
    <defs>
     <path d="M 44.390625 34.1875 
Q 47.5625 33.109375 50.5625 29.59375 
Q 53.5625 26.078125 56.59375 19.921875 
L 66.609375 0 
L 56 0 
L 46.6875 18.703125 
Q 43.0625 26.03125 39.671875 28.421875 
Q 36.28125 30.8125 30.421875 30.8125 
L 19.671875 30.8125 
L 19.671875 0 
L 9.8125 0 
L 9.8125 72.90625 
L 32.078125 72.90625 
Q 44.578125 72.90625 50.734375 67.671875 
Q 56.890625 62.453125 56.890625 51.90625 
Q 56.890625 45.015625 53.6875 40.46875 
Q 50.484375 35.9375 44.390625 34.1875 
z
M 19.671875 64.796875 
L 19.671875 38.921875 
L 32.078125 38.921875 
Q 39.203125 38.921875 42.84375 42.21875 
Q 46.484375 45.515625 46.484375 51.90625 
Q 46.484375 58.296875 42.84375 61.546875 
Q 39.203125 64.796875 32.078125 64.796875 
z
" id="DejaVuSans-52"/>
     <path d="M 45.40625 27.984375 
Q 45.40625 37.75 41.375 43.109375 
Q 37.359375 48.484375 30.078125 48.484375 
Q 22.859375 48.484375 18.828125 43.109375 
Q 14.796875 37.75 14.796875 27.984375 
Q 14.796875 18.265625 18.828125 12.890625 
Q 22.859375 7.515625 30.078125 7.515625 
Q 37.359375 7.515625 41.375 12.890625 
Q 45.40625 18.265625 45.40625 27.984375 
z
M 54.390625 6.78125 
Q 54.390625 -7.171875 48.1875 -13.984375 
Q 42 -20.796875 29.203125 -20.796875 
Q 24.46875 -20.796875 20.265625 -20.09375 
Q 16.0625 -19.390625 12.109375 -17.921875 
L 12.109375 -9.1875 
Q 16.0625 -11.328125 19.921875 -12.34375 
Q 23.78125 -13.375 27.78125 -13.375 
Q 36.625 -13.375 41.015625 -8.765625 
Q 45.40625 -4.15625 45.40625 5.171875 
L 45.40625 9.625 
Q 42.625 4.78125 38.28125 2.390625 
Q 33.9375 0 27.875 0 
Q 17.828125 0 11.671875 7.65625 
Q 5.515625 15.328125 5.515625 27.984375 
Q 5.515625 40.671875 11.671875 48.328125 
Q 17.828125 56 27.875 56 
Q 33.9375 56 38.28125 53.609375 
Q 42.625 51.21875 45.40625 46.390625 
L 45.40625 54.6875 
L 54.390625 54.6875 
z
" id="DejaVuSans-67"/>
     <path d="M 41.109375 46.296875 
Q 39.59375 47.171875 37.8125 47.578125 
Q 36.03125 48 33.890625 48 
Q 26.265625 48 22.1875 43.046875 
Q 18.109375 38.09375 18.109375 28.8125 
L 18.109375 0 
L 9.078125 0 
L 9.078125 54.6875 
L 18.109375 54.6875 
L 18.109375 46.1875 
Q 20.953125 51.171875 25.484375 53.578125 
Q 30.03125 56 36.53125 56 
Q 37.453125 56 38.578125 55.875 
Q 39.703125 55.765625 41.0625 55.515625 
z
" id="DejaVuSans-72"/>
     <path d="M 44.28125 53.078125 
L 44.28125 44.578125 
Q 40.484375 46.53125 36.375 47.5 
Q 32.28125 48.484375 27.875 48.484375 
Q 21.1875 48.484375 17.84375 46.4375 
Q 14.5 44.390625 14.5 40.28125 
Q 14.5 37.15625 16.890625 35.375 
Q 19.28125 33.59375 26.515625 31.984375 
L 29.59375 31.296875 
Q 39.15625 29.25 43.1875 25.515625 
Q 47.21875 21.78125 47.21875 15.09375 
Q 47.21875 7.46875 41.1875 3.015625 
Q 35.15625 -1.421875 24.609375 -1.421875 
Q 20.21875 -1.421875 15.453125 -0.5625 
Q 10.6875 0.296875 5.421875 2 
L 5.421875 11.28125 
Q 10.40625 8.6875 15.234375 7.390625 
Q 20.0625 6.109375 24.8125 6.109375 
Q 31.15625 6.109375 34.5625 8.28125 
Q 37.984375 10.453125 37.984375 14.40625 
Q 37.984375 18.0625 35.515625 20.015625 
Q 33.0625 21.96875 24.703125 23.78125 
L 21.578125 24.515625 
Q 13.234375 26.265625 9.515625 29.90625 
Q 5.8125 33.546875 5.8125 39.890625 
Q 5.8125 47.609375 11.28125 51.796875 
Q 16.75 56 26.8125 56 
Q 31.78125 56 36.171875 55.265625 
Q 40.578125 54.546875 44.28125 53.078125 
z
" id="DejaVuSans-73"/>
     <path d="M 30.609375 48.390625 
Q 23.390625 48.390625 19.1875 42.75 
Q 14.984375 37.109375 14.984375 27.296875 
Q 14.984375 17.484375 19.15625 11.84375 
Q 23.34375 6.203125 30.609375 6.203125 
Q 37.796875 6.203125 41.984375 11.859375 
Q 46.1875 17.53125 46.1875 27.296875 
Q 46.1875 37.015625 41.984375 42.703125 
Q 37.796875 48.390625 30.609375 48.390625 
z
M 30.609375 56 
Q 42.328125 56 49.015625 48.375 
Q 55.71875 40.765625 55.71875 27.296875 
Q 55.71875 13.875 49.015625 6.21875 
Q 42.328125 -1.421875 30.609375 -1.421875 
Q 18.84375 -1.421875 12.171875 6.21875 
Q 5.515625 13.875 5.515625 27.296875 
Q 5.515625 40.765625 12.171875 48.375 
Q 18.84375 56 30.609375 56 
z
" id="DejaVuSans-6f"/>
     <path d="M 9.8125 72.90625 
L 51.703125 72.90625 
L 51.703125 64.59375 
L 19.671875 64.59375 
L 19.671875 43.109375 
L 48.578125 43.109375 
L 48.578125 34.8125 
L 19.671875 34.8125 
L 19.671875 0 
L 9.8125 0 
z
" id="DejaVuSans-46"/>
    </defs>
    <g transform="translate(190.868125 16.318125)scale(0.12 -0.12)">
     <use xlink:href="#DejaVuSans-52"/>
     <use x="69.419922" xlink:href="#DejaVuSans-65"/>
     <use x="130.943359" xlink:href="#DejaVuSans-67"/>
     <use x="194.419922" xlink:href="#DejaVuSans-72"/>
     <use x="235.501953" xlink:href="#DejaVuSans-65"/>
     <use x="297.025391" xlink:href="#DejaVuSans-73"/>
     <use x="349.125" xlink:href="#DejaVuSans-73"/>
     <use x="401.224609" xlink:href="#DejaVuSans-69"/>
     <use x="429.007812" xlink:href="#DejaVuSans-6f"/>
     <use x="490.189453" xlink:href="#DejaVuSans-6e"/>
     <use x="553.568359" xlink:href="#DejaVuSans-20"/>
     <use x="585.355469" xlink:href="#DejaVuSans-46"/>
     <use x="642.765625" xlink:href="#DejaVuSans-69"/>
     <use x="670.548828" xlink:href="#DejaVuSans-74"/>
    </g>
   </g>
   <g id="legend_1">
    <g id="patch_7">
     <path d="M 182.303906 74.3525 
L 284.602344 74.3525 
Q 286.602344 74.3525 286.602344 72.3525 
L 286.602344 29.318125 
Q 286.602344 27.318125 284.602344 27.318125 
L 182.303906 27.318125 
Q 180.303906 27.318125 180.303906 29.318125 
L 180.303906 72.3525 
Q 180.303906 74.3525 182.303906 74.3525 
z
" style="fill:#ffffff;opacity:0.8;stroke:#cccccc;stroke-linejoin:miter;"/>
    </g>
    <g id="line2d_22">
     <path d="M 184.303906 35.416562 
L 204.303906 35.416562 
" style="fill:none;stroke:#1f77b4;stroke-linecap:square;stroke-width:1.5;"/>
    </g>
    <g id="line2d_23"/>
    <g id="text_22">
     <!-- Actual data -->
     <defs>
      <path d="M 34.1875 63.1875 
L 20.796875 26.90625 
L 47.609375 26.90625 
z
M 28.609375 72.90625 
L 39.796875 72.90625 
L 67.578125 0 
L 57.328125 0 
L 50.6875 18.703125 
L 17.828125 18.703125 
L 11.1875 0 
L 0.78125 0 
z
" id="DejaVuSans-41"/>
      <path d="M 8.5 21.578125 
L 8.5 54.6875 
L 17.484375 54.6875 
L 17.484375 21.921875 
Q 17.484375 14.15625 20.5 10.265625 
Q 23.53125 6.390625 29.59375 6.390625 
Q 36.859375 6.390625 41.078125 11.03125 
Q 45.3125 15.671875 45.3125 23.6875 
L 45.3125 54.6875 
L 54.296875 54.6875 
L 54.296875 0 
L 45.3125 0 
L 45.3125 8.40625 
Q 42.046875 3.421875 37.71875 1 
Q 33.40625 -1.421875 27.6875 -1.421875 
Q 18.265625 -1.421875 13.375 4.4375 
Q 8.5 10.296875 8.5 21.578125 
z
M 31.109375 56 
z
" id="DejaVuSans-75"/>
     </defs>
     <g transform="translate(212.303906 38.916562)scale(0.1 -0.1)">
      <use xlink:href="#DejaVuSans-41"/>
      <use x="68.392578" xlink:href="#DejaVuSans-63"/>
      <use x="123.373047" xlink:href="#DejaVuSans-74"/>
      <use x="162.582031" xlink:href="#DejaVuSans-75"/>
      <use x="225.960938" xlink:href="#DejaVuSans-61"/>
      <use x="287.240234" xlink:href="#DejaVuSans-6c"/>
      <use x="315.023438" xlink:href="#DejaVuSans-20"/>
      <use x="346.810547" xlink:href="#DejaVuSans-64"/>
      <use x="410.287109" xlink:href="#DejaVuSans-61"/>
      <use x="471.566406" xlink:href="#DejaVuSans-74"/>
      <use x="510.775391" xlink:href="#DejaVuSans-61"/>
     </g>
    </g>
    <g id="line2d_24">
     <path d="M 184.303906 50.094687 
L 204.303906 50.094687 
" style="fill:none;stroke:#ff7f0e;stroke-linecap:square;stroke-width:2;"/>
    </g>
    <g id="line2d_25"/>
    <g id="text_23">
     <!-- Fitted data -->
     <g transform="translate(212.303906 53.594687)scale(0.1 -0.1)">
      <use xlink:href="#DejaVuSans-46"/>
      <use x="57.410156" xlink:href="#DejaVuSans-69"/>
      <use x="85.193359" xlink:href="#DejaVuSans-74"/>
      <use x="124.402344" xlink:href="#DejaVuSans-74"/>
      <use x="163.611328" xlink:href="#DejaVuSans-65"/>
      <use x="225.134766" xlink:href="#DejaVuSans-64"/>
      <use x="288.611328" xlink:href="#DejaVuSans-20"/>
      <use x="320.398438" xlink:href="#DejaVuSans-64"/>
      <use x="383.875" xlink:href="#DejaVuSans-61"/>
      <use x="445.154297" xlink:href="#DejaVuSans-74"/>
      <use x="484.363281" xlink:href="#DejaVuSans-61"/>
     </g>
    </g>
    <g id="line2d_26">
     <path d="M 184.303906 64.772812 
L 204.303906 64.772812 
" style="fill:none;stroke:#808080;stroke-dasharray:5.55,2.4;stroke-dashoffset:0;stroke-width:1.5;"/>
    </g>
    <g id="line2d_27"/>
    <g id="text_24">
     <!-- train-test split -->
     <defs>
      <path d="M 4.890625 31.390625 
L 31.203125 31.390625 
L 31.203125 23.390625 
L 4.890625 23.390625 
z
" id="DejaVuSans-2d"/>
      <path d="M 18.109375 8.203125 
L 18.109375 -20.796875 
L 9.078125 -20.796875 
L 9.078125 54.6875 
L 18.109375 54.6875 
L 18.109375 46.390625 
Q 20.953125 51.265625 25.265625 53.625 
Q 29.59375 56 35.59375 56 
Q 45.5625 56 51.78125 48.09375 
Q 58.015625 40.1875 58.015625 27.296875 
Q 58.015625 14.40625 51.78125 6.484375 
Q 45.5625 -1.421875 35.59375 -1.421875 
Q 29.59375 -1.421875 25.265625 0.953125 
Q 20.953125 3.328125 18.109375 8.203125 
z
M 48.6875 27.296875 
Q 48.6875 37.203125 44.609375 42.84375 
Q 40.53125 48.484375 33.40625 48.484375 
Q 26.265625 48.484375 22.1875 42.84375 
Q 18.109375 37.203125 18.109375 27.296875 
Q 18.109375 17.390625 22.1875 11.75 
Q 26.265625 6.109375 33.40625 6.109375 
Q 40.53125 6.109375 44.609375 11.75 
Q 48.6875 17.390625 48.6875 27.296875 
z
" id="DejaVuSans-70"/>
     </defs>
     <g transform="translate(212.303906 68.272812)scale(0.1 -0.1)">
      <use xlink:href="#DejaVuSans-74"/>
      <use x="39.208984" xlink:href="#DejaVuSans-72"/>
      <use x="80.322266" xlink:href="#DejaVuSans-61"/>
      <use x="141.601562" xlink:href="#DejaVuSans-69"/>
      <use x="169.384766" xlink:href="#DejaVuSans-6e"/>
      <use x="232.763672" xlink:href="#DejaVuSans-2d"/>
      <use x="268.847656" xlink:href="#DejaVuSans-74"/>
      <use x="308.056641" xlink:href="#DejaVuSans-65"/>
      <use x="369.580078" xlink:href="#DejaVuSans-73"/>
      <use x="421.679688" xlink:href="#DejaVuSans-74"/>
      <use x="460.888672" xlink:href="#DejaVuSans-20"/>
      <use x="492.675781" xlink:href="#DejaVuSans-73"/>
      <use x="544.775391" xlink:href="#DejaVuSans-70"/>
      <use x="608.251953" xlink:href="#DejaVuSans-6c"/>
      <use x="636.035156" xlink:href="#DejaVuSans-69"/>
      <use x="663.818359" xlink:href="#DejaVuSans-74"/>
     </g>
    </g>
   </g>
  </g>
 </g>
 <defs>
  <clipPath id="pc944c8e0e4">
   <rect height="217.44" width="334.8" x="66.053125" y="22.318125"/>
  </clipPath>
 </defs>
</svg>
