<?xml version="1.0" encoding="utf-8" standalone="no"?>
<!DOCTYPE svg PUBLIC "-//W3C//DTD SVG 1.1//EN"
  "http://www.w3.org/Graphics/SVG/1.1/DTD/svg11.dtd">
<!-- Created with matplotlib (https://matplotlib.org/) -->
<svg height="263.63625pt" version="1.1" viewBox="0 0 509.475 263.63625" width="509.475pt" xmlns="http://www.w3.org/2000/svg" xmlns:xlink="http://www.w3.org/1999/xlink">
 <defs>
  <style type="text/css">
*{stroke-linecap:butt;stroke-linejoin:round;}
  </style>
 </defs>
 <g id="figure_1">
  <g id="patch_1">
   <path d="M 0 263.63625 
L 509.475 263.63625 
L 509.475 0 
L 0 0 
z
" style="fill:none;"/>
  </g>
  <g id="axes_1">
   <g id="patch_2">
    <path d="M 52.375 239.758125 
L 498.775 239.758125 
L 498.775 22.318125 
L 52.375 22.318125 
z
" style="fill:#ffffff;"/>
   </g>
   <g id="PolyCollection_1">
    <defs>
     <path d="M 276.594644 -61.365946 
L 276.594644 -48.278062 
L 278.633931 -48.296123 
L 280.673218 -42.684799 
L 282.712506 -45.233048 
L 284.751793 -43.651042 
L 286.79108 -41.993136 
L 288.830368 -55.551719 
L 290.869655 -59.845922 
L 292.908942 -55.608116 
L 294.94823 -58.639026 
L 296.987517 -62.645706 
L 299.026804 -71.983897 
L 301.066092 -67.603365 
L 303.105379 -72.964616 
L 305.144667 -81.314148 
L 307.183954 -98.419255 
L 309.223241 -82.84955 
L 311.262529 -93.311522 
L 313.301816 -108.454502 
L 315.341103 -132.56477 
L 317.380391 -130.149667 
L 319.419678 -93.23733 
L 321.458965 -74.517353 
L 323.498253 -73.693959 
L 325.53754 -68.389424 
L 327.576827 -58.471644 
L 329.616115 -54.517093 
L 331.655402 -59.318472 
L 333.694689 -54.606866 
L 335.733977 -47.476333 
L 337.773264 -47.369765 
L 339.812551 -48.266996 
L 341.851839 -60.097456 
L 343.891126 -61.687856 
L 345.930413 -55.748593 
L 347.969701 -51.913519 
L 350.008988 -49.106422 
L 352.048275 -47.791107 
L 354.087563 -47.908273 
L 356.12685 -50.12807 
L 358.166138 -47.226118 
L 360.205425 -55.796436 
L 362.244712 -55.536846 
L 364.284 -55.91347 
L 366.323287 -60.13148 
L 368.362574 -70.495826 
L 370.401862 -79.129844 
L 372.441149 -54.886262 
L 374.480436 -43.552406 
L 376.519724 -41.87388 
L 378.559011 -43.578701 
L 380.598298 -39.683902 
L 382.637586 -37.881269 
L 384.676873 -39.526975 
L 386.71616 -33.761761 
L 388.755448 -36.726856 
L 390.794735 -35.671786 
L 392.834022 -34.308017 
L 394.87331 -47.474014 
L 396.912597 -50.5658 
L 398.951884 -47.32888 
L 400.991172 -47.961872 
L 403.030459 -54.064595 
L 405.069746 -60.084672 
L 407.109034 -56.077444 
L 409.148321 -62.123434 
L 411.187608 -68.847897 
L 413.226896 -84.490847 
L 415.266183 -71.571054 
L 417.305471 -79.895496 
L 419.344758 -95.821613 
L 421.384045 -116.228147 
L 423.423333 -112.854131 
L 425.46262 -79.354198 
L 427.501907 -61.705545 
L 429.541195 -62.89091 
L 431.580482 -58.429466 
L 433.619769 -48.405321 
L 435.659057 -45.071669 
L 437.698344 -50.602728 
L 439.737631 -44.856212 
L 441.776919 -39.226021 
L 443.816206 -38.641103 
L 445.855493 -39.562477 
L 447.894781 -49.122279 
L 449.934068 -50.829773 
L 451.973355 -46.865696 
L 454.012643 -43.3073 
L 456.05193 -38.991574 
L 458.091217 -39.697501 
L 460.130505 -38.865679 
L 462.169792 -40.417778 
L 464.209079 -38.349154 
L 466.248367 -45.067817 
L 468.287654 -46.804165 
L 470.326942 -46.401317 
L 472.366229 -49.882627 
L 474.405516 -60.451239 
L 476.444804 -68.913616 
L 478.484091 -44.052013 
L 478.484091 -58.054613 
L 478.484091 -58.054613 
L 476.444804 -84.646375 
L 474.405516 -75.149459 
L 472.366229 -63.833585 
L 470.326942 -59.827976 
L 468.287654 -59.555787 
L 466.248367 -59.040962 
L 464.209079 -50.330804 
L 462.169792 -52.756859 
L 460.130505 -52.009888 
L 458.091217 -51.687828 
L 456.05193 -51.989764 
L 454.012643 -55.711816 
L 451.973355 -58.180349 
L 449.934068 -64.843705 
L 447.894781 -62.947323 
L 445.855493 -51.794936 
L 443.816206 -51.270664 
L 441.776919 -51.297144 
L 439.737631 -57.876093 
L 437.698344 -63.238583 
L 435.659057 -58.041952 
L 433.619769 -62.757657 
L 431.580482 -71.980666 
L 429.541195 -77.065071 
L 427.501907 -78.542642 
L 425.46262 -96.882428 
L 423.423333 -136.833811 
L 421.384045 -138.353675 
L 419.344758 -114.818985 
L 417.305471 -97.423725 
L 415.266183 -88.642067 
L 413.226896 -103.936627 
L 411.187608 -85.55392 
L 409.148321 -77.797779 
L 407.109034 -71.839879 
L 405.069746 -75.876218 
L 403.030459 -67.675361 
L 400.991172 -62.587008 
L 398.951884 -59.414177 
L 396.912597 -64.336724 
L 394.87331 -60.388548 
L 392.834022 -45.695037 
L 390.794735 -48.068582 
L 388.755448 -48.088635 
L 386.71616 -45.683873 
L 384.676873 -51.381048 
L 382.637586 -51.884054 
L 380.598298 -52.298111 
L 378.559011 -56.598883 
L 376.519724 -55.067863 
L 374.480436 -55.812072 
L 372.441149 -69.126186 
L 370.401862 -98.660263 
L 368.362574 -87.120831 
L 366.323287 -75.654909 
L 364.284 -70.647432 
L 362.244712 -69.974644 
L 360.205425 -69.656833 
L 358.166138 -58.720132 
L 356.12685 -63.202735 
L 354.087563 -61.326283 
L 352.048275 -62.516605 
L 350.008988 -63.103931 
L 347.969701 -66.78199 
L 345.930413 -69.770006 
L 343.891126 -76.069983 
L 341.851839 -74.11138 
L 339.812551 -62.214341 
L 337.773264 -61.154677 
L 335.733977 -61.948766 
L 333.694689 -68.933235 
L 331.655402 -75.383924 
L 329.616115 -68.785481 
L 327.576827 -73.173839 
L 325.53754 -84.165484 
L 323.498253 -89.961482 
L 321.458965 -89.960658 
L 319.419678 -111.052782 
L 317.380391 -154.050587 
L 315.341103 -157.807707 
L 313.301816 -130.782561 
L 311.262529 -112.292454 
L 309.223241 -100.837705 
L 307.183954 -118.497735 
L 305.144667 -99.249032 
L 303.105379 -89.951079 
L 301.066092 -84.947258 
L 299.026804 -87.981993 
L 296.987517 -78.120025 
L 294.94823 -73.94243 
L 292.908942 -70.730468 
L 290.869655 -75.619929 
L 288.830368 -71.655064 
L 286.79108 -55.498785 
L 284.751793 -56.51752 
L 282.712506 -58.218064 
L 280.673218 -54.084816 
L 278.633931 -61.511097 
L 276.594644 -61.365946 
z
" id="m803e522926" style="stroke:#ff8c00;stroke-opacity:0.4;"/>
    </defs>
    <g clip-path="url(#p787868abf8)">
     <use style="fill:#ff8c00;fill-opacity:0.4;stroke:#ff8c00;stroke-opacity:0.4;" x="0" xlink:href="#m803e522926" y="263.63625"/>
    </g>
   </g>
   <g id="matplotlib.axis_1">
    <g id="xtick_1">
     <g id="line2d_1">
      <defs>
       <path d="M 0 0 
L 0 3.5 
" id="m258f1adee3" style="stroke:#000000;stroke-width:0.8;"/>
      </defs>
      <g>
       <use style="stroke:#000000;stroke-width:0.8;" x="102.963893" xlink:href="#m258f1adee3" y="239.758125"/>
      </g>
     </g>
     <g id="text_1">
      <!-- 2016-01 -->
      <defs>
       <path d="M 19.1875 8.296875 
L 53.609375 8.296875 
L 53.609375 0 
L 7.328125 0 
L 7.328125 8.296875 
Q 12.9375 14.109375 22.625 23.890625 
Q 32.328125 33.6875 34.8125 36.53125 
Q 39.546875 41.84375 41.421875 45.53125 
Q 43.3125 49.21875 43.3125 52.78125 
Q 43.3125 58.59375 39.234375 62.25 
Q 35.15625 65.921875 28.609375 65.921875 
Q 23.96875 65.921875 18.8125 64.3125 
Q 13.671875 62.703125 7.8125 59.421875 
L 7.8125 69.390625 
Q 13.765625 71.78125 18.9375 73 
Q 24.125 74.21875 28.421875 74.21875 
Q 39.75 74.21875 46.484375 68.546875 
Q 53.21875 62.890625 53.21875 53.421875 
Q 53.21875 48.921875 51.53125 44.890625 
Q 49.859375 40.875 45.40625 35.40625 
Q 44.1875 33.984375 37.640625 27.21875 
Q 31.109375 20.453125 19.1875 8.296875 
z
" id="DejaVuSans-50"/>
       <path d="M 31.78125 66.40625 
Q 24.171875 66.40625 20.328125 58.90625 
Q 16.5 51.421875 16.5 36.375 
Q 16.5 21.390625 20.328125 13.890625 
Q 24.171875 6.390625 31.78125 6.390625 
Q 39.453125 6.390625 43.28125 13.890625 
Q 47.125 21.390625 47.125 36.375 
Q 47.125 51.421875 43.28125 58.90625 
Q 39.453125 66.40625 31.78125 66.40625 
z
M 31.78125 74.21875 
Q 44.046875 74.21875 50.515625 64.515625 
Q 56.984375 54.828125 56.984375 36.375 
Q 56.984375 17.96875 50.515625 8.265625 
Q 44.046875 -1.421875 31.78125 -1.421875 
Q 19.53125 -1.421875 13.0625 8.265625 
Q 6.59375 17.96875 6.59375 36.375 
Q 6.59375 54.828125 13.0625 64.515625 
Q 19.53125 74.21875 31.78125 74.21875 
z
" id="DejaVuSans-48"/>
       <path d="M 12.40625 8.296875 
L 28.515625 8.296875 
L 28.515625 63.921875 
L 10.984375 60.40625 
L 10.984375 69.390625 
L 28.421875 72.90625 
L 38.28125 72.90625 
L 38.28125 8.296875 
L 54.390625 8.296875 
L 54.390625 0 
L 12.40625 0 
z
" id="DejaVuSans-49"/>
       <path d="M 33.015625 40.375 
Q 26.375 40.375 22.484375 35.828125 
Q 18.609375 31.296875 18.609375 23.390625 
Q 18.609375 15.53125 22.484375 10.953125 
Q 26.375 6.390625 33.015625 6.390625 
Q 39.65625 6.390625 43.53125 10.953125 
Q 47.40625 15.53125 47.40625 23.390625 
Q 47.40625 31.296875 43.53125 35.828125 
Q 39.65625 40.375 33.015625 40.375 
z
M 52.59375 71.296875 
L 52.59375 62.3125 
Q 48.875 64.0625 45.09375 64.984375 
Q 41.3125 65.921875 37.59375 65.921875 
Q 27.828125 65.921875 22.671875 59.328125 
Q 17.53125 52.734375 16.796875 39.40625 
Q 19.671875 43.65625 24.015625 45.921875 
Q 28.375 48.1875 33.59375 48.1875 
Q 44.578125 48.1875 50.953125 41.515625 
Q 57.328125 34.859375 57.328125 23.390625 
Q 57.328125 12.15625 50.6875 5.359375 
Q 44.046875 -1.421875 33.015625 -1.421875 
Q 20.359375 -1.421875 13.671875 8.265625 
Q 6.984375 17.96875 6.984375 36.375 
Q 6.984375 53.65625 15.1875 63.9375 
Q 23.390625 74.21875 37.203125 74.21875 
Q 40.921875 74.21875 44.703125 73.484375 
Q 48.484375 72.75 52.59375 71.296875 
z
" id="DejaVuSans-54"/>
       <path d="M 4.890625 31.390625 
L 31.203125 31.390625 
L 31.203125 23.390625 
L 4.890625 23.390625 
z
" id="DejaVuSans-45"/>
      </defs>
      <g transform="translate(82.072486 254.356563)scale(0.1 -0.1)">
       <use xlink:href="#DejaVuSans-50"/>
       <use x="63.623047" xlink:href="#DejaVuSans-48"/>
       <use x="127.246094" xlink:href="#DejaVuSans-49"/>
       <use x="190.869141" xlink:href="#DejaVuSans-54"/>
       <use x="254.492188" xlink:href="#DejaVuSans-45"/>
       <use x="290.576172" xlink:href="#DejaVuSans-48"/>
       <use x="354.199219" xlink:href="#DejaVuSans-49"/>
      </g>
     </g>
    </g>
    <g id="xtick_2">
     <g id="line2d_2">
      <g>
       <use style="stroke:#000000;stroke-width:0.8;" x="155.985364" xlink:href="#m258f1adee3" y="239.758125"/>
      </g>
     </g>
     <g id="text_2">
      <!-- 2016-07 -->
      <defs>
       <path d="M 8.203125 72.90625 
L 55.078125 72.90625 
L 55.078125 68.703125 
L 28.609375 0 
L 18.3125 0 
L 43.21875 64.59375 
L 8.203125 64.59375 
z
" id="DejaVuSans-55"/>
      </defs>
      <g transform="translate(135.093957 254.356563)scale(0.1 -0.1)">
       <use xlink:href="#DejaVuSans-50"/>
       <use x="63.623047" xlink:href="#DejaVuSans-48"/>
       <use x="127.246094" xlink:href="#DejaVuSans-49"/>
       <use x="190.869141" xlink:href="#DejaVuSans-54"/>
       <use x="254.492188" xlink:href="#DejaVuSans-45"/>
       <use x="290.576172" xlink:href="#DejaVuSans-48"/>
       <use x="354.199219" xlink:href="#DejaVuSans-55"/>
      </g>
     </g>
    </g>
    <g id="xtick_3">
     <g id="line2d_3">
      <g>
       <use style="stroke:#000000;stroke-width:0.8;" x="209.589488" xlink:href="#m258f1adee3" y="239.758125"/>
      </g>
     </g>
     <g id="text_3">
      <!-- 2017-01 -->
      <g transform="translate(188.698082 254.356563)scale(0.1 -0.1)">
       <use xlink:href="#DejaVuSans-50"/>
       <use x="63.623047" xlink:href="#DejaVuSans-48"/>
       <use x="127.246094" xlink:href="#DejaVuSans-49"/>
       <use x="190.869141" xlink:href="#DejaVuSans-55"/>
       <use x="254.492188" xlink:href="#DejaVuSans-45"/>
       <use x="290.576172" xlink:href="#DejaVuSans-48"/>
       <use x="354.199219" xlink:href="#DejaVuSans-49"/>
      </g>
     </g>
    </g>
    <g id="xtick_4">
     <g id="line2d_4">
      <g>
       <use style="stroke:#000000;stroke-width:0.8;" x="262.319632" xlink:href="#m258f1adee3" y="239.758125"/>
      </g>
     </g>
     <g id="text_4">
      <!-- 2017-07 -->
      <g transform="translate(241.428226 254.356563)scale(0.1 -0.1)">
       <use xlink:href="#DejaVuSans-50"/>
       <use x="63.623047" xlink:href="#DejaVuSans-48"/>
       <use x="127.246094" xlink:href="#DejaVuSans-49"/>
       <use x="190.869141" xlink:href="#DejaVuSans-55"/>
       <use x="254.492188" xlink:href="#DejaVuSans-45"/>
       <use x="290.576172" xlink:href="#DejaVuSans-48"/>
       <use x="354.199219" xlink:href="#DejaVuSans-55"/>
      </g>
     </g>
    </g>
    <g id="xtick_5">
     <g id="line2d_5">
      <g>
       <use style="stroke:#000000;stroke-width:0.8;" x="315.923757" xlink:href="#m258f1adee3" y="239.758125"/>
      </g>
     </g>
     <g id="text_5">
      <!-- 2018-01 -->
      <defs>
       <path d="M 31.78125 34.625 
Q 24.75 34.625 20.71875 30.859375 
Q 16.703125 27.09375 16.703125 20.515625 
Q 16.703125 13.921875 20.71875 10.15625 
Q 24.75 6.390625 31.78125 6.390625 
Q 38.8125 6.390625 42.859375 10.171875 
Q 46.921875 13.96875 46.921875 20.515625 
Q 46.921875 27.09375 42.890625 30.859375 
Q 38.875 34.625 31.78125 34.625 
z
M 21.921875 38.8125 
Q 15.578125 40.375 12.03125 44.71875 
Q 8.5 49.078125 8.5 55.328125 
Q 8.5 64.0625 14.71875 69.140625 
Q 20.953125 74.21875 31.78125 74.21875 
Q 42.671875 74.21875 48.875 69.140625 
Q 55.078125 64.0625 55.078125 55.328125 
Q 55.078125 49.078125 51.53125 44.71875 
Q 48 40.375 41.703125 38.8125 
Q 48.828125 37.15625 52.796875 32.3125 
Q 56.78125 27.484375 56.78125 20.515625 
Q 56.78125 9.90625 50.3125 4.234375 
Q 43.84375 -1.421875 31.78125 -1.421875 
Q 19.734375 -1.421875 13.25 4.234375 
Q 6.78125 9.90625 6.78125 20.515625 
Q 6.78125 27.484375 10.78125 32.3125 
Q 14.796875 37.15625 21.921875 38.8125 
z
M 18.3125 54.390625 
Q 18.3125 48.734375 21.84375 45.5625 
Q 25.390625 42.390625 31.78125 42.390625 
Q 38.140625 42.390625 41.71875 45.5625 
Q 45.3125 48.734375 45.3125 54.390625 
Q 45.3125 60.0625 41.71875 63.234375 
Q 38.140625 66.40625 31.78125 66.40625 
Q 25.390625 66.40625 21.84375 63.234375 
Q 18.3125 60.0625 18.3125 54.390625 
z
" id="DejaVuSans-56"/>
      </defs>
      <g transform="translate(295.032351 254.356563)scale(0.1 -0.1)">
       <use xlink:href="#DejaVuSans-50"/>
       <use x="63.623047" xlink:href="#DejaVuSans-48"/>
       <use x="127.246094" xlink:href="#DejaVuSans-49"/>
       <use x="190.869141" xlink:href="#DejaVuSans-56"/>
       <use x="254.492188" xlink:href="#DejaVuSans-45"/>
       <use x="290.576172" xlink:href="#DejaVuSans-48"/>
       <use x="354.199219" xlink:href="#DejaVuSans-49"/>
      </g>
     </g>
    </g>
    <g id="xtick_6">
     <g id="line2d_6">
      <g>
       <use style="stroke:#000000;stroke-width:0.8;" x="368.653901" xlink:href="#m258f1adee3" y="239.758125"/>
      </g>
     </g>
     <g id="text_6">
      <!-- 2018-07 -->
      <g transform="translate(347.762495 254.356563)scale(0.1 -0.1)">
       <use xlink:href="#DejaVuSans-50"/>
       <use x="63.623047" xlink:href="#DejaVuSans-48"/>
       <use x="127.246094" xlink:href="#DejaVuSans-49"/>
       <use x="190.869141" xlink:href="#DejaVuSans-56"/>
       <use x="254.492188" xlink:href="#DejaVuSans-45"/>
       <use x="290.576172" xlink:href="#DejaVuSans-48"/>
       <use x="354.199219" xlink:href="#DejaVuSans-55"/>
      </g>
     </g>
    </g>
    <g id="xtick_7">
     <g id="line2d_7">
      <g>
       <use style="stroke:#000000;stroke-width:0.8;" x="422.258026" xlink:href="#m258f1adee3" y="239.758125"/>
      </g>
     </g>
     <g id="text_7">
      <!-- 2019-01 -->
      <defs>
       <path d="M 10.984375 1.515625 
L 10.984375 10.5 
Q 14.703125 8.734375 18.5 7.8125 
Q 22.3125 6.890625 25.984375 6.890625 
Q 35.75 6.890625 40.890625 13.453125 
Q 46.046875 20.015625 46.78125 33.40625 
Q 43.953125 29.203125 39.59375 26.953125 
Q 35.25 24.703125 29.984375 24.703125 
Q 19.046875 24.703125 12.671875 31.3125 
Q 6.296875 37.9375 6.296875 49.421875 
Q 6.296875 60.640625 12.9375 67.421875 
Q 19.578125 74.21875 30.609375 74.21875 
Q 43.265625 74.21875 49.921875 64.515625 
Q 56.59375 54.828125 56.59375 36.375 
Q 56.59375 19.140625 48.40625 8.859375 
Q 40.234375 -1.421875 26.421875 -1.421875 
Q 22.703125 -1.421875 18.890625 -0.6875 
Q 15.09375 0.046875 10.984375 1.515625 
z
M 30.609375 32.421875 
Q 37.25 32.421875 41.125 36.953125 
Q 45.015625 41.5 45.015625 49.421875 
Q 45.015625 57.28125 41.125 61.84375 
Q 37.25 66.40625 30.609375 66.40625 
Q 23.96875 66.40625 20.09375 61.84375 
Q 16.21875 57.28125 16.21875 49.421875 
Q 16.21875 41.5 20.09375 36.953125 
Q 23.96875 32.421875 30.609375 32.421875 
z
" id="DejaVuSans-57"/>
      </defs>
      <g transform="translate(401.366619 254.356563)scale(0.1 -0.1)">
       <use xlink:href="#DejaVuSans-50"/>
       <use x="63.623047" xlink:href="#DejaVuSans-48"/>
       <use x="127.246094" xlink:href="#DejaVuSans-49"/>
       <use x="190.869141" xlink:href="#DejaVuSans-57"/>
       <use x="254.492188" xlink:href="#DejaVuSans-45"/>
       <use x="290.576172" xlink:href="#DejaVuSans-48"/>
       <use x="354.199219" xlink:href="#DejaVuSans-49"/>
      </g>
     </g>
    </g>
    <g id="xtick_8">
     <g id="line2d_8">
      <g>
       <use style="stroke:#000000;stroke-width:0.8;" x="474.98817" xlink:href="#m258f1adee3" y="239.758125"/>
      </g>
     </g>
     <g id="text_8">
      <!-- 2019-07 -->
      <g transform="translate(454.096763 254.356563)scale(0.1 -0.1)">
       <use xlink:href="#DejaVuSans-50"/>
       <use x="63.623047" xlink:href="#DejaVuSans-48"/>
       <use x="127.246094" xlink:href="#DejaVuSans-49"/>
       <use x="190.869141" xlink:href="#DejaVuSans-57"/>
       <use x="254.492188" xlink:href="#DejaVuSans-45"/>
       <use x="290.576172" xlink:href="#DejaVuSans-48"/>
       <use x="354.199219" xlink:href="#DejaVuSans-55"/>
      </g>
     </g>
    </g>
   </g>
   <g id="matplotlib.axis_2">
    <g id="ytick_1">
     <g id="line2d_9">
      <defs>
       <path d="M 0 0 
L -3.5 0 
" id="me62d599e00" style="stroke:#000000;stroke-width:0.8;"/>
      </defs>
      <g>
       <use style="stroke:#000000;stroke-width:0.8;" x="52.375" xlink:href="#me62d599e00" y="232.16351"/>
      </g>
     </g>
     <g id="text_9">
      <!-- 150000 -->
      <defs>
       <path d="M 10.796875 72.90625 
L 49.515625 72.90625 
L 49.515625 64.59375 
L 19.828125 64.59375 
L 19.828125 46.734375 
Q 21.96875 47.46875 24.109375 47.828125 
Q 26.265625 48.1875 28.421875 48.1875 
Q 40.625 48.1875 47.75 41.5 
Q 54.890625 34.8125 54.890625 23.390625 
Q 54.890625 11.625 47.5625 5.09375 
Q 40.234375 -1.421875 26.90625 -1.421875 
Q 22.3125 -1.421875 17.546875 -0.640625 
Q 12.796875 0.140625 7.71875 1.703125 
L 7.71875 11.625 
Q 12.109375 9.234375 16.796875 8.0625 
Q 21.484375 6.890625 26.703125 6.890625 
Q 35.15625 6.890625 40.078125 11.328125 
Q 45.015625 15.765625 45.015625 23.390625 
Q 45.015625 31 40.078125 35.4375 
Q 35.15625 39.890625 26.703125 39.890625 
Q 22.75 39.890625 18.8125 39.015625 
Q 14.890625 38.140625 10.796875 36.28125 
z
" id="DejaVuSans-53"/>
      </defs>
      <g transform="translate(7.2 235.962729)scale(0.1 -0.1)">
       <use xlink:href="#DejaVuSans-49"/>
       <use x="63.623047" xlink:href="#DejaVuSans-53"/>
       <use x="127.246094" xlink:href="#DejaVuSans-48"/>
       <use x="190.869141" xlink:href="#DejaVuSans-48"/>
       <use x="254.492188" xlink:href="#DejaVuSans-48"/>
       <use x="318.115234" xlink:href="#DejaVuSans-48"/>
      </g>
     </g>
    </g>
    <g id="ytick_2">
     <g id="line2d_10">
      <g>
       <use style="stroke:#000000;stroke-width:0.8;" x="52.375" xlink:href="#me62d599e00" y="203.832612"/>
      </g>
     </g>
     <g id="text_10">
      <!-- 200000 -->
      <g transform="translate(7.2 207.63183)scale(0.1 -0.1)">
       <use xlink:href="#DejaVuSans-50"/>
       <use x="63.623047" xlink:href="#DejaVuSans-48"/>
       <use x="127.246094" xlink:href="#DejaVuSans-48"/>
       <use x="190.869141" xlink:href="#DejaVuSans-48"/>
       <use x="254.492188" xlink:href="#DejaVuSans-48"/>
       <use x="318.115234" xlink:href="#DejaVuSans-48"/>
      </g>
     </g>
    </g>
    <g id="ytick_3">
     <g id="line2d_11">
      <g>
       <use style="stroke:#000000;stroke-width:0.8;" x="52.375" xlink:href="#me62d599e00" y="175.501713"/>
      </g>
     </g>
     <g id="text_11">
      <!-- 250000 -->
      <g transform="translate(7.2 179.300932)scale(0.1 -0.1)">
       <use xlink:href="#DejaVuSans-50"/>
       <use x="63.623047" xlink:href="#DejaVuSans-53"/>
       <use x="127.246094" xlink:href="#DejaVuSans-48"/>
       <use x="190.869141" xlink:href="#DejaVuSans-48"/>
       <use x="254.492188" xlink:href="#DejaVuSans-48"/>
       <use x="318.115234" xlink:href="#DejaVuSans-48"/>
      </g>
     </g>
    </g>
    <g id="ytick_4">
     <g id="line2d_12">
      <g>
       <use style="stroke:#000000;stroke-width:0.8;" x="52.375" xlink:href="#me62d599e00" y="147.170814"/>
      </g>
     </g>
     <g id="text_12">
      <!-- 300000 -->
      <defs>
       <path d="M 40.578125 39.3125 
Q 47.65625 37.796875 51.625 33 
Q 55.609375 28.21875 55.609375 21.1875 
Q 55.609375 10.40625 48.1875 4.484375 
Q 40.765625 -1.421875 27.09375 -1.421875 
Q 22.515625 -1.421875 17.65625 -0.515625 
Q 12.796875 0.390625 7.625 2.203125 
L 7.625 11.71875 
Q 11.71875 9.328125 16.59375 8.109375 
Q 21.484375 6.890625 26.8125 6.890625 
Q 36.078125 6.890625 40.9375 10.546875 
Q 45.796875 14.203125 45.796875 21.1875 
Q 45.796875 27.640625 41.28125 31.265625 
Q 36.765625 34.90625 28.71875 34.90625 
L 20.21875 34.90625 
L 20.21875 43.015625 
L 29.109375 43.015625 
Q 36.375 43.015625 40.234375 45.921875 
Q 44.09375 48.828125 44.09375 54.296875 
Q 44.09375 59.90625 40.109375 62.90625 
Q 36.140625 65.921875 28.71875 65.921875 
Q 24.65625 65.921875 20.015625 65.03125 
Q 15.375 64.15625 9.8125 62.3125 
L 9.8125 71.09375 
Q 15.4375 72.65625 20.34375 73.4375 
Q 25.25 74.21875 29.59375 74.21875 
Q 40.828125 74.21875 47.359375 69.109375 
Q 53.90625 64.015625 53.90625 55.328125 
Q 53.90625 49.265625 50.4375 45.09375 
Q 46.96875 40.921875 40.578125 39.3125 
z
" id="DejaVuSans-51"/>
      </defs>
      <g transform="translate(7.2 150.970033)scale(0.1 -0.1)">
       <use xlink:href="#DejaVuSans-51"/>
       <use x="63.623047" xlink:href="#DejaVuSans-48"/>
       <use x="127.246094" xlink:href="#DejaVuSans-48"/>
       <use x="190.869141" xlink:href="#DejaVuSans-48"/>
       <use x="254.492188" xlink:href="#DejaVuSans-48"/>
       <use x="318.115234" xlink:href="#DejaVuSans-48"/>
      </g>
     </g>
    </g>
    <g id="ytick_5">
     <g id="line2d_13">
      <g>
       <use style="stroke:#000000;stroke-width:0.8;" x="52.375" xlink:href="#me62d599e00" y="118.839916"/>
      </g>
     </g>
     <g id="text_13">
      <!-- 350000 -->
      <g transform="translate(7.2 122.639135)scale(0.1 -0.1)">
       <use xlink:href="#DejaVuSans-51"/>
       <use x="63.623047" xlink:href="#DejaVuSans-53"/>
       <use x="127.246094" xlink:href="#DejaVuSans-48"/>
       <use x="190.869141" xlink:href="#DejaVuSans-48"/>
       <use x="254.492188" xlink:href="#DejaVuSans-48"/>
       <use x="318.115234" xlink:href="#DejaVuSans-48"/>
      </g>
     </g>
    </g>
    <g id="ytick_6">
     <g id="line2d_14">
      <g>
       <use style="stroke:#000000;stroke-width:0.8;" x="52.375" xlink:href="#me62d599e00" y="90.509017"/>
      </g>
     </g>
     <g id="text_14">
      <!-- 400000 -->
      <defs>
       <path d="M 37.796875 64.3125 
L 12.890625 25.390625 
L 37.796875 25.390625 
z
M 35.203125 72.90625 
L 47.609375 72.90625 
L 47.609375 25.390625 
L 58.015625 25.390625 
L 58.015625 17.1875 
L 47.609375 17.1875 
L 47.609375 0 
L 37.796875 0 
L 37.796875 17.1875 
L 4.890625 17.1875 
L 4.890625 26.703125 
z
" id="DejaVuSans-52"/>
      </defs>
      <g transform="translate(7.2 94.308236)scale(0.1 -0.1)">
       <use xlink:href="#DejaVuSans-52"/>
       <use x="63.623047" xlink:href="#DejaVuSans-48"/>
       <use x="127.246094" xlink:href="#DejaVuSans-48"/>
       <use x="190.869141" xlink:href="#DejaVuSans-48"/>
       <use x="254.492188" xlink:href="#DejaVuSans-48"/>
       <use x="318.115234" xlink:href="#DejaVuSans-48"/>
      </g>
     </g>
    </g>
    <g id="ytick_7">
     <g id="line2d_15">
      <g>
       <use style="stroke:#000000;stroke-width:0.8;" x="52.375" xlink:href="#me62d599e00" y="62.178119"/>
      </g>
     </g>
     <g id="text_15">
      <!-- 450000 -->
      <g transform="translate(7.2 65.977337)scale(0.1 -0.1)">
       <use xlink:href="#DejaVuSans-52"/>
       <use x="63.623047" xlink:href="#DejaVuSans-53"/>
       <use x="127.246094" xlink:href="#DejaVuSans-48"/>
       <use x="190.869141" xlink:href="#DejaVuSans-48"/>
       <use x="254.492188" xlink:href="#DejaVuSans-48"/>
       <use x="318.115234" xlink:href="#DejaVuSans-48"/>
      </g>
     </g>
    </g>
    <g id="ytick_8">
     <g id="line2d_16">
      <g>
       <use style="stroke:#000000;stroke-width:0.8;" x="52.375" xlink:href="#me62d599e00" y="33.84722"/>
      </g>
     </g>
     <g id="text_16">
      <!-- 500000 -->
      <g transform="translate(7.2 37.646439)scale(0.1 -0.1)">
       <use xlink:href="#DejaVuSans-53"/>
       <use x="63.623047" xlink:href="#DejaVuSans-48"/>
       <use x="127.246094" xlink:href="#DejaVuSans-48"/>
       <use x="190.869141" xlink:href="#DejaVuSans-48"/>
       <use x="254.492188" xlink:href="#DejaVuSans-48"/>
       <use x="318.115234" xlink:href="#DejaVuSans-48"/>
      </g>
     </g>
    </g>
   </g>
   <g id="line2d_17">
    <path clip-path="url(#p787868abf8)" d="M 72.665909 192.873087 
L 74.705196 195.267614 
L 76.744484 188.434202 
L 78.783771 171.806231 
L 80.823058 185.213545 
L 84.901633 170.719457 
L 86.940921 152.214848 
L 88.980208 167.106701 
L 91.019495 144.097478 
L 93.058783 168.346461 
L 95.09807 99.296695 
L 97.137357 139.648394 
L 99.176645 136.041871 
L 101.215932 120.799281 
L 103.255219 87.467412 
L 105.294507 32.201761 
L 107.333794 102.551349 
L 109.373081 149.47355 
L 111.412369 140.405396 
L 113.451656 152.385966 
L 115.490943 170.753454 
L 117.530231 176.141991 
L 119.569518 166.548016 
L 121.608805 176.845731 
L 123.648093 182.931208 
L 125.68738 186.334315 
L 127.726667 183.595284 
L 129.765955 178.314971 
L 131.805242 163.931941 
L 133.844529 179.80801 
L 135.883817 178.312138 
L 137.923104 179.245925 
L 139.962392 168.759526 
L 142.001679 178.40903 
L 144.040966 180.715732 
L 146.080254 177.348888 
L 148.119541 185.530851 
L 150.158828 166.278872 
L 152.198116 176.653081 
L 154.237403 167.760578 
L 156.27669 165.621595 
L 158.315978 147.922716 
L 160.355265 165.004548 
L 162.394552 185.743333 
L 164.43384 192.952413 
L 166.473127 185.960347 
L 168.512414 192.743898 
L 170.551702 194.193873 
L 172.590989 194.943509 
L 174.630276 193.794974 
L 176.669564 207.634052 
L 178.708851 200.631787 
L 180.748138 204.708036 
L 182.787426 203.574234 
L 184.826713 181.971924 
L 186.866 184.775549 
L 188.905288 182.689829 
L 190.944575 177.909273 
L 192.983862 170.624265 
L 195.02315 190.364102 
L 197.062437 154.086953 
L 199.101725 175.629769 
L 201.141012 117.944659 
L 203.180299 144.185871 
L 205.219587 138.633015 
L 207.258874 122.685552 
L 209.298161 118.522043 
L 211.337449 82.155935 
L 213.376736 117.253952 
L 215.416023 156.219703 
L 217.455311 157.946188 
L 219.494598 169.998153 
L 221.533885 177.832779 
L 223.573173 181.55206 
L 225.61246 196.56347 
L 227.651747 178.924652 
L 229.691035 191.238394 
L 231.730322 189.841114 
L 233.769609 187.814888 
L 235.808897 199.103051 
L 237.848184 181.268184 
L 239.887471 189.177604 
L 241.926759 180.255071 
L 243.966046 197.625312 
L 246.005333 195.310677 
L 248.044621 199.920114 
L 250.083908 197.858192 
L 252.123196 185.622643 
L 254.162483 196.63883 
L 256.20177 184.198166 
L 258.241058 187.466985 
L 260.280345 181.374708 
L 262.319632 173.866453 
L 264.35892 156.050285 
L 266.398207 171.103058 
L 268.437494 192.242441 
L 270.476782 204.526152 
L 272.516069 197.076259 
L 274.555356 204.807194 
L 276.594644 206.592041 
L 278.633931 205.970461 
L 280.673218 175.146443 
L 282.712506 197.076825 
L 284.751793 196.855844 
L 286.79108 196.473944 
L 288.830368 201.464148 
L 290.869655 187.264135 
L 292.908942 200.664084 
L 294.94823 194.764458 
L 296.987517 194.779756 
L 299.026804 179.971762 
L 301.066092 183.063796 
L 303.105379 161.333997 
L 305.144667 189.751588 
L 307.183954 132.409283 
L 309.223241 157.338774 
L 311.262529 154.265438 
L 313.301816 132.903374 
L 315.341103 117.989989 
L 317.380391 88.282209 
L 319.419678 116.172278 
L 321.458965 169.590754 
L 323.498253 165.190966 
L 325.53754 179.228926 
L 327.576827 184.991431 
L 329.616115 196.688126 
L 331.655402 205.932498 
L 333.694689 189.161172 
L 335.733977 200.894697 
L 337.773264 204.598112 
L 339.812551 206.420356 
L 341.851839 203.233696 
L 343.891126 185.837391 
L 345.930413 189.049549 
L 347.969701 203.753852 
L 350.008988 211.509718 
L 352.048275 209.350337 
L 354.087563 206.544445 
L 356.12685 199.841921 
L 358.166138 202.220017 
L 360.205425 208.635832 
L 362.244712 194.036353 
L 364.284 200.419872 
L 366.323287 190.932987 
L 368.362574 185.962047 
L 370.401862 167.07667 
L 374.480436 203.102808 
L 376.519724 215.232965 
L 378.559011 212.23329 
L 380.598298 215.14344 
L 382.637586 218.943746 
L 384.676873 217.57593 
L 386.71616 218.78736 
L 388.755448 225.001459 
L 390.794735 218.777727 
L 392.834022 219.17096 
L 394.87331 219.802172 
L 396.912597 207.268583 
L 398.951884 209.214916 
L 400.991172 204.550517 
L 403.030459 204.66554 
L 405.069746 195.438733 
L 407.109034 183.44513 
L 409.148321 188.774172 
L 411.187608 193.260653 
L 413.226896 137.007954 
L 415.266183 168.971441 
L 417.305471 172.558133 
L 421.384045 131.588254 
L 423.423333 118.302195 
L 425.46262 121.968214 
L 427.501907 164.307042 
L 429.541195 175.03652 
L 431.580482 173.044857 
L 433.619769 179.57173 
L 435.659057 197.7596 
L 437.698344 202.081195 
L 439.737631 192.169914 
L 441.776919 198.527934 
L 443.816206 207.015871 
L 445.855493 209.456295 
L 447.894781 213.011256 
L 449.934068 206.040722 
L 451.973355 205.874136 
L 454.012643 197.149919 
L 456.05193 201.120211 
L 458.091217 201.547441 
L 460.130505 210.48244 
L 462.169792 208.404652 
L 464.209079 204.345967 
L 466.248367 209.738471 
L 468.287654 192.394861 
L 470.326942 200.4788 
L 472.366229 189.203102 
L 474.405516 189.913641 
L 476.444804 185.704803 
L 478.484091 179.117302 
L 478.484091 179.117302 
" style="fill:none;stroke:#1f77b4;stroke-linecap:square;stroke-width:1.5;"/>
   </g>
   <g id="line2d_18">
    <path clip-path="url(#p787868abf8)" d="M 276.594644 208.022203 
L 278.633931 208.012216 
L 280.673218 214.646232 
L 282.712506 210.920843 
L 284.751793 212.270704 
L 286.79108 214.141818 
L 288.830368 198.262288 
L 290.869655 194.660147 
L 292.908942 199.305936 
L 294.94823 195.929566 
L 296.987517 192.039308 
L 299.026804 182.666022 
L 301.066092 186.344576 
L 303.105379 179.785283 
L 305.144667 172.093621 
L 307.183954 154.060907 
L 309.223241 169.874125 
L 311.262529 159.88496 
L 313.301816 143.163426 
L 315.341103 117.546716 
L 317.380391 119.770055 
L 319.419678 160.046411 
L 321.458965 180.454406 
L 323.498253 180.156187 
L 325.53754 186.82436 
L 327.576827 197.102394 
L 329.616115 201.107578 
L 331.655402 195.29552 
L 333.694689 201.204814 
L 335.733977 207.957139 
L 337.773264 208.801462 
L 339.812551 207.31385 
L 341.851839 195.827442 
L 343.891126 193.917027 
L 345.930413 200.421492 
L 347.969701 202.896284 
L 350.008988 206.735457 
L 352.048275 207.642073 
L 354.087563 207.549714 
L 356.12685 206.138021 
L 358.166138 209.967783 
L 360.205425 199.84764 
L 362.244712 199.688669 
L 364.284 199.069222 
L 366.323287 195.138886 
L 368.362574 183.984444 
L 370.401862 173.780779 
L 372.441149 200.797283 
L 374.480436 213.350297 
L 376.519724 214.660114 
L 378.559011 213.12365 
L 380.598298 216.873891 
L 382.637586 217.142654 
L 384.676873 217.384626 
L 386.71616 222.827426 
L 388.755448 220.643786 
L 390.794735 221.38618 
L 392.834022 222.576015 
L 394.87331 209.185699 
L 396.912597 205.310511 
L 398.951884 209.671025 
L 400.991172 206.443587 
L 403.030459 202.372596 
L 405.069746 193.766493 
L 407.109034 197.93187 
L 409.148321 193.209118 
L 411.187608 185.210933 
L 413.226896 169.035168 
L 415.266183 182.420437 
L 417.305471 174.213569 
L 419.344758 157.537126 
L 421.384045 135.704627 
L 423.423333 137.107254 
L 425.46262 175.436021 
L 427.501907 192.343919 
L 429.541195 192.882082 
L 431.580482 197.910382 
L 433.619769 207.027292 
L 435.659057 211.091714 
L 437.698344 206.284146 
L 439.737631 211.424283 
L 441.776919 217.270001 
L 443.816206 217.907243 
L 445.855493 217.162485 
L 447.894781 206.780096 
L 449.934068 204.892347 
L 451.973355 210.451329 
L 454.012643 213.09616 
L 456.05193 217.133012 
L 458.091217 217.157722 
L 460.130505 217.568095 
L 462.169792 216.223661 
L 464.209079 218.237873 
L 466.248367 210.12509 
L 468.287654 209.434799 
L 470.326942 209.196509 
L 472.366229 205.779059 
L 474.405516 196.126288 
L 476.444804 185.698765 
L 478.484091 210.795134 
" style="fill:none;stroke:#ff8c00;stroke-linecap:square;stroke-width:1.5;"/>
   </g>
   <g id="patch_3">
    <path d="M 52.375 239.758125 
L 52.375 22.318125 
" style="fill:none;stroke:#000000;stroke-linecap:square;stroke-linejoin:miter;stroke-width:0.8;"/>
   </g>
   <g id="patch_4">
    <path d="M 498.775 239.758125 
L 498.775 22.318125 
" style="fill:none;stroke:#000000;stroke-linecap:square;stroke-linejoin:miter;stroke-width:0.8;"/>
   </g>
   <g id="patch_5">
    <path d="M 52.375 239.758125 
L 498.775 239.758125 
" style="fill:none;stroke:#000000;stroke-linecap:square;stroke-linejoin:miter;stroke-width:0.8;"/>
   </g>
   <g id="patch_6">
    <path d="M 52.375 22.318125 
L 498.775 22.318125 
" style="fill:none;stroke:#000000;stroke-linecap:square;stroke-linejoin:miter;stroke-width:0.8;"/>
   </g>
   <g id="text_17">
    <!-- Forecast (Delta Autoguide) -->
    <defs>
     <path d="M 9.8125 72.90625 
L 51.703125 72.90625 
L 51.703125 64.59375 
L 19.671875 64.59375 
L 19.671875 43.109375 
L 48.578125 43.109375 
L 48.578125 34.8125 
L 19.671875 34.8125 
L 19.671875 0 
L 9.8125 0 
z
" id="DejaVuSans-70"/>
     <path d="M 30.609375 48.390625 
Q 23.390625 48.390625 19.1875 42.75 
Q 14.984375 37.109375 14.984375 27.296875 
Q 14.984375 17.484375 19.15625 11.84375 
Q 23.34375 6.203125 30.609375 6.203125 
Q 37.796875 6.203125 41.984375 11.859375 
Q 46.1875 17.53125 46.1875 27.296875 
Q 46.1875 37.015625 41.984375 42.703125 
Q 37.796875 48.390625 30.609375 48.390625 
z
M 30.609375 56 
Q 42.328125 56 49.015625 48.375 
Q 55.71875 40.765625 55.71875 27.296875 
Q 55.71875 13.875 49.015625 6.21875 
Q 42.328125 -1.421875 30.609375 -1.421875 
Q 18.84375 -1.421875 12.171875 6.21875 
Q 5.515625 13.875 5.515625 27.296875 
Q 5.515625 40.765625 12.171875 48.375 
Q 18.84375 56 30.609375 56 
z
" id="DejaVuSans-111"/>
     <path d="M 41.109375 46.296875 
Q 39.59375 47.171875 37.8125 47.578125 
Q 36.03125 48 33.890625 48 
Q 26.265625 48 22.1875 43.046875 
Q 18.109375 38.09375 18.109375 28.8125 
L 18.109375 0 
L 9.078125 0 
L 9.078125 54.6875 
L 18.109375 54.6875 
L 18.109375 46.1875 
Q 20.953125 51.171875 25.484375 53.578125 
Q 30.03125 56 36.53125 56 
Q 37.453125 56 38.578125 55.875 
Q 39.703125 55.765625 41.0625 55.515625 
z
" id="DejaVuSans-114"/>
     <path d="M 56.203125 29.59375 
L 56.203125 25.203125 
L 14.890625 25.203125 
Q 15.484375 15.921875 20.484375 11.0625 
Q 25.484375 6.203125 34.421875 6.203125 
Q 39.59375 6.203125 44.453125 7.46875 
Q 49.3125 8.734375 54.109375 11.28125 
L 54.109375 2.78125 
Q 49.265625 0.734375 44.1875 -0.34375 
Q 39.109375 -1.421875 33.890625 -1.421875 
Q 20.796875 -1.421875 13.15625 6.1875 
Q 5.515625 13.8125 5.515625 26.8125 
Q 5.515625 40.234375 12.765625 48.109375 
Q 20.015625 56 32.328125 56 
Q 43.359375 56 49.78125 48.890625 
Q 56.203125 41.796875 56.203125 29.59375 
z
M 47.21875 32.234375 
Q 47.125 39.59375 43.09375 43.984375 
Q 39.0625 48.390625 32.421875 48.390625 
Q 24.90625 48.390625 20.390625 44.140625 
Q 15.875 39.890625 15.1875 32.171875 
z
" id="DejaVuSans-101"/>
     <path d="M 48.78125 52.59375 
L 48.78125 44.1875 
Q 44.96875 46.296875 41.140625 47.34375 
Q 37.3125 48.390625 33.40625 48.390625 
Q 24.65625 48.390625 19.8125 42.84375 
Q 14.984375 37.3125 14.984375 27.296875 
Q 14.984375 17.28125 19.8125 11.734375 
Q 24.65625 6.203125 33.40625 6.203125 
Q 37.3125 6.203125 41.140625 7.25 
Q 44.96875 8.296875 48.78125 10.40625 
L 48.78125 2.09375 
Q 45.015625 0.34375 40.984375 -0.53125 
Q 36.96875 -1.421875 32.421875 -1.421875 
Q 20.0625 -1.421875 12.78125 6.34375 
Q 5.515625 14.109375 5.515625 27.296875 
Q 5.515625 40.671875 12.859375 48.328125 
Q 20.21875 56 33.015625 56 
Q 37.15625 56 41.109375 55.140625 
Q 45.0625 54.296875 48.78125 52.59375 
z
" id="DejaVuSans-99"/>
     <path d="M 34.28125 27.484375 
Q 23.390625 27.484375 19.1875 25 
Q 14.984375 22.515625 14.984375 16.5 
Q 14.984375 11.71875 18.140625 8.90625 
Q 21.296875 6.109375 26.703125 6.109375 
Q 34.1875 6.109375 38.703125 11.40625 
Q 43.21875 16.703125 43.21875 25.484375 
L 43.21875 27.484375 
z
M 52.203125 31.203125 
L 52.203125 0 
L 43.21875 0 
L 43.21875 8.296875 
Q 40.140625 3.328125 35.546875 0.953125 
Q 30.953125 -1.421875 24.3125 -1.421875 
Q 15.921875 -1.421875 10.953125 3.296875 
Q 6 8.015625 6 15.921875 
Q 6 25.140625 12.171875 29.828125 
Q 18.359375 34.515625 30.609375 34.515625 
L 43.21875 34.515625 
L 43.21875 35.40625 
Q 43.21875 41.609375 39.140625 45 
Q 35.0625 48.390625 27.6875 48.390625 
Q 23 48.390625 18.546875 47.265625 
Q 14.109375 46.140625 10.015625 43.890625 
L 10.015625 52.203125 
Q 14.9375 54.109375 19.578125 55.046875 
Q 24.21875 56 28.609375 56 
Q 40.484375 56 46.34375 49.84375 
Q 52.203125 43.703125 52.203125 31.203125 
z
" id="DejaVuSans-97"/>
     <path d="M 44.28125 53.078125 
L 44.28125 44.578125 
Q 40.484375 46.53125 36.375 47.5 
Q 32.28125 48.484375 27.875 48.484375 
Q 21.1875 48.484375 17.84375 46.4375 
Q 14.5 44.390625 14.5 40.28125 
Q 14.5 37.15625 16.890625 35.375 
Q 19.28125 33.59375 26.515625 31.984375 
L 29.59375 31.296875 
Q 39.15625 29.25 43.1875 25.515625 
Q 47.21875 21.78125 47.21875 15.09375 
Q 47.21875 7.46875 41.1875 3.015625 
Q 35.15625 -1.421875 24.609375 -1.421875 
Q 20.21875 -1.421875 15.453125 -0.5625 
Q 10.6875 0.296875 5.421875 2 
L 5.421875 11.28125 
Q 10.40625 8.6875 15.234375 7.390625 
Q 20.0625 6.109375 24.8125 6.109375 
Q 31.15625 6.109375 34.5625 8.28125 
Q 37.984375 10.453125 37.984375 14.40625 
Q 37.984375 18.0625 35.515625 20.015625 
Q 33.0625 21.96875 24.703125 23.78125 
L 21.578125 24.515625 
Q 13.234375 26.265625 9.515625 29.90625 
Q 5.8125 33.546875 5.8125 39.890625 
Q 5.8125 47.609375 11.28125 51.796875 
Q 16.75 56 26.8125 56 
Q 31.78125 56 36.171875 55.265625 
Q 40.578125 54.546875 44.28125 53.078125 
z
" id="DejaVuSans-115"/>
     <path d="M 18.3125 70.21875 
L 18.3125 54.6875 
L 36.8125 54.6875 
L 36.8125 47.703125 
L 18.3125 47.703125 
L 18.3125 18.015625 
Q 18.3125 11.328125 20.140625 9.421875 
Q 21.96875 7.515625 27.59375 7.515625 
L 36.8125 7.515625 
L 36.8125 0 
L 27.59375 0 
Q 17.1875 0 13.234375 3.875 
Q 9.28125 7.765625 9.28125 18.015625 
L 9.28125 47.703125 
L 2.6875 47.703125 
L 2.6875 54.6875 
L 9.28125 54.6875 
L 9.28125 70.21875 
z
" id="DejaVuSans-116"/>
     <path id="DejaVuSans-32"/>
     <path d="M 31 75.875 
Q 24.46875 64.65625 21.28125 53.65625 
Q 18.109375 42.671875 18.109375 31.390625 
Q 18.109375 20.125 21.3125 9.0625 
Q 24.515625 -2 31 -13.1875 
L 23.1875 -13.1875 
Q 15.875 -1.703125 12.234375 9.375 
Q 8.59375 20.453125 8.59375 31.390625 
Q 8.59375 42.28125 12.203125 53.3125 
Q 15.828125 64.359375 23.1875 75.875 
z
" id="DejaVuSans-40"/>
     <path d="M 19.671875 64.796875 
L 19.671875 8.109375 
L 31.59375 8.109375 
Q 46.6875 8.109375 53.6875 14.9375 
Q 60.6875 21.78125 60.6875 36.53125 
Q 60.6875 51.171875 53.6875 57.984375 
Q 46.6875 64.796875 31.59375 64.796875 
z
M 9.8125 72.90625 
L 30.078125 72.90625 
Q 51.265625 72.90625 61.171875 64.09375 
Q 71.09375 55.28125 71.09375 36.53125 
Q 71.09375 17.671875 61.125 8.828125 
Q 51.171875 0 30.078125 0 
L 9.8125 0 
z
" id="DejaVuSans-68"/>
     <path d="M 9.421875 75.984375 
L 18.40625 75.984375 
L 18.40625 0 
L 9.421875 0 
z
" id="DejaVuSans-108"/>
     <path d="M 34.1875 63.1875 
L 20.796875 26.90625 
L 47.609375 26.90625 
z
M 28.609375 72.90625 
L 39.796875 72.90625 
L 67.578125 0 
L 57.328125 0 
L 50.6875 18.703125 
L 17.828125 18.703125 
L 11.1875 0 
L 0.78125 0 
z
" id="DejaVuSans-65"/>
     <path d="M 8.5 21.578125 
L 8.5 54.6875 
L 17.484375 54.6875 
L 17.484375 21.921875 
Q 17.484375 14.15625 20.5 10.265625 
Q 23.53125 6.390625 29.59375 6.390625 
Q 36.859375 6.390625 41.078125 11.03125 
Q 45.3125 15.671875 45.3125 23.6875 
L 45.3125 54.6875 
L 54.296875 54.6875 
L 54.296875 0 
L 45.3125 0 
L 45.3125 8.40625 
Q 42.046875 3.421875 37.71875 1 
Q 33.40625 -1.421875 27.6875 -1.421875 
Q 18.265625 -1.421875 13.375 4.4375 
Q 8.5 10.296875 8.5 21.578125 
z
M 31.109375 56 
z
" id="DejaVuSans-117"/>
     <path d="M 45.40625 27.984375 
Q 45.40625 37.75 41.375 43.109375 
Q 37.359375 48.484375 30.078125 48.484375 
Q 22.859375 48.484375 18.828125 43.109375 
Q 14.796875 37.75 14.796875 27.984375 
Q 14.796875 18.265625 18.828125 12.890625 
Q 22.859375 7.515625 30.078125 7.515625 
Q 37.359375 7.515625 41.375 12.890625 
Q 45.40625 18.265625 45.40625 27.984375 
z
M 54.390625 6.78125 
Q 54.390625 -7.171875 48.1875 -13.984375 
Q 42 -20.796875 29.203125 -20.796875 
Q 24.46875 -20.796875 20.265625 -20.09375 
Q 16.0625 -19.390625 12.109375 -17.921875 
L 12.109375 -9.1875 
Q 16.0625 -11.328125 19.921875 -12.34375 
Q 23.78125 -13.375 27.78125 -13.375 
Q 36.625 -13.375 41.015625 -8.765625 
Q 45.40625 -4.15625 45.40625 5.171875 
L 45.40625 9.625 
Q 42.625 4.78125 38.28125 2.390625 
Q 33.9375 0 27.875 0 
Q 17.828125 0 11.671875 7.65625 
Q 5.515625 15.328125 5.515625 27.984375 
Q 5.515625 40.671875 11.671875 48.328125 
Q 17.828125 56 27.875 56 
Q 33.9375 56 38.28125 53.609375 
Q 42.625 51.21875 45.40625 46.390625 
L 45.40625 54.6875 
L 54.390625 54.6875 
z
" id="DejaVuSans-103"/>
     <path d="M 9.421875 54.6875 
L 18.40625 54.6875 
L 18.40625 0 
L 9.421875 0 
z
M 9.421875 75.984375 
L 18.40625 75.984375 
L 18.40625 64.59375 
L 9.421875 64.59375 
z
" id="DejaVuSans-105"/>
     <path d="M 45.40625 46.390625 
L 45.40625 75.984375 
L 54.390625 75.984375 
L 54.390625 0 
L 45.40625 0 
L 45.40625 8.203125 
Q 42.578125 3.328125 38.25 0.953125 
Q 33.9375 -1.421875 27.875 -1.421875 
Q 17.96875 -1.421875 11.734375 6.484375 
Q 5.515625 14.40625 5.515625 27.296875 
Q 5.515625 40.1875 11.734375 48.09375 
Q 17.96875 56 27.875 56 
Q 33.9375 56 38.25 53.625 
Q 42.578125 51.265625 45.40625 46.390625 
z
M 14.796875 27.296875 
Q 14.796875 17.390625 18.875 11.75 
Q 22.953125 6.109375 30.078125 6.109375 
Q 37.203125 6.109375 41.296875 11.75 
Q 45.40625 17.390625 45.40625 27.296875 
Q 45.40625 37.203125 41.296875 42.84375 
Q 37.203125 48.484375 30.078125 48.484375 
Q 22.953125 48.484375 18.875 42.84375 
Q 14.796875 37.203125 14.796875 27.296875 
z
" id="DejaVuSans-100"/>
     <path d="M 8.015625 75.875 
L 15.828125 75.875 
Q 23.140625 64.359375 26.78125 53.3125 
Q 30.421875 42.28125 30.421875 31.390625 
Q 30.421875 20.453125 26.78125 9.375 
Q 23.140625 -1.703125 15.828125 -13.1875 
L 8.015625 -13.1875 
Q 14.5 -2 17.703125 9.0625 
Q 20.90625 20.125 20.90625 31.390625 
Q 20.90625 42.671875 17.703125 53.65625 
Q 14.5 64.65625 8.015625 75.875 
z
" id="DejaVuSans-41"/>
    </defs>
    <g transform="translate(194.632187 16.318125)scale(0.12 -0.12)">
     <use xlink:href="#DejaVuSans-70"/>
     <use x="57.472656" xlink:href="#DejaVuSans-111"/>
     <use x="118.654297" xlink:href="#DejaVuSans-114"/>
     <use x="159.736328" xlink:href="#DejaVuSans-101"/>
     <use x="221.259766" xlink:href="#DejaVuSans-99"/>
     <use x="276.240234" xlink:href="#DejaVuSans-97"/>
     <use x="337.519531" xlink:href="#DejaVuSans-115"/>
     <use x="389.619141" xlink:href="#DejaVuSans-116"/>
     <use x="428.828125" xlink:href="#DejaVuSans-32"/>
     <use x="460.615234" xlink:href="#DejaVuSans-40"/>
     <use x="499.628906" xlink:href="#DejaVuSans-68"/>
     <use x="576.630859" xlink:href="#DejaVuSans-101"/>
     <use x="638.154297" xlink:href="#DejaVuSans-108"/>
     <use x="665.9375" xlink:href="#DejaVuSans-116"/>
     <use x="705.146484" xlink:href="#DejaVuSans-97"/>
     <use x="766.425781" xlink:href="#DejaVuSans-32"/>
     <use x="798.212891" xlink:href="#DejaVuSans-65"/>
     <use x="866.621094" xlink:href="#DejaVuSans-117"/>
     <use x="930" xlink:href="#DejaVuSans-116"/>
     <use x="969.208984" xlink:href="#DejaVuSans-111"/>
     <use x="1030.390625" xlink:href="#DejaVuSans-103"/>
     <use x="1093.867188" xlink:href="#DejaVuSans-117"/>
     <use x="1157.246094" xlink:href="#DejaVuSans-105"/>
     <use x="1185.029297" xlink:href="#DejaVuSans-100"/>
     <use x="1248.505859" xlink:href="#DejaVuSans-101"/>
     <use x="1310.029297" xlink:href="#DejaVuSans-41"/>
    </g>
   </g>
   <g id="legend_1">
    <g id="patch_7">
     <path d="M 402.570312 59.674375 
L 491.775 59.674375 
Q 493.775 59.674375 493.775 57.674375 
L 493.775 29.318125 
Q 493.775 27.318125 491.775 27.318125 
L 402.570312 27.318125 
Q 400.570312 27.318125 400.570312 29.318125 
L 400.570312 57.674375 
Q 400.570312 59.674375 402.570312 59.674375 
z
" style="fill:#ffffff;opacity:0.8;stroke:#cccccc;stroke-linejoin:miter;"/>
    </g>
    <g id="line2d_19">
     <path d="M 404.570312 35.416562 
L 424.570312 35.416562 
" style="fill:none;stroke:#1f77b4;stroke-linecap:square;stroke-width:1.5;"/>
    </g>
    <g id="line2d_20"/>
    <g id="text_18">
     <!-- Actual data -->
     <g transform="translate(432.570312 38.916562)scale(0.1 -0.1)">
      <use xlink:href="#DejaVuSans-65"/>
      <use x="68.392578" xlink:href="#DejaVuSans-99"/>
      <use x="123.373047" xlink:href="#DejaVuSans-116"/>
      <use x="162.582031" xlink:href="#DejaVuSans-117"/>
      <use x="225.960938" xlink:href="#DejaVuSans-97"/>
      <use x="287.240234" xlink:href="#DejaVuSans-108"/>
      <use x="315.023438" xlink:href="#DejaVuSans-32"/>
      <use x="346.810547" xlink:href="#DejaVuSans-100"/>
      <use x="410.287109" xlink:href="#DejaVuSans-97"/>
      <use x="471.566406" xlink:href="#DejaVuSans-116"/>
      <use x="510.775391" xlink:href="#DejaVuSans-97"/>
     </g>
    </g>
    <g id="line2d_21">
     <path d="M 404.570312 50.094687 
L 424.570312 50.094687 
" style="fill:none;stroke:#ff8c00;stroke-linecap:square;stroke-width:1.5;"/>
    </g>
    <g id="line2d_22"/>
    <g id="text_19">
     <!-- Forecast -->
     <g transform="translate(432.570312 53.594687)scale(0.1 -0.1)">
      <use xlink:href="#DejaVuSans-70"/>
      <use x="57.472656" xlink:href="#DejaVuSans-111"/>
      <use x="118.654297" xlink:href="#DejaVuSans-114"/>
      <use x="159.736328" xlink:href="#DejaVuSans-101"/>
      <use x="221.259766" xlink:href="#DejaVuSans-99"/>
      <use x="276.240234" xlink:href="#DejaVuSans-97"/>
      <use x="337.519531" xlink:href="#DejaVuSans-115"/>
      <use x="389.619141" xlink:href="#DejaVuSans-116"/>
     </g>
    </g>
   </g>
  </g>
 </g>
 <defs>
  <clipPath id="p787868abf8">
   <rect height="217.44" width="446.4" x="52.375" y="22.318125"/>
  </clipPath>
 </defs>
</svg>
