<?xml version="1.0" encoding="utf-8" standalone="no"?>
<!DOCTYPE svg PUBLIC "-//W3C//DTD SVG 1.1//EN"
  "http://www.w3.org/Graphics/SVG/1.1/DTD/svg11.dtd">
<!-- Created with matplotlib (http://matplotlib.org/) -->
<svg height="263.63625pt" version="1.1" viewBox="0 0 397.875 263.63625" width="397.875pt" xmlns="http://www.w3.org/2000/svg" xmlns:xlink="http://www.w3.org/1999/xlink">
 <defs>
  <style type="text/css">
*{stroke-linecap:butt;stroke-linejoin:round;}
  </style>
 </defs>
 <g id="figure_1">
  <g id="patch_1">
   <path d="M 0 263.63625 
L 397.875 263.63625 
L 397.875 0 
L 0 0 
z
" style="fill:none;"/>
  </g>
  <g id="axes_1">
   <g id="patch_2">
    <path d="M 52.375 239.758125 
L 387.175 239.758125 
L 387.175 22.318125 
L 52.375 22.318125 
z
" style="fill:#ffffff;"/>
   </g>
   <g id="PolyCollection_1">
    <defs>
     <path d="M 220.539733 -61.316984 
L 220.539733 -48.401691 
L 222.069198 -48.41598 
L 223.598664 -42.795568 
L 225.128129 -45.349365 
L 226.657595 -43.765625 
L 228.18706 -42.104712 
L 229.716526 -55.686399 
L 231.245991 -59.975192 
L 232.775457 -55.725246 
L 234.304922 -58.752554 
L 235.834388 -62.773309 
L 237.363853 -72.106236 
L 238.893319 -67.710046 
L 240.422784 -73.081207 
L 241.95225 -81.425273 
L 243.481715 -98.541252 
L 245.011181 -82.966403 
L 246.540646 -93.416385 
L 248.070112 -109.368104 
L 249.599577 -132.699888 
L 251.129043 -130.277542 
L 252.658508 -93.317071 
L 254.187974 -74.591395 
L 255.717439 -73.779606 
L 257.246905 -68.466964 
L 258.77637 -58.5413 
L 260.305836 -54.582411 
L 261.835302 -59.39053 
L 263.364767 -54.662638 
L 264.894233 -47.537544 
L 266.423698 -47.423702 
L 267.953164 -48.317852 
L 269.482629 -60.131795 
L 271.012095 -61.724211 
L 272.54156 -55.780269 
L 274.071026 -51.964384 
L 275.600491 -49.142346 
L 277.129957 -47.842146 
L 278.659422 -47.942142 
L 280.188888 -50.152313 
L 281.718353 -47.243664 
L 283.247819 -55.82009 
L 284.777284 -55.568156 
L 286.30675 -55.939855 
L 287.836215 -60.14534 
L 289.365681 -70.51552 
L 290.895146 -79.151723 
L 292.424612 -54.896556 
L 293.954077 -43.554336 
L 295.483543 -41.883932 
L 297.013008 -43.589058 
L 298.542474 -39.693823 
L 300.071939 -37.899874 
L 301.601405 -39.520035 
L 303.13087 -33.761761 
L 304.660336 -36.720289 
L 306.189801 -35.660204 
L 307.719267 -34.293384 
L 309.248732 -47.454316 
L 310.778198 -50.547518 
L 312.307663 -47.295756 
L 313.837129 -47.951429 
L 315.366594 -54.028815 
L 316.89606 -60.067981 
L 318.425525 -56.0516 
L 319.954991 -62.084684 
L 321.484456 -68.807111 
L 323.013922 -84.44024 
L 324.543387 -71.515227 
L 326.072853 -79.834008 
L 327.602318 -96.457663 
L 329.131784 -116.142799 
L 330.661249 -112.781276 
L 332.190715 -79.276774 
L 333.72018 -61.65181 
L 335.249646 -62.821559 
L 336.779111 -58.353277 
L 338.308577 -48.34689 
L 339.838042 -45.009873 
L 341.367508 -50.525199 
L 342.896974 -44.789792 
L 344.426439 -39.160075 
L 345.955905 -38.575803 
L 347.48537 -39.491918 
L 349.014836 -49.041075 
L 350.544301 -50.744996 
L 352.073767 -46.762265 
L 353.603232 -43.226636 
L 355.132698 -38.925644 
L 356.662163 -39.619456 
L 358.191629 -38.785135 
L 359.721094 -40.332799 
L 361.25056 -38.253008 
L 362.780025 -44.98357 
L 364.309491 -46.698602 
L 365.838956 -46.301636 
L 367.368422 -49.772194 
L 368.897887 -60.318145 
L 370.427353 -68.76419 
L 371.956818 -43.959429 
L 371.956818 -57.746084 
L 371.956818 -57.746084 
L 370.427353 -84.251978 
L 368.897887 -74.788121 
L 367.368422 -63.507208 
L 365.838956 -59.52153 
L 364.309491 -59.253545 
L 362.780025 -58.742807 
L 361.25056 -50.04974 
L 359.721094 -52.48309 
L 358.191629 -51.727766 
L 356.662163 -51.427202 
L 355.132698 -51.726651 
L 353.603232 -55.442362 
L 352.073767 -57.903767 
L 350.544301 -64.54563 
L 349.014836 -62.655925 
L 347.48537 -51.538946 
L 345.955905 -51.014096 
L 344.426439 -51.048889 
L 342.896974 -57.613428 
L 341.367508 -62.970539 
L 339.838042 -57.78525 
L 338.308577 -62.483563 
L 336.779111 -71.701125 
L 335.249646 -76.784187 
L 333.72018 -78.237378 
L 332.190715 -96.542636 
L 330.661249 -136.404098 
L 329.131784 -137.939447 
L 327.602318 -115.262177 
L 326.072853 -97.102208 
L 324.543387 -88.332571 
L 323.013922 -103.598188 
L 321.484456 -85.266672 
L 319.954991 -77.527763 
L 318.425525 -71.582369 
L 316.89606 -75.629126 
L 315.366594 -67.439485 
L 313.837129 -62.363266 
L 312.307663 -59.20387 
L 310.778198 -64.117677 
L 309.248732 -60.180576 
L 307.719267 -45.514494 
L 306.189801 -47.87608 
L 304.660336 -47.917858 
L 303.13087 -45.511563 
L 301.601405 -51.202766 
L 300.071939 -51.701871 
L 298.542474 -52.127265 
L 297.013008 -56.422742 
L 295.483543 -54.888597 
L 293.954077 -55.63799 
L 292.424612 -68.932808 
L 290.895146 -98.402541 
L 289.365681 -86.903752 
L 287.836215 -75.446609 
L 286.30675 -70.464907 
L 284.777284 -69.802098 
L 283.247819 -69.484164 
L 281.718353 -58.575287 
L 280.188888 -63.042108 
L 278.659422 -61.171217 
L 277.129957 -62.361611 
L 275.600491 -62.942661 
L 274.071026 -66.624995 
L 272.54156 -69.604098 
L 271.012095 -75.904432 
L 269.482629 -73.94894 
L 267.953164 -62.070688 
L 266.423698 -61.016888 
L 264.894233 -61.809077 
L 263.364767 -68.790086 
L 261.835302 -75.233656 
L 260.305836 -68.653809 
L 258.77637 -73.04089 
L 257.246905 -84.026054 
L 255.717439 -89.824309 
L 254.187974 -89.822255 
L 252.658508 -110.887021 
L 251.129043 -153.851618 
L 249.599577 -157.597527 
L 248.070112 -131.498515 
L 246.540646 -112.137865 
L 245.011181 -100.710982 
L 243.481715 -118.346879 
L 241.95225 -99.116565 
L 240.422784 -89.838527 
L 238.893319 -84.818207 
L 237.363853 -87.889834 
L 235.834388 -78.04152 
L 234.304922 -73.850519 
L 232.775457 -70.645228 
L 231.245991 -75.53901 
L 229.716526 -71.575933 
L 228.18706 -55.430516 
L 226.657595 -56.461642 
L 225.128129 -58.162368 
L 223.598664 -54.045122 
L 222.069198 -61.456146 
L 220.539733 -61.316984 
z
" id="me6417a3c72" style="stroke:#ff8c00;stroke-opacity:0.4;"/>
    </defs>
    <g clip-path="url(#p6db7d6cbff)">
     <use style="fill:#ff8c00;fill-opacity:0.4;stroke:#ff8c00;stroke-opacity:0.4;" x="0" xlink:href="#me6417a3c72" y="263.63625"/>
    </g>
   </g>
   <g id="matplotlib.axis_1">
    <g id="xtick_1">
     <g id="line2d_1">
      <defs>
       <path d="M 0 0 
L 0 3.5 
" id="m8edc49d5fa" style="stroke:#000000;stroke-width:0.8;"/>
      </defs>
      <g>
       <use style="stroke:#000000;stroke-width:0.8;" x="76.98847" xlink:href="#m8edc49d5fa" y="239.758125"/>
      </g>
     </g>
     <g id="text_1">
      <!-- 2015-11 -->
      <defs>
       <path d="M 19.1875 8.296875 
L 53.609375 8.296875 
L 53.609375 0 
L 7.328125 0 
L 7.328125 8.296875 
Q 12.9375 14.109375 22.625 23.890625 
Q 32.328125 33.6875 34.8125 36.53125 
Q 39.546875 41.84375 41.421875 45.53125 
Q 43.3125 49.21875 43.3125 52.78125 
Q 43.3125 58.59375 39.234375 62.25 
Q 35.15625 65.921875 28.609375 65.921875 
Q 23.96875 65.921875 18.8125 64.3125 
Q 13.671875 62.703125 7.8125 59.421875 
L 7.8125 69.390625 
Q 13.765625 71.78125 18.9375 73 
Q 24.125 74.21875 28.421875 74.21875 
Q 39.75 74.21875 46.484375 68.546875 
Q 53.21875 62.890625 53.21875 53.421875 
Q 53.21875 48.921875 51.53125 44.890625 
Q 49.859375 40.875 45.40625 35.40625 
Q 44.1875 33.984375 37.640625 27.21875 
Q 31.109375 20.453125 19.1875 8.296875 
z
" id="DejaVuSans-32"/>
       <path d="M 31.78125 66.40625 
Q 24.171875 66.40625 20.328125 58.90625 
Q 16.5 51.421875 16.5 36.375 
Q 16.5 21.390625 20.328125 13.890625 
Q 24.171875 6.390625 31.78125 6.390625 
Q 39.453125 6.390625 43.28125 13.890625 
Q 47.125 21.390625 47.125 36.375 
Q 47.125 51.421875 43.28125 58.90625 
Q 39.453125 66.40625 31.78125 66.40625 
z
M 31.78125 74.21875 
Q 44.046875 74.21875 50.515625 64.515625 
Q 56.984375 54.828125 56.984375 36.375 
Q 56.984375 17.96875 50.515625 8.265625 
Q 44.046875 -1.421875 31.78125 -1.421875 
Q 19.53125 -1.421875 13.0625 8.265625 
Q 6.59375 17.96875 6.59375 36.375 
Q 6.59375 54.828125 13.0625 64.515625 
Q 19.53125 74.21875 31.78125 74.21875 
z
" id="DejaVuSans-30"/>
       <path d="M 12.40625 8.296875 
L 28.515625 8.296875 
L 28.515625 63.921875 
L 10.984375 60.40625 
L 10.984375 69.390625 
L 28.421875 72.90625 
L 38.28125 72.90625 
L 38.28125 8.296875 
L 54.390625 8.296875 
L 54.390625 0 
L 12.40625 0 
z
" id="DejaVuSans-31"/>
       <path d="M 10.796875 72.90625 
L 49.515625 72.90625 
L 49.515625 64.59375 
L 19.828125 64.59375 
L 19.828125 46.734375 
Q 21.96875 47.46875 24.109375 47.828125 
Q 26.265625 48.1875 28.421875 48.1875 
Q 40.625 48.1875 47.75 41.5 
Q 54.890625 34.8125 54.890625 23.390625 
Q 54.890625 11.625 47.5625 5.09375 
Q 40.234375 -1.421875 26.90625 -1.421875 
Q 22.3125 -1.421875 17.546875 -0.640625 
Q 12.796875 0.140625 7.71875 1.703125 
L 7.71875 11.625 
Q 12.109375 9.234375 16.796875 8.0625 
Q 21.484375 6.890625 26.703125 6.890625 
Q 35.15625 6.890625 40.078125 11.328125 
Q 45.015625 15.765625 45.015625 23.390625 
Q 45.015625 31 40.078125 35.4375 
Q 35.15625 39.890625 26.703125 39.890625 
Q 22.75 39.890625 18.8125 39.015625 
Q 14.890625 38.140625 10.796875 36.28125 
z
" id="DejaVuSans-35"/>
       <path d="M 4.890625 31.390625 
L 31.203125 31.390625 
L 31.203125 23.390625 
L 4.890625 23.390625 
z
" id="DejaVuSans-2d"/>
      </defs>
      <g transform="translate(56.097064 254.356563)scale(0.1 -0.1)">
       <use xlink:href="#DejaVuSans-32"/>
       <use x="63.623047" xlink:href="#DejaVuSans-30"/>
       <use x="127.246094" xlink:href="#DejaVuSans-31"/>
       <use x="190.869141" xlink:href="#DejaVuSans-35"/>
       <use x="254.492188" xlink:href="#DejaVuSans-2d"/>
       <use x="290.576172" xlink:href="#DejaVuSans-31"/>
       <use x="354.199219" xlink:href="#DejaVuSans-31"/>
      </g>
     </g>
    </g>
    <g id="xtick_2">
     <g id="line2d_2">
      <g>
       <use style="stroke:#000000;stroke-width:0.8;" x="116.754573" xlink:href="#m8edc49d5fa" y="239.758125"/>
      </g>
     </g>
     <g id="text_2">
      <!-- 2016-05 -->
      <defs>
       <path d="M 33.015625 40.375 
Q 26.375 40.375 22.484375 35.828125 
Q 18.609375 31.296875 18.609375 23.390625 
Q 18.609375 15.53125 22.484375 10.953125 
Q 26.375 6.390625 33.015625 6.390625 
Q 39.65625 6.390625 43.53125 10.953125 
Q 47.40625 15.53125 47.40625 23.390625 
Q 47.40625 31.296875 43.53125 35.828125 
Q 39.65625 40.375 33.015625 40.375 
z
M 52.59375 71.296875 
L 52.59375 62.3125 
Q 48.875 64.0625 45.09375 64.984375 
Q 41.3125 65.921875 37.59375 65.921875 
Q 27.828125 65.921875 22.671875 59.328125 
Q 17.53125 52.734375 16.796875 39.40625 
Q 19.671875 43.65625 24.015625 45.921875 
Q 28.375 48.1875 33.59375 48.1875 
Q 44.578125 48.1875 50.953125 41.515625 
Q 57.328125 34.859375 57.328125 23.390625 
Q 57.328125 12.15625 50.6875 5.359375 
Q 44.046875 -1.421875 33.015625 -1.421875 
Q 20.359375 -1.421875 13.671875 8.265625 
Q 6.984375 17.96875 6.984375 36.375 
Q 6.984375 53.65625 15.1875 63.9375 
Q 23.390625 74.21875 37.203125 74.21875 
Q 40.921875 74.21875 44.703125 73.484375 
Q 48.484375 72.75 52.59375 71.296875 
z
" id="DejaVuSans-36"/>
      </defs>
      <g transform="translate(95.863167 254.356563)scale(0.1 -0.1)">
       <use xlink:href="#DejaVuSans-32"/>
       <use x="63.623047" xlink:href="#DejaVuSans-30"/>
       <use x="127.246094" xlink:href="#DejaVuSans-31"/>
       <use x="190.869141" xlink:href="#DejaVuSans-36"/>
       <use x="254.492188" xlink:href="#DejaVuSans-2d"/>
       <use x="290.576172" xlink:href="#DejaVuSans-30"/>
       <use x="354.199219" xlink:href="#DejaVuSans-35"/>
      </g>
     </g>
    </g>
    <g id="xtick_3">
     <g id="line2d_3">
      <g>
       <use style="stroke:#000000;stroke-width:0.8;" x="156.957667" xlink:href="#m8edc49d5fa" y="239.758125"/>
      </g>
     </g>
     <g id="text_3">
      <!-- 2016-11 -->
      <g transform="translate(136.06626 254.356563)scale(0.1 -0.1)">
       <use xlink:href="#DejaVuSans-32"/>
       <use x="63.623047" xlink:href="#DejaVuSans-30"/>
       <use x="127.246094" xlink:href="#DejaVuSans-31"/>
       <use x="190.869141" xlink:href="#DejaVuSans-36"/>
       <use x="254.492188" xlink:href="#DejaVuSans-2d"/>
       <use x="290.576172" xlink:href="#DejaVuSans-31"/>
       <use x="354.199219" xlink:href="#DejaVuSans-31"/>
      </g>
     </g>
    </g>
    <g id="xtick_4">
     <g id="line2d_4">
      <g>
       <use style="stroke:#000000;stroke-width:0.8;" x="196.505275" xlink:href="#m8edc49d5fa" y="239.758125"/>
      </g>
     </g>
     <g id="text_4">
      <!-- 2017-05 -->
      <defs>
       <path d="M 8.203125 72.90625 
L 55.078125 72.90625 
L 55.078125 68.703125 
L 28.609375 0 
L 18.3125 0 
L 43.21875 64.59375 
L 8.203125 64.59375 
z
" id="DejaVuSans-37"/>
      </defs>
      <g transform="translate(175.613869 254.356563)scale(0.1 -0.1)">
       <use xlink:href="#DejaVuSans-32"/>
       <use x="63.623047" xlink:href="#DejaVuSans-30"/>
       <use x="127.246094" xlink:href="#DejaVuSans-31"/>
       <use x="190.869141" xlink:href="#DejaVuSans-37"/>
       <use x="254.492188" xlink:href="#DejaVuSans-2d"/>
       <use x="290.576172" xlink:href="#DejaVuSans-30"/>
       <use x="354.199219" xlink:href="#DejaVuSans-35"/>
      </g>
     </g>
    </g>
    <g id="xtick_5">
     <g id="line2d_5">
      <g>
       <use style="stroke:#000000;stroke-width:0.8;" x="236.708368" xlink:href="#m8edc49d5fa" y="239.758125"/>
      </g>
     </g>
     <g id="text_5">
      <!-- 2017-11 -->
      <g transform="translate(215.816962 254.356563)scale(0.1 -0.1)">
       <use xlink:href="#DejaVuSans-32"/>
       <use x="63.623047" xlink:href="#DejaVuSans-30"/>
       <use x="127.246094" xlink:href="#DejaVuSans-31"/>
       <use x="190.869141" xlink:href="#DejaVuSans-37"/>
       <use x="254.492188" xlink:href="#DejaVuSans-2d"/>
       <use x="290.576172" xlink:href="#DejaVuSans-31"/>
       <use x="354.199219" xlink:href="#DejaVuSans-31"/>
      </g>
     </g>
    </g>
    <g id="xtick_6">
     <g id="line2d_6">
      <g>
       <use style="stroke:#000000;stroke-width:0.8;" x="276.255976" xlink:href="#m8edc49d5fa" y="239.758125"/>
      </g>
     </g>
     <g id="text_6">
      <!-- 2018-05 -->
      <defs>
       <path d="M 31.78125 34.625 
Q 24.75 34.625 20.71875 30.859375 
Q 16.703125 27.09375 16.703125 20.515625 
Q 16.703125 13.921875 20.71875 10.15625 
Q 24.75 6.390625 31.78125 6.390625 
Q 38.8125 6.390625 42.859375 10.171875 
Q 46.921875 13.96875 46.921875 20.515625 
Q 46.921875 27.09375 42.890625 30.859375 
Q 38.875 34.625 31.78125 34.625 
z
M 21.921875 38.8125 
Q 15.578125 40.375 12.03125 44.71875 
Q 8.5 49.078125 8.5 55.328125 
Q 8.5 64.0625 14.71875 69.140625 
Q 20.953125 74.21875 31.78125 74.21875 
Q 42.671875 74.21875 48.875 69.140625 
Q 55.078125 64.0625 55.078125 55.328125 
Q 55.078125 49.078125 51.53125 44.71875 
Q 48 40.375 41.703125 38.8125 
Q 48.828125 37.15625 52.796875 32.3125 
Q 56.78125 27.484375 56.78125 20.515625 
Q 56.78125 9.90625 50.3125 4.234375 
Q 43.84375 -1.421875 31.78125 -1.421875 
Q 19.734375 -1.421875 13.25 4.234375 
Q 6.78125 9.90625 6.78125 20.515625 
Q 6.78125 27.484375 10.78125 32.3125 
Q 14.796875 37.15625 21.921875 38.8125 
z
M 18.3125 54.390625 
Q 18.3125 48.734375 21.84375 45.5625 
Q 25.390625 42.390625 31.78125 42.390625 
Q 38.140625 42.390625 41.71875 45.5625 
Q 45.3125 48.734375 45.3125 54.390625 
Q 45.3125 60.0625 41.71875 63.234375 
Q 38.140625 66.40625 31.78125 66.40625 
Q 25.390625 66.40625 21.84375 63.234375 
Q 18.3125 60.0625 18.3125 54.390625 
z
" id="DejaVuSans-38"/>
      </defs>
      <g transform="translate(255.36457 254.356563)scale(0.1 -0.1)">
       <use xlink:href="#DejaVuSans-32"/>
       <use x="63.623047" xlink:href="#DejaVuSans-30"/>
       <use x="127.246094" xlink:href="#DejaVuSans-31"/>
       <use x="190.869141" xlink:href="#DejaVuSans-38"/>
       <use x="254.492188" xlink:href="#DejaVuSans-2d"/>
       <use x="290.576172" xlink:href="#DejaVuSans-30"/>
       <use x="354.199219" xlink:href="#DejaVuSans-35"/>
      </g>
     </g>
    </g>
    <g id="xtick_7">
     <g id="line2d_7">
      <g>
       <use style="stroke:#000000;stroke-width:0.8;" x="316.45907" xlink:href="#m8edc49d5fa" y="239.758125"/>
      </g>
     </g>
     <g id="text_7">
      <!-- 2018-11 -->
      <g transform="translate(295.567663 254.356563)scale(0.1 -0.1)">
       <use xlink:href="#DejaVuSans-32"/>
       <use x="63.623047" xlink:href="#DejaVuSans-30"/>
       <use x="127.246094" xlink:href="#DejaVuSans-31"/>
       <use x="190.869141" xlink:href="#DejaVuSans-38"/>
       <use x="254.492188" xlink:href="#DejaVuSans-2d"/>
       <use x="290.576172" xlink:href="#DejaVuSans-31"/>
       <use x="354.199219" xlink:href="#DejaVuSans-31"/>
      </g>
     </g>
    </g>
    <g id="xtick_8">
     <g id="line2d_8">
      <g>
       <use style="stroke:#000000;stroke-width:0.8;" x="356.006678" xlink:href="#m8edc49d5fa" y="239.758125"/>
      </g>
     </g>
     <g id="text_8">
      <!-- 2019-05 -->
      <defs>
       <path d="M 10.984375 1.515625 
L 10.984375 10.5 
Q 14.703125 8.734375 18.5 7.8125 
Q 22.3125 6.890625 25.984375 6.890625 
Q 35.75 6.890625 40.890625 13.453125 
Q 46.046875 20.015625 46.78125 33.40625 
Q 43.953125 29.203125 39.59375 26.953125 
Q 35.25 24.703125 29.984375 24.703125 
Q 19.046875 24.703125 12.671875 31.3125 
Q 6.296875 37.9375 6.296875 49.421875 
Q 6.296875 60.640625 12.9375 67.421875 
Q 19.578125 74.21875 30.609375 74.21875 
Q 43.265625 74.21875 49.921875 64.515625 
Q 56.59375 54.828125 56.59375 36.375 
Q 56.59375 19.140625 48.40625 8.859375 
Q 40.234375 -1.421875 26.421875 -1.421875 
Q 22.703125 -1.421875 18.890625 -0.6875 
Q 15.09375 0.046875 10.984375 1.515625 
z
M 30.609375 32.421875 
Q 37.25 32.421875 41.125 36.953125 
Q 45.015625 41.5 45.015625 49.421875 
Q 45.015625 57.28125 41.125 61.84375 
Q 37.25 66.40625 30.609375 66.40625 
Q 23.96875 66.40625 20.09375 61.84375 
Q 16.21875 57.28125 16.21875 49.421875 
Q 16.21875 41.5 20.09375 36.953125 
Q 23.96875 32.421875 30.609375 32.421875 
z
" id="DejaVuSans-39"/>
      </defs>
      <g transform="translate(335.115272 254.356563)scale(0.1 -0.1)">
       <use xlink:href="#DejaVuSans-32"/>
       <use x="63.623047" xlink:href="#DejaVuSans-30"/>
       <use x="127.246094" xlink:href="#DejaVuSans-31"/>
       <use x="190.869141" xlink:href="#DejaVuSans-39"/>
       <use x="254.492188" xlink:href="#DejaVuSans-2d"/>
       <use x="290.576172" xlink:href="#DejaVuSans-30"/>
       <use x="354.199219" xlink:href="#DejaVuSans-35"/>
      </g>
     </g>
    </g>
   </g>
   <g id="matplotlib.axis_2">
    <g id="ytick_1">
     <g id="line2d_9">
      <defs>
       <path d="M 0 0 
L -3.5 0 
" id="m7a7b588432" style="stroke:#000000;stroke-width:0.8;"/>
      </defs>
      <g>
       <use style="stroke:#000000;stroke-width:0.8;" x="52.375" xlink:href="#m7a7b588432" y="232.157707"/>
      </g>
     </g>
     <g id="text_9">
      <!-- 150000 -->
      <g transform="translate(7.2 235.956926)scale(0.1 -0.1)">
       <use xlink:href="#DejaVuSans-31"/>
       <use x="63.623047" xlink:href="#DejaVuSans-35"/>
       <use x="127.246094" xlink:href="#DejaVuSans-30"/>
       <use x="190.869141" xlink:href="#DejaVuSans-30"/>
       <use x="254.492188" xlink:href="#DejaVuSans-30"/>
       <use x="318.115234" xlink:href="#DejaVuSans-30"/>
      </g>
     </g>
    </g>
    <g id="ytick_2">
     <g id="line2d_10">
      <g>
       <use style="stroke:#000000;stroke-width:0.8;" x="52.375" xlink:href="#m7a7b588432" y="203.82763"/>
      </g>
     </g>
     <g id="text_10">
      <!-- 200000 -->
      <g transform="translate(7.2 207.626849)scale(0.1 -0.1)">
       <use xlink:href="#DejaVuSans-32"/>
       <use x="63.623047" xlink:href="#DejaVuSans-30"/>
       <use x="127.246094" xlink:href="#DejaVuSans-30"/>
       <use x="190.869141" xlink:href="#DejaVuSans-30"/>
       <use x="254.492188" xlink:href="#DejaVuSans-30"/>
       <use x="318.115234" xlink:href="#DejaVuSans-30"/>
      </g>
     </g>
    </g>
    <g id="ytick_3">
     <g id="line2d_11">
      <g>
       <use style="stroke:#000000;stroke-width:0.8;" x="52.375" xlink:href="#m7a7b588432" y="175.497554"/>
      </g>
     </g>
     <g id="text_11">
      <!-- 250000 -->
      <g transform="translate(7.2 179.296773)scale(0.1 -0.1)">
       <use xlink:href="#DejaVuSans-32"/>
       <use x="63.623047" xlink:href="#DejaVuSans-35"/>
       <use x="127.246094" xlink:href="#DejaVuSans-30"/>
       <use x="190.869141" xlink:href="#DejaVuSans-30"/>
       <use x="254.492188" xlink:href="#DejaVuSans-30"/>
       <use x="318.115234" xlink:href="#DejaVuSans-30"/>
      </g>
     </g>
    </g>
    <g id="ytick_4">
     <g id="line2d_12">
      <g>
       <use style="stroke:#000000;stroke-width:0.8;" x="52.375" xlink:href="#m7a7b588432" y="147.167478"/>
      </g>
     </g>
     <g id="text_12">
      <!-- 300000 -->
      <defs>
       <path d="M 40.578125 39.3125 
Q 47.65625 37.796875 51.625 33 
Q 55.609375 28.21875 55.609375 21.1875 
Q 55.609375 10.40625 48.1875 4.484375 
Q 40.765625 -1.421875 27.09375 -1.421875 
Q 22.515625 -1.421875 17.65625 -0.515625 
Q 12.796875 0.390625 7.625 2.203125 
L 7.625 11.71875 
Q 11.71875 9.328125 16.59375 8.109375 
Q 21.484375 6.890625 26.8125 6.890625 
Q 36.078125 6.890625 40.9375 10.546875 
Q 45.796875 14.203125 45.796875 21.1875 
Q 45.796875 27.640625 41.28125 31.265625 
Q 36.765625 34.90625 28.71875 34.90625 
L 20.21875 34.90625 
L 20.21875 43.015625 
L 29.109375 43.015625 
Q 36.375 43.015625 40.234375 45.921875 
Q 44.09375 48.828125 44.09375 54.296875 
Q 44.09375 59.90625 40.109375 62.90625 
Q 36.140625 65.921875 28.71875 65.921875 
Q 24.65625 65.921875 20.015625 65.03125 
Q 15.375 64.15625 9.8125 62.3125 
L 9.8125 71.09375 
Q 15.4375 72.65625 20.34375 73.4375 
Q 25.25 74.21875 29.59375 74.21875 
Q 40.828125 74.21875 47.359375 69.109375 
Q 53.90625 64.015625 53.90625 55.328125 
Q 53.90625 49.265625 50.4375 45.09375 
Q 46.96875 40.921875 40.578125 39.3125 
z
" id="DejaVuSans-33"/>
      </defs>
      <g transform="translate(7.2 150.966696)scale(0.1 -0.1)">
       <use xlink:href="#DejaVuSans-33"/>
       <use x="63.623047" xlink:href="#DejaVuSans-30"/>
       <use x="127.246094" xlink:href="#DejaVuSans-30"/>
       <use x="190.869141" xlink:href="#DejaVuSans-30"/>
       <use x="254.492188" xlink:href="#DejaVuSans-30"/>
       <use x="318.115234" xlink:href="#DejaVuSans-30"/>
      </g>
     </g>
    </g>
    <g id="ytick_5">
     <g id="line2d_13">
      <g>
       <use style="stroke:#000000;stroke-width:0.8;" x="52.375" xlink:href="#m7a7b588432" y="118.837401"/>
      </g>
     </g>
     <g id="text_13">
      <!-- 350000 -->
      <g transform="translate(7.2 122.63662)scale(0.1 -0.1)">
       <use xlink:href="#DejaVuSans-33"/>
       <use x="63.623047" xlink:href="#DejaVuSans-35"/>
       <use x="127.246094" xlink:href="#DejaVuSans-30"/>
       <use x="190.869141" xlink:href="#DejaVuSans-30"/>
       <use x="254.492188" xlink:href="#DejaVuSans-30"/>
       <use x="318.115234" xlink:href="#DejaVuSans-30"/>
      </g>
     </g>
    </g>
    <g id="ytick_6">
     <g id="line2d_14">
      <g>
       <use style="stroke:#000000;stroke-width:0.8;" x="52.375" xlink:href="#m7a7b588432" y="90.507325"/>
      </g>
     </g>
     <g id="text_14">
      <!-- 400000 -->
      <defs>
       <path d="M 37.796875 64.3125 
L 12.890625 25.390625 
L 37.796875 25.390625 
z
M 35.203125 72.90625 
L 47.609375 72.90625 
L 47.609375 25.390625 
L 58.015625 25.390625 
L 58.015625 17.1875 
L 47.609375 17.1875 
L 47.609375 0 
L 37.796875 0 
L 37.796875 17.1875 
L 4.890625 17.1875 
L 4.890625 26.703125 
z
" id="DejaVuSans-34"/>
      </defs>
      <g transform="translate(7.2 94.306544)scale(0.1 -0.1)">
       <use xlink:href="#DejaVuSans-34"/>
       <use x="63.623047" xlink:href="#DejaVuSans-30"/>
       <use x="127.246094" xlink:href="#DejaVuSans-30"/>
       <use x="190.869141" xlink:href="#DejaVuSans-30"/>
       <use x="254.492188" xlink:href="#DejaVuSans-30"/>
       <use x="318.115234" xlink:href="#DejaVuSans-30"/>
      </g>
     </g>
    </g>
    <g id="ytick_7">
     <g id="line2d_15">
      <g>
       <use style="stroke:#000000;stroke-width:0.8;" x="52.375" xlink:href="#m7a7b588432" y="62.177249"/>
      </g>
     </g>
     <g id="text_15">
      <!-- 450000 -->
      <g transform="translate(7.2 65.976467)scale(0.1 -0.1)">
       <use xlink:href="#DejaVuSans-34"/>
       <use x="63.623047" xlink:href="#DejaVuSans-35"/>
       <use x="127.246094" xlink:href="#DejaVuSans-30"/>
       <use x="190.869141" xlink:href="#DejaVuSans-30"/>
       <use x="254.492188" xlink:href="#DejaVuSans-30"/>
       <use x="318.115234" xlink:href="#DejaVuSans-30"/>
      </g>
     </g>
    </g>
    <g id="ytick_8">
     <g id="line2d_16">
      <g>
       <use style="stroke:#000000;stroke-width:0.8;" x="52.375" xlink:href="#m7a7b588432" y="33.847172"/>
      </g>
     </g>
     <g id="text_16">
      <!-- 500000 -->
      <g transform="translate(7.2 37.646391)scale(0.1 -0.1)">
       <use xlink:href="#DejaVuSans-35"/>
       <use x="63.623047" xlink:href="#DejaVuSans-30"/>
       <use x="127.246094" xlink:href="#DejaVuSans-30"/>
       <use x="190.869141" xlink:href="#DejaVuSans-30"/>
       <use x="254.492188" xlink:href="#DejaVuSans-30"/>
       <use x="318.115234" xlink:href="#DejaVuSans-30"/>
      </g>
     </g>
    </g>
   </g>
   <g id="line2d_17">
    <path clip-path="url(#p6db7d6cbff)" d="M 67.593182 192.868424 
L 69.122647 195.262882 
L 70.652113 188.429667 
L 72.181578 171.802179 
L 73.711044 185.209104 
L 76.769975 170.715437 
L 78.29944 152.211365 
L 79.828906 167.102786 
L 81.358371 144.094231 
L 82.887837 168.34251 
L 84.417302 99.294748 
L 85.946768 139.645276 
L 87.476233 136.038857 
L 89.005699 120.796709 
L 90.535164 87.465808 
L 92.06463 32.201761 
L 93.594095 102.549307 
L 95.123561 149.470146 
L 96.653026 140.402255 
L 98.182492 152.382478 
L 99.711958 170.749433 
L 101.241423 176.137814 
L 102.770889 166.544117 
L 104.300354 176.841533 
L 105.82982 182.926833 
L 107.359285 186.329842 
L 108.888751 183.59089 
L 110.418216 178.310731 
L 111.947682 163.928118 
L 113.477147 179.803726 
L 115.006613 178.307898 
L 116.536078 179.241657 
L 118.065544 168.755563 
L 119.595009 178.404787 
L 121.124475 180.711421 
L 122.65394 177.344675 
L 124.183406 185.526401 
L 125.712871 166.274981 
L 127.242337 176.648888 
L 128.771802 167.756644 
L 130.301268 165.617723 
L 131.830733 147.919358 
L 133.360199 165.000694 
L 134.889664 185.738877 
L 136.41913 192.947748 
L 137.948595 185.955885 
L 139.478061 192.739239 
L 141.007526 194.189172 
L 142.536992 194.938786 
L 144.066457 193.790284 
L 145.595923 207.62896 
L 147.125388 200.626898 
L 148.654854 204.70303 
L 150.184319 203.56926 
L 151.713785 181.967577 
L 153.24325 184.771121 
L 154.772716 182.685461 
L 156.302181 177.905044 
L 157.831647 170.620248 
L 159.361112 190.359512 
L 160.890578 154.083416 
L 162.420043 175.625606 
L 163.949509 117.942171 
L 165.478974 144.182621 
L 167.00844 138.629926 
L 168.537905 122.682926 
L 170.067371 118.519538 
L 171.596836 82.154485 
L 173.126302 117.251484 
L 174.655767 156.216104 
L 176.185233 157.942539 
L 177.714698 169.994153 
L 179.244164 177.828553 
L 180.77363 181.547725 
L 182.303095 196.558699 
L 183.832561 178.920394 
L 185.362026 191.233778 
L 186.891492 189.836539 
L 188.420957 187.810372 
L 189.950423 199.098208 
L 191.479888 181.263858 
L 193.009354 189.173049 
L 194.538819 180.250774 
L 196.068285 197.620511 
L 197.59775 195.305944 
L 199.127216 199.915247 
L 200.656681 197.853384 
L 202.186147 185.618191 
L 203.715612 196.634057 
L 205.245078 184.193754 
L 206.774543 187.462479 
L 208.304009 181.370379 
L 209.833474 173.862342 
L 211.36294 156.04669 
L 212.892405 171.099026 
L 214.421871 192.237796 
L 215.951336 204.521151 
L 217.480802 197.071474 
L 219.010267 204.802185 
L 220.539733 206.58698 
L 222.069198 205.965418 
L 223.598664 175.142295 
L 225.128129 197.07204 
L 226.657595 196.851066 
L 228.18706 196.469176 
L 229.716526 201.459236 
L 231.245991 187.259635 
L 232.775457 200.659195 
L 234.304922 194.75974 
L 235.834388 194.775038 
L 237.363853 179.967474 
L 238.893319 183.059418 
L 240.422784 161.33025 
L 241.95225 189.747016 
L 243.481715 132.406375 
L 245.011181 157.335142 
L 246.540646 154.261895 
L 248.070112 132.900451 
L 249.599577 117.987499 
L 251.129043 88.280581 
L 252.658508 116.169841 
L 254.187974 169.586767 
L 255.717439 165.187106 
L 257.246905 179.224659 
L 258.77637 184.986996 
L 260.305836 196.683352 
L 261.835302 205.927456 
L 263.364767 189.156617 
L 264.894233 200.889802 
L 266.423698 204.593109 
L 267.953164 206.4153 
L 269.482629 203.228733 
L 271.012095 185.832933 
L 272.54156 189.044997 
L 274.071026 203.748873 
L 275.600491 211.504515 
L 277.129957 209.345196 
L 278.659422 206.539385 
L 280.188888 199.837056 
L 281.718353 202.215083 
L 283.247819 208.630712 
L 284.777284 194.031657 
L 286.30675 200.414989 
L 287.836215 190.92838 
L 289.365681 185.957585 
L 290.895146 167.072756 
L 293.954077 203.097848 
L 295.483543 215.227653 
L 297.013008 212.228065 
L 298.542474 215.13813 
L 300.071939 218.938327 
L 301.601405 217.570551 
L 303.13087 218.781945 
L 304.660336 224.995864 
L 306.189801 218.772312 
L 307.719267 219.165534 
L 309.248732 219.796728 
L 310.778198 207.263502 
L 312.307663 209.209778 
L 313.837129 204.545515 
L 315.366594 204.660535 
L 316.89606 195.433995 
L 318.425525 183.440741 
L 319.954991 188.769628 
L 321.484456 193.255979 
L 323.013922 137.004913 
L 324.543387 168.967472 
L 326.072853 172.554059 
L 329.131784 131.585369 
L 330.661249 118.299696 
L 332.190715 121.965608 
L 333.72018 164.303208 
L 335.249646 175.032374 
L 336.779111 173.04077 
L 338.308577 179.567453 
L 339.838042 197.754795 
L 341.367508 202.076265 
L 342.896974 192.165271 
L 344.426439 198.523107 
L 345.955905 207.010798 
L 347.48537 209.451151 
L 349.014836 213.006009 
L 350.544301 206.035677 
L 352.073767 205.869096 
L 353.603232 197.145132 
L 355.132698 201.115309 
L 356.662163 201.542527 
L 358.191629 210.477266 
L 359.721094 208.399538 
L 361.25056 204.340971 
L 362.780025 209.733318 
L 364.309491 192.390212 
L 365.838956 200.473916 
L 367.368422 189.198546 
L 368.897887 189.909064 
L 370.427353 185.700348 
L 371.956818 179.113038 
L 371.956818 179.113038 
" style="fill:none;stroke:#1f77b4;stroke-linecap:square;stroke-width:1.5;"/>
   </g>
   <g id="line2d_18">
    <path clip-path="url(#p6db7d6cbff)" d="M 220.539733 207.992754 
L 222.069198 207.986716 
L 223.598664 214.616591 
L 225.128129 210.901066 
L 226.657595 212.255775 
L 228.18706 214.127207 
L 229.716526 198.25452 
L 231.245991 194.649243 
L 232.775457 199.302202 
L 234.304922 195.934641 
L 235.834388 192.02787 
L 237.363853 182.661009 
L 238.893319 186.365671 
L 240.422784 179.812304 
L 241.95225 172.117776 
L 243.481715 154.086461 
L 245.011181 169.901585 
L 246.540646 159.918898 
L 248.070112 142.351436 
L 249.599577 117.59125 
L 251.129043 119.825094 
L 252.658508 160.106072 
L 254.187974 180.496768 
L 255.717439 180.2014 
L 257.246905 186.859393 
L 258.77637 197.140874 
L 260.305836 201.150031 
L 261.835302 195.344818 
L 263.364767 201.254746 
L 264.894233 208.0066 
L 266.423698 208.848393 
L 267.953164 207.37244 
L 269.482629 195.898688 
L 271.012095 193.990578 
L 272.54156 200.492171 
L 274.071026 202.965732 
L 275.600491 206.806396 
L 277.129957 207.702556 
L 278.659422 207.628323 
L 280.188888 206.215528 
L 281.718353 210.039159 
L 283.247819 199.934582 
L 284.777284 199.773172 
L 286.30675 199.162535 
L 287.836215 195.241386 
L 289.365681 184.091748 
L 290.895146 173.908007 
L 292.424612 200.897867 
L 293.954077 213.442611 
L 295.483543 214.749096 
L 297.013008 213.209923 
L 298.542474 216.962782 
L 300.071939 217.244436 
L 301.601405 217.486331 
L 303.13087 222.9269 
L 304.660336 220.738685 
L 306.189801 221.491132 
L 307.719267 222.686768 
L 309.248732 209.304463 
L 310.778198 205.43916 
L 312.307663 209.799256 
L 313.837129 206.585714 
L 315.366594 202.511504 
L 316.89606 193.92279 
L 318.425525 198.095898 
L 319.954991 193.36698 
L 321.484456 185.389452 
L 323.013922 169.231216 
L 324.543387 182.616114 
L 326.072853 174.412822 
L 327.602318 157.00152 
L 329.131784 135.959444 
L 330.661249 137.378374 
L 332.190715 175.642268 
L 333.72018 192.537174 
L 335.249646 193.066185 
L 336.779111 198.093517 
L 338.308577 207.20585 
L 339.838042 211.263187 
L 341.367508 206.461017 
L 342.896974 211.598916 
L 344.426439 217.441365 
L 345.955905 218.077269 
L 347.48537 217.335376 
L 349.014836 206.975996 
L 350.544301 205.094737 
L 352.073767 210.649584 
L 353.603232 213.284538 
L 355.132698 217.310241 
L 356.662163 217.336615 
L 358.191629 217.756175 
L 359.721094 216.41324 
L 361.25056 218.440541 
L 362.780025 210.335686 
L 364.309491 209.652037 
L 365.838956 209.417225 
L 367.368422 206.0101 
L 368.897887 196.365984 
L 370.427353 185.985587 
L 371.956818 211.020354 
" style="fill:none;stroke:#ff8c00;stroke-linecap:square;stroke-width:1.5;"/>
   </g>
   <g id="patch_3">
    <path d="M 52.375 239.758125 
L 52.375 22.318125 
" style="fill:none;stroke:#000000;stroke-linecap:square;stroke-linejoin:miter;stroke-width:0.8;"/>
   </g>
   <g id="patch_4">
    <path d="M 387.175 239.758125 
L 387.175 22.318125 
" style="fill:none;stroke:#000000;stroke-linecap:square;stroke-linejoin:miter;stroke-width:0.8;"/>
   </g>
   <g id="patch_5">
    <path d="M 52.375 239.758125 
L 387.175 239.758125 
" style="fill:none;stroke:#000000;stroke-linecap:square;stroke-linejoin:miter;stroke-width:0.8;"/>
   </g>
   <g id="patch_6">
    <path d="M 52.375 22.318125 
L 387.175 22.318125 
" style="fill:none;stroke:#000000;stroke-linecap:square;stroke-linejoin:miter;stroke-width:0.8;"/>
   </g>
   <g id="text_17">
    <!-- Forecast (Delta Autoguide) -->
    <defs>
     <path d="M 9.8125 72.90625 
L 51.703125 72.90625 
L 51.703125 64.59375 
L 19.671875 64.59375 
L 19.671875 43.109375 
L 48.578125 43.109375 
L 48.578125 34.8125 
L 19.671875 34.8125 
L 19.671875 0 
L 9.8125 0 
z
" id="DejaVuSans-46"/>
     <path d="M 30.609375 48.390625 
Q 23.390625 48.390625 19.1875 42.75 
Q 14.984375 37.109375 14.984375 27.296875 
Q 14.984375 17.484375 19.15625 11.84375 
Q 23.34375 6.203125 30.609375 6.203125 
Q 37.796875 6.203125 41.984375 11.859375 
Q 46.1875 17.53125 46.1875 27.296875 
Q 46.1875 37.015625 41.984375 42.703125 
Q 37.796875 48.390625 30.609375 48.390625 
z
M 30.609375 56 
Q 42.328125 56 49.015625 48.375 
Q 55.71875 40.765625 55.71875 27.296875 
Q 55.71875 13.875 49.015625 6.21875 
Q 42.328125 -1.421875 30.609375 -1.421875 
Q 18.84375 -1.421875 12.171875 6.21875 
Q 5.515625 13.875 5.515625 27.296875 
Q 5.515625 40.765625 12.171875 48.375 
Q 18.84375 56 30.609375 56 
z
" id="DejaVuSans-6f"/>
     <path d="M 41.109375 46.296875 
Q 39.59375 47.171875 37.8125 47.578125 
Q 36.03125 48 33.890625 48 
Q 26.265625 48 22.1875 43.046875 
Q 18.109375 38.09375 18.109375 28.8125 
L 18.109375 0 
L 9.078125 0 
L 9.078125 54.6875 
L 18.109375 54.6875 
L 18.109375 46.1875 
Q 20.953125 51.171875 25.484375 53.578125 
Q 30.03125 56 36.53125 56 
Q 37.453125 56 38.578125 55.875 
Q 39.703125 55.765625 41.0625 55.515625 
z
" id="DejaVuSans-72"/>
     <path d="M 56.203125 29.59375 
L 56.203125 25.203125 
L 14.890625 25.203125 
Q 15.484375 15.921875 20.484375 11.0625 
Q 25.484375 6.203125 34.421875 6.203125 
Q 39.59375 6.203125 44.453125 7.46875 
Q 49.3125 8.734375 54.109375 11.28125 
L 54.109375 2.78125 
Q 49.265625 0.734375 44.1875 -0.34375 
Q 39.109375 -1.421875 33.890625 -1.421875 
Q 20.796875 -1.421875 13.15625 6.1875 
Q 5.515625 13.8125 5.515625 26.8125 
Q 5.515625 40.234375 12.765625 48.109375 
Q 20.015625 56 32.328125 56 
Q 43.359375 56 49.78125 48.890625 
Q 56.203125 41.796875 56.203125 29.59375 
z
M 47.21875 32.234375 
Q 47.125 39.59375 43.09375 43.984375 
Q 39.0625 48.390625 32.421875 48.390625 
Q 24.90625 48.390625 20.390625 44.140625 
Q 15.875 39.890625 15.1875 32.171875 
z
" id="DejaVuSans-65"/>
     <path d="M 48.78125 52.59375 
L 48.78125 44.1875 
Q 44.96875 46.296875 41.140625 47.34375 
Q 37.3125 48.390625 33.40625 48.390625 
Q 24.65625 48.390625 19.8125 42.84375 
Q 14.984375 37.3125 14.984375 27.296875 
Q 14.984375 17.28125 19.8125 11.734375 
Q 24.65625 6.203125 33.40625 6.203125 
Q 37.3125 6.203125 41.140625 7.25 
Q 44.96875 8.296875 48.78125 10.40625 
L 48.78125 2.09375 
Q 45.015625 0.34375 40.984375 -0.53125 
Q 36.96875 -1.421875 32.421875 -1.421875 
Q 20.0625 -1.421875 12.78125 6.34375 
Q 5.515625 14.109375 5.515625 27.296875 
Q 5.515625 40.671875 12.859375 48.328125 
Q 20.21875 56 33.015625 56 
Q 37.15625 56 41.109375 55.140625 
Q 45.0625 54.296875 48.78125 52.59375 
z
" id="DejaVuSans-63"/>
     <path d="M 34.28125 27.484375 
Q 23.390625 27.484375 19.1875 25 
Q 14.984375 22.515625 14.984375 16.5 
Q 14.984375 11.71875 18.140625 8.90625 
Q 21.296875 6.109375 26.703125 6.109375 
Q 34.1875 6.109375 38.703125 11.40625 
Q 43.21875 16.703125 43.21875 25.484375 
L 43.21875 27.484375 
z
M 52.203125 31.203125 
L 52.203125 0 
L 43.21875 0 
L 43.21875 8.296875 
Q 40.140625 3.328125 35.546875 0.953125 
Q 30.953125 -1.421875 24.3125 -1.421875 
Q 15.921875 -1.421875 10.953125 3.296875 
Q 6 8.015625 6 15.921875 
Q 6 25.140625 12.171875 29.828125 
Q 18.359375 34.515625 30.609375 34.515625 
L 43.21875 34.515625 
L 43.21875 35.40625 
Q 43.21875 41.609375 39.140625 45 
Q 35.0625 48.390625 27.6875 48.390625 
Q 23 48.390625 18.546875 47.265625 
Q 14.109375 46.140625 10.015625 43.890625 
L 10.015625 52.203125 
Q 14.9375 54.109375 19.578125 55.046875 
Q 24.21875 56 28.609375 56 
Q 40.484375 56 46.34375 49.84375 
Q 52.203125 43.703125 52.203125 31.203125 
z
" id="DejaVuSans-61"/>
     <path d="M 44.28125 53.078125 
L 44.28125 44.578125 
Q 40.484375 46.53125 36.375 47.5 
Q 32.28125 48.484375 27.875 48.484375 
Q 21.1875 48.484375 17.84375 46.4375 
Q 14.5 44.390625 14.5 40.28125 
Q 14.5 37.15625 16.890625 35.375 
Q 19.28125 33.59375 26.515625 31.984375 
L 29.59375 31.296875 
Q 39.15625 29.25 43.1875 25.515625 
Q 47.21875 21.78125 47.21875 15.09375 
Q 47.21875 7.46875 41.1875 3.015625 
Q 35.15625 -1.421875 24.609375 -1.421875 
Q 20.21875 -1.421875 15.453125 -0.5625 
Q 10.6875 0.296875 5.421875 2 
L 5.421875 11.28125 
Q 10.40625 8.6875 15.234375 7.390625 
Q 20.0625 6.109375 24.8125 6.109375 
Q 31.15625 6.109375 34.5625 8.28125 
Q 37.984375 10.453125 37.984375 14.40625 
Q 37.984375 18.0625 35.515625 20.015625 
Q 33.0625 21.96875 24.703125 23.78125 
L 21.578125 24.515625 
Q 13.234375 26.265625 9.515625 29.90625 
Q 5.8125 33.546875 5.8125 39.890625 
Q 5.8125 47.609375 11.28125 51.796875 
Q 16.75 56 26.8125 56 
Q 31.78125 56 36.171875 55.265625 
Q 40.578125 54.546875 44.28125 53.078125 
z
" id="DejaVuSans-73"/>
     <path d="M 18.3125 70.21875 
L 18.3125 54.6875 
L 36.8125 54.6875 
L 36.8125 47.703125 
L 18.3125 47.703125 
L 18.3125 18.015625 
Q 18.3125 11.328125 20.140625 9.421875 
Q 21.96875 7.515625 27.59375 7.515625 
L 36.8125 7.515625 
L 36.8125 0 
L 27.59375 0 
Q 17.1875 0 13.234375 3.875 
Q 9.28125 7.765625 9.28125 18.015625 
L 9.28125 47.703125 
L 2.6875 47.703125 
L 2.6875 54.6875 
L 9.28125 54.6875 
L 9.28125 70.21875 
z
" id="DejaVuSans-74"/>
     <path id="DejaVuSans-20"/>
     <path d="M 31 75.875 
Q 24.46875 64.65625 21.28125 53.65625 
Q 18.109375 42.671875 18.109375 31.390625 
Q 18.109375 20.125 21.3125 9.0625 
Q 24.515625 -2 31 -13.1875 
L 23.1875 -13.1875 
Q 15.875 -1.703125 12.234375 9.375 
Q 8.59375 20.453125 8.59375 31.390625 
Q 8.59375 42.28125 12.203125 53.3125 
Q 15.828125 64.359375 23.1875 75.875 
z
" id="DejaVuSans-28"/>
     <path d="M 19.671875 64.796875 
L 19.671875 8.109375 
L 31.59375 8.109375 
Q 46.6875 8.109375 53.6875 14.9375 
Q 60.6875 21.78125 60.6875 36.53125 
Q 60.6875 51.171875 53.6875 57.984375 
Q 46.6875 64.796875 31.59375 64.796875 
z
M 9.8125 72.90625 
L 30.078125 72.90625 
Q 51.265625 72.90625 61.171875 64.09375 
Q 71.09375 55.28125 71.09375 36.53125 
Q 71.09375 17.671875 61.125 8.828125 
Q 51.171875 0 30.078125 0 
L 9.8125 0 
z
" id="DejaVuSans-44"/>
     <path d="M 9.421875 75.984375 
L 18.40625 75.984375 
L 18.40625 0 
L 9.421875 0 
z
" id="DejaVuSans-6c"/>
     <path d="M 34.1875 63.1875 
L 20.796875 26.90625 
L 47.609375 26.90625 
z
M 28.609375 72.90625 
L 39.796875 72.90625 
L 67.578125 0 
L 57.328125 0 
L 50.6875 18.703125 
L 17.828125 18.703125 
L 11.1875 0 
L 0.78125 0 
z
" id="DejaVuSans-41"/>
     <path d="M 8.5 21.578125 
L 8.5 54.6875 
L 17.484375 54.6875 
L 17.484375 21.921875 
Q 17.484375 14.15625 20.5 10.265625 
Q 23.53125 6.390625 29.59375 6.390625 
Q 36.859375 6.390625 41.078125 11.03125 
Q 45.3125 15.671875 45.3125 23.6875 
L 45.3125 54.6875 
L 54.296875 54.6875 
L 54.296875 0 
L 45.3125 0 
L 45.3125 8.40625 
Q 42.046875 3.421875 37.71875 1 
Q 33.40625 -1.421875 27.6875 -1.421875 
Q 18.265625 -1.421875 13.375 4.4375 
Q 8.5 10.296875 8.5 21.578125 
z
M 31.109375 56 
z
" id="DejaVuSans-75"/>
     <path d="M 45.40625 27.984375 
Q 45.40625 37.75 41.375 43.109375 
Q 37.359375 48.484375 30.078125 48.484375 
Q 22.859375 48.484375 18.828125 43.109375 
Q 14.796875 37.75 14.796875 27.984375 
Q 14.796875 18.265625 18.828125 12.890625 
Q 22.859375 7.515625 30.078125 7.515625 
Q 37.359375 7.515625 41.375 12.890625 
Q 45.40625 18.265625 45.40625 27.984375 
z
M 54.390625 6.78125 
Q 54.390625 -7.171875 48.1875 -13.984375 
Q 42 -20.796875 29.203125 -20.796875 
Q 24.46875 -20.796875 20.265625 -20.09375 
Q 16.0625 -19.390625 12.109375 -17.921875 
L 12.109375 -9.1875 
Q 16.0625 -11.328125 19.921875 -12.34375 
Q 23.78125 -13.375 27.78125 -13.375 
Q 36.625 -13.375 41.015625 -8.765625 
Q 45.40625 -4.15625 45.40625 5.171875 
L 45.40625 9.625 
Q 42.625 4.78125 38.28125 2.390625 
Q 33.9375 0 27.875 0 
Q 17.828125 0 11.671875 7.65625 
Q 5.515625 15.328125 5.515625 27.984375 
Q 5.515625 40.671875 11.671875 48.328125 
Q 17.828125 56 27.875 56 
Q 33.9375 56 38.28125 53.609375 
Q 42.625 51.21875 45.40625 46.390625 
L 45.40625 54.6875 
L 54.390625 54.6875 
z
" id="DejaVuSans-67"/>
     <path d="M 9.421875 54.6875 
L 18.40625 54.6875 
L 18.40625 0 
L 9.421875 0 
z
M 9.421875 75.984375 
L 18.40625 75.984375 
L 18.40625 64.59375 
L 9.421875 64.59375 
z
" id="DejaVuSans-69"/>
     <path d="M 45.40625 46.390625 
L 45.40625 75.984375 
L 54.390625 75.984375 
L 54.390625 0 
L 45.40625 0 
L 45.40625 8.203125 
Q 42.578125 3.328125 38.25 0.953125 
Q 33.9375 -1.421875 27.875 -1.421875 
Q 17.96875 -1.421875 11.734375 6.484375 
Q 5.515625 14.40625 5.515625 27.296875 
Q 5.515625 40.1875 11.734375 48.09375 
Q 17.96875 56 27.875 56 
Q 33.9375 56 38.25 53.625 
Q 42.578125 51.265625 45.40625 46.390625 
z
M 14.796875 27.296875 
Q 14.796875 17.390625 18.875 11.75 
Q 22.953125 6.109375 30.078125 6.109375 
Q 37.203125 6.109375 41.296875 11.75 
Q 45.40625 17.390625 45.40625 27.296875 
Q 45.40625 37.203125 41.296875 42.84375 
Q 37.203125 48.484375 30.078125 48.484375 
Q 22.953125 48.484375 18.875 42.84375 
Q 14.796875 37.203125 14.796875 27.296875 
z
" id="DejaVuSans-64"/>
     <path d="M 8.015625 75.875 
L 15.828125 75.875 
Q 23.140625 64.359375 26.78125 53.3125 
Q 30.421875 42.28125 30.421875 31.390625 
Q 30.421875 20.453125 26.78125 9.375 
Q 23.140625 -1.703125 15.828125 -13.1875 
L 8.015625 -13.1875 
Q 14.5 -2 17.703125 9.0625 
Q 20.90625 20.125 20.90625 31.390625 
Q 20.90625 42.671875 17.703125 53.65625 
Q 14.5 64.65625 8.015625 75.875 
z
" id="DejaVuSans-29"/>
    </defs>
    <g transform="translate(138.832188 16.318125)scale(0.12 -0.12)">
     <use xlink:href="#DejaVuSans-46"/>
     <use x="57.472656" xlink:href="#DejaVuSans-6f"/>
     <use x="118.654297" xlink:href="#DejaVuSans-72"/>
     <use x="159.736328" xlink:href="#DejaVuSans-65"/>
     <use x="221.259766" xlink:href="#DejaVuSans-63"/>
     <use x="276.240234" xlink:href="#DejaVuSans-61"/>
     <use x="337.519531" xlink:href="#DejaVuSans-73"/>
     <use x="389.619141" xlink:href="#DejaVuSans-74"/>
     <use x="428.828125" xlink:href="#DejaVuSans-20"/>
     <use x="460.615234" xlink:href="#DejaVuSans-28"/>
     <use x="499.628906" xlink:href="#DejaVuSans-44"/>
     <use x="576.630859" xlink:href="#DejaVuSans-65"/>
     <use x="638.154297" xlink:href="#DejaVuSans-6c"/>
     <use x="665.9375" xlink:href="#DejaVuSans-74"/>
     <use x="705.146484" xlink:href="#DejaVuSans-61"/>
     <use x="766.425781" xlink:href="#DejaVuSans-20"/>
     <use x="798.212891" xlink:href="#DejaVuSans-41"/>
     <use x="866.621094" xlink:href="#DejaVuSans-75"/>
     <use x="930" xlink:href="#DejaVuSans-74"/>
     <use x="969.208984" xlink:href="#DejaVuSans-6f"/>
     <use x="1030.390625" xlink:href="#DejaVuSans-67"/>
     <use x="1093.867188" xlink:href="#DejaVuSans-75"/>
     <use x="1157.246094" xlink:href="#DejaVuSans-69"/>
     <use x="1185.029297" xlink:href="#DejaVuSans-64"/>
     <use x="1248.505859" xlink:href="#DejaVuSans-65"/>
     <use x="1310.029297" xlink:href="#DejaVuSans-29"/>
    </g>
   </g>
   <g id="legend_1">
    <g id="patch_7">
     <path d="M 290.970313 59.674375 
L 380.175 59.674375 
Q 382.175 59.674375 382.175 57.674375 
L 382.175 29.318125 
Q 382.175 27.318125 380.175 27.318125 
L 290.970313 27.318125 
Q 288.970313 27.318125 288.970313 29.318125 
L 288.970313 57.674375 
Q 288.970313 59.674375 290.970313 59.674375 
z
" style="fill:#ffffff;opacity:0.8;stroke:#cccccc;stroke-linejoin:miter;"/>
    </g>
    <g id="line2d_19">
     <path d="M 292.970313 35.416562 
L 312.970313 35.416562 
" style="fill:none;stroke:#1f77b4;stroke-linecap:square;stroke-width:1.5;"/>
    </g>
    <g id="line2d_20"/>
    <g id="text_18">
     <!-- Actual data -->
     <g transform="translate(320.970313 38.916562)scale(0.1 -0.1)">
      <use xlink:href="#DejaVuSans-41"/>
      <use x="68.392578" xlink:href="#DejaVuSans-63"/>
      <use x="123.373047" xlink:href="#DejaVuSans-74"/>
      <use x="162.582031" xlink:href="#DejaVuSans-75"/>
      <use x="225.960938" xlink:href="#DejaVuSans-61"/>
      <use x="287.240234" xlink:href="#DejaVuSans-6c"/>
      <use x="315.023438" xlink:href="#DejaVuSans-20"/>
      <use x="346.810547" xlink:href="#DejaVuSans-64"/>
      <use x="410.287109" xlink:href="#DejaVuSans-61"/>
      <use x="471.566406" xlink:href="#DejaVuSans-74"/>
      <use x="510.775391" xlink:href="#DejaVuSans-61"/>
     </g>
    </g>
    <g id="line2d_21">
     <path d="M 292.970313 50.094687 
L 312.970313 50.094687 
" style="fill:none;stroke:#ff8c00;stroke-linecap:square;stroke-width:1.5;"/>
    </g>
    <g id="line2d_22"/>
    <g id="text_19">
     <!-- Forecast -->
     <g transform="translate(320.970313 53.594687)scale(0.1 -0.1)">
      <use xlink:href="#DejaVuSans-46"/>
      <use x="57.472656" xlink:href="#DejaVuSans-6f"/>
      <use x="118.654297" xlink:href="#DejaVuSans-72"/>
      <use x="159.736328" xlink:href="#DejaVuSans-65"/>
      <use x="221.259766" xlink:href="#DejaVuSans-63"/>
      <use x="276.240234" xlink:href="#DejaVuSans-61"/>
      <use x="337.519531" xlink:href="#DejaVuSans-73"/>
      <use x="389.619141" xlink:href="#DejaVuSans-74"/>
     </g>
    </g>
   </g>
  </g>
 </g>
 <defs>
  <clipPath id="p6db7d6cbff">
   <rect height="217.44" width="334.8" x="52.375" y="22.318125"/>
  </clipPath>
 </defs>
</svg>
