<?xml version="1.0" encoding="utf-8" standalone="no"?>
<!DOCTYPE svg PUBLIC "-//W3C//DTD SVG 1.1//EN"
  "http://www.w3.org/Graphics/SVG/1.1/DTD/svg11.dtd">
<!-- Created with matplotlib (http://matplotlib.org/) -->
<svg height="277.314375pt" version="1.1" viewBox="0 0 417.915625 277.314375" width="417.915625pt" xmlns="http://www.w3.org/2000/svg" xmlns:xlink="http://www.w3.org/1999/xlink">
 <defs>
  <style type="text/css">
*{stroke-linecap:butt;stroke-linejoin:round;}
  </style>
 </defs>
 <g id="figure_1">
  <g id="patch_1">
   <path d="M 0 277.314375 
L 417.915625 277.314375 
L 417.915625 0 
L 0 0 
z
" style="fill:none;"/>
  </g>
  <g id="axes_1">
   <g id="patch_2">
    <path d="M 72.415625 239.758125 
L 407.215625 239.758125 
L 407.215625 22.318125 
L 72.415625 22.318125 
z
" style="fill:#ffffff;"/>
   </g>
   <g id="PolyCollection_1">
    <path clip-path="url(#pc7d0635654)" d="M 88.400466 136.633563 
L 88.400466 172.556411 
L 89.167125 175.631352 
L 89.933784 188.329838 
L 90.700443 193.649708 
L 91.467102 194.313444 
L 92.233761 196.036724 
L 93.00042 199.710202 
L 93.767079 201.023479 
L 94.533738 200.216654 
L 95.300397 202.108912 
L 96.067056 203.880209 
L 96.833715 204.376502 
L 97.600374 204.518307 
L 98.367033 201.232551 
L 99.133692 201.43194 
L 99.900351 203.656117 
L 100.66701 203.967355 
L 101.433669 206.420071 
L 102.200328 205.662762 
L 102.966987 207.702308 
L 103.733647 206.858743 
L 104.500306 207.686194 
L 105.266965 205.088628 
L 106.033624 206.158759 
L 106.800283 205.402133 
L 107.566942 204.588408 
L 108.333601 202.251865 
L 109.10026 199.182217 
L 109.866919 207.944516 
L 110.633578 210.88211 
L 111.400237 212.052508 
L 112.166896 211.400951 
L 112.933555 213.484863 
L 113.700214 213.318391 
L 114.466873 213.597973 
L 115.233532 215.278302 
L 116.000191 215.07136 
L 116.76685 215.569661 
L 117.533509 216.228633 
L 118.300168 212.960894 
L 119.066827 211.855122 
L 119.833486 213.232976 
L 120.600145 213.686638 
L 121.366804 212.594963 
L 122.133463 210.918412 
L 122.900122 212.537758 
L 123.666781 210.904489 
L 124.43344 210.393318 
L 125.200099 205.80158 
L 125.966759 210.291767 
L 126.733418 209.700966 
L 127.500077 205.52233 
L 128.266736 200.61918 
L 129.033395 202.007847 
L 129.800054 210.12796 
L 130.566713 214.450861 
L 131.333372 213.569342 
L 132.100031 216.092438 
L 132.86669 217.499135 
L 133.633349 219.221967 
L 134.400008 218.336527 
L 135.166667 219.424855 
L 135.933326 221.243588 
L 136.699985 221.598386 
L 137.466644 221.675495 
L 138.233303 219.59488 
L 138.999962 220.013778 
L 139.766621 221.830071 
L 140.53328 222.283461 
L 141.299939 222.541087 
L 142.066598 222.523591 
L 142.833257 222.994282 
L 143.599916 222.969581 
L 144.366575 222.002282 
L 145.133234 222.060099 
L 145.899893 223.609984 
L 146.666552 221.838463 
L 147.433211 222.624492 
L 148.19987 220.881248 
L 148.96653 218.996709 
L 149.733189 223.561833 
L 150.499848 225.842588 
L 151.266507 225.120942 
L 152.033166 225.131393 
L 152.799825 226.777493 
L 153.566484 226.766583 
L 154.333143 226.690785 
L 155.099802 227.806511 
L 155.866461 226.839156 
L 156.63312 227.241717 
L 157.399779 227.713761 
L 158.166438 226.316834 
L 158.933097 226.562851 
L 159.699756 226.620899 
L 160.466415 226.584076 
L 161.233074 226.288089 
L 161.999733 225.374452 
L 162.766392 226.160571 
L 163.533051 226.269206 
L 164.29971 225.369568 
L 165.066369 223.304126 
L 165.833028 225.586128 
L 166.599687 224.266357 
L 167.366346 222.556547 
L 168.133005 219.324218 
L 168.899664 220.146625 
L 169.666323 225.229793 
L 170.432982 227.538024 
L 171.199641 225.875645 
L 171.966301 227.431782 
L 172.73296 228.970786 
L 173.499619 229.646369 
L 174.266278 228.983248 
L 175.032937 229.652915 
L 175.799596 230.798828 
L 176.566255 230.609654 
L 177.332914 230.983906 
L 178.099573 229.819301 
L 178.866232 229.745725 
L 179.632891 230.934052 
L 180.39955 230.500597 
L 181.166209 231.123916 
L 181.932868 230.914331 
L 182.699527 231.469869 
L 183.466186 231.651607 
L 184.232845 231.15153 
L 184.999504 231.075239 
L 185.766163 231.157529 
L 186.532822 231.075048 
L 187.299481 231.372322 
L 188.06614 230.698594 
L 188.832799 229.593376 
L 189.599458 231.712851 
L 190.366117 232.445342 
L 191.132776 232.748377 
L 191.899435 232.666323 
L 192.666094 232.877254 
L 193.432753 233.270139 
L 194.199412 233.520653 
L 194.966072 233.966149 
L 195.732731 233.264766 
L 196.49939 233.741302 
L 197.266049 233.840225 
L 198.032708 232.96348 
L 198.799367 233.272527 
L 199.566026 233.414356 
L 200.332685 232.844596 
L 201.099344 232.790353 
L 201.866003 232.757863 
L 202.632662 233.300479 
L 203.399321 232.653305 
L 204.16598 232.708286 
L 204.932639 231.003791 
L 205.699298 232.81279 
L 206.465957 232.178274 
L 207.232616 231.854913 
L 207.999275 229.420436 
L 208.765934 230.677688 
L 209.532593 232.698308 
L 210.299252 233.848667 
L 211.065911 232.980081 
L 211.83257 233.801887 
L 212.599229 234.450408 
L 213.365888 234.850418 
L 214.132547 234.379996 
L 214.899206 234.744517 
L 215.665865 235.360168 
L 216.432524 235.221782 
L 217.199184 234.936139 
L 217.965843 234.858854 
L 218.732502 234.731662 
L 219.499161 235.201538 
L 220.26582 235.1118 
L 221.032479 235.351137 
L 221.799138 235.315844 
L 222.565797 235.582102 
L 223.332456 235.396765 
L 224.099115 235.739462 
L 224.865774 235.448961 
L 225.632433 235.391887 
L 226.399092 235.570425 
L 227.165751 235.460293 
L 227.93241 234.925445 
L 228.699069 234.923163 
L 229.465728 235.759136 
L 230.232387 236.214234 
L 230.999046 236.344178 
L 231.765705 236.394477 
L 232.532364 236.440848 
L 233.299023 236.559739 
L 234.065682 236.543906 
L 234.832341 236.904719 
L 235.599 236.40724 
L 236.365659 236.947974 
L 237.132318 237.077496 
L 237.898977 236.528586 
L 238.665636 236.584402 
L 239.432295 236.636486 
L 240.198955 236.607016 
L 240.965614 236.402353 
L 241.732273 236.234054 
L 242.498932 236.518836 
L 243.265591 236.514966 
L 244.03225 236.404493 
L 244.798909 235.643774 
L 245.565568 236.057357 
L 246.332227 236.074807 
L 247.098886 235.693662 
L 247.865545 234.735021 
L 248.632204 235.333057 
L 249.398863 236.034761 
L 250.165522 236.81724 
L 250.932181 236.548479 
L 251.69884 236.774026 
L 252.465499 237.224069 
L 253.232158 237.407698 
L 253.998817 237.182074 
L 254.765476 237.219149 
L 255.532135 237.538222 
L 256.298794 237.540774 
L 257.065453 237.293917 
L 257.832112 237.272253 
L 258.598771 237.223939 
L 259.36543 237.48697 
L 260.132089 237.632687 
L 260.898748 237.575967 
L 261.665407 237.583354 
L 262.432066 237.758584 
L 263.198726 237.67195 
L 263.965385 237.650096 
L 264.732044 237.596019 
L 265.498703 237.726293 
L 266.265362 237.708767 
L 267.032021 237.632645 
L 267.79868 237.528943 
L 268.565339 237.425526 
L 269.331998 237.841101 
L 270.098657 238.02841 
L 270.865316 238.215648 
L 271.631975 238.038698 
L 272.398634 238.142056 
L 273.165293 238.298975 
L 273.931952 238.275557 
L 274.698611 238.295769 
L 275.46527 238.254817 
L 276.231929 238.256724 
L 276.998588 238.392331 
L 277.765247 238.143553 
L 278.531906 238.221943 
L 279.298565 238.231362 
L 280.065224 238.119594 
L 280.831883 238.188368 
L 281.598542 238.083467 
L 282.365201 238.191109 
L 283.13186 238.011621 
L 283.898519 237.996306 
L 284.665178 237.80486 
L 285.431838 238.056325 
L 286.198497 238.024875 
L 286.965156 237.578843 
L 287.731815 237.413729 
L 288.498474 237.427837 
L 289.265133 238.10418 
L 290.031792 238.2576 
L 290.798451 238.117918 
L 291.56511 238.211855 
L 292.331769 238.448242 
L 293.098428 238.584616 
L 293.865087 238.497 
L 294.631746 238.532066 
L 295.398405 238.659825 
L 296.165064 238.647072 
L 296.931723 238.600325 
L 297.698382 238.59725 
L 298.465041 238.494222 
L 299.2317 238.676515 
L 299.998359 238.729448 
L 300.765018 238.715284 
L 301.531677 238.773899 
L 302.298336 238.806991 
L 303.064995 238.74 
L 303.831654 238.727751 
L 304.598313 238.705877 
L 305.364972 238.702262 
L 306.131631 238.818449 
L 306.89829 238.751354 
L 307.664949 238.674535 
L 308.431609 238.637616 
L 309.198268 238.851309 
L 309.964927 238.881717 
L 310.731586 239.000663 
L 311.498245 238.846816 
L 312.264904 238.908913 
L 313.031563 239.041878 
L 313.798222 239.030322 
L 314.564881 239.006629 
L 315.33154 239.020202 
L 316.098199 239.074335 
L 316.864858 239.061145 
L 317.631517 238.982499 
L 318.398176 238.997588 
L 319.164835 239.00446 
L 319.931494 238.933464 
L 320.698153 238.916273 
L 321.464812 238.906836 
L 322.231471 238.947574 
L 322.99813 238.95226 
L 323.764789 238.921824 
L 324.531448 238.825326 
L 325.298107 238.916931 
L 326.064766 238.878638 
L 326.831425 238.748626 
L 327.598084 238.55244 
L 328.364743 238.634066 
L 329.131402 238.850895 
L 329.898061 239.063672 
L 330.66472 238.955978 
L 331.43138 239.013344 
L 332.198039 239.133358 
L 332.964698 239.186605 
L 333.731357 239.14913 
L 334.498016 239.111859 
L 335.264675 239.203541 
L 336.031334 239.223295 
L 336.797993 239.17603 
L 337.564652 239.188987 
L 338.331311 239.117005 
L 339.09797 239.210476 
L 339.864629 239.254923 
L 340.631288 239.230619 
L 341.397947 239.276278 
L 342.164606 239.304812 
L 342.931265 239.268076 
L 343.697924 239.224966 
L 344.464583 239.212056 
L 345.231242 239.283404 
L 345.997901 239.273053 
L 346.76456 239.288159 
L 347.531219 239.173281 
L 348.297878 239.145711 
L 349.064537 239.255284 
L 349.831196 239.314895 
L 350.597855 239.387672 
L 351.364514 239.334754 
L 352.131173 239.346919 
L 352.897832 239.388491 
L 353.664491 239.393729 
L 354.431151 239.418868 
L 355.19781 239.346298 
L 355.964469 239.37779 
L 356.731128 239.435251 
L 357.497787 239.374463 
L 358.264446 239.378215 
L 359.031105 239.407202 
L 359.797764 239.379227 
L 360.564423 239.306507 
L 361.331082 239.335682 
L 362.097741 239.387548 
L 362.8644 239.369486 
L 363.631059 239.357454 
L 364.397718 239.259847 
L 365.164377 239.350883 
L 365.931036 239.333123 
L 366.697695 239.250602 
L 367.464354 239.141084 
L 368.231013 239.217109 
L 368.997672 239.305941 
L 369.764331 239.414829 
L 370.53099 239.368108 
L 371.297649 239.395124 
L 372.064308 239.457711 
L 372.830967 239.453669 
L 373.597626 239.450695 
L 374.364285 239.434909 
L 375.130944 239.461876 
L 375.897603 239.505408 
L 376.664263 239.482006 
L 377.430922 239.468055 
L 378.197581 239.450951 
L 378.96424 239.494928 
L 379.730899 239.509947 
L 380.497558 239.516816 
L 381.264217 239.519921 
L 382.030876 239.529466 
L 382.797535 239.507991 
L 383.564194 239.514873 
L 384.330853 239.506245 
L 385.097512 239.48667 
L 385.864171 239.501128 
L 386.63083 239.503173 
L 387.397489 239.511718 
L 388.164148 239.474627 
L 388.930807 239.532304 
L 389.697466 239.556814 
L 390.464125 239.555197 
L 391.230784 239.550698 
L 391.997443 239.559038 
L 391.997443 -4182.839706 
L 391.997443 -4182.839706 
L 391.230784 -4946.398096 
L 390.464125 -4942.037555 
L 389.697466 -3927.880434 
L 388.930807 -5228.749155 
L 388.164148 -5529.761349 
L 387.397489 -5555.447536 
L 386.63083 -4084.009312 
L 385.864171 -4541.964045 
L 385.097512 -4266.104006 
L 384.330853 -4614.024096 
L 383.564194 -4039.859425 
L 382.797535 -3949.694015 
L 382.030876 -3882.808167 
L 381.264217 -3901.928101 
L 380.497558 -3793.058502 
L 379.730899 -4689.143528 
L 378.96424 -4117.754696 
L 378.197581 -4881.941487 
L 377.430922 -4278.763797 
L 376.664263 -3754.834724 
L 375.897603 -3432.884363 
L 375.130944 -3453.89646 
L 374.364285 -3641.124041 
L 373.597626 -3849.337627 
L 372.830967 -3544.937718 
L 372.064308 -4168.606954 
L 371.297649 -4054.200898 
L 370.53099 -4100.443428 
L 369.764331 -4230.97092 
L 368.997672 -4871.089927 
L 368.231013 -5978.598388 
L 367.464354 -5785.371637 
L 366.697695 -4957.528415 
L 365.931036 -4257.835197 
L 365.164377 -3443.814637 
L 364.397718 -4707.45328 
L 363.631059 -4371.189279 
L 362.8644 -3333.405563 
L 362.097741 -3147.067311 
L 361.331082 -3247.286276 
L 360.564423 -3554.999536 
L 359.797764 -3078.027066 
L 359.031105 -2799.306821 
L 358.264446 -2998.495125 
L 357.497787 -2697.490106 
L 356.731128 -2284.828778 
L 355.964469 -2397.838651 
L 355.19781 -1934.555334 
L 354.431151 -2304.537104 
L 353.664491 -2203.12635 
L 352.897832 -2451.667228 
L 352.131173 -2165.624473 
L 351.364514 -2521.321305 
L 350.597855 -2437.816735 
L 349.831196 -2173.95199 
L 349.064537 -2498.350726 
L 348.297878 -3151.055378 
L 347.531219 -3071.679775 
L 346.76456 -2459.156949 
L 345.997901 -2385.356726 
L 345.231242 -2267.601006 
L 344.464583 -2521.46873 
L 343.697924 -1946.836345 
L 342.931265 -1982.444102 
L 342.164606 -2056.349566 
L 341.397947 -1923.477418 
L 340.631288 -2039.624299 
L 339.864629 -2656.948201 
L 339.09797 -2148.613272 
L 338.331311 -2192.553547 
L 337.564652 -2092.477005 
L 336.797993 -1815.807436 
L 336.031334 -1840.763895 
L 335.264675 -1751.158827 
L 334.498016 -1813.883309 
L 333.731357 -1853.253648 
L 332.964698 -1773.160059 
L 332.198039 -2036.913039 
L 331.43138 -2164.064993 
L 330.66472 -2201.477285 
L 329.898061 -2045.26578 
L 329.131402 -2365.697975 
L 328.364743 -3222.962133 
L 327.598084 -3077.166656 
L 326.831425 -2308.213362 
L 326.064766 -2203.862602 
L 325.298107 -1838.963056 
L 324.531448 -2367.462936 
L 323.764789 -2198.727104 
L 322.99813 -1680.670433 
L 322.231471 -1607.156361 
L 321.464812 -1545.933628 
L 320.698153 -1640.195499 
L 319.931494 -1622.476313 
L 319.164835 -1431.529203 
L 318.398176 -1537.998482 
L 317.631517 -1440.930656 
L 316.864858 -1187.483897 
L 316.098199 -1125.527631 
L 315.33154 -1191.256481 
L 314.564881 -1149.701849 
L 313.798222 -1102.306343 
L 313.031563 -1180.515706 
L 312.264904 -1239.283323 
L 311.498245 -1188.123823 
L 310.731586 -1195.257921 
L 309.964927 -1069.465728 
L 309.198268 -1468.208613 
L 308.431609 -1510.286732 
L 307.664949 -1394.424589 
L 306.89829 -1233.576067 
L 306.131631 -1329.292068 
L 305.364972 -1087.407246 
L 304.598313 -1134.258281 
L 303.831654 -1043.352271 
L 303.064995 -1030.194759 
L 302.298336 -1000.899394 
L 301.531677 -890.379861 
L 300.765018 -986.403213 
L 299.998359 -927.090799 
L 299.2317 -1049.020605 
L 298.465041 -1076.571884 
L 297.698382 -1024.635905 
L 296.931723 -913.479055 
L 296.165064 -886.940503 
L 295.398405 -864.627789 
L 294.631746 -882.490159 
L 293.865087 -952.4106 
L 293.098428 -883.413083 
L 292.331769 -934.292738 
L 291.56511 -1017.769368 
L 290.798451 -1174.571223 
L 290.031792 -1108.181028 
L 289.265133 -1150.857868 
L 288.498474 -1570.124915 
L 287.731815 -1551.350493 
L 286.965156 -1157.049038 
L 286.198497 -1142.461966 
L 285.431838 -968.427665 
L 284.665178 -1227.700512 
L 283.898519 -988.097614 
L 283.13186 -891.022396 
L 282.365201 -820.940831 
L 281.598542 -830.122779 
L 280.831883 -808.36932 
L 280.065224 -692.074689 
L 279.298565 -661.719413 
L 278.531906 -659.982774 
L 277.765247 -675.445965 
L 276.998588 -537.349278 
L 276.231929 -504.608358 
L 275.46527 -511.824322 
L 274.698611 -468.118665 
L 273.931952 -521.277907 
L 273.165293 -519.245549 
L 272.398634 -501.419329 
L 271.631975 -543.210482 
L 270.865316 -535.444721 
L 270.098657 -443.093386 
L 269.331998 -619.448153 
L 268.565339 -759.028162 
L 267.79868 -675.349096 
L 267.032021 -529.482516 
L 266.265362 -580.704531 
L 265.498703 -511.011205 
L 264.732044 -504.298235 
L 263.965385 -410.854699 
L 263.198726 -389.75829 
L 262.432066 -462.910759 
L 261.665407 -387.815572 
L 260.898748 -382.768464 
L 260.132089 -426.350887 
L 259.36543 -433.247703 
L 258.598771 -452.037998 
L 257.832112 -415.791837 
L 257.065453 -369.627151 
L 256.298794 -372.041387 
L 255.532135 -376.840995 
L 254.765476 -373.794878 
L 253.998817 -388.752902 
L 253.232158 -358.336035 
L 252.465499 -416.264661 
L 251.69884 -434.935907 
L 250.932181 -465.982589 
L 250.165522 -479.565848 
L 249.398863 -520.818619 
L 248.632204 -722.327443 
L 247.865545 -787.075856 
L 247.098886 -602.614274 
L 246.332227 -540.956444 
L 245.565568 -474.702857 
L 244.798909 -502.919339 
L 244.03225 -474.944759 
L 243.265591 -360.799468 
L 242.498932 -371.357973 
L 241.732273 -283.843755 
L 240.965614 -359.560766 
L 240.198955 -260.091697 
L 239.432295 -234.88366 
L 238.665636 -246.509416 
L 237.898977 -263.946256 
L 237.132318 -173.038451 
L 236.365659 -179.634629 
L 235.599 -176.478433 
L 234.832341 -171.416539 
L 234.065682 -176.922473 
L 233.299023 -178.61913 
L 232.532364 -168.120665 
L 231.765705 -163.511019 
L 230.999046 -183.34016 
L 230.232387 -156.536005 
L 229.465728 -190.775847 
L 228.699069 -314.297151 
L 227.93241 -259.461936 
L 227.165751 -179.479867 
L 226.399092 -188.898633 
L 225.632433 -164.428914 
L 224.865774 -139.28562 
L 224.099115 -124.507501 
L 223.332456 -125.353696 
L 222.565797 -108.602445 
L 221.799138 -91.199199 
L 221.032479 -95.319252 
L 220.26582 -137.267397 
L 219.499161 -145.644436 
L 218.732502 -134.246693 
L 217.965843 -126.986208 
L 217.199184 -95.411936 
L 216.432524 -83.285742 
L 215.665865 -82.405219 
L 214.899206 -105.101905 
L 214.132547 -118.534995 
L 213.365888 -93.345142 
L 212.599229 -93.819759 
L 211.83257 -115.420738 
L 211.065911 -156.182421 
L 210.299252 -154.896154 
L 209.532593 -183.437818 
L 208.765934 -290.558737 
L 207.999275 -283.321192 
L 207.232616 -188.911299 
L 206.465957 -145.092791 
L 205.699298 -129.701898 
L 204.932639 -189.718654 
L 204.16598 -143.17622 
L 203.399321 -81.744718 
L 202.632662 -67.722936 
L 201.866003 -43.639663 
L 201.099344 -68.113486 
L 200.332685 -33.108473 
L 199.566026 -13.118262 
L 198.799367 -47.376777 
L 198.032708 -25.47959 
L 197.266049 -4.549522 
L 196.49939 12.487024 
L 195.732731 8.767074 
L 194.966072 25.34031 
L 194.199412 25.093352 
L 193.432753 19.367423 
L 192.666094 17.386871 
L 191.899435 28.997461 
L 191.132776 10.983304 
L 190.366117 35.05538 
L 189.599458 -0.978288 
L 188.832799 -48.052825 
L 188.06614 -28.819142 
L 187.299481 -1.731582 
L 186.532822 -2.803479 
L 185.766163 10.341829 
L 184.999504 15.84745 
L 184.232845 43.160456 
L 183.466186 37.141336 
L 182.699527 42.801462 
L 181.932868 44.507619 
L 181.166209 38.460273 
L 180.39955 39.661873 
L 179.632891 34.086372 
L 178.866232 27.44854 
L 178.099573 31.819886 
L 177.332914 47.466311 
L 176.566255 64.409916 
L 175.799596 62.66905 
L 175.032937 41.922135 
L 174.266278 42.316258 
L 173.499619 65.455299 
L 172.73296 55.406405 
L 171.966301 41.314635 
L 171.199641 30.922606 
L 170.432982 32.292506 
L 169.666323 16.893894 
L 168.899664 -42.613672 
L 168.133005 -48.365096 
L 167.366346 -14.590467 
L 166.599687 26.804306 
L 165.833028 45.962768 
L 165.066369 13.717598 
L 164.29971 42.088096 
L 163.533051 70.587481 
L 162.766392 69.974586 
L 161.999733 72.81919 
L 161.233074 71.585762 
L 160.466415 94.160709 
L 159.699756 96.39201 
L 158.933097 95.230785 
L 158.166438 98.364109 
L 157.399779 119.177086 
L 156.63312 111.210886 
L 155.866461 121.162951 
L 155.099802 120.662106 
L 154.333143 121.171554 
L 153.566484 117.118771 
L 152.799825 123.81504 
L 152.033166 113.131384 
L 151.266507 115.095506 
L 150.499848 123.307073 
L 149.733189 105.755996 
L 148.96653 81.975507 
L 148.19987 89.396911 
L 147.433211 106.163166 
L 146.666552 106.999752 
L 145.899893 115.431981 
L 145.133234 113.600157 
L 144.366575 129.66472 
L 143.599916 125.014249 
L 142.833257 129.415812 
L 142.066598 130.504072 
L 141.299939 133.034326 
L 140.53328 132.261273 
L 139.766621 127.816398 
L 138.999962 124.202056 
L 138.233303 124.733887 
L 137.466644 138.936225 
L 136.699985 142.282328 
L 135.933326 142.329818 
L 135.166667 134.835619 
L 134.400008 128.030454 
L 133.633349 141.062653 
L 132.86669 140.273019 
L 132.100031 131.278593 
L 131.333372 121.623965 
L 130.566713 127.243369 
L 129.800054 115.492551 
L 129.033395 82.865747 
L 128.266736 82.704366 
L 127.500077 107.307811 
L 126.733418 120.450088 
L 125.966759 131.399768 
L 125.200099 115.602481 
L 124.43344 131.357497 
L 123.666781 142.582218 
L 122.900122 145.166574 
L 122.133463 142.696701 
L 121.366804 149.995862 
L 120.600145 153.439378 
L 119.833486 157.582385 
L 119.066827 158.376245 
L 118.300168 161.005998 
L 117.533509 171.959484 
L 116.76685 170.27751 
L 116.000191 169.653852 
L 115.233532 173.627357 
L 114.466873 173.402646 
L 113.700214 170.301891 
L 112.933555 172.103191 
L 112.166896 168.196888 
L 111.400237 171.640424 
L 110.633578 172.407111 
L 109.866919 163.725656 
L 109.10026 146.419871 
L 108.333601 156.867388 
L 107.566942 163.812836 
L 106.800283 167.564681 
L 106.033624 170.06887 
L 105.266965 170.092394 
L 104.500306 175.872772 
L 103.733647 175.781868 
L 102.966987 176.093303 
L 102.200328 175.381656 
L 101.433669 177.136859 
L 100.66701 175.139374 
L 99.900351 175.106146 
L 99.133692 173.660204 
L 98.367033 174.663296 
L 97.600374 179.534692 
L 96.833715 181.758132 
L 96.067056 180.881835 
L 95.300397 176.943365 
L 94.533738 175.664124 
L 93.767079 178.510951 
L 93.00042 177.251056 
L 92.233761 171.517795 
L 91.467102 168.204397 
L 90.700443 170.142005 
L 89.933784 159.670645 
L 89.167125 138.348091 
L 88.400466 136.633563 
z
" style="fill:#ff8c00;fill-opacity:0.4;stroke:#ff8c00;stroke-opacity:0.4;"/>
   </g>
   <g id="matplotlib.axis_1">
    <g id="xtick_1">
     <g id="line2d_1">
      <defs>
       <path d="M 0 0 
L 0 3.5 
" id="mae0f6c3b39" style="stroke:#000000;stroke-width:0.8;"/>
      </defs>
      <g>
       <use style="stroke:#000000;stroke-width:0.8;" x="87.524284" xlink:href="#mae0f6c3b39" y="239.758125"/>
      </g>
     </g>
     <g id="text_1">
      <!-- 2010 -->
      <defs>
       <path d="M 19.1875 8.296875 
L 53.609375 8.296875 
L 53.609375 0 
L 7.328125 0 
L 7.328125 8.296875 
Q 12.9375 14.109375 22.625 23.890625 
Q 32.328125 33.6875 34.8125 36.53125 
Q 39.546875 41.84375 41.421875 45.53125 
Q 43.3125 49.21875 43.3125 52.78125 
Q 43.3125 58.59375 39.234375 62.25 
Q 35.15625 65.921875 28.609375 65.921875 
Q 23.96875 65.921875 18.8125 64.3125 
Q 13.671875 62.703125 7.8125 59.421875 
L 7.8125 69.390625 
Q 13.765625 71.78125 18.9375 73 
Q 24.125 74.21875 28.421875 74.21875 
Q 39.75 74.21875 46.484375 68.546875 
Q 53.21875 62.890625 53.21875 53.421875 
Q 53.21875 48.921875 51.53125 44.890625 
Q 49.859375 40.875 45.40625 35.40625 
Q 44.1875 33.984375 37.640625 27.21875 
Q 31.109375 20.453125 19.1875 8.296875 
z
" id="DejaVuSans-32"/>
       <path d="M 31.78125 66.40625 
Q 24.171875 66.40625 20.328125 58.90625 
Q 16.5 51.421875 16.5 36.375 
Q 16.5 21.390625 20.328125 13.890625 
Q 24.171875 6.390625 31.78125 6.390625 
Q 39.453125 6.390625 43.28125 13.890625 
Q 47.125 21.390625 47.125 36.375 
Q 47.125 51.421875 43.28125 58.90625 
Q 39.453125 66.40625 31.78125 66.40625 
z
M 31.78125 74.21875 
Q 44.046875 74.21875 50.515625 64.515625 
Q 56.984375 54.828125 56.984375 36.375 
Q 56.984375 17.96875 50.515625 8.265625 
Q 44.046875 -1.421875 31.78125 -1.421875 
Q 19.53125 -1.421875 13.0625 8.265625 
Q 6.59375 17.96875 6.59375 36.375 
Q 6.59375 54.828125 13.0625 64.515625 
Q 19.53125 74.21875 31.78125 74.21875 
z
" id="DejaVuSans-30"/>
       <path d="M 12.40625 8.296875 
L 28.515625 8.296875 
L 28.515625 63.921875 
L 10.984375 60.40625 
L 10.984375 69.390625 
L 28.421875 72.90625 
L 38.28125 72.90625 
L 38.28125 8.296875 
L 54.390625 8.296875 
L 54.390625 0 
L 12.40625 0 
z
" id="DejaVuSans-31"/>
      </defs>
      <g transform="translate(74.799284 254.356562)scale(0.1 -0.1)">
       <use xlink:href="#DejaVuSans-32"/>
       <use x="63.623047" xlink:href="#DejaVuSans-30"/>
       <use x="127.246094" xlink:href="#DejaVuSans-31"/>
       <use x="190.869141" xlink:href="#DejaVuSans-30"/>
      </g>
     </g>
    </g>
    <g id="xtick_2">
     <g id="line2d_2">
      <g>
       <use style="stroke:#000000;stroke-width:0.8;" x="127.500077" xlink:href="#mae0f6c3b39" y="239.758125"/>
      </g>
     </g>
     <g id="text_2">
      <!-- 2011 -->
      <g transform="translate(114.775077 254.356562)scale(0.1 -0.1)">
       <use xlink:href="#DejaVuSans-32"/>
       <use x="63.623047" xlink:href="#DejaVuSans-30"/>
       <use x="127.246094" xlink:href="#DejaVuSans-31"/>
       <use x="190.869141" xlink:href="#DejaVuSans-31"/>
      </g>
     </g>
    </g>
    <g id="xtick_3">
     <g id="line2d_3">
      <g>
       <use style="stroke:#000000;stroke-width:0.8;" x="167.475869" xlink:href="#mae0f6c3b39" y="239.758125"/>
      </g>
     </g>
     <g id="text_3">
      <!-- 2012 -->
      <g transform="translate(154.750869 254.356562)scale(0.1 -0.1)">
       <use xlink:href="#DejaVuSans-32"/>
       <use x="63.623047" xlink:href="#DejaVuSans-30"/>
       <use x="127.246094" xlink:href="#DejaVuSans-31"/>
       <use x="190.869141" xlink:href="#DejaVuSans-32"/>
      </g>
     </g>
    </g>
    <g id="xtick_4">
     <g id="line2d_4">
      <g>
       <use style="stroke:#000000;stroke-width:0.8;" x="207.561184" xlink:href="#mae0f6c3b39" y="239.758125"/>
      </g>
     </g>
     <g id="text_4">
      <!-- 2013 -->
      <defs>
       <path d="M 40.578125 39.3125 
Q 47.65625 37.796875 51.625 33 
Q 55.609375 28.21875 55.609375 21.1875 
Q 55.609375 10.40625 48.1875 4.484375 
Q 40.765625 -1.421875 27.09375 -1.421875 
Q 22.515625 -1.421875 17.65625 -0.515625 
Q 12.796875 0.390625 7.625 2.203125 
L 7.625 11.71875 
Q 11.71875 9.328125 16.59375 8.109375 
Q 21.484375 6.890625 26.8125 6.890625 
Q 36.078125 6.890625 40.9375 10.546875 
Q 45.796875 14.203125 45.796875 21.1875 
Q 45.796875 27.640625 41.28125 31.265625 
Q 36.765625 34.90625 28.71875 34.90625 
L 20.21875 34.90625 
L 20.21875 43.015625 
L 29.109375 43.015625 
Q 36.375 43.015625 40.234375 45.921875 
Q 44.09375 48.828125 44.09375 54.296875 
Q 44.09375 59.90625 40.109375 62.90625 
Q 36.140625 65.921875 28.71875 65.921875 
Q 24.65625 65.921875 20.015625 65.03125 
Q 15.375 64.15625 9.8125 62.3125 
L 9.8125 71.09375 
Q 15.4375 72.65625 20.34375 73.4375 
Q 25.25 74.21875 29.59375 74.21875 
Q 40.828125 74.21875 47.359375 69.109375 
Q 53.90625 64.015625 53.90625 55.328125 
Q 53.90625 49.265625 50.4375 45.09375 
Q 46.96875 40.921875 40.578125 39.3125 
z
" id="DejaVuSans-33"/>
      </defs>
      <g transform="translate(194.836184 254.356562)scale(0.1 -0.1)">
       <use xlink:href="#DejaVuSans-32"/>
       <use x="63.623047" xlink:href="#DejaVuSans-30"/>
       <use x="127.246094" xlink:href="#DejaVuSans-31"/>
       <use x="190.869141" xlink:href="#DejaVuSans-33"/>
      </g>
     </g>
    </g>
    <g id="xtick_5">
     <g id="line2d_5">
      <g>
       <use style="stroke:#000000;stroke-width:0.8;" x="247.536977" xlink:href="#mae0f6c3b39" y="239.758125"/>
      </g>
     </g>
     <g id="text_5">
      <!-- 2014 -->
      <defs>
       <path d="M 37.796875 64.3125 
L 12.890625 25.390625 
L 37.796875 25.390625 
z
M 35.203125 72.90625 
L 47.609375 72.90625 
L 47.609375 25.390625 
L 58.015625 25.390625 
L 58.015625 17.1875 
L 47.609375 17.1875 
L 47.609375 0 
L 37.796875 0 
L 37.796875 17.1875 
L 4.890625 17.1875 
L 4.890625 26.703125 
z
" id="DejaVuSans-34"/>
      </defs>
      <g transform="translate(234.811977 254.356562)scale(0.1 -0.1)">
       <use xlink:href="#DejaVuSans-32"/>
       <use x="63.623047" xlink:href="#DejaVuSans-30"/>
       <use x="127.246094" xlink:href="#DejaVuSans-31"/>
       <use x="190.869141" xlink:href="#DejaVuSans-34"/>
      </g>
     </g>
    </g>
    <g id="xtick_6">
     <g id="line2d_6">
      <g>
       <use style="stroke:#000000;stroke-width:0.8;" x="287.512769" xlink:href="#mae0f6c3b39" y="239.758125"/>
      </g>
     </g>
     <g id="text_6">
      <!-- 2015 -->
      <defs>
       <path d="M 10.796875 72.90625 
L 49.515625 72.90625 
L 49.515625 64.59375 
L 19.828125 64.59375 
L 19.828125 46.734375 
Q 21.96875 47.46875 24.109375 47.828125 
Q 26.265625 48.1875 28.421875 48.1875 
Q 40.625 48.1875 47.75 41.5 
Q 54.890625 34.8125 54.890625 23.390625 
Q 54.890625 11.625 47.5625 5.09375 
Q 40.234375 -1.421875 26.90625 -1.421875 
Q 22.3125 -1.421875 17.546875 -0.640625 
Q 12.796875 0.140625 7.71875 1.703125 
L 7.71875 11.625 
Q 12.109375 9.234375 16.796875 8.0625 
Q 21.484375 6.890625 26.703125 6.890625 
Q 35.15625 6.890625 40.078125 11.328125 
Q 45.015625 15.765625 45.015625 23.390625 
Q 45.015625 31 40.078125 35.4375 
Q 35.15625 39.890625 26.703125 39.890625 
Q 22.75 39.890625 18.8125 39.015625 
Q 14.890625 38.140625 10.796875 36.28125 
z
" id="DejaVuSans-35"/>
      </defs>
      <g transform="translate(274.787769 254.356562)scale(0.1 -0.1)">
       <use xlink:href="#DejaVuSans-32"/>
       <use x="63.623047" xlink:href="#DejaVuSans-30"/>
       <use x="127.246094" xlink:href="#DejaVuSans-31"/>
       <use x="190.869141" xlink:href="#DejaVuSans-35"/>
      </g>
     </g>
    </g>
    <g id="xtick_7">
     <g id="line2d_7">
      <g>
       <use style="stroke:#000000;stroke-width:0.8;" x="327.488562" xlink:href="#mae0f6c3b39" y="239.758125"/>
      </g>
     </g>
     <g id="text_7">
      <!-- 2016 -->
      <defs>
       <path d="M 33.015625 40.375 
Q 26.375 40.375 22.484375 35.828125 
Q 18.609375 31.296875 18.609375 23.390625 
Q 18.609375 15.53125 22.484375 10.953125 
Q 26.375 6.390625 33.015625 6.390625 
Q 39.65625 6.390625 43.53125 10.953125 
Q 47.40625 15.53125 47.40625 23.390625 
Q 47.40625 31.296875 43.53125 35.828125 
Q 39.65625 40.375 33.015625 40.375 
z
M 52.59375 71.296875 
L 52.59375 62.3125 
Q 48.875 64.0625 45.09375 64.984375 
Q 41.3125 65.921875 37.59375 65.921875 
Q 27.828125 65.921875 22.671875 59.328125 
Q 17.53125 52.734375 16.796875 39.40625 
Q 19.671875 43.65625 24.015625 45.921875 
Q 28.375 48.1875 33.59375 48.1875 
Q 44.578125 48.1875 50.953125 41.515625 
Q 57.328125 34.859375 57.328125 23.390625 
Q 57.328125 12.15625 50.6875 5.359375 
Q 44.046875 -1.421875 33.015625 -1.421875 
Q 20.359375 -1.421875 13.671875 8.265625 
Q 6.984375 17.96875 6.984375 36.375 
Q 6.984375 53.65625 15.1875 63.9375 
Q 23.390625 74.21875 37.203125 74.21875 
Q 40.921875 74.21875 44.703125 73.484375 
Q 48.484375 72.75 52.59375 71.296875 
z
" id="DejaVuSans-36"/>
      </defs>
      <g transform="translate(314.763562 254.356562)scale(0.1 -0.1)">
       <use xlink:href="#DejaVuSans-32"/>
       <use x="63.623047" xlink:href="#DejaVuSans-30"/>
       <use x="127.246094" xlink:href="#DejaVuSans-31"/>
       <use x="190.869141" xlink:href="#DejaVuSans-36"/>
      </g>
     </g>
    </g>
    <g id="xtick_8">
     <g id="line2d_8">
      <g>
       <use style="stroke:#000000;stroke-width:0.8;" x="367.573877" xlink:href="#mae0f6c3b39" y="239.758125"/>
      </g>
     </g>
     <g id="text_8">
      <!-- 2017 -->
      <defs>
       <path d="M 8.203125 72.90625 
L 55.078125 72.90625 
L 55.078125 68.703125 
L 28.609375 0 
L 18.3125 0 
L 43.21875 64.59375 
L 8.203125 64.59375 
z
" id="DejaVuSans-37"/>
      </defs>
      <g transform="translate(354.848877 254.356562)scale(0.1 -0.1)">
       <use xlink:href="#DejaVuSans-32"/>
       <use x="63.623047" xlink:href="#DejaVuSans-30"/>
       <use x="127.246094" xlink:href="#DejaVuSans-31"/>
       <use x="190.869141" xlink:href="#DejaVuSans-37"/>
      </g>
     </g>
    </g>
    <g id="text_9">
     <!-- year -->
     <defs>
      <path d="M 32.171875 -5.078125 
Q 28.375 -14.84375 24.75 -17.8125 
Q 21.140625 -20.796875 15.09375 -20.796875 
L 7.90625 -20.796875 
L 7.90625 -13.28125 
L 13.1875 -13.28125 
Q 16.890625 -13.28125 18.9375 -11.515625 
Q 21 -9.765625 23.484375 -3.21875 
L 25.09375 0.875 
L 2.984375 54.6875 
L 12.5 54.6875 
L 29.59375 11.921875 
L 46.6875 54.6875 
L 56.203125 54.6875 
z
" id="DejaVuSans-79"/>
      <path d="M 56.203125 29.59375 
L 56.203125 25.203125 
L 14.890625 25.203125 
Q 15.484375 15.921875 20.484375 11.0625 
Q 25.484375 6.203125 34.421875 6.203125 
Q 39.59375 6.203125 44.453125 7.46875 
Q 49.3125 8.734375 54.109375 11.28125 
L 54.109375 2.78125 
Q 49.265625 0.734375 44.1875 -0.34375 
Q 39.109375 -1.421875 33.890625 -1.421875 
Q 20.796875 -1.421875 13.15625 6.1875 
Q 5.515625 13.8125 5.515625 26.8125 
Q 5.515625 40.234375 12.765625 48.109375 
Q 20.015625 56 32.328125 56 
Q 43.359375 56 49.78125 48.890625 
Q 56.203125 41.796875 56.203125 29.59375 
z
M 47.21875 32.234375 
Q 47.125 39.59375 43.09375 43.984375 
Q 39.0625 48.390625 32.421875 48.390625 
Q 24.90625 48.390625 20.390625 44.140625 
Q 15.875 39.890625 15.1875 32.171875 
z
" id="DejaVuSans-65"/>
      <path d="M 34.28125 27.484375 
Q 23.390625 27.484375 19.1875 25 
Q 14.984375 22.515625 14.984375 16.5 
Q 14.984375 11.71875 18.140625 8.90625 
Q 21.296875 6.109375 26.703125 6.109375 
Q 34.1875 6.109375 38.703125 11.40625 
Q 43.21875 16.703125 43.21875 25.484375 
L 43.21875 27.484375 
z
M 52.203125 31.203125 
L 52.203125 0 
L 43.21875 0 
L 43.21875 8.296875 
Q 40.140625 3.328125 35.546875 0.953125 
Q 30.953125 -1.421875 24.3125 -1.421875 
Q 15.921875 -1.421875 10.953125 3.296875 
Q 6 8.015625 6 15.921875 
Q 6 25.140625 12.171875 29.828125 
Q 18.359375 34.515625 30.609375 34.515625 
L 43.21875 34.515625 
L 43.21875 35.40625 
Q 43.21875 41.609375 39.140625 45 
Q 35.0625 48.390625 27.6875 48.390625 
Q 23 48.390625 18.546875 47.265625 
Q 14.109375 46.140625 10.015625 43.890625 
L 10.015625 52.203125 
Q 14.9375 54.109375 19.578125 55.046875 
Q 24.21875 56 28.609375 56 
Q 40.484375 56 46.34375 49.84375 
Q 52.203125 43.703125 52.203125 31.203125 
z
" id="DejaVuSans-61"/>
      <path d="M 41.109375 46.296875 
Q 39.59375 47.171875 37.8125 47.578125 
Q 36.03125 48 33.890625 48 
Q 26.265625 48 22.1875 43.046875 
Q 18.109375 38.09375 18.109375 28.8125 
L 18.109375 0 
L 9.078125 0 
L 9.078125 54.6875 
L 18.109375 54.6875 
L 18.109375 46.1875 
Q 20.953125 51.171875 25.484375 53.578125 
Q 30.03125 56 36.53125 56 
Q 37.453125 56 38.578125 55.875 
Q 39.703125 55.765625 41.0625 55.515625 
z
" id="DejaVuSans-72"/>
     </defs>
     <g transform="translate(228.660156 268.034687)scale(0.1 -0.1)">
      <use xlink:href="#DejaVuSans-79"/>
      <use x="59.179688" xlink:href="#DejaVuSans-65"/>
      <use x="120.703125" xlink:href="#DejaVuSans-61"/>
      <use x="181.982422" xlink:href="#DejaVuSans-72"/>
     </g>
    </g>
   </g>
   <g id="matplotlib.axis_2">
    <g id="ytick_1">
     <g id="line2d_9">
      <defs>
       <path d="M 0 0 
L -3.5 0 
" id="m9812bfb6f8" style="stroke:#000000;stroke-width:0.8;"/>
      </defs>
      <g>
       <use style="stroke:#000000;stroke-width:0.8;" x="72.415625" xlink:href="#m9812bfb6f8" y="239.758125"/>
      </g>
     </g>
     <g id="text_10">
      <!-- 0 -->
      <g transform="translate(59.053125 243.557344)scale(0.1 -0.1)">
       <use xlink:href="#DejaVuSans-30"/>
      </g>
     </g>
    </g>
    <g id="ytick_2">
     <g id="line2d_10">
      <g>
       <use style="stroke:#000000;stroke-width:0.8;" x="72.415625" xlink:href="#m9812bfb6f8" y="212.578125"/>
      </g>
     </g>
     <g id="text_11">
      <!-- 250000 -->
      <g transform="translate(27.240625 216.377344)scale(0.1 -0.1)">
       <use xlink:href="#DejaVuSans-32"/>
       <use x="63.623047" xlink:href="#DejaVuSans-35"/>
       <use x="127.246094" xlink:href="#DejaVuSans-30"/>
       <use x="190.869141" xlink:href="#DejaVuSans-30"/>
       <use x="254.492188" xlink:href="#DejaVuSans-30"/>
       <use x="318.115234" xlink:href="#DejaVuSans-30"/>
      </g>
     </g>
    </g>
    <g id="ytick_3">
     <g id="line2d_11">
      <g>
       <use style="stroke:#000000;stroke-width:0.8;" x="72.415625" xlink:href="#m9812bfb6f8" y="185.398125"/>
      </g>
     </g>
     <g id="text_12">
      <!-- 500000 -->
      <g transform="translate(27.240625 189.197344)scale(0.1 -0.1)">
       <use xlink:href="#DejaVuSans-35"/>
       <use x="63.623047" xlink:href="#DejaVuSans-30"/>
       <use x="127.246094" xlink:href="#DejaVuSans-30"/>
       <use x="190.869141" xlink:href="#DejaVuSans-30"/>
       <use x="254.492188" xlink:href="#DejaVuSans-30"/>
       <use x="318.115234" xlink:href="#DejaVuSans-30"/>
      </g>
     </g>
    </g>
    <g id="ytick_4">
     <g id="line2d_12">
      <g>
       <use style="stroke:#000000;stroke-width:0.8;" x="72.415625" xlink:href="#m9812bfb6f8" y="158.218125"/>
      </g>
     </g>
     <g id="text_13">
      <!-- 750000 -->
      <g transform="translate(27.240625 162.017344)scale(0.1 -0.1)">
       <use xlink:href="#DejaVuSans-37"/>
       <use x="63.623047" xlink:href="#DejaVuSans-35"/>
       <use x="127.246094" xlink:href="#DejaVuSans-30"/>
       <use x="190.869141" xlink:href="#DejaVuSans-30"/>
       <use x="254.492188" xlink:href="#DejaVuSans-30"/>
       <use x="318.115234" xlink:href="#DejaVuSans-30"/>
      </g>
     </g>
    </g>
    <g id="ytick_5">
     <g id="line2d_13">
      <g>
       <use style="stroke:#000000;stroke-width:0.8;" x="72.415625" xlink:href="#m9812bfb6f8" y="131.038125"/>
      </g>
     </g>
     <g id="text_14">
      <!-- 1000000 -->
      <g transform="translate(20.878125 134.837344)scale(0.1 -0.1)">
       <use xlink:href="#DejaVuSans-31"/>
       <use x="63.623047" xlink:href="#DejaVuSans-30"/>
       <use x="127.246094" xlink:href="#DejaVuSans-30"/>
       <use x="190.869141" xlink:href="#DejaVuSans-30"/>
       <use x="254.492188" xlink:href="#DejaVuSans-30"/>
       <use x="318.115234" xlink:href="#DejaVuSans-30"/>
       <use x="381.738281" xlink:href="#DejaVuSans-30"/>
      </g>
     </g>
    </g>
    <g id="ytick_6">
     <g id="line2d_14">
      <g>
       <use style="stroke:#000000;stroke-width:0.8;" x="72.415625" xlink:href="#m9812bfb6f8" y="103.858125"/>
      </g>
     </g>
     <g id="text_15">
      <!-- 1250000 -->
      <g transform="translate(20.878125 107.657344)scale(0.1 -0.1)">
       <use xlink:href="#DejaVuSans-31"/>
       <use x="63.623047" xlink:href="#DejaVuSans-32"/>
       <use x="127.246094" xlink:href="#DejaVuSans-35"/>
       <use x="190.869141" xlink:href="#DejaVuSans-30"/>
       <use x="254.492188" xlink:href="#DejaVuSans-30"/>
       <use x="318.115234" xlink:href="#DejaVuSans-30"/>
       <use x="381.738281" xlink:href="#DejaVuSans-30"/>
      </g>
     </g>
    </g>
    <g id="ytick_7">
     <g id="line2d_15">
      <g>
       <use style="stroke:#000000;stroke-width:0.8;" x="72.415625" xlink:href="#m9812bfb6f8" y="76.678125"/>
      </g>
     </g>
     <g id="text_16">
      <!-- 1500000 -->
      <g transform="translate(20.878125 80.477344)scale(0.1 -0.1)">
       <use xlink:href="#DejaVuSans-31"/>
       <use x="63.623047" xlink:href="#DejaVuSans-35"/>
       <use x="127.246094" xlink:href="#DejaVuSans-30"/>
       <use x="190.869141" xlink:href="#DejaVuSans-30"/>
       <use x="254.492188" xlink:href="#DejaVuSans-30"/>
       <use x="318.115234" xlink:href="#DejaVuSans-30"/>
       <use x="381.738281" xlink:href="#DejaVuSans-30"/>
      </g>
     </g>
    </g>
    <g id="ytick_8">
     <g id="line2d_16">
      <g>
       <use style="stroke:#000000;stroke-width:0.8;" x="72.415625" xlink:href="#m9812bfb6f8" y="49.498125"/>
      </g>
     </g>
     <g id="text_17">
      <!-- 1750000 -->
      <g transform="translate(20.878125 53.297344)scale(0.1 -0.1)">
       <use xlink:href="#DejaVuSans-31"/>
       <use x="63.623047" xlink:href="#DejaVuSans-37"/>
       <use x="127.246094" xlink:href="#DejaVuSans-35"/>
       <use x="190.869141" xlink:href="#DejaVuSans-30"/>
       <use x="254.492188" xlink:href="#DejaVuSans-30"/>
       <use x="318.115234" xlink:href="#DejaVuSans-30"/>
       <use x="381.738281" xlink:href="#DejaVuSans-30"/>
      </g>
     </g>
    </g>
    <g id="ytick_9">
     <g id="line2d_17">
      <g>
       <use style="stroke:#000000;stroke-width:0.8;" x="72.415625" xlink:href="#m9812bfb6f8" y="22.318125"/>
      </g>
     </g>
     <g id="text_18">
      <!-- 2000000 -->
      <g transform="translate(20.878125 26.117344)scale(0.1 -0.1)">
       <use xlink:href="#DejaVuSans-32"/>
       <use x="63.623047" xlink:href="#DejaVuSans-30"/>
       <use x="127.246094" xlink:href="#DejaVuSans-30"/>
       <use x="190.869141" xlink:href="#DejaVuSans-30"/>
       <use x="254.492188" xlink:href="#DejaVuSans-30"/>
       <use x="318.115234" xlink:href="#DejaVuSans-30"/>
       <use x="381.738281" xlink:href="#DejaVuSans-30"/>
      </g>
     </g>
    </g>
    <g id="text_19">
     <!-- initial claim -->
     <defs>
      <path d="M 9.421875 54.6875 
L 18.40625 54.6875 
L 18.40625 0 
L 9.421875 0 
z
M 9.421875 75.984375 
L 18.40625 75.984375 
L 18.40625 64.59375 
L 9.421875 64.59375 
z
" id="DejaVuSans-69"/>
      <path d="M 54.890625 33.015625 
L 54.890625 0 
L 45.90625 0 
L 45.90625 32.71875 
Q 45.90625 40.484375 42.875 44.328125 
Q 39.84375 48.1875 33.796875 48.1875 
Q 26.515625 48.1875 22.3125 43.546875 
Q 18.109375 38.921875 18.109375 30.90625 
L 18.109375 0 
L 9.078125 0 
L 9.078125 54.6875 
L 18.109375 54.6875 
L 18.109375 46.1875 
Q 21.34375 51.125 25.703125 53.5625 
Q 30.078125 56 35.796875 56 
Q 45.21875 56 50.046875 50.171875 
Q 54.890625 44.34375 54.890625 33.015625 
z
" id="DejaVuSans-6e"/>
      <path d="M 18.3125 70.21875 
L 18.3125 54.6875 
L 36.8125 54.6875 
L 36.8125 47.703125 
L 18.3125 47.703125 
L 18.3125 18.015625 
Q 18.3125 11.328125 20.140625 9.421875 
Q 21.96875 7.515625 27.59375 7.515625 
L 36.8125 7.515625 
L 36.8125 0 
L 27.59375 0 
Q 17.1875 0 13.234375 3.875 
Q 9.28125 7.765625 9.28125 18.015625 
L 9.28125 47.703125 
L 2.6875 47.703125 
L 2.6875 54.6875 
L 9.28125 54.6875 
L 9.28125 70.21875 
z
" id="DejaVuSans-74"/>
      <path d="M 9.421875 75.984375 
L 18.40625 75.984375 
L 18.40625 0 
L 9.421875 0 
z
" id="DejaVuSans-6c"/>
      <path id="DejaVuSans-20"/>
      <path d="M 48.78125 52.59375 
L 48.78125 44.1875 
Q 44.96875 46.296875 41.140625 47.34375 
Q 37.3125 48.390625 33.40625 48.390625 
Q 24.65625 48.390625 19.8125 42.84375 
Q 14.984375 37.3125 14.984375 27.296875 
Q 14.984375 17.28125 19.8125 11.734375 
Q 24.65625 6.203125 33.40625 6.203125 
Q 37.3125 6.203125 41.140625 7.25 
Q 44.96875 8.296875 48.78125 10.40625 
L 48.78125 2.09375 
Q 45.015625 0.34375 40.984375 -0.53125 
Q 36.96875 -1.421875 32.421875 -1.421875 
Q 20.0625 -1.421875 12.78125 6.34375 
Q 5.515625 14.109375 5.515625 27.296875 
Q 5.515625 40.671875 12.859375 48.328125 
Q 20.21875 56 33.015625 56 
Q 37.15625 56 41.109375 55.140625 
Q 45.0625 54.296875 48.78125 52.59375 
z
" id="DejaVuSans-63"/>
      <path d="M 52 44.1875 
Q 55.375 50.25 60.0625 53.125 
Q 64.75 56 71.09375 56 
Q 79.640625 56 84.28125 50.015625 
Q 88.921875 44.046875 88.921875 33.015625 
L 88.921875 0 
L 79.890625 0 
L 79.890625 32.71875 
Q 79.890625 40.578125 77.09375 44.375 
Q 74.3125 48.1875 68.609375 48.1875 
Q 61.625 48.1875 57.5625 43.546875 
Q 53.515625 38.921875 53.515625 30.90625 
L 53.515625 0 
L 44.484375 0 
L 44.484375 32.71875 
Q 44.484375 40.625 41.703125 44.40625 
Q 38.921875 48.1875 33.109375 48.1875 
Q 26.21875 48.1875 22.15625 43.53125 
Q 18.109375 38.875 18.109375 30.90625 
L 18.109375 0 
L 9.078125 0 
L 9.078125 54.6875 
L 18.109375 54.6875 
L 18.109375 46.1875 
Q 21.1875 51.21875 25.484375 53.609375 
Q 29.78125 56 35.6875 56 
Q 41.65625 56 45.828125 52.96875 
Q 50 49.953125 52 44.1875 
z
" id="DejaVuSans-6d"/>
     </defs>
     <g transform="translate(14.798438 159.838125)rotate(-90)scale(0.1 -0.1)">
      <use xlink:href="#DejaVuSans-69"/>
      <use x="27.783203" xlink:href="#DejaVuSans-6e"/>
      <use x="91.162109" xlink:href="#DejaVuSans-69"/>
      <use x="118.945312" xlink:href="#DejaVuSans-74"/>
      <use x="158.154297" xlink:href="#DejaVuSans-69"/>
      <use x="185.9375" xlink:href="#DejaVuSans-61"/>
      <use x="247.216797" xlink:href="#DejaVuSans-6c"/>
      <use x="275" xlink:href="#DejaVuSans-20"/>
      <use x="306.787109" xlink:href="#DejaVuSans-63"/>
      <use x="361.767578" xlink:href="#DejaVuSans-6c"/>
      <use x="389.550781" xlink:href="#DejaVuSans-61"/>
      <use x="450.830078" xlink:href="#DejaVuSans-69"/>
      <use x="478.613281" xlink:href="#DejaVuSans-6d"/>
     </g>
    </g>
   </g>
   <g id="line2d_18">
    <path clip-path="url(#pc7d0635654)" d="M 87.633807 168.95803 
L 88.400466 149.967255 
L 89.933784 184.566308 
L 90.700443 181.199685 
L 91.467102 184.043148 
L 92.233761 187.346605 
L 93.00042 189.94697 
L 93.767079 188.152872 
L 94.533738 189.455664 
L 96.067056 194.849481 
L 96.833715 194.888294 
L 97.600374 193.972871 
L 98.367033 183.861259 
L 99.133692 192.267707 
L 99.900351 193.095936 
L 100.66701 196.340793 
L 101.433669 194.712494 
L 102.200328 194.685857 
L 102.966987 195.098341 
L 103.733647 194.218252 
L 104.500306 196.393631 
L 105.266965 191.018405 
L 106.033624 193.325987 
L 106.800283 191.409036 
L 107.566942 188.619933 
L 108.333601 183.659583 
L 109.10026 185.173618 
L 109.866919 194.782944 
L 110.633578 196.037464 
L 111.400237 193.500918 
L 112.933555 197.905817 
L 114.466873 198.24198 
L 115.233532 202.598607 
L 116.000191 198.190011 
L 116.76685 199.25438 
L 117.533509 199.131527 
L 118.300168 189.456969 
L 119.066827 196.920705 
L 120.600145 193.976459 
L 121.366804 190.545256 
L 122.133463 195.232066 
L 122.900122 189.223221 
L 123.666781 194.865245 
L 124.43344 176.079625 
L 125.200099 186.292238 
L 125.966759 185.882146 
L 126.733418 182.602934 
L 127.500077 176.819682 
L 128.266736 155.663314 
L 129.033395 179.996046 
L 129.800054 186.925641 
L 132.100031 193.617357 
L 132.86669 198.337436 
L 133.633349 201.293315 
L 134.400008 195.476578 
L 135.166667 199.344618 
L 135.933326 201.22156 
L 136.699985 200.8954 
L 137.466644 201.291141 
L 138.233303 191.048412 
L 138.999962 198.245133 
L 139.766621 197.589225 
L 140.53328 194.533432 
L 141.299939 196.516158 
L 142.066598 200.447908 
L 142.833257 198.810694 
L 143.599916 198.281771 
L 144.366575 199.877889 
L 145.133234 196.204023 
L 145.899893 196.891351 
L 146.666552 195.548985 
L 147.433211 193.482544 
L 148.19987 188.228868 
L 148.96653 188.650375 
L 149.733189 199.61794 
L 150.499848 202.673407 
L 151.266507 201.226887 
L 152.033166 202.139483 
L 152.799825 202.263859 
L 153.566484 203.145469 
L 154.333143 201.86029 
L 155.099802 204.003596 
L 155.866461 201.290815 
L 156.63312 204.090028 
L 157.399779 203.620249 
L 158.166438 195.628025 
L 158.933097 200.883984 
L 159.699756 198.753725 
L 160.466415 199.570103 
L 161.233074 195.994846 
L 161.999733 200.291025 
L 162.766392 191.904256 
L 163.533051 199.244704 
L 164.29971 182.26775 
L 165.066369 192.3711 
L 165.833028 193.975807 
L 166.599687 185.649377 
L 167.366346 181.043128 
L 168.133005 169.501195 
L 169.666323 194.434931 
L 170.432982 193.847082 
L 171.199641 196.121722 
L 171.966301 200.073803 
L 172.73296 202.069359 
L 173.499619 203.419335 
L 174.266278 199.702089 
L 175.032937 202.782236 
L 175.799596 205.022302 
L 176.566255 204.601012 
L 177.332914 205.424349 
L 178.099573 197.350367 
L 178.866232 199.479322 
L 179.632891 199.463014 
L 180.39955 203.502614 
L 181.166209 202.675907 
L 181.932868 204.413905 
L 182.699527 203.834102 
L 183.466186 202.112738 
L 184.232845 204.490988 
L 184.999504 198.813086 
L 185.766163 200.124466 
L 186.532822 199.475082 
L 187.299481 199.550642 
L 188.06614 191.683011 
L 188.832799 190.262258 
L 189.599458 202.708523 
L 190.366117 205.736267 
L 191.132776 204.943915 
L 191.899435 205.219955 
L 192.666094 205.853032 
L 193.432753 205.778559 
L 194.199412 206.105262 
L 194.966072 207.171588 
L 195.732731 203.831166 
L 196.49939 206.741492 
L 197.266049 207.028404 
L 198.799367 200.322119 
L 199.566026 202.225046 
L 200.332685 202.801588 
L 201.099344 200.420728 
L 201.866003 187.73006 
L 202.632662 195.874819 
L 203.399321 200.742322 
L 204.16598 185.380404 
L 204.932639 193.096479 
L 205.699298 196.114547 
L 206.465957 190.009593 
L 207.232616 186.471626 
L 207.999275 179.154988 
L 208.765934 179.087255 
L 209.532593 192.208346 
L 210.299252 199.578801 
L 211.065911 197.497791 
L 211.83257 200.427687 
L 212.599229 201.587946 
L 213.365888 205.99926 
L 214.132547 203.250601 
L 215.665865 206.982198 
L 216.432524 205.388145 
L 217.199184 205.240177 
L 217.965843 200.952152 
L 218.732502 200.682526 
L 219.499161 204.286703 
L 220.26582 206.965781 
L 221.032479 206.967956 
L 221.799138 204.940219 
L 222.565797 206.777152 
L 223.332456 205.021215 
L 224.099115 207.728343 
L 224.865774 203.558279 
L 225.632433 203.122747 
L 226.399092 203.130248 
L 227.165751 203.290828 
L 227.93241 198.030193 
L 228.699069 195.077032 
L 229.465728 202.74364 
L 230.232387 209.132571 
L 230.999046 208.353157 
L 231.765705 209.016893 
L 233.299023 209.337943 
L 234.065682 210.473415 
L 234.832341 214.790794 
L 235.599 210.083436 
L 236.365659 212.025066 
L 237.132318 212.339376 
L 237.898977 203.235054 
L 238.665636 200.51488 
L 239.432295 205.833462 
L 240.198955 204.388682 
L 240.965614 203.677545 
L 241.732273 200.165889 
L 242.498932 204.200923 
L 243.265591 199.619027 
L 244.03225 204.761592 
L 244.798909 189.375864 
L 245.565568 194.6814 
L 246.332227 194.283593 
L 247.865545 186.644382 
L 248.632204 181.596621 
L 249.398863 194.517993 
L 250.165522 200.857457 
L 250.932181 200.864415 
L 251.69884 200.582178 
L 252.465499 204.667549 
L 253.232158 205.765186 
L 253.998817 205.20343 
L 255.532135 208.667467 
L 256.298794 209.961017 
L 257.065453 207.700728 
L 257.832112 207.233232 
L 258.598771 205.09895 
L 259.36543 207.231058 
L 260.132089 205.171358 
L 260.898748 208.365442 
L 261.665407 210.32349 
L 262.432066 208.512214 
L 263.965385 211.041585 
L 264.732044 205.68843 
L 265.498703 207.012205 
L 266.265362 206.595372 
L 267.032021 206.512527 
L 267.79868 204.668419 
L 268.565339 199.470951 
L 269.331998 208.550158 
L 270.098657 211.749135 
L 270.865316 212.808938 
L 271.631975 210.461564 
L 272.398634 212.636508 
L 273.165293 212.686193 
L 273.931952 212.602043 
L 274.698611 214.235561 
L 275.46527 213.413312 
L 276.231929 213.689243 
L 276.998588 215.016606 
L 277.765247 211.757833 
L 278.531906 209.995373 
L 279.298565 211.907757 
L 280.065224 210.259019 
L 280.831883 210.738474 
L 281.598542 206.126898 
L 282.365201 208.651702 
L 283.13186 200.923124 
L 283.898519 207.752153 
L 284.665178 197.435169 
L 285.431838 204.116774 
L 286.198497 202.703414 
L 287.731815 191.992863 
L 288.498474 182.170772 
L 289.265133 198.059874 
L 290.031792 209.111588 
L 290.798451 206.419898 
L 291.56511 204.515667 
L 292.331769 209.544402 
L 293.098428 209.247053 
L 293.865087 205.449789 
L 294.631746 209.542119 
L 295.398405 211.464615 
L 296.165064 212.792086 
L 296.931723 213.692722 
L 297.698382 212.194017 
L 298.465041 206.253556 
L 299.998359 212.493323 
L 300.765018 214.054434 
L 301.531677 213.351994 
L 302.298336 213.272628 
L 303.064995 212.202606 
L 303.831654 214.67903 
L 304.598313 209.792827 
L 305.364972 211.625303 
L 306.131631 211.14313 
L 306.89829 209.898612 
L 307.664949 206.752364 
L 308.431609 202.307238 
L 309.198268 211.17031 
L 309.964927 214.718387 
L 310.731586 215.393538 
L 311.498245 213.738602 
L 312.264904 214.833956 
L 313.031563 215.116846 
L 314.564881 214.479964 
L 315.33154 218.133391 
L 316.098199 215.911263 
L 316.864858 216.370713 
L 317.631517 215.05955 
L 318.398176 211.869053 
L 319.164835 214.441586 
L 320.698153 211.660528 
L 321.464812 208.10995 
L 322.231471 210.967329 
L 322.99813 206.552428 
L 323.764789 211.205209 
L 324.531448 197.956263 
L 325.298107 205.698758 
L 326.064766 205.006755 
L 326.831425 202.082079 
L 327.598084 195.686516 
L 328.364743 185.082402 
L 329.131402 198.580751 
L 329.898061 207.583963 
L 330.66472 205.844008 
L 331.43138 208.142784 
L 332.198039 211.667051 
L 332.964698 212.700979 
L 333.731357 210.860132 
L 334.498016 212.836009 
L 335.264675 214.003662 
L 336.031334 214.656634 
L 336.797993 214.131081 
L 337.564652 213.11792 
L 338.331311 210.358171 
L 339.09797 213.404397 
L 339.864629 213.117376 
L 340.631288 213.296547 
L 341.397947 211.284466 
L 342.164606 213.135967 
L 342.931265 213.578566 
L 343.697924 212.932552 
L 344.464583 214.502469 
L 345.231242 210.80849 
L 345.997901 212.799044 
L 346.76456 211.092792 
L 347.531219 210.682374 
L 348.297878 207.286396 
L 349.064537 210.563978 
L 349.831196 214.543239 
L 350.597855 215.926484 
L 351.364514 214.584879 
L 352.131173 215.886475 
L 352.897832 216.164689 
L 353.664491 216.308526 
L 354.431151 216.08815 
L 355.19781 218.743527 
L 355.964469 217.399966 
L 356.731128 218.182097 
L 357.497787 217.964549 
L 358.264446 213.819599 
L 359.031105 214.357545 
L 359.797764 213.957347 
L 360.564423 213.040076 
L 361.331082 211.642263 
L 362.097741 215.429851 
L 362.8644 208.469161 
L 363.631059 212.602696 
L 364.397718 201.534347 
L 365.164377 206.569388 
L 365.931036 205.503932 
L 366.697695 202.444008 
L 367.464354 201.645133 
L 368.231013 194.667375 
L 369.764331 208.878383 
L 370.53099 209.209653 
L 371.297649 211.522128 
L 372.064308 213.025399 
L 372.830967 213.739037 
L 373.597626 216.619356 
L 374.364285 213.234903 
L 375.130944 215.597606 
L 375.897603 215.329502 
L 376.664263 214.940719 
L 377.430922 217.106639 
L 378.197581 213.684568 
L 378.96424 215.202191 
L 379.730899 213.490177 
L 380.497558 216.823097 
L 381.264217 216.378976 
L 382.030876 217.263413 
L 382.797535 216.867781 
L 383.564194 214.520082 
L 384.330853 216.633816 
L 385.097512 214.24676 
L 385.864171 214.873965 
L 386.63083 213.705008 
L 387.397489 212.264359 
L 388.164148 208.845876 
L 388.930807 211.734132 
L 389.697466 215.790257 
L 390.464125 218.147198 
L 391.230784 216.717748 
L 391.997443 218.201123 
L 391.997443 218.201123 
" style="fill:none;stroke:#1f77b4;stroke-linecap:square;stroke-width:1.5;"/>
   </g>
   <g id="line2d_19">
    <path clip-path="url(#pc7d0635654)" d="M 88.400466 156.770335 
L 89.167125 158.569725 
L 89.933784 175.807669 
L 90.700443 183.070246 
L 91.467102 183.13222 
L 92.233761 185.696344 
L 93.00042 189.926096 
L 93.767079 191.490807 
L 94.533738 189.17465 
L 95.300397 190.949783 
L 96.067056 194.231238 
L 97.600374 193.535545 
L 98.367033 189.877787 
L 99.133692 188.561741 
L 99.900351 191.456085 
L 100.66701 191.92193 
L 101.433669 193.394359 
L 102.200328 193.412573 
L 102.966987 193.305888 
L 103.733647 193.686411 
L 104.500306 194.409165 
L 105.266965 190.770901 
L 106.033624 191.231415 
L 106.800283 190.154489 
L 107.566942 188.128308 
L 108.333601 182.673894 
L 109.10026 179.799337 
L 109.866919 191.163523 
L 110.633578 197.083201 
L 112.166896 195.548554 
L 112.933555 197.217779 
L 114.466873 197.043216 
L 115.233532 199.739258 
L 116.000191 198.307123 
L 116.76685 199.294512 
L 117.533509 199.29814 
L 118.300168 193.167508 
L 119.066827 191.91486 
L 119.833486 194.35083 
L 120.600145 191.710748 
L 121.366804 190.46676 
L 122.133463 187.376285 
L 122.900122 189.429486 
L 123.666781 187.018389 
L 124.43344 183.775438 
L 125.200099 177.101016 
L 125.966759 182.328626 
L 126.733418 178.783179 
L 127.500077 170.645283 
L 128.266736 160.957618 
L 129.033395 162.285401 
L 129.800054 180.147017 
L 130.566713 185.861435 
L 131.333372 186.916189 
L 132.100031 187.557709 
L 132.86669 192.713884 
L 133.633349 193.486723 
L 134.400008 191.252099 
L 135.166667 194.445175 
L 135.933326 196.969541 
L 136.699985 195.970126 
L 137.466644 196.313623 
L 138.233303 191.03029 
L 138.999962 191.164821 
L 141.299939 197.144244 
L 142.066598 195.712721 
L 142.833257 196.287432 
L 143.599916 195.848105 
L 144.366575 197.899389 
L 145.133234 193.511121 
L 145.899893 192.619528 
L 146.666552 193.061597 
L 147.433211 190.360503 
L 148.19987 186.931356 
L 148.96653 182.979513 
L 149.733189 192.149443 
L 150.499848 198.214677 
L 151.266507 199.35089 
L 152.033166 197.95448 
L 152.799825 199.931451 
L 153.566484 199.138118 
L 154.333143 199.279923 
L 155.099802 202.118748 
L 155.866461 201.048335 
L 156.63312 201.338291 
L 157.399779 201.069481 
L 158.166438 195.856602 
L 158.933097 194.329517 
L 159.699756 196.752638 
L 160.466415 194.593241 
L 161.233074 193.569255 
L 161.999733 190.6697 
L 162.766392 191.74034 
L 164.29971 188.160795 
L 165.066369 181.638866 
L 165.833028 185.737624 
L 166.599687 182.282767 
L 167.366346 175.222884 
L 168.133005 162.565722 
L 168.899664 166.227093 
L 169.666323 183.060784 
L 170.432982 189.57844 
L 171.199641 188.662171 
L 171.966301 190.658603 
L 172.73296 194.080593 
L 173.499619 196.26367 
L 174.266278 193.758238 
L 175.032937 196.42642 
L 175.799596 198.422312 
L 177.332914 198.231036 
L 178.099573 193.750515 
L 178.866232 195.413347 
L 179.632891 195.771318 
L 180.39955 198.589435 
L 181.166209 199.714517 
L 181.932868 198.623971 
L 182.699527 198.554672 
L 183.466186 197.659665 
L 184.232845 198.111101 
L 184.999504 194.658106 
L 185.766163 194.229546 
L 186.532822 194.90363 
L 187.299481 194.263966 
L 188.832799 185.160915 
L 189.599458 195.776312 
L 190.366117 200.560349 
L 191.132776 202.990312 
L 191.899435 200.173343 
L 192.666094 201.676159 
L 193.432753 202.487767 
L 194.199412 201.043385 
L 194.966072 203.742709 
L 195.732731 203.10455 
L 196.49939 201.356278 
L 197.266049 204.604739 
L 198.032708 196.660178 
L 198.799367 196.509815 
L 199.566026 198.331704 
L 200.332685 196.758628 
L 201.099344 196.532079 
L 201.866003 192.538178 
L 202.632662 195.137942 
L 204.16598 190.946942 
L 204.932639 183.546841 
L 205.699298 189.475397 
L 206.465957 186.434407 
L 207.232616 181.240149 
L 207.999275 170.531161 
L 208.765934 166.108561 
L 209.532593 187.566369 
L 210.299252 193.263341 
L 211.065911 192.041216 
L 212.599229 196.253586 
L 213.365888 198.710576 
L 214.132547 195.784993 
L 214.899206 199.224914 
L 215.665865 199.402688 
L 216.432524 200.697224 
L 217.199184 199.938365 
L 217.965843 197.225203 
L 218.732502 196.795188 
L 219.499161 198.179323 
L 220.26582 199.011945 
L 221.032479 201.339538 
L 221.799138 201.722797 
L 222.565797 201.719243 
L 224.099115 200.463296 
L 224.865774 198.216182 
L 225.632433 199.377893 
L 226.399092 198.20069 
L 227.165751 196.116415 
L 227.93241 192.716935 
L 228.699069 188.411436 
L 229.465728 197.054988 
L 230.232387 203.476501 
L 230.999046 204.117596 
L 231.765705 201.802767 
L 232.532364 204.259798 
L 233.299023 204.611477 
L 234.065682 203.820624 
L 234.832341 205.850477 
L 235.599 204.325278 
L 236.365659 204.525799 
L 237.132318 205.993845 
L 237.898977 199.458604 
L 238.665636 198.393726 
L 239.432295 200.058524 
L 240.965614 197.960538 
L 241.732273 195.517806 
L 242.498932 195.983865 
L 243.265591 194.526433 
L 244.03225 192.561635 
L 244.798909 185.669527 
L 245.565568 191.220631 
L 246.332227 187.053435 
L 247.098886 179.909314 
L 247.865545 169.020279 
L 248.632204 173.948034 
L 249.398863 189.330419 
L 250.165522 192.383147 
L 250.932181 191.792013 
L 251.69884 197.702722 
L 252.465499 198.121586 
L 253.232158 200.997468 
L 253.998817 199.766805 
L 255.532135 202.596868 
L 256.298794 203.083329 
L 257.065453 201.458101 
L 257.832112 198.183604 
L 258.598771 199.828198 
L 259.36543 200.572009 
L 260.132089 199.719712 
L 260.898748 203.178965 
L 261.665407 201.132117 
L 262.432066 204.357972 
L 263.198726 201.739951 
L 263.965385 203.829535 
L 264.732044 200.511646 
L 265.498703 199.753378 
L 266.265362 201.602943 
L 267.032021 195.473061 
L 267.79868 195.377469 
L 268.565339 189.180392 
L 269.331998 201.000311 
L 270.098657 206.727647 
L 270.865316 206.23912 
L 271.631975 204.776069 
L 272.398634 206.313424 
L 273.165293 205.953282 
L 273.931952 205.256383 
L 274.698611 207.334617 
L 275.46527 207.443062 
L 276.231929 206.898939 
L 276.998588 205.86687 
L 277.765247 202.069182 
L 278.531906 199.33077 
L 279.298565 202.445159 
L 280.831883 200.604655 
L 281.598542 197.581424 
L 282.365201 197.083405 
L 283.13186 195.598402 
L 283.898519 194.797333 
L 284.665178 186.546674 
L 285.431838 194.458874 
L 286.198497 191.231741 
L 286.965156 185.503899 
L 287.731815 174.982348 
L 288.498474 175.005016 
L 289.265133 192.869261 
L 290.031792 195.539404 
L 290.798451 197.273971 
L 291.56511 200.257852 
L 292.331769 198.602468 
L 293.098428 202.810166 
L 293.865087 201.965232 
L 294.631746 204.804614 
L 295.398405 204.755745 
L 296.165064 204.403251 
L 296.931723 205.353212 
L 297.698382 200.998983 
L 298.465041 202.250292 
L 299.2317 200.766526 
L 299.998359 203.58995 
L 300.765018 205.324262 
L 301.531677 204.254311 
L 302.298336 205.379091 
L 303.064995 201.712458 
L 303.831654 204.466444 
L 304.598313 201.796145 
L 306.131631 201.880043 
L 306.89829 198.177298 
L 307.664949 196.210125 
L 308.431609 191.411292 
L 309.198268 200.368821 
L 309.964927 206.04761 
L 310.731586 207.332888 
L 311.498245 204.751138 
L 312.264904 205.706501 
L 313.031563 207.863193 
L 313.798222 208.362228 
L 314.564881 208.713027 
L 315.33154 208.046781 
L 316.098199 206.88844 
L 316.864858 208.779893 
L 317.631517 202.843132 
L 318.398176 201.870829 
L 319.164835 203.457845 
L 319.931494 202.833908 
L 320.698153 200.393644 
L 321.464812 199.92944 
L 322.231471 199.021037 
L 322.99813 195.550997 
L 323.764789 198.367918 
L 324.531448 192.380212 
L 325.298107 197.269472 
L 326.064766 193.897878 
L 326.831425 188.564476 
L 327.598084 175.03891 
L 328.364743 180.366563 
L 329.131402 195.895856 
L 329.898061 194.507794 
L 331.43138 201.775791 
L 332.198039 201.554736 
L 332.964698 202.814784 
L 333.731357 200.670282 
L 335.264675 206.21933 
L 336.031334 207.103183 
L 336.797993 203.681622 
L 337.564652 203.832447 
L 338.331311 203.427404 
L 339.09797 204.97205 
L 339.864629 205.969108 
L 340.631288 206.444319 
L 341.397947 204.92265 
L 342.164606 207.094835 
L 342.931265 205.381581 
L 343.697924 204.85611 
L 344.464583 205.198687 
L 345.231242 200.023829 
L 345.997901 204.545083 
L 348.297878 193.660526 
L 349.064537 202.503936 
L 349.831196 207.883932 
L 350.597855 208.278191 
L 351.364514 205.652844 
L 352.131173 209.053783 
L 352.897832 206.8711 
L 353.664491 208.30568 
L 354.431151 210.14011 
L 355.19781 209.455602 
L 355.964469 207.485103 
L 356.731128 209.168411 
L 357.497787 203.961005 
L 358.264446 202.633493 
L 359.031105 205.090446 
L 359.797764 203.893585 
L 360.564423 203.304302 
L 361.331082 203.305101 
L 362.097741 200.696255 
L 362.8644 199.073722 
L 363.631059 199.046283 
L 364.397718 191.94998 
L 365.164377 198.18289 
L 365.931036 194.96134 
L 366.697695 188.85662 
L 367.464354 179.560649 
L 368.231013 183.146639 
L 368.997672 198.310089 
L 369.764331 199.236856 
L 370.53099 200.813758 
L 371.297649 203.808423 
L 372.064308 201.250476 
L 372.830967 205.128447 
L 373.597626 202.82271 
L 374.364285 203.727281 
L 375.130944 205.909023 
L 375.897603 206.455599 
L 376.664263 205.925643 
L 377.430922 204.749337 
L 378.197581 204.350916 
L 378.96424 204.71844 
L 379.730899 206.569453 
L 380.497558 210.270203 
L 381.264217 207.738084 
L 382.030876 208.279092 
L 382.797535 205.257107 
L 383.564194 208.992669 
L 384.330853 205.356559 
L 385.097512 204.598169 
L 385.864171 206.265961 
L 386.63083 204.100122 
L 387.397489 199.831626 
L 388.164148 194.464921 
L 388.930807 205.331944 
L 389.697466 208.002776 
L 390.464125 208.541633 
L 391.230784 208.248395 
L 391.997443 209.577368 
L 391.997443 209.577368 
" style="fill:none;stroke:#ff8c00;stroke-linecap:square;stroke-width:1.5;"/>
   </g>
   <g id="patch_3">
    <path d="M 72.415625 239.758125 
L 72.415625 22.318125 
" style="fill:none;stroke:#000000;stroke-linecap:square;stroke-linejoin:miter;stroke-width:0.8;"/>
   </g>
   <g id="patch_4">
    <path d="M 407.215625 239.758125 
L 407.215625 22.318125 
" style="fill:none;stroke:#000000;stroke-linecap:square;stroke-linejoin:miter;stroke-width:0.8;"/>
   </g>
   <g id="patch_5">
    <path d="M 72.415625 239.758125 
L 407.215625 239.758125 
" style="fill:none;stroke:#000000;stroke-linecap:square;stroke-linejoin:miter;stroke-width:0.8;"/>
   </g>
   <g id="patch_6">
    <path d="M 72.415625 22.318125 
L 407.215625 22.318125 
" style="fill:none;stroke:#000000;stroke-linecap:square;stroke-linejoin:miter;stroke-width:0.8;"/>
   </g>
   <g id="text_20">
    <!-- Before Training - Prior Predictive (90% CI) -->
    <defs>
     <path d="M 19.671875 34.8125 
L 19.671875 8.109375 
L 35.5 8.109375 
Q 43.453125 8.109375 47.28125 11.40625 
Q 51.125 14.703125 51.125 21.484375 
Q 51.125 28.328125 47.28125 31.5625 
Q 43.453125 34.8125 35.5 34.8125 
z
M 19.671875 64.796875 
L 19.671875 42.828125 
L 34.28125 42.828125 
Q 41.5 42.828125 45.03125 45.53125 
Q 48.578125 48.25 48.578125 53.8125 
Q 48.578125 59.328125 45.03125 62.0625 
Q 41.5 64.796875 34.28125 64.796875 
z
M 9.8125 72.90625 
L 35.015625 72.90625 
Q 46.296875 72.90625 52.390625 68.21875 
Q 58.5 63.53125 58.5 54.890625 
Q 58.5 48.1875 55.375 44.234375 
Q 52.25 40.28125 46.1875 39.3125 
Q 53.46875 37.75 57.5 32.78125 
Q 61.53125 27.828125 61.53125 20.40625 
Q 61.53125 10.640625 54.890625 5.3125 
Q 48.25 0 35.984375 0 
L 9.8125 0 
z
" id="DejaVuSans-42"/>
     <path d="M 37.109375 75.984375 
L 37.109375 68.5 
L 28.515625 68.5 
Q 23.6875 68.5 21.796875 66.546875 
Q 19.921875 64.59375 19.921875 59.515625 
L 19.921875 54.6875 
L 34.71875 54.6875 
L 34.71875 47.703125 
L 19.921875 47.703125 
L 19.921875 0 
L 10.890625 0 
L 10.890625 47.703125 
L 2.296875 47.703125 
L 2.296875 54.6875 
L 10.890625 54.6875 
L 10.890625 58.5 
Q 10.890625 67.625 15.140625 71.796875 
Q 19.390625 75.984375 28.609375 75.984375 
z
" id="DejaVuSans-66"/>
     <path d="M 30.609375 48.390625 
Q 23.390625 48.390625 19.1875 42.75 
Q 14.984375 37.109375 14.984375 27.296875 
Q 14.984375 17.484375 19.15625 11.84375 
Q 23.34375 6.203125 30.609375 6.203125 
Q 37.796875 6.203125 41.984375 11.859375 
Q 46.1875 17.53125 46.1875 27.296875 
Q 46.1875 37.015625 41.984375 42.703125 
Q 37.796875 48.390625 30.609375 48.390625 
z
M 30.609375 56 
Q 42.328125 56 49.015625 48.375 
Q 55.71875 40.765625 55.71875 27.296875 
Q 55.71875 13.875 49.015625 6.21875 
Q 42.328125 -1.421875 30.609375 -1.421875 
Q 18.84375 -1.421875 12.171875 6.21875 
Q 5.515625 13.875 5.515625 27.296875 
Q 5.515625 40.765625 12.171875 48.375 
Q 18.84375 56 30.609375 56 
z
" id="DejaVuSans-6f"/>
     <path d="M -0.296875 72.90625 
L 61.375 72.90625 
L 61.375 64.59375 
L 35.5 64.59375 
L 35.5 0 
L 25.59375 0 
L 25.59375 64.59375 
L -0.296875 64.59375 
z
" id="DejaVuSans-54"/>
     <path d="M 45.40625 27.984375 
Q 45.40625 37.75 41.375 43.109375 
Q 37.359375 48.484375 30.078125 48.484375 
Q 22.859375 48.484375 18.828125 43.109375 
Q 14.796875 37.75 14.796875 27.984375 
Q 14.796875 18.265625 18.828125 12.890625 
Q 22.859375 7.515625 30.078125 7.515625 
Q 37.359375 7.515625 41.375 12.890625 
Q 45.40625 18.265625 45.40625 27.984375 
z
M 54.390625 6.78125 
Q 54.390625 -7.171875 48.1875 -13.984375 
Q 42 -20.796875 29.203125 -20.796875 
Q 24.46875 -20.796875 20.265625 -20.09375 
Q 16.0625 -19.390625 12.109375 -17.921875 
L 12.109375 -9.1875 
Q 16.0625 -11.328125 19.921875 -12.34375 
Q 23.78125 -13.375 27.78125 -13.375 
Q 36.625 -13.375 41.015625 -8.765625 
Q 45.40625 -4.15625 45.40625 5.171875 
L 45.40625 9.625 
Q 42.625 4.78125 38.28125 2.390625 
Q 33.9375 0 27.875 0 
Q 17.828125 0 11.671875 7.65625 
Q 5.515625 15.328125 5.515625 27.984375 
Q 5.515625 40.671875 11.671875 48.328125 
Q 17.828125 56 27.875 56 
Q 33.9375 56 38.28125 53.609375 
Q 42.625 51.21875 45.40625 46.390625 
L 45.40625 54.6875 
L 54.390625 54.6875 
z
" id="DejaVuSans-67"/>
     <path d="M 4.890625 31.390625 
L 31.203125 31.390625 
L 31.203125 23.390625 
L 4.890625 23.390625 
z
" id="DejaVuSans-2d"/>
     <path d="M 19.671875 64.796875 
L 19.671875 37.40625 
L 32.078125 37.40625 
Q 38.96875 37.40625 42.71875 40.96875 
Q 46.484375 44.53125 46.484375 51.125 
Q 46.484375 57.671875 42.71875 61.234375 
Q 38.96875 64.796875 32.078125 64.796875 
z
M 9.8125 72.90625 
L 32.078125 72.90625 
Q 44.34375 72.90625 50.609375 67.359375 
Q 56.890625 61.8125 56.890625 51.125 
Q 56.890625 40.328125 50.609375 34.8125 
Q 44.34375 29.296875 32.078125 29.296875 
L 19.671875 29.296875 
L 19.671875 0 
L 9.8125 0 
z
" id="DejaVuSans-50"/>
     <path d="M 45.40625 46.390625 
L 45.40625 75.984375 
L 54.390625 75.984375 
L 54.390625 0 
L 45.40625 0 
L 45.40625 8.203125 
Q 42.578125 3.328125 38.25 0.953125 
Q 33.9375 -1.421875 27.875 -1.421875 
Q 17.96875 -1.421875 11.734375 6.484375 
Q 5.515625 14.40625 5.515625 27.296875 
Q 5.515625 40.1875 11.734375 48.09375 
Q 17.96875 56 27.875 56 
Q 33.9375 56 38.25 53.625 
Q 42.578125 51.265625 45.40625 46.390625 
z
M 14.796875 27.296875 
Q 14.796875 17.390625 18.875 11.75 
Q 22.953125 6.109375 30.078125 6.109375 
Q 37.203125 6.109375 41.296875 11.75 
Q 45.40625 17.390625 45.40625 27.296875 
Q 45.40625 37.203125 41.296875 42.84375 
Q 37.203125 48.484375 30.078125 48.484375 
Q 22.953125 48.484375 18.875 42.84375 
Q 14.796875 37.203125 14.796875 27.296875 
z
" id="DejaVuSans-64"/>
     <path d="M 2.984375 54.6875 
L 12.5 54.6875 
L 29.59375 8.796875 
L 46.6875 54.6875 
L 56.203125 54.6875 
L 35.6875 0 
L 23.484375 0 
z
" id="DejaVuSans-76"/>
     <path d="M 31 75.875 
Q 24.46875 64.65625 21.28125 53.65625 
Q 18.109375 42.671875 18.109375 31.390625 
Q 18.109375 20.125 21.3125 9.0625 
Q 24.515625 -2 31 -13.1875 
L 23.1875 -13.1875 
Q 15.875 -1.703125 12.234375 9.375 
Q 8.59375 20.453125 8.59375 31.390625 
Q 8.59375 42.28125 12.203125 53.3125 
Q 15.828125 64.359375 23.1875 75.875 
z
" id="DejaVuSans-28"/>
     <path d="M 10.984375 1.515625 
L 10.984375 10.5 
Q 14.703125 8.734375 18.5 7.8125 
Q 22.3125 6.890625 25.984375 6.890625 
Q 35.75 6.890625 40.890625 13.453125 
Q 46.046875 20.015625 46.78125 33.40625 
Q 43.953125 29.203125 39.59375 26.953125 
Q 35.25 24.703125 29.984375 24.703125 
Q 19.046875 24.703125 12.671875 31.3125 
Q 6.296875 37.9375 6.296875 49.421875 
Q 6.296875 60.640625 12.9375 67.421875 
Q 19.578125 74.21875 30.609375 74.21875 
Q 43.265625 74.21875 49.921875 64.515625 
Q 56.59375 54.828125 56.59375 36.375 
Q 56.59375 19.140625 48.40625 8.859375 
Q 40.234375 -1.421875 26.421875 -1.421875 
Q 22.703125 -1.421875 18.890625 -0.6875 
Q 15.09375 0.046875 10.984375 1.515625 
z
M 30.609375 32.421875 
Q 37.25 32.421875 41.125 36.953125 
Q 45.015625 41.5 45.015625 49.421875 
Q 45.015625 57.28125 41.125 61.84375 
Q 37.25 66.40625 30.609375 66.40625 
Q 23.96875 66.40625 20.09375 61.84375 
Q 16.21875 57.28125 16.21875 49.421875 
Q 16.21875 41.5 20.09375 36.953125 
Q 23.96875 32.421875 30.609375 32.421875 
z
" id="DejaVuSans-39"/>
     <path d="M 72.703125 32.078125 
Q 68.453125 32.078125 66.03125 28.46875 
Q 63.625 24.859375 63.625 18.40625 
Q 63.625 12.0625 66.03125 8.421875 
Q 68.453125 4.78125 72.703125 4.78125 
Q 76.859375 4.78125 79.265625 8.421875 
Q 81.6875 12.0625 81.6875 18.40625 
Q 81.6875 24.8125 79.265625 28.4375 
Q 76.859375 32.078125 72.703125 32.078125 
z
M 72.703125 38.28125 
Q 80.421875 38.28125 84.953125 32.90625 
Q 89.5 27.546875 89.5 18.40625 
Q 89.5 9.28125 84.9375 3.921875 
Q 80.375 -1.421875 72.703125 -1.421875 
Q 64.890625 -1.421875 60.34375 3.921875 
Q 55.8125 9.28125 55.8125 18.40625 
Q 55.8125 27.59375 60.375 32.9375 
Q 64.9375 38.28125 72.703125 38.28125 
z
M 22.3125 68.015625 
Q 18.109375 68.015625 15.6875 64.375 
Q 13.28125 60.75 13.28125 54.390625 
Q 13.28125 47.953125 15.671875 44.328125 
Q 18.0625 40.71875 22.3125 40.71875 
Q 26.5625 40.71875 28.96875 44.328125 
Q 31.390625 47.953125 31.390625 54.390625 
Q 31.390625 60.6875 28.953125 64.34375 
Q 26.515625 68.015625 22.3125 68.015625 
z
M 66.40625 74.21875 
L 74.21875 74.21875 
L 28.609375 -1.421875 
L 20.796875 -1.421875 
z
M 22.3125 74.21875 
Q 30.03125 74.21875 34.609375 68.875 
Q 39.203125 63.53125 39.203125 54.390625 
Q 39.203125 45.171875 34.640625 39.84375 
Q 30.078125 34.515625 22.3125 34.515625 
Q 14.546875 34.515625 10.03125 39.859375 
Q 5.515625 45.21875 5.515625 54.390625 
Q 5.515625 63.484375 10.046875 68.84375 
Q 14.59375 74.21875 22.3125 74.21875 
z
" id="DejaVuSans-25"/>
     <path d="M 64.40625 67.28125 
L 64.40625 56.890625 
Q 59.421875 61.53125 53.78125 63.8125 
Q 48.140625 66.109375 41.796875 66.109375 
Q 29.296875 66.109375 22.65625 58.46875 
Q 16.015625 50.828125 16.015625 36.375 
Q 16.015625 21.96875 22.65625 14.328125 
Q 29.296875 6.6875 41.796875 6.6875 
Q 48.140625 6.6875 53.78125 8.984375 
Q 59.421875 11.28125 64.40625 15.921875 
L 64.40625 5.609375 
Q 59.234375 2.09375 53.4375 0.328125 
Q 47.65625 -1.421875 41.21875 -1.421875 
Q 24.65625 -1.421875 15.125 8.703125 
Q 5.609375 18.84375 5.609375 36.375 
Q 5.609375 53.953125 15.125 64.078125 
Q 24.65625 74.21875 41.21875 74.21875 
Q 47.75 74.21875 53.53125 72.484375 
Q 59.328125 70.75 64.40625 67.28125 
z
" id="DejaVuSans-43"/>
     <path d="M 9.8125 72.90625 
L 19.671875 72.90625 
L 19.671875 0 
L 9.8125 0 
z
" id="DejaVuSans-49"/>
     <path d="M 8.015625 75.875 
L 15.828125 75.875 
Q 23.140625 64.359375 26.78125 53.3125 
Q 30.421875 42.28125 30.421875 31.390625 
Q 30.421875 20.453125 26.78125 9.375 
Q 23.140625 -1.703125 15.828125 -13.1875 
L 8.015625 -13.1875 
Q 14.5 -2 17.703125 9.0625 
Q 20.90625 20.125 20.90625 31.390625 
Q 20.90625 42.671875 17.703125 53.65625 
Q 14.5 64.65625 8.015625 75.875 
z
" id="DejaVuSans-29"/>
    </defs>
    <g transform="translate(114.242187 16.318125)scale(0.12 -0.12)">
     <use xlink:href="#DejaVuSans-42"/>
     <use x="68.603516" xlink:href="#DejaVuSans-65"/>
     <use x="130.126953" xlink:href="#DejaVuSans-66"/>
     <use x="165.332031" xlink:href="#DejaVuSans-6f"/>
     <use x="226.513672" xlink:href="#DejaVuSans-72"/>
     <use x="267.595703" xlink:href="#DejaVuSans-65"/>
     <use x="329.119141" xlink:href="#DejaVuSans-20"/>
     <use x="360.90625" xlink:href="#DejaVuSans-54"/>
     <use x="421.771484" xlink:href="#DejaVuSans-72"/>
     <use x="462.884766" xlink:href="#DejaVuSans-61"/>
     <use x="524.164062" xlink:href="#DejaVuSans-69"/>
     <use x="551.947266" xlink:href="#DejaVuSans-6e"/>
     <use x="615.326172" xlink:href="#DejaVuSans-69"/>
     <use x="643.109375" xlink:href="#DejaVuSans-6e"/>
     <use x="706.488281" xlink:href="#DejaVuSans-67"/>
     <use x="769.964844" xlink:href="#DejaVuSans-20"/>
     <use x="801.751953" xlink:href="#DejaVuSans-2d"/>
     <use x="837.835938" xlink:href="#DejaVuSans-20"/>
     <use x="869.623047" xlink:href="#DejaVuSans-50"/>
     <use x="929.910156" xlink:href="#DejaVuSans-72"/>
     <use x="971.023438" xlink:href="#DejaVuSans-69"/>
     <use x="998.806641" xlink:href="#DejaVuSans-6f"/>
     <use x="1059.988281" xlink:href="#DejaVuSans-72"/>
     <use x="1101.101562" xlink:href="#DejaVuSans-20"/>
     <use x="1132.888672" xlink:href="#DejaVuSans-50"/>
     <use x="1193.175781" xlink:href="#DejaVuSans-72"/>
     <use x="1234.257812" xlink:href="#DejaVuSans-65"/>
     <use x="1295.78125" xlink:href="#DejaVuSans-64"/>
     <use x="1359.257812" xlink:href="#DejaVuSans-69"/>
     <use x="1387.041016" xlink:href="#DejaVuSans-63"/>
     <use x="1442.021484" xlink:href="#DejaVuSans-74"/>
     <use x="1481.230469" xlink:href="#DejaVuSans-69"/>
     <use x="1509.013672" xlink:href="#DejaVuSans-76"/>
     <use x="1568.193359" xlink:href="#DejaVuSans-65"/>
     <use x="1629.716797" xlink:href="#DejaVuSans-20"/>
     <use x="1661.503906" xlink:href="#DejaVuSans-28"/>
     <use x="1700.517578" xlink:href="#DejaVuSans-39"/>
     <use x="1764.140625" xlink:href="#DejaVuSans-30"/>
     <use x="1827.763672" xlink:href="#DejaVuSans-25"/>
     <use x="1922.783203" xlink:href="#DejaVuSans-20"/>
     <use x="1954.570312" xlink:href="#DejaVuSans-43"/>
     <use x="2024.394531" xlink:href="#DejaVuSans-49"/>
     <use x="2053.886719" xlink:href="#DejaVuSans-29"/>
    </g>
   </g>
   <g id="legend_1">
    <g id="patch_7">
     <path d="M 292.20625 59.674375 
L 400.215625 59.674375 
Q 402.215625 59.674375 402.215625 57.674375 
L 402.215625 29.318125 
Q 402.215625 27.318125 400.215625 27.318125 
L 292.20625 27.318125 
Q 290.20625 27.318125 290.20625 29.318125 
L 290.20625 57.674375 
Q 290.20625 59.674375 292.20625 59.674375 
z
" style="fill:#ffffff;opacity:0.8;stroke:#cccccc;stroke-linejoin:miter;"/>
    </g>
    <g id="line2d_20">
     <path d="M 294.20625 35.416562 
L 314.20625 35.416562 
" style="fill:none;stroke:#1f77b4;stroke-linecap:square;stroke-width:1.5;"/>
    </g>
    <g id="line2d_21"/>
    <g id="text_21">
     <!-- Actual data -->
     <defs>
      <path d="M 34.1875 63.1875 
L 20.796875 26.90625 
L 47.609375 26.90625 
z
M 28.609375 72.90625 
L 39.796875 72.90625 
L 67.578125 0 
L 57.328125 0 
L 50.6875 18.703125 
L 17.828125 18.703125 
L 11.1875 0 
L 0.78125 0 
z
" id="DejaVuSans-41"/>
      <path d="M 8.5 21.578125 
L 8.5 54.6875 
L 17.484375 54.6875 
L 17.484375 21.921875 
Q 17.484375 14.15625 20.5 10.265625 
Q 23.53125 6.390625 29.59375 6.390625 
Q 36.859375 6.390625 41.078125 11.03125 
Q 45.3125 15.671875 45.3125 23.6875 
L 45.3125 54.6875 
L 54.296875 54.6875 
L 54.296875 0 
L 45.3125 0 
L 45.3125 8.40625 
Q 42.046875 3.421875 37.71875 1 
Q 33.40625 -1.421875 27.6875 -1.421875 
Q 18.265625 -1.421875 13.375 4.4375 
Q 8.5 10.296875 8.5 21.578125 
z
M 31.109375 56 
z
" id="DejaVuSans-75"/>
     </defs>
     <g transform="translate(322.20625 38.916562)scale(0.1 -0.1)">
      <use xlink:href="#DejaVuSans-41"/>
      <use x="68.392578" xlink:href="#DejaVuSans-63"/>
      <use x="123.373047" xlink:href="#DejaVuSans-74"/>
      <use x="162.582031" xlink:href="#DejaVuSans-75"/>
      <use x="225.960938" xlink:href="#DejaVuSans-61"/>
      <use x="287.240234" xlink:href="#DejaVuSans-6c"/>
      <use x="315.023438" xlink:href="#DejaVuSans-20"/>
      <use x="346.810547" xlink:href="#DejaVuSans-64"/>
      <use x="410.287109" xlink:href="#DejaVuSans-61"/>
      <use x="471.566406" xlink:href="#DejaVuSans-74"/>
      <use x="510.775391" xlink:href="#DejaVuSans-61"/>
     </g>
    </g>
    <g id="line2d_22">
     <path d="M 294.20625 50.094687 
L 314.20625 50.094687 
" style="fill:none;stroke:#ff8c00;stroke-linecap:square;stroke-width:1.5;"/>
    </g>
    <g id="line2d_23"/>
    <g id="text_22">
     <!-- Prior Predictive -->
     <g transform="translate(322.20625 53.594687)scale(0.1 -0.1)">
      <use xlink:href="#DejaVuSans-50"/>
      <use x="60.287109" xlink:href="#DejaVuSans-72"/>
      <use x="101.400391" xlink:href="#DejaVuSans-69"/>
      <use x="129.183594" xlink:href="#DejaVuSans-6f"/>
      <use x="190.365234" xlink:href="#DejaVuSans-72"/>
      <use x="231.478516" xlink:href="#DejaVuSans-20"/>
      <use x="263.265625" xlink:href="#DejaVuSans-50"/>
      <use x="323.552734" xlink:href="#DejaVuSans-72"/>
      <use x="364.634766" xlink:href="#DejaVuSans-65"/>
      <use x="426.158203" xlink:href="#DejaVuSans-64"/>
      <use x="489.634766" xlink:href="#DejaVuSans-69"/>
      <use x="517.417969" xlink:href="#DejaVuSans-63"/>
      <use x="572.398438" xlink:href="#DejaVuSans-74"/>
      <use x="611.607422" xlink:href="#DejaVuSans-69"/>
      <use x="639.390625" xlink:href="#DejaVuSans-76"/>
      <use x="698.570312" xlink:href="#DejaVuSans-65"/>
     </g>
    </g>
   </g>
  </g>
 </g>
 <defs>
  <clipPath id="pc7d0635654">
   <rect height="217.44" width="334.8" x="72.415625" y="22.318125"/>
  </clipPath>
 </defs>
</svg>
