<?xml version="1.0" encoding="utf-8" standalone="no"?>
<!DOCTYPE svg PUBLIC "-//W3C//DTD SVG 1.1//EN"
  "http://www.w3.org/Graphics/SVG/1.1/DTD/svg11.dtd">
<!-- Created with matplotlib (https://matplotlib.org/) -->
<svg height="603.474375pt" version="1.1" viewBox="0 0 532.150662 603.474375" width="532.150662pt" xmlns="http://www.w3.org/2000/svg" xmlns:xlink="http://www.w3.org/1999/xlink">
 <defs>
  <style type="text/css">
*{stroke-linecap:butt;stroke-linejoin:round;}
  </style>
 </defs>
 <g id="figure_1">
  <g id="patch_1">
   <path d="M 0 603.474375 
L 532.150662 603.474375 
L 532.150662 0 
L 0 0 
z
" style="fill:none;"/>
  </g>
  <g id="axes_1">
   <g id="patch_2">
    <path d="M 66.053125 269.409034 
L 512.453125 269.409034 
L 512.453125 22.318125 
L 66.053125 22.318125 
z
" style="fill:#ffffff;"/>
   </g>
   <g id="matplotlib.axis_1">
    <g id="xtick_1">
     <g id="line2d_1">
      <defs>
       <path d="M 0 0 
L 0 3.5 
" id="m0f8e5093cd" style="stroke:#000000;stroke-width:0.8;"/>
      </defs>
      <g>
       <use style="stroke:#000000;stroke-width:0.8;" x="86.227386" xlink:href="#m0f8e5093cd" y="269.409034"/>
      </g>
     </g>
     <g id="text_1">
      <!-- 2010 -->
      <defs>
       <path d="M 19.1875 8.296875 
L 53.609375 8.296875 
L 53.609375 0 
L 7.328125 0 
L 7.328125 8.296875 
Q 12.9375 14.109375 22.625 23.890625 
Q 32.328125 33.6875 34.8125 36.53125 
Q 39.546875 41.84375 41.421875 45.53125 
Q 43.3125 49.21875 43.3125 52.78125 
Q 43.3125 58.59375 39.234375 62.25 
Q 35.15625 65.921875 28.609375 65.921875 
Q 23.96875 65.921875 18.8125 64.3125 
Q 13.671875 62.703125 7.8125 59.421875 
L 7.8125 69.390625 
Q 13.765625 71.78125 18.9375 73 
Q 24.125 74.21875 28.421875 74.21875 
Q 39.75 74.21875 46.484375 68.546875 
Q 53.21875 62.890625 53.21875 53.421875 
Q 53.21875 48.921875 51.53125 44.890625 
Q 49.859375 40.875 45.40625 35.40625 
Q 44.1875 33.984375 37.640625 27.21875 
Q 31.109375 20.453125 19.1875 8.296875 
z
" id="DejaVuSans-50"/>
       <path d="M 31.78125 66.40625 
Q 24.171875 66.40625 20.328125 58.90625 
Q 16.5 51.421875 16.5 36.375 
Q 16.5 21.390625 20.328125 13.890625 
Q 24.171875 6.390625 31.78125 6.390625 
Q 39.453125 6.390625 43.28125 13.890625 
Q 47.125 21.390625 47.125 36.375 
Q 47.125 51.421875 43.28125 58.90625 
Q 39.453125 66.40625 31.78125 66.40625 
z
M 31.78125 74.21875 
Q 44.046875 74.21875 50.515625 64.515625 
Q 56.984375 54.828125 56.984375 36.375 
Q 56.984375 17.96875 50.515625 8.265625 
Q 44.046875 -1.421875 31.78125 -1.421875 
Q 19.53125 -1.421875 13.0625 8.265625 
Q 6.59375 17.96875 6.59375 36.375 
Q 6.59375 54.828125 13.0625 64.515625 
Q 19.53125 74.21875 31.78125 74.21875 
z
" id="DejaVuSans-48"/>
       <path d="M 12.40625 8.296875 
L 28.515625 8.296875 
L 28.515625 63.921875 
L 10.984375 60.40625 
L 10.984375 69.390625 
L 28.421875 72.90625 
L 38.28125 72.90625 
L 38.28125 8.296875 
L 54.390625 8.296875 
L 54.390625 0 
L 12.40625 0 
z
" id="DejaVuSans-49"/>
      </defs>
      <g transform="translate(73.502386 284.007472)scale(0.1 -0.1)">
       <use xlink:href="#DejaVuSans-50"/>
       <use x="63.623047" xlink:href="#DejaVuSans-48"/>
       <use x="127.246094" xlink:href="#DejaVuSans-49"/>
       <use x="190.869141" xlink:href="#DejaVuSans-48"/>
      </g>
     </g>
    </g>
    <g id="xtick_2">
     <g id="line2d_2">
      <g>
       <use style="stroke:#000000;stroke-width:0.8;" x="128.803884" xlink:href="#m0f8e5093cd" y="269.409034"/>
      </g>
     </g>
     <g id="text_2">
      <!-- 2011 -->
      <g transform="translate(116.078884 284.007472)scale(0.1 -0.1)">
       <use xlink:href="#DejaVuSans-50"/>
       <use x="63.623047" xlink:href="#DejaVuSans-48"/>
       <use x="127.246094" xlink:href="#DejaVuSans-49"/>
       <use x="190.869141" xlink:href="#DejaVuSans-49"/>
      </g>
     </g>
    </g>
    <g id="xtick_3">
     <g id="line2d_3">
      <g>
       <use style="stroke:#000000;stroke-width:0.8;" x="171.380382" xlink:href="#m0f8e5093cd" y="269.409034"/>
      </g>
     </g>
     <g id="text_3">
      <!-- 2012 -->
      <g transform="translate(158.655382 284.007472)scale(0.1 -0.1)">
       <use xlink:href="#DejaVuSans-50"/>
       <use x="63.623047" xlink:href="#DejaVuSans-48"/>
       <use x="127.246094" xlink:href="#DejaVuSans-49"/>
       <use x="190.869141" xlink:href="#DejaVuSans-50"/>
      </g>
     </g>
    </g>
    <g id="xtick_4">
     <g id="line2d_4">
      <g>
       <use style="stroke:#000000;stroke-width:0.8;" x="214.073528" xlink:href="#m0f8e5093cd" y="269.409034"/>
      </g>
     </g>
     <g id="text_4">
      <!-- 2013 -->
      <defs>
       <path d="M 40.578125 39.3125 
Q 47.65625 37.796875 51.625 33 
Q 55.609375 28.21875 55.609375 21.1875 
Q 55.609375 10.40625 48.1875 4.484375 
Q 40.765625 -1.421875 27.09375 -1.421875 
Q 22.515625 -1.421875 17.65625 -0.515625 
Q 12.796875 0.390625 7.625 2.203125 
L 7.625 11.71875 
Q 11.71875 9.328125 16.59375 8.109375 
Q 21.484375 6.890625 26.8125 6.890625 
Q 36.078125 6.890625 40.9375 10.546875 
Q 45.796875 14.203125 45.796875 21.1875 
Q 45.796875 27.640625 41.28125 31.265625 
Q 36.765625 34.90625 28.71875 34.90625 
L 20.21875 34.90625 
L 20.21875 43.015625 
L 29.109375 43.015625 
Q 36.375 43.015625 40.234375 45.921875 
Q 44.09375 48.828125 44.09375 54.296875 
Q 44.09375 59.90625 40.109375 62.90625 
Q 36.140625 65.921875 28.71875 65.921875 
Q 24.65625 65.921875 20.015625 65.03125 
Q 15.375 64.15625 9.8125 62.3125 
L 9.8125 71.09375 
Q 15.4375 72.65625 20.34375 73.4375 
Q 25.25 74.21875 29.59375 74.21875 
Q 40.828125 74.21875 47.359375 69.109375 
Q 53.90625 64.015625 53.90625 55.328125 
Q 53.90625 49.265625 50.4375 45.09375 
Q 46.96875 40.921875 40.578125 39.3125 
z
" id="DejaVuSans-51"/>
      </defs>
      <g transform="translate(201.348528 284.007472)scale(0.1 -0.1)">
       <use xlink:href="#DejaVuSans-50"/>
       <use x="63.623047" xlink:href="#DejaVuSans-48"/>
       <use x="127.246094" xlink:href="#DejaVuSans-49"/>
       <use x="190.869141" xlink:href="#DejaVuSans-51"/>
      </g>
     </g>
    </g>
    <g id="xtick_5">
     <g id="line2d_5">
      <g>
       <use style="stroke:#000000;stroke-width:0.8;" x="256.650026" xlink:href="#m0f8e5093cd" y="269.409034"/>
      </g>
     </g>
     <g id="text_5">
      <!-- 2014 -->
      <defs>
       <path d="M 37.796875 64.3125 
L 12.890625 25.390625 
L 37.796875 25.390625 
z
M 35.203125 72.90625 
L 47.609375 72.90625 
L 47.609375 25.390625 
L 58.015625 25.390625 
L 58.015625 17.1875 
L 47.609375 17.1875 
L 47.609375 0 
L 37.796875 0 
L 37.796875 17.1875 
L 4.890625 17.1875 
L 4.890625 26.703125 
z
" id="DejaVuSans-52"/>
      </defs>
      <g transform="translate(243.925026 284.007472)scale(0.1 -0.1)">
       <use xlink:href="#DejaVuSans-50"/>
       <use x="63.623047" xlink:href="#DejaVuSans-48"/>
       <use x="127.246094" xlink:href="#DejaVuSans-49"/>
       <use x="190.869141" xlink:href="#DejaVuSans-52"/>
      </g>
     </g>
    </g>
    <g id="xtick_6">
     <g id="line2d_6">
      <g>
       <use style="stroke:#000000;stroke-width:0.8;" x="299.226524" xlink:href="#m0f8e5093cd" y="269.409034"/>
      </g>
     </g>
     <g id="text_6">
      <!-- 2015 -->
      <defs>
       <path d="M 10.796875 72.90625 
L 49.515625 72.90625 
L 49.515625 64.59375 
L 19.828125 64.59375 
L 19.828125 46.734375 
Q 21.96875 47.46875 24.109375 47.828125 
Q 26.265625 48.1875 28.421875 48.1875 
Q 40.625 48.1875 47.75 41.5 
Q 54.890625 34.8125 54.890625 23.390625 
Q 54.890625 11.625 47.5625 5.09375 
Q 40.234375 -1.421875 26.90625 -1.421875 
Q 22.3125 -1.421875 17.546875 -0.640625 
Q 12.796875 0.140625 7.71875 1.703125 
L 7.71875 11.625 
Q 12.109375 9.234375 16.796875 8.0625 
Q 21.484375 6.890625 26.703125 6.890625 
Q 35.15625 6.890625 40.078125 11.328125 
Q 45.015625 15.765625 45.015625 23.390625 
Q 45.015625 31 40.078125 35.4375 
Q 35.15625 39.890625 26.703125 39.890625 
Q 22.75 39.890625 18.8125 39.015625 
Q 14.890625 38.140625 10.796875 36.28125 
z
" id="DejaVuSans-53"/>
      </defs>
      <g transform="translate(286.501524 284.007472)scale(0.1 -0.1)">
       <use xlink:href="#DejaVuSans-50"/>
       <use x="63.623047" xlink:href="#DejaVuSans-48"/>
       <use x="127.246094" xlink:href="#DejaVuSans-49"/>
       <use x="190.869141" xlink:href="#DejaVuSans-53"/>
      </g>
     </g>
    </g>
    <g id="xtick_7">
     <g id="line2d_7">
      <g>
       <use style="stroke:#000000;stroke-width:0.8;" x="341.803022" xlink:href="#m0f8e5093cd" y="269.409034"/>
      </g>
     </g>
     <g id="text_7">
      <!-- 2016 -->
      <defs>
       <path d="M 33.015625 40.375 
Q 26.375 40.375 22.484375 35.828125 
Q 18.609375 31.296875 18.609375 23.390625 
Q 18.609375 15.53125 22.484375 10.953125 
Q 26.375 6.390625 33.015625 6.390625 
Q 39.65625 6.390625 43.53125 10.953125 
Q 47.40625 15.53125 47.40625 23.390625 
Q 47.40625 31.296875 43.53125 35.828125 
Q 39.65625 40.375 33.015625 40.375 
z
M 52.59375 71.296875 
L 52.59375 62.3125 
Q 48.875 64.0625 45.09375 64.984375 
Q 41.3125 65.921875 37.59375 65.921875 
Q 27.828125 65.921875 22.671875 59.328125 
Q 17.53125 52.734375 16.796875 39.40625 
Q 19.671875 43.65625 24.015625 45.921875 
Q 28.375 48.1875 33.59375 48.1875 
Q 44.578125 48.1875 50.953125 41.515625 
Q 57.328125 34.859375 57.328125 23.390625 
Q 57.328125 12.15625 50.6875 5.359375 
Q 44.046875 -1.421875 33.015625 -1.421875 
Q 20.359375 -1.421875 13.671875 8.265625 
Q 6.984375 17.96875 6.984375 36.375 
Q 6.984375 53.65625 15.1875 63.9375 
Q 23.390625 74.21875 37.203125 74.21875 
Q 40.921875 74.21875 44.703125 73.484375 
Q 48.484375 72.75 52.59375 71.296875 
z
" id="DejaVuSans-54"/>
      </defs>
      <g transform="translate(329.078022 284.007472)scale(0.1 -0.1)">
       <use xlink:href="#DejaVuSans-50"/>
       <use x="63.623047" xlink:href="#DejaVuSans-48"/>
       <use x="127.246094" xlink:href="#DejaVuSans-49"/>
       <use x="190.869141" xlink:href="#DejaVuSans-54"/>
      </g>
     </g>
    </g>
    <g id="xtick_8">
     <g id="line2d_8">
      <g>
       <use style="stroke:#000000;stroke-width:0.8;" x="384.496168" xlink:href="#m0f8e5093cd" y="269.409034"/>
      </g>
     </g>
     <g id="text_8">
      <!-- 2017 -->
      <defs>
       <path d="M 8.203125 72.90625 
L 55.078125 72.90625 
L 55.078125 68.703125 
L 28.609375 0 
L 18.3125 0 
L 43.21875 64.59375 
L 8.203125 64.59375 
z
" id="DejaVuSans-55"/>
      </defs>
      <g transform="translate(371.771168 284.007472)scale(0.1 -0.1)">
       <use xlink:href="#DejaVuSans-50"/>
       <use x="63.623047" xlink:href="#DejaVuSans-48"/>
       <use x="127.246094" xlink:href="#DejaVuSans-49"/>
       <use x="190.869141" xlink:href="#DejaVuSans-55"/>
      </g>
     </g>
    </g>
    <g id="xtick_9">
     <g id="line2d_9">
      <g>
       <use style="stroke:#000000;stroke-width:0.8;" x="427.072666" xlink:href="#m0f8e5093cd" y="269.409034"/>
      </g>
     </g>
     <g id="text_9">
      <!-- 2018 -->
      <defs>
       <path d="M 31.78125 34.625 
Q 24.75 34.625 20.71875 30.859375 
Q 16.703125 27.09375 16.703125 20.515625 
Q 16.703125 13.921875 20.71875 10.15625 
Q 24.75 6.390625 31.78125 6.390625 
Q 38.8125 6.390625 42.859375 10.171875 
Q 46.921875 13.96875 46.921875 20.515625 
Q 46.921875 27.09375 42.890625 30.859375 
Q 38.875 34.625 31.78125 34.625 
z
M 21.921875 38.8125 
Q 15.578125 40.375 12.03125 44.71875 
Q 8.5 49.078125 8.5 55.328125 
Q 8.5 64.0625 14.71875 69.140625 
Q 20.953125 74.21875 31.78125 74.21875 
Q 42.671875 74.21875 48.875 69.140625 
Q 55.078125 64.0625 55.078125 55.328125 
Q 55.078125 49.078125 51.53125 44.71875 
Q 48 40.375 41.703125 38.8125 
Q 48.828125 37.15625 52.796875 32.3125 
Q 56.78125 27.484375 56.78125 20.515625 
Q 56.78125 9.90625 50.3125 4.234375 
Q 43.84375 -1.421875 31.78125 -1.421875 
Q 19.734375 -1.421875 13.25 4.234375 
Q 6.78125 9.90625 6.78125 20.515625 
Q 6.78125 27.484375 10.78125 32.3125 
Q 14.796875 37.15625 21.921875 38.8125 
z
M 18.3125 54.390625 
Q 18.3125 48.734375 21.84375 45.5625 
Q 25.390625 42.390625 31.78125 42.390625 
Q 38.140625 42.390625 41.71875 45.5625 
Q 45.3125 48.734375 45.3125 54.390625 
Q 45.3125 60.0625 41.71875 63.234375 
Q 38.140625 66.40625 31.78125 66.40625 
Q 25.390625 66.40625 21.84375 63.234375 
Q 18.3125 60.0625 18.3125 54.390625 
z
" id="DejaVuSans-56"/>
      </defs>
      <g transform="translate(414.347666 284.007472)scale(0.1 -0.1)">
       <use xlink:href="#DejaVuSans-50"/>
       <use x="63.623047" xlink:href="#DejaVuSans-48"/>
       <use x="127.246094" xlink:href="#DejaVuSans-49"/>
       <use x="190.869141" xlink:href="#DejaVuSans-56"/>
      </g>
     </g>
    </g>
    <g id="xtick_10">
     <g id="line2d_10">
      <g>
       <use style="stroke:#000000;stroke-width:0.8;" x="469.649164" xlink:href="#m0f8e5093cd" y="269.409034"/>
      </g>
     </g>
     <g id="text_10">
      <!-- 2019 -->
      <defs>
       <path d="M 10.984375 1.515625 
L 10.984375 10.5 
Q 14.703125 8.734375 18.5 7.8125 
Q 22.3125 6.890625 25.984375 6.890625 
Q 35.75 6.890625 40.890625 13.453125 
Q 46.046875 20.015625 46.78125 33.40625 
Q 43.953125 29.203125 39.59375 26.953125 
Q 35.25 24.703125 29.984375 24.703125 
Q 19.046875 24.703125 12.671875 31.3125 
Q 6.296875 37.9375 6.296875 49.421875 
Q 6.296875 60.640625 12.9375 67.421875 
Q 19.578125 74.21875 30.609375 74.21875 
Q 43.265625 74.21875 49.921875 64.515625 
Q 56.59375 54.828125 56.59375 36.375 
Q 56.59375 19.140625 48.40625 8.859375 
Q 40.234375 -1.421875 26.421875 -1.421875 
Q 22.703125 -1.421875 18.890625 -0.6875 
Q 15.09375 0.046875 10.984375 1.515625 
z
M 30.609375 32.421875 
Q 37.25 32.421875 41.125 36.953125 
Q 45.015625 41.5 45.015625 49.421875 
Q 45.015625 57.28125 41.125 61.84375 
Q 37.25 66.40625 30.609375 66.40625 
Q 23.96875 66.40625 20.09375 61.84375 
Q 16.21875 57.28125 16.21875 49.421875 
Q 16.21875 41.5 20.09375 36.953125 
Q 23.96875 32.421875 30.609375 32.421875 
z
" id="DejaVuSans-57"/>
      </defs>
      <g transform="translate(456.924164 284.007472)scale(0.1 -0.1)">
       <use xlink:href="#DejaVuSans-50"/>
       <use x="63.623047" xlink:href="#DejaVuSans-48"/>
       <use x="127.246094" xlink:href="#DejaVuSans-49"/>
       <use x="190.869141" xlink:href="#DejaVuSans-57"/>
      </g>
     </g>
    </g>
    <g id="xtick_11">
     <g id="line2d_11">
      <g>
       <use style="stroke:#000000;stroke-width:0.8;" x="512.225662" xlink:href="#m0f8e5093cd" y="269.409034"/>
      </g>
     </g>
     <g id="text_11">
      <!-- 2020 -->
      <g transform="translate(499.500662 284.007472)scale(0.1 -0.1)">
       <use xlink:href="#DejaVuSans-50"/>
       <use x="63.623047" xlink:href="#DejaVuSans-48"/>
       <use x="127.246094" xlink:href="#DejaVuSans-50"/>
       <use x="190.869141" xlink:href="#DejaVuSans-48"/>
      </g>
     </g>
    </g>
    <g id="text_12">
     <!-- year -->
     <defs>
      <path d="M 32.171875 -5.078125 
Q 28.375 -14.84375 24.75 -17.8125 
Q 21.140625 -20.796875 15.09375 -20.796875 
L 7.90625 -20.796875 
L 7.90625 -13.28125 
L 13.1875 -13.28125 
Q 16.890625 -13.28125 18.9375 -11.515625 
Q 21 -9.765625 23.484375 -3.21875 
L 25.09375 0.875 
L 2.984375 54.6875 
L 12.5 54.6875 
L 29.59375 11.921875 
L 46.6875 54.6875 
L 56.203125 54.6875 
z
" id="DejaVuSans-121"/>
      <path d="M 56.203125 29.59375 
L 56.203125 25.203125 
L 14.890625 25.203125 
Q 15.484375 15.921875 20.484375 11.0625 
Q 25.484375 6.203125 34.421875 6.203125 
Q 39.59375 6.203125 44.453125 7.46875 
Q 49.3125 8.734375 54.109375 11.28125 
L 54.109375 2.78125 
Q 49.265625 0.734375 44.1875 -0.34375 
Q 39.109375 -1.421875 33.890625 -1.421875 
Q 20.796875 -1.421875 13.15625 6.1875 
Q 5.515625 13.8125 5.515625 26.8125 
Q 5.515625 40.234375 12.765625 48.109375 
Q 20.015625 56 32.328125 56 
Q 43.359375 56 49.78125 48.890625 
Q 56.203125 41.796875 56.203125 29.59375 
z
M 47.21875 32.234375 
Q 47.125 39.59375 43.09375 43.984375 
Q 39.0625 48.390625 32.421875 48.390625 
Q 24.90625 48.390625 20.390625 44.140625 
Q 15.875 39.890625 15.1875 32.171875 
z
" id="DejaVuSans-101"/>
      <path d="M 34.28125 27.484375 
Q 23.390625 27.484375 19.1875 25 
Q 14.984375 22.515625 14.984375 16.5 
Q 14.984375 11.71875 18.140625 8.90625 
Q 21.296875 6.109375 26.703125 6.109375 
Q 34.1875 6.109375 38.703125 11.40625 
Q 43.21875 16.703125 43.21875 25.484375 
L 43.21875 27.484375 
z
M 52.203125 31.203125 
L 52.203125 0 
L 43.21875 0 
L 43.21875 8.296875 
Q 40.140625 3.328125 35.546875 0.953125 
Q 30.953125 -1.421875 24.3125 -1.421875 
Q 15.921875 -1.421875 10.953125 3.296875 
Q 6 8.015625 6 15.921875 
Q 6 25.140625 12.171875 29.828125 
Q 18.359375 34.515625 30.609375 34.515625 
L 43.21875 34.515625 
L 43.21875 35.40625 
Q 43.21875 41.609375 39.140625 45 
Q 35.0625 48.390625 27.6875 48.390625 
Q 23 48.390625 18.546875 47.265625 
Q 14.109375 46.140625 10.015625 43.890625 
L 10.015625 52.203125 
Q 14.9375 54.109375 19.578125 55.046875 
Q 24.21875 56 28.609375 56 
Q 40.484375 56 46.34375 49.84375 
Q 52.203125 43.703125 52.203125 31.203125 
z
" id="DejaVuSans-97"/>
      <path d="M 41.109375 46.296875 
Q 39.59375 47.171875 37.8125 47.578125 
Q 36.03125 48 33.890625 48 
Q 26.265625 48 22.1875 43.046875 
Q 18.109375 38.09375 18.109375 28.8125 
L 18.109375 0 
L 9.078125 0 
L 9.078125 54.6875 
L 18.109375 54.6875 
L 18.109375 46.1875 
Q 20.953125 51.171875 25.484375 53.578125 
Q 30.03125 56 36.53125 56 
Q 37.453125 56 38.578125 55.875 
Q 39.703125 55.765625 41.0625 55.515625 
z
" id="DejaVuSans-114"/>
     </defs>
     <g transform="translate(278.097656 297.685597)scale(0.1 -0.1)">
      <use xlink:href="#DejaVuSans-121"/>
      <use x="59.179688" xlink:href="#DejaVuSans-101"/>
      <use x="120.703125" xlink:href="#DejaVuSans-97"/>
      <use x="181.982422" xlink:href="#DejaVuSans-114"/>
     </g>
    </g>
   </g>
   <g id="matplotlib.axis_2">
    <g id="ytick_1">
     <g id="line2d_12">
      <defs>
       <path d="M 0 0 
L -3.5 0 
" id="md857e70e4c" style="stroke:#000000;stroke-width:0.8;"/>
      </defs>
      <g>
       <use style="stroke:#000000;stroke-width:0.8;" x="66.053125" xlink:href="#md857e70e4c" y="245.524643"/>
      </g>
     </g>
     <g id="text_13">
      <!-- 200000 -->
      <g transform="translate(20.878125 249.323862)scale(0.1 -0.1)">
       <use xlink:href="#DejaVuSans-50"/>
       <use x="63.623047" xlink:href="#DejaVuSans-48"/>
       <use x="127.246094" xlink:href="#DejaVuSans-48"/>
       <use x="190.869141" xlink:href="#DejaVuSans-48"/>
       <use x="254.492188" xlink:href="#DejaVuSans-48"/>
       <use x="318.115234" xlink:href="#DejaVuSans-48"/>
      </g>
     </g>
    </g>
    <g id="ytick_2">
     <g id="line2d_13">
      <g>
       <use style="stroke:#000000;stroke-width:0.8;" x="66.053125" xlink:href="#md857e70e4c" y="211.656907"/>
      </g>
     </g>
     <g id="text_14">
      <!-- 300000 -->
      <g transform="translate(20.878125 215.456125)scale(0.1 -0.1)">
       <use xlink:href="#DejaVuSans-51"/>
       <use x="63.623047" xlink:href="#DejaVuSans-48"/>
       <use x="127.246094" xlink:href="#DejaVuSans-48"/>
       <use x="190.869141" xlink:href="#DejaVuSans-48"/>
       <use x="254.492188" xlink:href="#DejaVuSans-48"/>
       <use x="318.115234" xlink:href="#DejaVuSans-48"/>
      </g>
     </g>
    </g>
    <g id="ytick_3">
     <g id="line2d_14">
      <g>
       <use style="stroke:#000000;stroke-width:0.8;" x="66.053125" xlink:href="#md857e70e4c" y="177.78917"/>
      </g>
     </g>
     <g id="text_15">
      <!-- 400000 -->
      <g transform="translate(20.878125 181.588389)scale(0.1 -0.1)">
       <use xlink:href="#DejaVuSans-52"/>
       <use x="63.623047" xlink:href="#DejaVuSans-48"/>
       <use x="127.246094" xlink:href="#DejaVuSans-48"/>
       <use x="190.869141" xlink:href="#DejaVuSans-48"/>
       <use x="254.492188" xlink:href="#DejaVuSans-48"/>
       <use x="318.115234" xlink:href="#DejaVuSans-48"/>
      </g>
     </g>
    </g>
    <g id="ytick_4">
     <g id="line2d_15">
      <g>
       <use style="stroke:#000000;stroke-width:0.8;" x="66.053125" xlink:href="#md857e70e4c" y="143.921434"/>
      </g>
     </g>
     <g id="text_16">
      <!-- 500000 -->
      <g transform="translate(20.878125 147.720653)scale(0.1 -0.1)">
       <use xlink:href="#DejaVuSans-53"/>
       <use x="63.623047" xlink:href="#DejaVuSans-48"/>
       <use x="127.246094" xlink:href="#DejaVuSans-48"/>
       <use x="190.869141" xlink:href="#DejaVuSans-48"/>
       <use x="254.492188" xlink:href="#DejaVuSans-48"/>
       <use x="318.115234" xlink:href="#DejaVuSans-48"/>
      </g>
     </g>
    </g>
    <g id="ytick_5">
     <g id="line2d_16">
      <g>
       <use style="stroke:#000000;stroke-width:0.8;" x="66.053125" xlink:href="#md857e70e4c" y="110.053698"/>
      </g>
     </g>
     <g id="text_17">
      <!-- 600000 -->
      <g transform="translate(20.878125 113.852917)scale(0.1 -0.1)">
       <use xlink:href="#DejaVuSans-54"/>
       <use x="63.623047" xlink:href="#DejaVuSans-48"/>
       <use x="127.246094" xlink:href="#DejaVuSans-48"/>
       <use x="190.869141" xlink:href="#DejaVuSans-48"/>
       <use x="254.492188" xlink:href="#DejaVuSans-48"/>
       <use x="318.115234" xlink:href="#DejaVuSans-48"/>
      </g>
     </g>
    </g>
    <g id="ytick_6">
     <g id="line2d_17">
      <g>
       <use style="stroke:#000000;stroke-width:0.8;" x="66.053125" xlink:href="#md857e70e4c" y="76.185962"/>
      </g>
     </g>
     <g id="text_18">
      <!-- 700000 -->
      <g transform="translate(20.878125 79.985181)scale(0.1 -0.1)">
       <use xlink:href="#DejaVuSans-55"/>
       <use x="63.623047" xlink:href="#DejaVuSans-48"/>
       <use x="127.246094" xlink:href="#DejaVuSans-48"/>
       <use x="190.869141" xlink:href="#DejaVuSans-48"/>
       <use x="254.492188" xlink:href="#DejaVuSans-48"/>
       <use x="318.115234" xlink:href="#DejaVuSans-48"/>
      </g>
     </g>
    </g>
    <g id="ytick_7">
     <g id="line2d_18">
      <g>
       <use style="stroke:#000000;stroke-width:0.8;" x="66.053125" xlink:href="#md857e70e4c" y="42.318226"/>
      </g>
     </g>
     <g id="text_19">
      <!-- 800000 -->
      <g transform="translate(20.878125 46.117444)scale(0.1 -0.1)">
       <use xlink:href="#DejaVuSans-56"/>
       <use x="63.623047" xlink:href="#DejaVuSans-48"/>
       <use x="127.246094" xlink:href="#DejaVuSans-48"/>
       <use x="190.869141" xlink:href="#DejaVuSans-48"/>
       <use x="254.492188" xlink:href="#DejaVuSans-48"/>
       <use x="318.115234" xlink:href="#DejaVuSans-48"/>
      </g>
     </g>
    </g>
    <g id="text_20">
     <!-- initial claim -->
     <defs>
      <path d="M 9.421875 54.6875 
L 18.40625 54.6875 
L 18.40625 0 
L 9.421875 0 
z
M 9.421875 75.984375 
L 18.40625 75.984375 
L 18.40625 64.59375 
L 9.421875 64.59375 
z
" id="DejaVuSans-105"/>
      <path d="M 54.890625 33.015625 
L 54.890625 0 
L 45.90625 0 
L 45.90625 32.71875 
Q 45.90625 40.484375 42.875 44.328125 
Q 39.84375 48.1875 33.796875 48.1875 
Q 26.515625 48.1875 22.3125 43.546875 
Q 18.109375 38.921875 18.109375 30.90625 
L 18.109375 0 
L 9.078125 0 
L 9.078125 54.6875 
L 18.109375 54.6875 
L 18.109375 46.1875 
Q 21.34375 51.125 25.703125 53.5625 
Q 30.078125 56 35.796875 56 
Q 45.21875 56 50.046875 50.171875 
Q 54.890625 44.34375 54.890625 33.015625 
z
" id="DejaVuSans-110"/>
      <path d="M 18.3125 70.21875 
L 18.3125 54.6875 
L 36.8125 54.6875 
L 36.8125 47.703125 
L 18.3125 47.703125 
L 18.3125 18.015625 
Q 18.3125 11.328125 20.140625 9.421875 
Q 21.96875 7.515625 27.59375 7.515625 
L 36.8125 7.515625 
L 36.8125 0 
L 27.59375 0 
Q 17.1875 0 13.234375 3.875 
Q 9.28125 7.765625 9.28125 18.015625 
L 9.28125 47.703125 
L 2.6875 47.703125 
L 2.6875 54.6875 
L 9.28125 54.6875 
L 9.28125 70.21875 
z
" id="DejaVuSans-116"/>
      <path d="M 9.421875 75.984375 
L 18.40625 75.984375 
L 18.40625 0 
L 9.421875 0 
z
" id="DejaVuSans-108"/>
      <path id="DejaVuSans-32"/>
      <path d="M 48.78125 52.59375 
L 48.78125 44.1875 
Q 44.96875 46.296875 41.140625 47.34375 
Q 37.3125 48.390625 33.40625 48.390625 
Q 24.65625 48.390625 19.8125 42.84375 
Q 14.984375 37.3125 14.984375 27.296875 
Q 14.984375 17.28125 19.8125 11.734375 
Q 24.65625 6.203125 33.40625 6.203125 
Q 37.3125 6.203125 41.140625 7.25 
Q 44.96875 8.296875 48.78125 10.40625 
L 48.78125 2.09375 
Q 45.015625 0.34375 40.984375 -0.53125 
Q 36.96875 -1.421875 32.421875 -1.421875 
Q 20.0625 -1.421875 12.78125 6.34375 
Q 5.515625 14.109375 5.515625 27.296875 
Q 5.515625 40.671875 12.859375 48.328125 
Q 20.21875 56 33.015625 56 
Q 37.15625 56 41.109375 55.140625 
Q 45.0625 54.296875 48.78125 52.59375 
z
" id="DejaVuSans-99"/>
      <path d="M 52 44.1875 
Q 55.375 50.25 60.0625 53.125 
Q 64.75 56 71.09375 56 
Q 79.640625 56 84.28125 50.015625 
Q 88.921875 44.046875 88.921875 33.015625 
L 88.921875 0 
L 79.890625 0 
L 79.890625 32.71875 
Q 79.890625 40.578125 77.09375 44.375 
Q 74.3125 48.1875 68.609375 48.1875 
Q 61.625 48.1875 57.5625 43.546875 
Q 53.515625 38.921875 53.515625 30.90625 
L 53.515625 0 
L 44.484375 0 
L 44.484375 32.71875 
Q 44.484375 40.625 41.703125 44.40625 
Q 38.921875 48.1875 33.109375 48.1875 
Q 26.21875 48.1875 22.15625 43.53125 
Q 18.109375 38.875 18.109375 30.90625 
L 18.109375 0 
L 9.078125 0 
L 9.078125 54.6875 
L 18.109375 54.6875 
L 18.109375 46.1875 
Q 21.1875 51.21875 25.484375 53.609375 
Q 29.78125 56 35.6875 56 
Q 41.65625 56 45.828125 52.96875 
Q 50 49.953125 52 44.1875 
z
" id="DejaVuSans-109"/>
     </defs>
     <g transform="translate(14.798438 174.66358)rotate(-90)scale(0.1 -0.1)">
      <use xlink:href="#DejaVuSans-105"/>
      <use x="27.783203" xlink:href="#DejaVuSans-110"/>
      <use x="91.162109" xlink:href="#DejaVuSans-105"/>
      <use x="118.945312" xlink:href="#DejaVuSans-116"/>
      <use x="158.154297" xlink:href="#DejaVuSans-105"/>
      <use x="185.9375" xlink:href="#DejaVuSans-97"/>
      <use x="247.216797" xlink:href="#DejaVuSans-108"/>
      <use x="275" xlink:href="#DejaVuSans-32"/>
      <use x="306.787109" xlink:href="#DejaVuSans-99"/>
      <use x="361.767578" xlink:href="#DejaVuSans-108"/>
      <use x="389.550781" xlink:href="#DejaVuSans-97"/>
      <use x="450.830078" xlink:href="#DejaVuSans-105"/>
      <use x="478.613281" xlink:href="#DejaVuSans-109"/>
     </g>
    </g>
   </g>
   <g id="line2d_19">
    <path clip-path="url(#pce8b6b68b6)" d="M 86.344034 92.708337 
L 87.16057 33.54953 
L 88.793641 141.330214 
L 89.610176 130.842731 
L 90.426712 139.700498 
L 91.243248 149.99121 
L 92.059783 158.091695 
L 92.876319 152.502841 
L 93.692854 156.561212 
L 95.325925 173.363673 
L 96.142461 173.484581 
L 96.958997 170.632918 
L 97.775532 139.133891 
L 98.592068 165.321102 
L 99.408603 167.901146 
L 100.225139 178.009311 
L 101.041674 172.93694 
L 101.85821 172.853964 
L 102.674746 174.138906 
L 103.491281 171.397313 
L 104.307817 178.173908 
L 105.124352 161.42936 
L 105.940888 168.617787 
L 106.757424 162.646228 
L 107.573959 153.957799 
L 108.390495 138.505645 
L 109.20703 143.222065 
L 110.023566 173.156403 
L 110.840101 177.064401 
L 111.656637 169.162719 
L 113.289708 182.884571 
L 114.106244 183.500964 
L 114.922779 183.931762 
L 115.739315 197.503241 
L 116.55585 183.769874 
L 117.372386 187.085525 
L 118.188922 186.70282 
L 119.005457 156.565276 
L 119.821993 179.815816 
L 121.455064 170.644094 
L 122.271599 159.955437 
L 123.088135 174.555479 
L 123.904671 155.83712 
L 124.721206 173.412782 
L 125.537742 114.893059 
L 126.354277 146.706717 
L 127.170813 145.429226 
L 127.987349 135.214039 
L 128.803884 117.198436 
L 129.62042 51.293514 
L 130.436955 127.093233 
L 131.253491 148.679851 
L 133.703098 169.525443 
L 134.519633 184.22912 
L 135.336169 193.437081 
L 136.152704 175.317164 
L 136.96924 187.366628 
L 137.785775 193.213554 
L 138.602311 192.197521 
L 139.418847 193.430307 
L 140.235382 161.522835 
L 141.051918 183.941583 
L 141.868453 181.898343 
L 142.684989 172.379138 
L 143.501524 178.555597 
L 144.31806 190.803525 
L 145.134596 185.703383 
L 145.951131 184.055718 
L 146.767667 189.02784 
L 147.584202 177.583255 
L 148.400738 179.724373 
L 149.217274 175.542723 
L 150.033809 169.105483 
L 150.850345 152.739577 
L 151.66688 154.052629 
L 152.483416 188.218062 
L 153.299951 197.736251 
L 154.116487 193.230149 
L 154.933023 196.073007 
L 155.749558 196.460453 
L 156.566094 199.206788 
L 157.382629 195.203283 
L 158.199165 201.879969 
L 159.0157 193.429291 
L 159.832236 202.149217 
L 160.648772 200.685792 
L 161.465307 175.788942 
L 162.281843 192.16196 
L 163.098378 185.525916 
L 163.914914 188.069044 
L 164.731449 176.931639 
L 165.547985 190.314814 
L 166.364521 164.188904 
L 167.181056 187.055383 
L 167.997592 134.169897 
L 168.814127 165.643184 
L 169.630663 170.642062 
L 170.447199 144.704118 
L 171.263734 130.355035 
L 172.08027 94.400369 
L 173.713341 172.072297 
L 174.529876 170.241068 
L 175.346412 177.326876 
L 176.162948 189.638137 
L 176.979483 195.85456 
L 177.796019 200.059916 
L 178.612554 188.480199 
L 179.42909 198.075267 
L 180.245625 205.053375 
L 181.062161 203.741001 
L 181.878697 206.305804 
L 182.695232 181.154269 
L 183.511768 187.786249 
L 184.328303 187.735447 
L 185.144839 200.319343 
L 185.961374 197.744041 
L 186.77791 203.158137 
L 187.594446 201.351971 
L 188.410981 195.989692 
L 189.227517 203.398259 
L 190.044052 185.710834 
L 190.860588 189.79596 
L 191.677124 187.77304 
L 192.493659 188.008421 
L 193.310195 163.499695 
L 194.12673 159.073859 
L 194.943266 197.845644 
L 195.759801 207.27747 
L 196.576337 204.809189 
L 197.392873 205.669091 
L 198.209408 207.641209 
L 199.025944 207.409215 
L 199.842479 208.426941 
L 200.659015 211.748688 
L 201.47555 201.342826 
L 202.292086 210.408881 
L 203.108622 211.30265 
L 204.741693 190.411676 
L 205.558228 196.339546 
L 206.374764 198.135552 
L 207.1913 190.718856 
L 208.007835 151.185725 
L 208.824371 176.55774 
L 209.640906 191.720664 
L 210.457442 143.86623 
L 211.273977 167.90284 
L 212.090513 177.304523 
L 212.907049 158.286773 
L 213.723584 147.265534 
L 214.54012 124.473225 
L 215.356655 124.262229 
L 216.173191 165.136184 
L 216.989726 188.096139 
L 217.806262 181.613515 
L 218.622798 190.740531 
L 219.439333 194.354896 
L 220.255869 208.09673 
L 221.072404 199.534289 
L 222.705475 211.158712 
L 223.522011 206.193025 
L 224.338547 205.732085 
L 225.155082 192.374311 
L 225.971618 191.534391 
L 226.788153 202.761884 
L 227.604689 211.107572 
L 228.421225 211.114346 
L 229.23776 204.797674 
L 230.054296 210.519967 
L 230.870831 205.049989 
L 231.687367 213.483055 
L 232.503902 200.492746 
L 233.320438 199.136005 
L 234.136974 199.159373 
L 234.953509 199.6596 
L 235.770045 183.272018 
L 236.58658 174.072525 
L 237.403116 197.955037 
L 238.219651 217.857412 
L 239.036187 215.429434 
L 239.852723 217.497059 
L 241.485794 218.497173 
L 242.302329 222.03432 
L 243.118865 235.483536 
L 243.9354 220.819484 
L 244.751936 226.867923 
L 245.568472 227.847039 
L 246.385007 199.485858 
L 247.201543 191.012151 
L 248.018078 207.580247 
L 248.834614 203.079564 
L 249.65115 200.864275 
L 250.467685 189.924996 
L 251.284221 202.494668 
L 252.100756 188.221449 
L 252.917292 204.241227 
L 253.733827 156.312623 
L 254.550363 172.840078 
L 255.366899 171.600858 
L 256.99997 147.803693 
L 257.816505 132.079242 
L 258.633041 172.331046 
L 259.449576 192.079323 
L 260.266112 192.100998 
L 261.082648 191.221792 
L 261.899183 203.948271 
L 262.715719 207.367558 
L 263.532254 205.617612 
L 265.165325 216.40855 
L 265.981861 220.438133 
L 266.798397 213.397031 
L 267.614932 211.940718 
L 268.431468 205.292143 
L 269.248003 211.933945 
L 270.064539 205.517702 
L 270.881075 215.467704 
L 271.69761 221.567284 
L 272.514146 215.924919 
L 274.147217 223.804248 
L 274.963752 207.128452 
L 275.780288 211.252187 
L 276.596824 209.953698 
L 277.413359 209.695626 
L 278.229895 203.950981 
L 279.04643 187.760171 
L 279.862966 216.043117 
L 280.679501 226.00836 
L 281.496037 229.309787 
L 282.312573 221.997404 
L 283.129108 228.772645 
L 283.945644 228.92742 
L 284.762179 228.665284 
L 285.578715 233.753911 
L 286.39525 231.192494 
L 287.211786 232.052057 
L 288.028322 236.186969 
L 288.844857 226.035454 
L 289.661393 220.545155 
L 290.477928 226.50249 
L 291.294464 221.366448 
L 292.111 222.860015 
L 292.927535 208.494337 
L 293.744071 216.359442 
L 294.560606 192.283884 
L 295.377142 213.557225 
L 296.193677 181.418437 
L 297.010213 202.232532 
L 297.826749 197.829726 
L 299.45982 164.464926 
L 300.276355 133.867797 
L 301.092891 183.364477 
L 301.909426 217.792047 
L 302.725962 209.407073 
L 303.542498 203.475139 
L 304.359033 219.140322 
L 305.175569 218.214039 
L 305.992104 206.385055 
L 306.80864 219.133209 
L 307.625175 225.122041 
L 308.441711 229.257292 
L 309.258247 232.062895 
L 310.074782 227.394228 
L 310.891318 208.888897 
L 312.524389 228.326606 
L 313.340925 233.189675 
L 314.15746 231.00148 
L 314.973996 230.754246 
L 315.790531 227.420983 
L 316.607067 235.135376 
L 317.423602 219.914199 
L 318.240138 225.622606 
L 319.056674 224.120572 
L 319.873209 220.243732 
L 320.689745 210.442748 
L 321.50628 196.595586 
L 322.322816 224.205242 
L 323.139351 235.257977 
L 323.955887 237.361164 
L 324.772423 232.205817 
L 325.588958 235.617991 
L 326.405494 236.49923 
L 327.222029 235.337567 
L 328.038565 234.515258 
L 328.8551 245.896172 
L 329.671636 238.973945 
L 330.488172 240.405196 
L 331.304707 236.320747 
L 332.121243 226.381921 
L 332.937778 234.395705 
L 334.57085 225.732338 
L 335.387385 214.671813 
L 336.203921 223.572931 
L 337.020456 209.819921 
L 337.836992 224.313957 
L 338.653527 183.041718 
L 339.470063 207.160626 
L 340.286599 205.004945 
L 341.103134 195.894185 
L 341.91967 175.97115 
L 342.736205 142.937915 
L 343.552741 184.98708 
L 344.369276 213.033291 
L 345.185812 207.613099 
L 346.002348 214.774093 
L 346.818883 225.752658 
L 347.635419 228.97348 
L 348.451954 223.238995 
L 349.26849 229.394117 
L 350.085025 233.031512 
L 350.901561 235.065609 
L 351.718097 233.428442 
L 352.534632 230.272308 
L 353.351168 221.675322 
L 354.167703 231.164723 
L 354.984239 230.270614 
L 355.800775 230.828755 
L 356.61731 224.560853 
L 357.433846 230.328528 
L 358.250381 231.707284 
L 359.066917 229.694863 
L 359.883452 234.585364 
L 360.699988 223.078123 
L 361.516524 229.278967 
L 362.333059 223.963765 
L 363.149595 222.685258 
L 363.96613 212.106332 
L 364.782666 222.316438 
L 365.599201 234.712368 
L 366.415737 239.02136 
L 367.232273 234.842082 
L 368.048808 238.896727 
L 368.865344 239.763402 
L 369.681879 240.211472 
L 370.498415 239.524973 
L 371.31495 247.796829 
L 372.131486 243.611454 
L 372.948022 246.047899 
L 373.764557 245.370206 
L 374.581093 232.458132 
L 375.397628 234.133907 
L 376.214164 232.887236 
L 377.0307 230.029815 
L 377.847235 225.67544 
L 378.663771 237.474282 
L 379.480306 215.790803 
L 380.296842 228.667316 
L 381.113377 194.187928 
L 381.929913 209.872754 
L 382.746449 206.553716 
L 383.562984 197.021642 
L 384.37952 194.533041 
L 385.196055 172.796389 
L 386.829126 217.065584 
L 387.645662 218.097534 
L 388.462198 225.301202 
L 389.278733 229.984093 
L 390.095269 232.207172 
L 390.911804 241.179751 
L 391.72834 230.636725 
L 392.544876 237.996861 
L 393.361411 237.161683 
L 394.177947 235.950573 
L 394.994482 242.697703 
L 395.811018 232.037494 
L 396.627553 236.765092 
L 397.444089 231.431939 
L 398.260625 241.814432 
L 399.07716 240.430935 
L 399.893696 243.186076 
L 400.710231 241.953629 
L 401.526767 234.64023 
L 402.343302 241.224795 
L 403.159838 233.788795 
L 403.976374 235.742625 
L 404.792909 232.101166 
L 405.609445 227.613352 
L 406.42598 216.96432 
L 407.242516 225.961622 
L 408.059051 238.596997 
L 408.875587 245.939184 
L 409.692123 241.486254 
L 410.508658 246.107168 
L 411.325194 247.174002 
L 412.141729 246.802473 
L 412.958265 228.378424 
L 413.774801 241.486593 
L 415.407872 241.12624 
L 416.224407 244.108972 
L 417.040943 235.621378 
L 417.857478 243.630759 
L 418.674014 240.10445 
L 419.49055 240.113595 
L 420.307085 231.2626 
L 421.123621 233.110763 
L 421.940156 220.122486 
L 422.756692 237.108172 
L 423.573227 202.833684 
L 424.389763 217.734472 
L 425.206299 215.897486 
L 426.022834 203.129011 
L 426.83937 194.215023 
L 427.655905 176.458168 
L 428.472441 193.128546 
L 429.288976 225.057693 
L 430.105512 222.427863 
L 430.922048 230.818594 
L 431.738583 234.262943 
L 432.555119 241.25426 
L 433.371654 246.779781 
L 434.18819 236.75527 
L 435.004726 243.768601 
L 435.821261 245.982196 
L 436.637797 247.071382 
L 437.454332 245.166661 
L 438.270868 234.768589 
L 439.087403 236.68855 
L 439.903939 245.477567 
L 440.720475 250.113382 
L 441.53701 248.822683 
L 442.353546 247.145553 
L 443.170081 243.139338 
L 443.986617 244.560767 
L 444.803152 248.395611 
L 445.619688 239.66925 
L 446.436224 243.484789 
L 447.252759 237.814314 
L 448.069295 234.843098 
L 448.88583 223.554981 
L 450.518901 245.088426 
L 451.335437 252.338831 
L 452.151973 250.545873 
L 452.968508 252.28532 
L 453.785044 254.556829 
L 454.601579 253.739262 
L 455.418115 254.463355 
L 456.234651 258.177629 
L 457.051186 254.457597 
L 457.867722 254.692639 
L 458.684257 255.069926 
L 459.500793 247.578382 
L 460.317328 248.741739 
L 461.133864 245.953747 
L 461.9504 246.022499 
L 462.766935 240.507476 
L 463.583471 233.338693 
L 464.400006 236.523953 
L 465.216542 239.205601 
L 466.033077 205.582389 
L 466.849613 224.687518 
L 467.666149 226.831346 
L 469.29922 202.342941 
L 470.115755 194.401634 
L 470.932291 196.592876 
L 471.748826 221.899526 
L 472.565362 228.312721 
L 473.381898 227.12227 
L 474.198433 231.023494 
L 475.014969 241.894699 
L 475.831504 244.477791 
L 476.64804 238.553647 
L 477.464576 242.353945 
L 478.281111 247.427332 
L 479.097647 248.886016 
L 479.914182 251.010877 
L 480.730718 246.844469 
L 481.547253 246.744897 
L 482.363789 241.530282 
L 483.180325 243.903394 
L 483.99686 244.158757 
L 484.813396 249.49936 
L 485.629931 248.257431 
L 486.446467 245.831485 
L 487.263002 249.054677 
L 488.079538 238.688102 
L 488.896074 243.520012 
L 489.712609 236.780332 
L 490.529145 237.205033 
L 491.34568 234.689338 
L 492.162216 230.751875 
L 492.162216 230.751875 
" style="fill:none;stroke:#1f77b4;stroke-linecap:square;stroke-width:1.5;"/>
   </g>
   <g id="line2d_20">
    <path clip-path="url(#pce8b6b68b6)" d="M 86.344034 97.024399 
L 87.16057 61.730704 
L 87.977105 65.20746 
L 88.793641 117.129726 
L 89.610176 141.540628 
L 90.426712 141.054382 
L 91.243248 148.461912 
L 92.059783 161.840271 
L 92.876319 167.132052 
L 93.692854 160.153542 
L 94.50939 167.451531 
L 95.325925 175.983015 
L 96.142461 176.635 
L 96.958997 175.499479 
L 97.775532 161.357624 
L 98.592068 158.858503 
L 99.408603 166.896767 
L 100.225139 169.72577 
L 101.041674 174.728892 
L 101.85821 175.208026 
L 102.674746 176.057746 
L 103.491281 173.832657 
L 104.307817 178.098023 
L 105.124352 166.147104 
L 105.940888 165.280048 
L 106.757424 164.893712 
L 107.573959 160.225511 
L 108.390495 145.482991 
L 109.20703 133.451287 
L 110.023566 166.833804 
L 110.840101 182.834193 
L 111.656637 184.180743 
L 112.473173 181.463799 
L 113.289708 186.618923 
L 114.106244 187.819852 
L 114.922779 187.900806 
L 115.739315 194.913428 
L 116.55585 191.271345 
L 118.188922 194.973226 
L 119.005457 177.19712 
L 119.821993 172.534591 
L 120.638528 178.242056 
L 121.455064 175.081583 
L 122.271599 168.818517 
L 123.088135 158.421588 
L 123.904671 164.404186 
L 124.721206 157.108472 
L 125.537742 147.727427 
L 126.354277 126.468882 
L 127.170813 144.795645 
L 127.987349 133.443222 
L 128.803884 116.056162 
L 129.62042 83.868815 
L 130.436955 87.039576 
L 131.253491 134.392133 
L 132.070026 156.654507 
L 132.886562 156.210903 
L 133.703098 162.966469 
L 134.519633 175.167342 
L 135.336169 179.993367 
L 136.152704 173.629196 
L 136.96924 180.284863 
L 137.785775 188.06533 
L 138.602311 188.659931 
L 139.418847 187.62434 
L 140.235382 174.727305 
L 141.051918 172.448144 
L 141.868453 179.778794 
L 142.684989 182.358806 
L 143.501524 186.921584 
L 144.31806 187.358552 
L 145.134596 188.133605 
L 145.951131 186.104345 
L 146.767667 189.994182 
L 147.584202 179.09511 
L 148.400738 178.304362 
L 149.217274 177.952159 
L 150.033809 173.694836 
L 150.850345 160.249726 
L 151.66688 149.276992 
L 152.483416 179.721367 
L 153.299951 194.31362 
L 154.116487 195.541643 
L 154.933023 193.063837 
L 155.749558 197.765123 
L 156.566094 198.860353 
L 157.382629 198.934185 
L 158.199165 205.329694 
L 159.0157 202.008179 
L 160.648772 205.384136 
L 161.465307 189.172561 
L 162.281843 184.92053 
L 163.098378 190.125663 
L 163.914914 187.243349 
L 164.731449 181.531407 
L 165.547985 172.049542 
L 166.364521 177.505592 
L 167.181056 170.852137 
L 167.997592 162.296777 
L 168.814127 142.909128 
L 169.630663 159.622877 
L 170.447199 149.269637 
L 171.263734 133.413038 
L 172.08027 104.058685 
L 172.896805 106.950164 
L 173.713341 150.135021 
L 174.529876 170.437988 
L 175.346412 170.033565 
L 176.162948 176.19455 
L 176.979483 187.321562 
L 177.796019 191.722717 
L 178.612554 185.918676 
L 179.42909 191.988547 
L 180.245625 199.084335 
L 181.062161 199.6266 
L 181.878697 198.68205 
L 182.695232 186.920134 
L 183.511768 184.841566 
L 184.328303 191.527131 
L 185.144839 193.880071 
L 185.961374 198.041251 
L 186.77791 198.439652 
L 187.594446 199.146482 
L 188.410981 197.295833 
L 189.227517 200.843425 
L 190.044052 190.903626 
L 190.860588 190.18237 
L 191.677124 189.861156 
L 192.493659 185.978537 
L 193.310195 173.716924 
L 194.12673 163.70995 
L 194.943266 191.474646 
L 195.759801 204.782582 
L 196.576337 205.902524 
L 197.392873 203.642795 
L 198.209408 207.930397 
L 199.025944 208.929231 
L 199.842479 208.996469 
L 200.659015 214.829086 
L 201.47555 211.799903 
L 203.108622 214.878829 
L 203.925157 200.094006 
L 204.741693 196.216214 
L 205.558228 200.963211 
L 206.374764 198.334588 
L 207.1913 193.125497 
L 208.007835 184.478175 
L 208.824371 189.453896 
L 209.640906 183.386036 
L 210.457442 175.583661 
L 211.273977 157.902554 
L 212.090513 173.145248 
L 212.907049 163.703103 
L 213.723584 149.242108 
L 214.54012 122.471325 
L 215.356655 125.108499 
L 216.173191 164.492454 
L 216.989726 183.008464 
L 217.806262 182.639517 
L 218.622798 188.258238 
L 219.439333 198.405922 
L 220.255869 202.41981 
L 221.072404 197.126621 
L 221.88894 202.662144 
L 222.705475 209.1334 
L 223.522011 209.627943 
L 224.338547 208.766623 
L 225.155082 198.039939 
L 225.971618 196.144309 
L 226.788153 202.241348 
L 227.604689 204.387186 
L 228.421225 208.18213 
L 229.23776 208.545562 
L 230.054296 209.190192 
L 230.870831 207.50232 
L 231.687367 210.737662 
L 232.503902 201.672719 
L 233.320438 201.015039 
L 234.136974 200.722105 
L 234.953509 197.181095 
L 235.770045 185.998678 
L 236.58658 176.872455 
L 237.403116 202.193584 
L 238.219651 214.330214 
L 239.036187 215.351591 
L 239.852723 213.290655 
L 240.669258 217.200896 
L 241.485794 218.111811 
L 242.302329 218.173228 
L 243.118865 223.492485 
L 243.9354 220.72983 
L 245.568472 223.537761 
L 246.385007 210.054307 
L 247.201543 206.517827 
L 248.018078 210.847013 
L 248.834614 208.449653 
L 249.65115 203.699026 
L 250.467685 195.812796 
L 251.284221 200.350682 
L 252.100756 194.816895 
L 252.917292 187.701114 
L 253.733827 171.576198 
L 254.550363 185.477316 
L 255.366899 176.866338 
L 256.183434 163.678136 
L 256.99997 139.263425 
L 257.816505 141.668478 
L 258.633041 177.586091 
L 259.449576 194.472438 
L 260.266112 194.136068 
L 261.082648 199.260267 
L 261.899183 208.5147 
L 262.715719 212.175316 
L 263.532254 207.347989 
L 264.34879 212.396409 
L 265.165325 218.298105 
L 265.981861 218.749022 
L 266.798397 217.963513 
L 267.614932 208.180923 
L 268.431468 206.452145 
L 269.248003 212.012645 
L 270.064539 213.969629 
L 270.881075 217.430467 
L 271.69761 217.761915 
L 272.514146 218.349796 
L 273.330681 216.810581 
L 274.147217 219.76117 
L 274.963752 211.493971 
L 275.780288 210.894184 
L 276.596824 210.627021 
L 277.413359 207.397774 
L 278.229895 197.199574 
L 279.04643 188.876599 
L 279.862966 211.968998 
L 280.679501 223.037429 
L 281.496037 223.968908 
L 282.312573 222.089461 
L 283.129108 225.655532 
L 283.945644 226.486197 
L 284.762179 226.542205 
L 285.578715 231.393293 
L 286.39525 228.873867 
L 288.028322 231.434659 
L 288.844857 219.137866 
L 289.661393 215.912642 
L 290.477928 219.860805 
L 291.294464 217.674526 
L 292.111 213.342028 
L 292.927535 206.149801 
L 293.744071 210.288301 
L 294.560606 205.241553 
L 295.377142 198.752177 
L 296.193677 184.046489 
L 297.010213 196.723997 
L 297.826749 188.870905 
L 298.643284 176.843446 
L 299.45982 154.577716 
L 300.276355 156.771107 
L 301.092891 189.527431 
L 301.909426 204.927419 
L 302.725962 204.620652 
L 303.542498 209.293849 
L 304.359033 217.733858 
L 305.175569 221.072285 
L 305.992104 216.669744 
L 306.80864 221.27383 
L 307.625175 226.656091 
L 308.441711 227.067409 
L 309.258247 226.351038 
L 310.074782 217.429461 
L 310.891318 215.852738 
L 311.707853 220.92385 
L 312.524389 222.708584 
L 313.340925 225.864898 
L 314.15746 226.167173 
L 314.973996 226.703236 
L 315.790531 225.299492 
L 316.607067 227.990384 
L 317.423602 220.450908 
L 318.240138 219.903902 
L 319.056674 219.66017 
L 319.873209 216.715148 
L 320.689745 207.414539 
L 321.50628 199.824091 
L 322.322816 220.884118 
L 323.139351 230.978371 
L 323.955887 231.827789 
L 324.772423 230.113754 
L 325.588958 233.365967 
L 326.405494 234.123593 
L 327.222029 234.17467 
L 328.038565 238.598723 
L 328.8551 236.30104 
L 330.488172 238.636448 
L 331.304707 227.422026 
L 332.121243 224.480666 
L 332.937778 228.081251 
L 333.754314 226.087404 
L 334.57085 222.136219 
L 335.387385 215.577108 
L 336.203921 219.351349 
L 337.020456 214.748703 
L 337.836992 208.830485 
L 338.653527 195.419105 
L 339.470063 206.980915 
L 340.286599 199.819011 
L 341.103134 188.85014 
L 341.91967 168.543998 
L 342.736205 170.544332 
L 343.552741 200.417644 
L 344.369276 214.462309 
L 345.185812 214.182551 
L 346.002348 218.44434 
L 346.818883 226.141508 
L 347.635419 229.186101 
L 348.451954 225.171134 
L 349.26849 229.369992 
L 350.085025 234.278533 
L 350.901561 234.653576 
L 351.718097 234.000257 
L 352.534632 225.863898 
L 353.351168 224.426038 
L 354.167703 229.05081 
L 354.984239 230.678387 
L 355.800775 233.556907 
L 356.61731 233.832574 
L 357.433846 234.321529 
L 358.250381 233.041334 
L 359.066917 235.49539 
L 359.883452 228.619419 
L 360.699988 228.120558 
L 361.516524 227.898365 
L 362.333059 225.212542 
L 363.149595 216.730526 
L 363.96613 209.808056 
L 364.782666 229.014502 
L 365.599201 238.220319 
L 366.415737 238.995049 
L 367.232273 237.431873 
L 368.048808 240.397771 
L 368.865344 241.088721 
L 369.681879 241.1353 
L 370.498415 245.170037 
L 371.31495 243.074587 
L 372.948022 245.204381 
L 373.764557 234.976981 
L 374.581093 232.294503 
L 375.397628 235.57826 
L 376.214164 233.759902 
L 377.0307 230.156401 
L 377.847235 224.174581 
L 378.663771 227.616638 
L 379.480306 223.419171 
L 380.296842 218.02185 
L 381.113377 205.790761 
L 381.929913 216.334972 
L 382.746449 209.803421 
L 383.562984 199.799971 
L 384.37952 181.281167 
L 385.196055 183.105442 
L 386.012591 210.349358 
L 386.829126 223.157903 
L 387.645662 222.902763 
L 388.462198 226.78954 
L 389.278733 233.809243 
L 390.095269 236.585794 
L 390.911804 232.924199 
L 391.72834 236.753502 
L 392.544876 241.230023 
L 393.361411 241.572119 
L 394.177947 240.976301 
L 394.994482 233.555991 
L 395.811018 232.244685 
L 396.627553 236.462409 
L 397.444089 237.946811 
L 398.260625 240.571973 
L 399.07716 240.823314 
L 399.893696 241.269236 
L 400.710231 240.101709 
L 401.526767 242.339779 
L 402.343302 236.069062 
L 403.159838 235.614107 
L 403.976374 235.411393 
L 404.792909 232.961962 
L 405.609445 225.226481 
L 406.42598 218.913376 
L 407.242516 236.429372 
L 408.059051 244.824872 
L 408.875587 245.531416 
L 409.692123 244.105818 
L 410.508658 246.810738 
L 411.325194 247.440874 
L 412.141729 247.483357 
L 412.958265 251.162917 
L 413.774801 249.251893 
L 415.407872 251.194298 
L 416.224407 241.867065 
L 417.040943 239.420613 
L 417.857478 242.415352 
L 418.674014 240.757034 
L 419.49055 237.470768 
L 420.307085 232.015433 
L 421.123621 235.154538 
L 421.940156 231.326436 
L 422.756692 226.404147 
L 423.573227 215.24967 
L 424.389763 224.865827 
L 425.206299 218.909143 
L 426.022834 209.786053 
L 426.83937 192.897165 
L 427.655905 194.560876 
L 428.472441 219.407041 
L 429.288976 231.088235 
L 430.105512 230.855473 
L 430.922048 234.40016 
L 431.738583 240.80203 
L 432.555119 243.334279 
L 433.371654 239.994957 
L 434.18819 243.487155 
L 435.004726 247.569683 
L 435.821261 247.881668 
L 436.637797 247.338292 
L 437.454332 240.571142 
L 438.270868 239.375246 
L 439.087403 243.221684 
L 439.903939 244.575436 
L 440.720475 246.969546 
L 441.53701 247.198831 
L 442.353546 247.605503 
L 443.170081 246.540675 
L 443.986617 248.581762 
L 444.803152 242.862956 
L 445.619688 242.448045 
L 446.436224 242.263243 
L 447.252759 240.029396 
L 448.069295 232.974673 
L 448.88583 227.217211 
L 449.702366 243.191558 
L 450.518901 250.848196 
L 451.335437 251.492551 
L 452.151973 250.192368 
L 452.968508 252.65922 
L 453.785044 253.233892 
L 454.601579 253.272634 
L 455.418115 256.628392 
L 456.234651 254.885574 
L 457.867722 256.656957 
L 458.684257 248.150652 
L 459.500793 245.919588 
L 460.317328 248.650746 
L 461.133864 247.138324 
L 461.9504 244.141294 
L 462.766935 239.166102 
L 463.583471 242.028926 
L 464.400006 238.537819 
L 465.216542 234.048767 
L 466.033077 223.875963 
L 466.849613 232.645764 
L 467.666149 227.213353 
L 468.482684 218.893309 
L 469.29922 203.490898 
L 470.115755 205.008077 
L 470.932291 227.667424 
L 471.748826 238.320515 
L 472.565362 238.108312 
L 473.381898 241.341014 
L 474.198433 247.17942 
L 475.014969 249.488734 
L 475.831504 246.443316 
L 476.64804 249.628217 
L 477.464576 253.351413 
L 478.281111 253.635945 
L 479.097647 253.140338 
L 479.914182 246.96879 
L 480.730718 245.878153 
L 481.547253 249.38611 
L 482.363789 250.620711 
L 483.180325 252.804105 
L 483.99686 253.013149 
L 484.813396 253.384032 
L 485.629931 252.412981 
L 486.446467 254.27442 
L 487.263002 249.058953 
L 488.079538 248.680502 
L 488.896074 248.511962 
L 489.712609 246.474728 
L 490.529145 240.040991 
L 491.34568 234.790269 
L 492.162216 249.358571 
L 492.162216 249.358571 
" style="fill:none;stroke:#ff7f0e;stroke-linecap:square;stroke-width:1.5;"/>
   </g>
   <g id="line2d_21">
    <path clip-path="url(#pce8b6b68b6)" d="M 411.325194 269.409034 
L 411.325194 22.318125 
" style="fill:none;stroke:#808080;stroke-dasharray:5.55,2.4;stroke-dashoffset:0;stroke-width:1.5;"/>
   </g>
   <g id="patch_3">
    <path d="M 66.053125 269.409034 
L 66.053125 22.318125 
" style="fill:none;stroke:#000000;stroke-linecap:square;stroke-linejoin:miter;stroke-width:0.8;"/>
   </g>
   <g id="patch_4">
    <path d="M 512.453125 269.409034 
L 512.453125 22.318125 
" style="fill:none;stroke:#000000;stroke-linecap:square;stroke-linejoin:miter;stroke-width:0.8;"/>
   </g>
   <g id="patch_5">
    <path d="M 66.053125 269.409034 
L 512.453125 269.409034 
" style="fill:none;stroke:#000000;stroke-linecap:square;stroke-linejoin:miter;stroke-width:0.8;"/>
   </g>
   <g id="patch_6">
    <path d="M 66.053125 22.318125 
L 512.453125 22.318125 
" style="fill:none;stroke:#000000;stroke-linecap:square;stroke-linejoin:miter;stroke-width:0.8;"/>
   </g>
   <g id="text_21">
    <!-- Seasonal + Global Trend Regression Model -->
    <defs>
     <path d="M 53.515625 70.515625 
L 53.515625 60.890625 
Q 47.90625 63.578125 42.921875 64.890625 
Q 37.9375 66.21875 33.296875 66.21875 
Q 25.25 66.21875 20.875 63.09375 
Q 16.5 59.96875 16.5 54.203125 
Q 16.5 49.359375 19.40625 46.890625 
Q 22.3125 44.4375 30.421875 42.921875 
L 36.375 41.703125 
Q 47.40625 39.59375 52.65625 34.296875 
Q 57.90625 29 57.90625 20.125 
Q 57.90625 9.515625 50.796875 4.046875 
Q 43.703125 -1.421875 29.984375 -1.421875 
Q 24.8125 -1.421875 18.96875 -0.25 
Q 13.140625 0.921875 6.890625 3.21875 
L 6.890625 13.375 
Q 12.890625 10.015625 18.65625 8.296875 
Q 24.421875 6.59375 29.984375 6.59375 
Q 38.421875 6.59375 43.015625 9.90625 
Q 47.609375 13.234375 47.609375 19.390625 
Q 47.609375 24.75 44.3125 27.78125 
Q 41.015625 30.8125 33.5 32.328125 
L 27.484375 33.5 
Q 16.453125 35.6875 11.515625 40.375 
Q 6.59375 45.0625 6.59375 53.421875 
Q 6.59375 63.09375 13.40625 68.65625 
Q 20.21875 74.21875 32.171875 74.21875 
Q 37.3125 74.21875 42.625 73.28125 
Q 47.953125 72.359375 53.515625 70.515625 
z
" id="DejaVuSans-83"/>
     <path d="M 44.28125 53.078125 
L 44.28125 44.578125 
Q 40.484375 46.53125 36.375 47.5 
Q 32.28125 48.484375 27.875 48.484375 
Q 21.1875 48.484375 17.84375 46.4375 
Q 14.5 44.390625 14.5 40.28125 
Q 14.5 37.15625 16.890625 35.375 
Q 19.28125 33.59375 26.515625 31.984375 
L 29.59375 31.296875 
Q 39.15625 29.25 43.1875 25.515625 
Q 47.21875 21.78125 47.21875 15.09375 
Q 47.21875 7.46875 41.1875 3.015625 
Q 35.15625 -1.421875 24.609375 -1.421875 
Q 20.21875 -1.421875 15.453125 -0.5625 
Q 10.6875 0.296875 5.421875 2 
L 5.421875 11.28125 
Q 10.40625 8.6875 15.234375 7.390625 
Q 20.0625 6.109375 24.8125 6.109375 
Q 31.15625 6.109375 34.5625 8.28125 
Q 37.984375 10.453125 37.984375 14.40625 
Q 37.984375 18.0625 35.515625 20.015625 
Q 33.0625 21.96875 24.703125 23.78125 
L 21.578125 24.515625 
Q 13.234375 26.265625 9.515625 29.90625 
Q 5.8125 33.546875 5.8125 39.890625 
Q 5.8125 47.609375 11.28125 51.796875 
Q 16.75 56 26.8125 56 
Q 31.78125 56 36.171875 55.265625 
Q 40.578125 54.546875 44.28125 53.078125 
z
" id="DejaVuSans-115"/>
     <path d="M 30.609375 48.390625 
Q 23.390625 48.390625 19.1875 42.75 
Q 14.984375 37.109375 14.984375 27.296875 
Q 14.984375 17.484375 19.15625 11.84375 
Q 23.34375 6.203125 30.609375 6.203125 
Q 37.796875 6.203125 41.984375 11.859375 
Q 46.1875 17.53125 46.1875 27.296875 
Q 46.1875 37.015625 41.984375 42.703125 
Q 37.796875 48.390625 30.609375 48.390625 
z
M 30.609375 56 
Q 42.328125 56 49.015625 48.375 
Q 55.71875 40.765625 55.71875 27.296875 
Q 55.71875 13.875 49.015625 6.21875 
Q 42.328125 -1.421875 30.609375 -1.421875 
Q 18.84375 -1.421875 12.171875 6.21875 
Q 5.515625 13.875 5.515625 27.296875 
Q 5.515625 40.765625 12.171875 48.375 
Q 18.84375 56 30.609375 56 
z
" id="DejaVuSans-111"/>
     <path d="M 46 62.703125 
L 46 35.5 
L 73.1875 35.5 
L 73.1875 27.203125 
L 46 27.203125 
L 46 0 
L 37.796875 0 
L 37.796875 27.203125 
L 10.59375 27.203125 
L 10.59375 35.5 
L 37.796875 35.5 
L 37.796875 62.703125 
z
" id="DejaVuSans-43"/>
     <path d="M 59.515625 10.40625 
L 59.515625 29.984375 
L 43.40625 29.984375 
L 43.40625 38.09375 
L 69.28125 38.09375 
L 69.28125 6.78125 
Q 63.578125 2.734375 56.6875 0.65625 
Q 49.8125 -1.421875 42 -1.421875 
Q 24.90625 -1.421875 15.25 8.5625 
Q 5.609375 18.5625 5.609375 36.375 
Q 5.609375 54.25 15.25 64.234375 
Q 24.90625 74.21875 42 74.21875 
Q 49.125 74.21875 55.546875 72.453125 
Q 61.96875 70.703125 67.390625 67.28125 
L 67.390625 56.78125 
Q 61.921875 61.421875 55.765625 63.765625 
Q 49.609375 66.109375 42.828125 66.109375 
Q 29.4375 66.109375 22.71875 58.640625 
Q 16.015625 51.171875 16.015625 36.375 
Q 16.015625 21.625 22.71875 14.15625 
Q 29.4375 6.6875 42.828125 6.6875 
Q 48.046875 6.6875 52.140625 7.59375 
Q 56.25 8.5 59.515625 10.40625 
z
" id="DejaVuSans-71"/>
     <path d="M 48.6875 27.296875 
Q 48.6875 37.203125 44.609375 42.84375 
Q 40.53125 48.484375 33.40625 48.484375 
Q 26.265625 48.484375 22.1875 42.84375 
Q 18.109375 37.203125 18.109375 27.296875 
Q 18.109375 17.390625 22.1875 11.75 
Q 26.265625 6.109375 33.40625 6.109375 
Q 40.53125 6.109375 44.609375 11.75 
Q 48.6875 17.390625 48.6875 27.296875 
z
M 18.109375 46.390625 
Q 20.953125 51.265625 25.265625 53.625 
Q 29.59375 56 35.59375 56 
Q 45.5625 56 51.78125 48.09375 
Q 58.015625 40.1875 58.015625 27.296875 
Q 58.015625 14.40625 51.78125 6.484375 
Q 45.5625 -1.421875 35.59375 -1.421875 
Q 29.59375 -1.421875 25.265625 0.953125 
Q 20.953125 3.328125 18.109375 8.203125 
L 18.109375 0 
L 9.078125 0 
L 9.078125 75.984375 
L 18.109375 75.984375 
z
" id="DejaVuSans-98"/>
     <path d="M -0.296875 72.90625 
L 61.375 72.90625 
L 61.375 64.59375 
L 35.5 64.59375 
L 35.5 0 
L 25.59375 0 
L 25.59375 64.59375 
L -0.296875 64.59375 
z
" id="DejaVuSans-84"/>
     <path d="M 45.40625 46.390625 
L 45.40625 75.984375 
L 54.390625 75.984375 
L 54.390625 0 
L 45.40625 0 
L 45.40625 8.203125 
Q 42.578125 3.328125 38.25 0.953125 
Q 33.9375 -1.421875 27.875 -1.421875 
Q 17.96875 -1.421875 11.734375 6.484375 
Q 5.515625 14.40625 5.515625 27.296875 
Q 5.515625 40.1875 11.734375 48.09375 
Q 17.96875 56 27.875 56 
Q 33.9375 56 38.25 53.625 
Q 42.578125 51.265625 45.40625 46.390625 
z
M 14.796875 27.296875 
Q 14.796875 17.390625 18.875 11.75 
Q 22.953125 6.109375 30.078125 6.109375 
Q 37.203125 6.109375 41.296875 11.75 
Q 45.40625 17.390625 45.40625 27.296875 
Q 45.40625 37.203125 41.296875 42.84375 
Q 37.203125 48.484375 30.078125 48.484375 
Q 22.953125 48.484375 18.875 42.84375 
Q 14.796875 37.203125 14.796875 27.296875 
z
" id="DejaVuSans-100"/>
     <path d="M 44.390625 34.1875 
Q 47.5625 33.109375 50.5625 29.59375 
Q 53.5625 26.078125 56.59375 19.921875 
L 66.609375 0 
L 56 0 
L 46.6875 18.703125 
Q 43.0625 26.03125 39.671875 28.421875 
Q 36.28125 30.8125 30.421875 30.8125 
L 19.671875 30.8125 
L 19.671875 0 
L 9.8125 0 
L 9.8125 72.90625 
L 32.078125 72.90625 
Q 44.578125 72.90625 50.734375 67.671875 
Q 56.890625 62.453125 56.890625 51.90625 
Q 56.890625 45.015625 53.6875 40.46875 
Q 50.484375 35.9375 44.390625 34.1875 
z
M 19.671875 64.796875 
L 19.671875 38.921875 
L 32.078125 38.921875 
Q 39.203125 38.921875 42.84375 42.21875 
Q 46.484375 45.515625 46.484375 51.90625 
Q 46.484375 58.296875 42.84375 61.546875 
Q 39.203125 64.796875 32.078125 64.796875 
z
" id="DejaVuSans-82"/>
     <path d="M 45.40625 27.984375 
Q 45.40625 37.75 41.375 43.109375 
Q 37.359375 48.484375 30.078125 48.484375 
Q 22.859375 48.484375 18.828125 43.109375 
Q 14.796875 37.75 14.796875 27.984375 
Q 14.796875 18.265625 18.828125 12.890625 
Q 22.859375 7.515625 30.078125 7.515625 
Q 37.359375 7.515625 41.375 12.890625 
Q 45.40625 18.265625 45.40625 27.984375 
z
M 54.390625 6.78125 
Q 54.390625 -7.171875 48.1875 -13.984375 
Q 42 -20.796875 29.203125 -20.796875 
Q 24.46875 -20.796875 20.265625 -20.09375 
Q 16.0625 -19.390625 12.109375 -17.921875 
L 12.109375 -9.1875 
Q 16.0625 -11.328125 19.921875 -12.34375 
Q 23.78125 -13.375 27.78125 -13.375 
Q 36.625 -13.375 41.015625 -8.765625 
Q 45.40625 -4.15625 45.40625 5.171875 
L 45.40625 9.625 
Q 42.625 4.78125 38.28125 2.390625 
Q 33.9375 0 27.875 0 
Q 17.828125 0 11.671875 7.65625 
Q 5.515625 15.328125 5.515625 27.984375 
Q 5.515625 40.671875 11.671875 48.328125 
Q 17.828125 56 27.875 56 
Q 33.9375 56 38.28125 53.609375 
Q 42.625 51.21875 45.40625 46.390625 
L 45.40625 54.6875 
L 54.390625 54.6875 
z
" id="DejaVuSans-103"/>
     <path d="M 9.8125 72.90625 
L 24.515625 72.90625 
L 43.109375 23.296875 
L 61.8125 72.90625 
L 76.515625 72.90625 
L 76.515625 0 
L 66.890625 0 
L 66.890625 64.015625 
L 48.09375 14.015625 
L 38.1875 14.015625 
L 19.390625 64.015625 
L 19.390625 0 
L 9.8125 0 
z
" id="DejaVuSans-77"/>
    </defs>
    <g transform="translate(159.779688 16.318125)scale(0.12 -0.12)">
     <use xlink:href="#DejaVuSans-83"/>
     <use x="63.476562" xlink:href="#DejaVuSans-101"/>
     <use x="125" xlink:href="#DejaVuSans-97"/>
     <use x="186.279297" xlink:href="#DejaVuSans-115"/>
     <use x="238.378906" xlink:href="#DejaVuSans-111"/>
     <use x="299.560547" xlink:href="#DejaVuSans-110"/>
     <use x="362.939453" xlink:href="#DejaVuSans-97"/>
     <use x="424.21875" xlink:href="#DejaVuSans-108"/>
     <use x="452.001953" xlink:href="#DejaVuSans-32"/>
     <use x="483.789062" xlink:href="#DejaVuSans-43"/>
     <use x="567.578125" xlink:href="#DejaVuSans-32"/>
     <use x="599.365234" xlink:href="#DejaVuSans-71"/>
     <use x="676.855469" xlink:href="#DejaVuSans-108"/>
     <use x="704.638672" xlink:href="#DejaVuSans-111"/>
     <use x="765.820312" xlink:href="#DejaVuSans-98"/>
     <use x="829.296875" xlink:href="#DejaVuSans-97"/>
     <use x="890.576172" xlink:href="#DejaVuSans-108"/>
     <use x="918.359375" xlink:href="#DejaVuSans-32"/>
     <use x="950.146484" xlink:href="#DejaVuSans-84"/>
     <use x="1011.011719" xlink:href="#DejaVuSans-114"/>
     <use x="1052.09375" xlink:href="#DejaVuSans-101"/>
     <use x="1113.617188" xlink:href="#DejaVuSans-110"/>
     <use x="1176.996094" xlink:href="#DejaVuSans-100"/>
     <use x="1240.472656" xlink:href="#DejaVuSans-32"/>
     <use x="1272.259766" xlink:href="#DejaVuSans-82"/>
     <use x="1341.679688" xlink:href="#DejaVuSans-101"/>
     <use x="1403.203125" xlink:href="#DejaVuSans-103"/>
     <use x="1466.679688" xlink:href="#DejaVuSans-114"/>
     <use x="1507.761719" xlink:href="#DejaVuSans-101"/>
     <use x="1569.285156" xlink:href="#DejaVuSans-115"/>
     <use x="1621.384766" xlink:href="#DejaVuSans-115"/>
     <use x="1673.484375" xlink:href="#DejaVuSans-105"/>
     <use x="1701.267578" xlink:href="#DejaVuSans-111"/>
     <use x="1762.449219" xlink:href="#DejaVuSans-110"/>
     <use x="1825.828125" xlink:href="#DejaVuSans-32"/>
     <use x="1857.615234" xlink:href="#DejaVuSans-77"/>
     <use x="1943.894531" xlink:href="#DejaVuSans-111"/>
     <use x="2005.076172" xlink:href="#DejaVuSans-100"/>
     <use x="2068.552734" xlink:href="#DejaVuSans-101"/>
     <use x="2130.076172" xlink:href="#DejaVuSans-108"/>
    </g>
   </g>
   <g id="legend_1">
    <g id="patch_7">
     <path d="M 73.053125 264.409034 
L 175.351562 264.409034 
Q 177.351562 264.409034 177.351562 262.409034 
L 177.351562 219.374659 
Q 177.351562 217.374659 175.351562 217.374659 
L 73.053125 217.374659 
Q 71.053125 217.374659 71.053125 219.374659 
L 71.053125 262.409034 
Q 71.053125 264.409034 73.053125 264.409034 
z
" style="fill:#ffffff;opacity:0.8;stroke:#cccccc;stroke-linejoin:miter;"/>
    </g>
    <g id="line2d_22">
     <path d="M 75.053125 225.473097 
L 95.053125 225.473097 
" style="fill:none;stroke:#1f77b4;stroke-linecap:square;stroke-width:1.5;"/>
    </g>
    <g id="line2d_23"/>
    <g id="text_22">
     <!-- Actual data -->
     <defs>
      <path d="M 34.1875 63.1875 
L 20.796875 26.90625 
L 47.609375 26.90625 
z
M 28.609375 72.90625 
L 39.796875 72.90625 
L 67.578125 0 
L 57.328125 0 
L 50.6875 18.703125 
L 17.828125 18.703125 
L 11.1875 0 
L 0.78125 0 
z
" id="DejaVuSans-65"/>
      <path d="M 8.5 21.578125 
L 8.5 54.6875 
L 17.484375 54.6875 
L 17.484375 21.921875 
Q 17.484375 14.15625 20.5 10.265625 
Q 23.53125 6.390625 29.59375 6.390625 
Q 36.859375 6.390625 41.078125 11.03125 
Q 45.3125 15.671875 45.3125 23.6875 
L 45.3125 54.6875 
L 54.296875 54.6875 
L 54.296875 0 
L 45.3125 0 
L 45.3125 8.40625 
Q 42.046875 3.421875 37.71875 1 
Q 33.40625 -1.421875 27.6875 -1.421875 
Q 18.265625 -1.421875 13.375 4.4375 
Q 8.5 10.296875 8.5 21.578125 
z
M 31.109375 56 
z
" id="DejaVuSans-117"/>
     </defs>
     <g transform="translate(103.053125 228.973097)scale(0.1 -0.1)">
      <use xlink:href="#DejaVuSans-65"/>
      <use x="68.392578" xlink:href="#DejaVuSans-99"/>
      <use x="123.373047" xlink:href="#DejaVuSans-116"/>
      <use x="162.582031" xlink:href="#DejaVuSans-117"/>
      <use x="225.960938" xlink:href="#DejaVuSans-97"/>
      <use x="287.240234" xlink:href="#DejaVuSans-108"/>
      <use x="315.023438" xlink:href="#DejaVuSans-32"/>
      <use x="346.810547" xlink:href="#DejaVuSans-100"/>
      <use x="410.287109" xlink:href="#DejaVuSans-97"/>
      <use x="471.566406" xlink:href="#DejaVuSans-116"/>
      <use x="510.775391" xlink:href="#DejaVuSans-97"/>
     </g>
    </g>
    <g id="line2d_24">
     <path d="M 75.053125 240.151222 
L 95.053125 240.151222 
" style="fill:none;stroke:#ff7f0e;stroke-linecap:square;stroke-width:1.5;"/>
    </g>
    <g id="line2d_25"/>
    <g id="text_23">
     <!-- Fitted data -->
     <defs>
      <path d="M 9.8125 72.90625 
L 51.703125 72.90625 
L 51.703125 64.59375 
L 19.671875 64.59375 
L 19.671875 43.109375 
L 48.578125 43.109375 
L 48.578125 34.8125 
L 19.671875 34.8125 
L 19.671875 0 
L 9.8125 0 
z
" id="DejaVuSans-70"/>
     </defs>
     <g transform="translate(103.053125 243.651222)scale(0.1 -0.1)">
      <use xlink:href="#DejaVuSans-70"/>
      <use x="57.410156" xlink:href="#DejaVuSans-105"/>
      <use x="85.193359" xlink:href="#DejaVuSans-116"/>
      <use x="124.402344" xlink:href="#DejaVuSans-116"/>
      <use x="163.611328" xlink:href="#DejaVuSans-101"/>
      <use x="225.134766" xlink:href="#DejaVuSans-100"/>
      <use x="288.611328" xlink:href="#DejaVuSans-32"/>
      <use x="320.398438" xlink:href="#DejaVuSans-100"/>
      <use x="383.875" xlink:href="#DejaVuSans-97"/>
      <use x="445.154297" xlink:href="#DejaVuSans-116"/>
      <use x="484.363281" xlink:href="#DejaVuSans-97"/>
     </g>
    </g>
    <g id="line2d_26">
     <path d="M 75.053125 254.829347 
L 95.053125 254.829347 
" style="fill:none;stroke:#808080;stroke-dasharray:5.55,2.4;stroke-dashoffset:0;stroke-width:1.5;"/>
    </g>
    <g id="line2d_27"/>
    <g id="text_24">
     <!-- train-test split -->
     <defs>
      <path d="M 4.890625 31.390625 
L 31.203125 31.390625 
L 31.203125 23.390625 
L 4.890625 23.390625 
z
" id="DejaVuSans-45"/>
      <path d="M 18.109375 8.203125 
L 18.109375 -20.796875 
L 9.078125 -20.796875 
L 9.078125 54.6875 
L 18.109375 54.6875 
L 18.109375 46.390625 
Q 20.953125 51.265625 25.265625 53.625 
Q 29.59375 56 35.59375 56 
Q 45.5625 56 51.78125 48.09375 
Q 58.015625 40.1875 58.015625 27.296875 
Q 58.015625 14.40625 51.78125 6.484375 
Q 45.5625 -1.421875 35.59375 -1.421875 
Q 29.59375 -1.421875 25.265625 0.953125 
Q 20.953125 3.328125 18.109375 8.203125 
z
M 48.6875 27.296875 
Q 48.6875 37.203125 44.609375 42.84375 
Q 40.53125 48.484375 33.40625 48.484375 
Q 26.265625 48.484375 22.1875 42.84375 
Q 18.109375 37.203125 18.109375 27.296875 
Q 18.109375 17.390625 22.1875 11.75 
Q 26.265625 6.109375 33.40625 6.109375 
Q 40.53125 6.109375 44.609375 11.75 
Q 48.6875 17.390625 48.6875 27.296875 
z
" id="DejaVuSans-112"/>
     </defs>
     <g transform="translate(103.053125 258.329347)scale(0.1 -0.1)">
      <use xlink:href="#DejaVuSans-116"/>
      <use x="39.208984" xlink:href="#DejaVuSans-114"/>
      <use x="80.322266" xlink:href="#DejaVuSans-97"/>
      <use x="141.601562" xlink:href="#DejaVuSans-105"/>
      <use x="169.384766" xlink:href="#DejaVuSans-110"/>
      <use x="232.763672" xlink:href="#DejaVuSans-45"/>
      <use x="268.847656" xlink:href="#DejaVuSans-116"/>
      <use x="308.056641" xlink:href="#DejaVuSans-101"/>
      <use x="369.580078" xlink:href="#DejaVuSans-115"/>
      <use x="421.679688" xlink:href="#DejaVuSans-116"/>
      <use x="460.888672" xlink:href="#DejaVuSans-32"/>
      <use x="492.675781" xlink:href="#DejaVuSans-115"/>
      <use x="544.775391" xlink:href="#DejaVuSans-112"/>
      <use x="608.251953" xlink:href="#DejaVuSans-108"/>
      <use x="636.035156" xlink:href="#DejaVuSans-105"/>
      <use x="663.818359" xlink:href="#DejaVuSans-116"/>
     </g>
    </g>
   </g>
  </g>
  <g id="axes_2">
   <g id="patch_8">
    <path d="M 66.053125 565.918125 
L 512.453125 565.918125 
L 512.453125 318.827216 
L 66.053125 318.827216 
z
" style="fill:#ffffff;"/>
   </g>
   <g id="matplotlib.axis_3">
    <g id="xtick_12">
     <g id="line2d_28">
      <g>
       <use style="stroke:#000000;stroke-width:0.8;" x="86.344034" xlink:href="#m0f8e5093cd" y="565.918125"/>
      </g>
     </g>
     <g id="text_25">
      <!-- 0 -->
      <g transform="translate(83.162784 580.516562)scale(0.1 -0.1)">
       <use xlink:href="#DejaVuSans-48"/>
      </g>
     </g>
    </g>
    <g id="xtick_13">
     <g id="line2d_29">
      <g>
       <use style="stroke:#000000;stroke-width:0.8;" x="165.916227" xlink:href="#m0f8e5093cd" y="565.918125"/>
      </g>
     </g>
     <g id="text_26">
      <!-- 10 -->
      <g transform="translate(159.553727 580.516562)scale(0.1 -0.1)">
       <use xlink:href="#DejaVuSans-49"/>
       <use x="63.623047" xlink:href="#DejaVuSans-48"/>
      </g>
     </g>
    </g>
    <g id="xtick_14">
     <g id="line2d_30">
      <g>
       <use style="stroke:#000000;stroke-width:0.8;" x="245.488419" xlink:href="#m0f8e5093cd" y="565.918125"/>
      </g>
     </g>
     <g id="text_27">
      <!-- 20 -->
      <g transform="translate(239.125919 580.516562)scale(0.1 -0.1)">
       <use xlink:href="#DejaVuSans-50"/>
       <use x="63.623047" xlink:href="#DejaVuSans-48"/>
      </g>
     </g>
    </g>
    <g id="xtick_15">
     <g id="line2d_31">
      <g>
       <use style="stroke:#000000;stroke-width:0.8;" x="325.060612" xlink:href="#m0f8e5093cd" y="565.918125"/>
      </g>
     </g>
     <g id="text_28">
      <!-- 30 -->
      <g transform="translate(318.698112 580.516562)scale(0.1 -0.1)">
       <use xlink:href="#DejaVuSans-51"/>
       <use x="63.623047" xlink:href="#DejaVuSans-48"/>
      </g>
     </g>
    </g>
    <g id="xtick_16">
     <g id="line2d_32">
      <g>
       <use style="stroke:#000000;stroke-width:0.8;" x="404.632804" xlink:href="#m0f8e5093cd" y="565.918125"/>
      </g>
     </g>
     <g id="text_29">
      <!-- 40 -->
      <g transform="translate(398.270304 580.516562)scale(0.1 -0.1)">
       <use xlink:href="#DejaVuSans-52"/>
       <use x="63.623047" xlink:href="#DejaVuSans-48"/>
      </g>
     </g>
    </g>
    <g id="xtick_17">
     <g id="line2d_33">
      <g>
       <use style="stroke:#000000;stroke-width:0.8;" x="484.204997" xlink:href="#m0f8e5093cd" y="565.918125"/>
      </g>
     </g>
     <g id="text_30">
      <!-- 50 -->
      <g transform="translate(477.842497 580.516562)scale(0.1 -0.1)">
       <use xlink:href="#DejaVuSans-53"/>
       <use x="63.623047" xlink:href="#DejaVuSans-48"/>
      </g>
     </g>
    </g>
    <g id="text_31">
     <!-- week of year -->
     <defs>
      <path d="M 4.203125 54.6875 
L 13.1875 54.6875 
L 24.421875 12.015625 
L 35.59375 54.6875 
L 46.1875 54.6875 
L 57.421875 12.015625 
L 68.609375 54.6875 
L 77.59375 54.6875 
L 63.28125 0 
L 52.6875 0 
L 40.921875 44.828125 
L 29.109375 0 
L 18.5 0 
z
" id="DejaVuSans-119"/>
      <path d="M 9.078125 75.984375 
L 18.109375 75.984375 
L 18.109375 31.109375 
L 44.921875 54.6875 
L 56.390625 54.6875 
L 27.390625 29.109375 
L 57.625 0 
L 45.90625 0 
L 18.109375 26.703125 
L 18.109375 0 
L 9.078125 0 
z
" id="DejaVuSans-107"/>
      <path d="M 37.109375 75.984375 
L 37.109375 68.5 
L 28.515625 68.5 
Q 23.6875 68.5 21.796875 66.546875 
Q 19.921875 64.59375 19.921875 59.515625 
L 19.921875 54.6875 
L 34.71875 54.6875 
L 34.71875 47.703125 
L 19.921875 47.703125 
L 19.921875 0 
L 10.890625 0 
L 10.890625 47.703125 
L 2.296875 47.703125 
L 2.296875 54.6875 
L 10.890625 54.6875 
L 10.890625 58.5 
Q 10.890625 67.625 15.140625 71.796875 
Q 19.390625 75.984375 28.609375 75.984375 
z
" id="DejaVuSans-102"/>
     </defs>
     <g transform="translate(256.9625 594.194687)scale(0.1 -0.1)">
      <use xlink:href="#DejaVuSans-119"/>
      <use x="81.787109" xlink:href="#DejaVuSans-101"/>
      <use x="143.310547" xlink:href="#DejaVuSans-101"/>
      <use x="204.833984" xlink:href="#DejaVuSans-107"/>
      <use x="262.744141" xlink:href="#DejaVuSans-32"/>
      <use x="294.53125" xlink:href="#DejaVuSans-111"/>
      <use x="355.712891" xlink:href="#DejaVuSans-102"/>
      <use x="390.917969" xlink:href="#DejaVuSans-32"/>
      <use x="422.705078" xlink:href="#DejaVuSans-121"/>
      <use x="481.884766" xlink:href="#DejaVuSans-101"/>
      <use x="543.408203" xlink:href="#DejaVuSans-97"/>
      <use x="604.6875" xlink:href="#DejaVuSans-114"/>
     </g>
    </g>
   </g>
   <g id="matplotlib.axis_4">
    <g id="ytick_8">
     <g id="line2d_34">
      <g>
       <use style="stroke:#000000;stroke-width:0.8;" x="66.053125" xlink:href="#md857e70e4c" y="555.913075"/>
      </g>
     </g>
     <g id="text_32">
      <!-- 0.8 -->
      <defs>
       <path d="M 10.6875 12.40625 
L 21 12.40625 
L 21 0 
L 10.6875 0 
z
" id="DejaVuSans-46"/>
      </defs>
      <g transform="translate(43.15 559.712294)scale(0.1 -0.1)">
       <use xlink:href="#DejaVuSans-48"/>
       <use x="63.623047" xlink:href="#DejaVuSans-46"/>
       <use x="95.410156" xlink:href="#DejaVuSans-56"/>
      </g>
     </g>
    </g>
    <g id="ytick_9">
     <g id="line2d_35">
      <g>
       <use style="stroke:#000000;stroke-width:0.8;" x="66.053125" xlink:href="#md857e70e4c" y="527.919426"/>
      </g>
     </g>
     <g id="text_33">
      <!-- 0.9 -->
      <g transform="translate(43.15 531.718645)scale(0.1 -0.1)">
       <use xlink:href="#DejaVuSans-48"/>
       <use x="63.623047" xlink:href="#DejaVuSans-46"/>
       <use x="95.410156" xlink:href="#DejaVuSans-57"/>
      </g>
     </g>
    </g>
    <g id="ytick_10">
     <g id="line2d_36">
      <g>
       <use style="stroke:#000000;stroke-width:0.8;" x="66.053125" xlink:href="#md857e70e4c" y="499.925776"/>
      </g>
     </g>
     <g id="text_34">
      <!-- 1.0 -->
      <g transform="translate(43.15 503.724995)scale(0.1 -0.1)">
       <use xlink:href="#DejaVuSans-49"/>
       <use x="63.623047" xlink:href="#DejaVuSans-46"/>
       <use x="95.410156" xlink:href="#DejaVuSans-48"/>
      </g>
     </g>
    </g>
    <g id="ytick_11">
     <g id="line2d_37">
      <g>
       <use style="stroke:#000000;stroke-width:0.8;" x="66.053125" xlink:href="#md857e70e4c" y="471.932127"/>
      </g>
     </g>
     <g id="text_35">
      <!-- 1.1 -->
      <g transform="translate(43.15 475.731346)scale(0.1 -0.1)">
       <use xlink:href="#DejaVuSans-49"/>
       <use x="63.623047" xlink:href="#DejaVuSans-46"/>
       <use x="95.410156" xlink:href="#DejaVuSans-49"/>
      </g>
     </g>
    </g>
    <g id="ytick_12">
     <g id="line2d_38">
      <g>
       <use style="stroke:#000000;stroke-width:0.8;" x="66.053125" xlink:href="#md857e70e4c" y="443.938478"/>
      </g>
     </g>
     <g id="text_36">
      <!-- 1.2 -->
      <g transform="translate(43.15 447.737696)scale(0.1 -0.1)">
       <use xlink:href="#DejaVuSans-49"/>
       <use x="63.623047" xlink:href="#DejaVuSans-46"/>
       <use x="95.410156" xlink:href="#DejaVuSans-50"/>
      </g>
     </g>
    </g>
    <g id="ytick_13">
     <g id="line2d_39">
      <g>
       <use style="stroke:#000000;stroke-width:0.8;" x="66.053125" xlink:href="#md857e70e4c" y="415.944828"/>
      </g>
     </g>
     <g id="text_37">
      <!-- 1.3 -->
      <g transform="translate(43.15 419.744047)scale(0.1 -0.1)">
       <use xlink:href="#DejaVuSans-49"/>
       <use x="63.623047" xlink:href="#DejaVuSans-46"/>
       <use x="95.410156" xlink:href="#DejaVuSans-51"/>
      </g>
     </g>
    </g>
    <g id="ytick_14">
     <g id="line2d_40">
      <g>
       <use style="stroke:#000000;stroke-width:0.8;" x="66.053125" xlink:href="#md857e70e4c" y="387.951179"/>
      </g>
     </g>
     <g id="text_38">
      <!-- 1.4 -->
      <g transform="translate(43.15 391.750397)scale(0.1 -0.1)">
       <use xlink:href="#DejaVuSans-49"/>
       <use x="63.623047" xlink:href="#DejaVuSans-46"/>
       <use x="95.410156" xlink:href="#DejaVuSans-52"/>
      </g>
     </g>
    </g>
    <g id="ytick_15">
     <g id="line2d_41">
      <g>
       <use style="stroke:#000000;stroke-width:0.8;" x="66.053125" xlink:href="#md857e70e4c" y="359.957529"/>
      </g>
     </g>
     <g id="text_39">
      <!-- 1.5 -->
      <g transform="translate(43.15 363.756748)scale(0.1 -0.1)">
       <use xlink:href="#DejaVuSans-49"/>
       <use x="63.623047" xlink:href="#DejaVuSans-46"/>
       <use x="95.410156" xlink:href="#DejaVuSans-53"/>
      </g>
     </g>
    </g>
    <g id="ytick_16">
     <g id="line2d_42">
      <g>
       <use style="stroke:#000000;stroke-width:0.8;" x="66.053125" xlink:href="#md857e70e4c" y="331.96388"/>
      </g>
     </g>
     <g id="text_40">
      <!-- 1.6 -->
      <g transform="translate(43.15 335.763099)scale(0.1 -0.1)">
       <use xlink:href="#DejaVuSans-49"/>
       <use x="63.623047" xlink:href="#DejaVuSans-46"/>
       <use x="95.410156" xlink:href="#DejaVuSans-54"/>
      </g>
     </g>
    </g>
    <g id="text_41">
     <!-- seasonality multiplier -->
     <g transform="translate(37.070312 496.163295)rotate(-90)scale(0.1 -0.1)">
      <use xlink:href="#DejaVuSans-115"/>
      <use x="52.099609" xlink:href="#DejaVuSans-101"/>
      <use x="113.623047" xlink:href="#DejaVuSans-97"/>
      <use x="174.902344" xlink:href="#DejaVuSans-115"/>
      <use x="227.001953" xlink:href="#DejaVuSans-111"/>
      <use x="288.183594" xlink:href="#DejaVuSans-110"/>
      <use x="351.5625" xlink:href="#DejaVuSans-97"/>
      <use x="412.841797" xlink:href="#DejaVuSans-108"/>
      <use x="440.625" xlink:href="#DejaVuSans-105"/>
      <use x="468.408203" xlink:href="#DejaVuSans-116"/>
      <use x="507.617188" xlink:href="#DejaVuSans-121"/>
      <use x="566.796875" xlink:href="#DejaVuSans-32"/>
      <use x="598.583984" xlink:href="#DejaVuSans-109"/>
      <use x="695.996094" xlink:href="#DejaVuSans-117"/>
      <use x="759.375" xlink:href="#DejaVuSans-108"/>
      <use x="787.158203" xlink:href="#DejaVuSans-116"/>
      <use x="826.367188" xlink:href="#DejaVuSans-105"/>
      <use x="854.150391" xlink:href="#DejaVuSans-112"/>
      <use x="917.626953" xlink:href="#DejaVuSans-108"/>
      <use x="945.410156" xlink:href="#DejaVuSans-105"/>
      <use x="973.193359" xlink:href="#DejaVuSans-101"/>
      <use x="1034.716797" xlink:href="#DejaVuSans-114"/>
     </g>
    </g>
   </g>
   <g id="line2d_43">
    <path clip-path="url(#p01a5ff0398)" d="M 86.344034 393.858191 
L 94.301253 330.058621 
L 102.258473 335.489489 
L 110.215692 427.882527 
L 118.172911 471.144297 
L 126.13013 469.721223 
L 134.08735 482.535665 
L 142.044569 506.188184 
L 150.001788 515.284159 
L 157.959007 502.157464 
L 165.916227 514.925688 
L 173.873446 529.984949 
L 181.830665 530.730675 
L 189.787884 528.214649 
L 197.745104 501.889879 
L 205.702323 496.815463 
L 213.659542 511.075271 
L 221.616761 515.803229 
L 229.573981 524.555432 
L 237.5312 524.987087 
L 245.488419 526.106852 
L 253.445638 521.53422 
L 261.402858 528.992879 
L 269.360077 506.326958 
L 277.317296 504.226902 
L 285.274515 503.017552 
L 293.231735 493.80039 
L 301.188954 465.686398 
L 309.146173 442.559039 
L 317.103392 504.694013 
L 325.060612 534.327939 
L 333.017831 536.432015 
L 340.97505 530.867279 
L 348.932269 540.182252 
L 356.889489 542.034077 
L 364.846708 541.766074 
L 372.803927 554.68672 
L 380.761146 547.345377 
L 388.718366 550.380522 
L 396.675585 553.601027 
L 404.632804 519.136928 
L 412.590023 509.724579 
L 420.547243 520.220986 
L 428.504462 513.672072 
L 436.461681 501.113318 
L 444.4189 480.51902 
L 452.37612 491.574509 
L 460.333339 476.908909 
L 468.290558 458.139072 
L 476.247777 416.178072 
L 484.204997 451.278456 
L 492.162216 428.51404 
" style="fill:none;stroke:#1f77b4;stroke-linecap:square;stroke-width:1.5;"/>
   </g>
   <g id="patch_9">
    <path d="M 66.053125 565.918125 
L 66.053125 318.827216 
" style="fill:none;stroke:#000000;stroke-linecap:square;stroke-linejoin:miter;stroke-width:0.8;"/>
   </g>
   <g id="patch_10">
    <path d="M 512.453125 565.918125 
L 512.453125 318.827216 
" style="fill:none;stroke:#000000;stroke-linecap:square;stroke-linejoin:miter;stroke-width:0.8;"/>
   </g>
   <g id="patch_11">
    <path d="M 66.053125 565.918125 
L 512.453125 565.918125 
" style="fill:none;stroke:#000000;stroke-linecap:square;stroke-linejoin:miter;stroke-width:0.8;"/>
   </g>
   <g id="patch_12">
    <path d="M 66.053125 318.827216 
L 512.453125 318.827216 
" style="fill:none;stroke:#000000;stroke-linecap:square;stroke-linejoin:miter;stroke-width:0.8;"/>
   </g>
   <g id="text_42">
    <!-- Seasonality Component -->
    <defs>
     <path d="M 64.40625 67.28125 
L 64.40625 56.890625 
Q 59.421875 61.53125 53.78125 63.8125 
Q 48.140625 66.109375 41.796875 66.109375 
Q 29.296875 66.109375 22.65625 58.46875 
Q 16.015625 50.828125 16.015625 36.375 
Q 16.015625 21.96875 22.65625 14.328125 
Q 29.296875 6.6875 41.796875 6.6875 
Q 48.140625 6.6875 53.78125 8.984375 
Q 59.421875 11.28125 64.40625 15.921875 
L 64.40625 5.609375 
Q 59.234375 2.09375 53.4375 0.328125 
Q 47.65625 -1.421875 41.21875 -1.421875 
Q 24.65625 -1.421875 15.125 8.703125 
Q 5.609375 18.84375 5.609375 36.375 
Q 5.609375 53.953125 15.125 64.078125 
Q 24.65625 74.21875 41.21875 74.21875 
Q 47.75 74.21875 53.53125 72.484375 
Q 59.328125 70.75 64.40625 67.28125 
z
" id="DejaVuSans-67"/>
    </defs>
    <g transform="translate(217.820312 312.827216)scale(0.12 -0.12)">
     <use xlink:href="#DejaVuSans-83"/>
     <use x="63.476562" xlink:href="#DejaVuSans-101"/>
     <use x="125" xlink:href="#DejaVuSans-97"/>
     <use x="186.279297" xlink:href="#DejaVuSans-115"/>
     <use x="238.378906" xlink:href="#DejaVuSans-111"/>
     <use x="299.560547" xlink:href="#DejaVuSans-110"/>
     <use x="362.939453" xlink:href="#DejaVuSans-97"/>
     <use x="424.21875" xlink:href="#DejaVuSans-108"/>
     <use x="452.001953" xlink:href="#DejaVuSans-105"/>
     <use x="479.785156" xlink:href="#DejaVuSans-116"/>
     <use x="518.994141" xlink:href="#DejaVuSans-121"/>
     <use x="578.173828" xlink:href="#DejaVuSans-32"/>
     <use x="609.960938" xlink:href="#DejaVuSans-67"/>
     <use x="679.785156" xlink:href="#DejaVuSans-111"/>
     <use x="740.966797" xlink:href="#DejaVuSans-109"/>
     <use x="838.378906" xlink:href="#DejaVuSans-112"/>
     <use x="901.855469" xlink:href="#DejaVuSans-111"/>
     <use x="963.037109" xlink:href="#DejaVuSans-110"/>
     <use x="1026.416016" xlink:href="#DejaVuSans-101"/>
     <use x="1087.939453" xlink:href="#DejaVuSans-110"/>
     <use x="1151.318359" xlink:href="#DejaVuSans-116"/>
    </g>
   </g>
  </g>
 </g>
 <defs>
  <clipPath id="pce8b6b68b6">
   <rect height="247.090909" width="446.4" x="66.053125" y="22.318125"/>
  </clipPath>
  <clipPath id="p01a5ff0398">
   <rect height="247.090909" width="446.4" x="66.053125" y="318.827216"/>
  </clipPath>
 </defs>
</svg>
