<?xml version="1.0" encoding="utf-8" standalone="no"?>
<!DOCTYPE svg PUBLIC "-//W3C//DTD SVG 1.1//EN"
  "http://www.w3.org/Graphics/SVG/1.1/DTD/svg11.dtd">
<!-- Created with matplotlib (https://matplotlib.org/) -->
<svg height="277.314375pt" version="1.1" viewBox="0 0 529.515625 277.314375" width="529.515625pt" xmlns="http://www.w3.org/2000/svg" xmlns:xlink="http://www.w3.org/1999/xlink">
 <defs>
  <style type="text/css">
*{stroke-linecap:butt;stroke-linejoin:round;}
  </style>
 </defs>
 <g id="figure_1">
  <g id="patch_1">
   <path d="M 0 277.314375 
L 529.515625 277.314375 
L 529.515625 0 
L 0 0 
z
" style="fill:none;"/>
  </g>
  <g id="axes_1">
   <g id="patch_2">
    <path d="M 72.415625 239.758125 
L 518.815625 239.758125 
L 518.815625 22.318125 
L 72.415625 22.318125 
z
" style="fill:#ffffff;"/>
   </g>
   <g id="PolyCollection_1">
    <path clip-path="url(#p64ff24b0a6)" d="M 93.728746 136.633563 
L 93.728746 172.556411 
L 94.750958 175.631413 
L 95.77317 188.329787 
L 96.795382 193.649752 
L 97.817594 194.313444 
L 98.839806 196.036768 
L 99.862018 199.710202 
L 100.88423 201.023628 
L 101.906442 200.216695 
L 102.928655 202.108912 
L 103.950867 203.880243 
L 104.973079 204.376536 
L 105.995291 204.518307 
L 107.017503 201.232513 
L 108.039715 201.432011 
L 109.061927 203.656117 
L 110.084139 203.967355 
L 111.106351 206.420102 
L 112.128563 205.662762 
L 113.150775 207.702308 
L 114.172987 206.858709 
L 115.195199 207.686194 
L 116.217411 205.088662 
L 117.239623 206.158759 
L 118.261835 205.402163 
L 119.284047 204.588408 
L 120.306259 202.251831 
L 121.328471 199.182177 
L 122.350683 207.944516 
L 123.372895 210.88211 
L 124.395107 212.052533 
L 125.41732 211.400951 
L 126.439532 213.484863 
L 127.461744 213.318416 
L 128.483956 213.597973 
L 129.506168 215.278325 
L 130.52838 215.071406 
L 131.550592 215.569685 
L 132.572804 216.228633 
L 133.595016 212.960869 
L 134.617228 211.855147 
L 135.63944 213.233027 
L 136.661652 213.686638 
L 137.683864 212.594963 
L 138.706076 210.918439 
L 139.728288 212.537783 
L 140.7505 210.904516 
L 141.772712 210.393318 
L 142.794924 205.80158 
L 143.817136 210.291794 
L 144.839348 209.700935 
L 145.86156 205.52233 
L 146.883772 200.61918 
L 147.905985 202.007918 
L 148.928197 210.12796 
L 149.950409 214.450885 
L 150.972621 213.569366 
L 151.994833 216.092482 
L 153.017045 217.499115 
L 154.039257 219.222045 
L 155.061469 218.336568 
L 156.083681 219.424874 
L 157.105893 221.243588 
L 158.128105 221.598403 
L 159.150317 221.675512 
L 160.172529 219.59488 
L 161.194741 220.013798 
L 162.216953 221.830071 
L 163.239165 222.283461 
L 164.261377 222.541103 
L 165.283589 222.523591 
L 166.305801 222.994299 
L 167.328013 222.969596 
L 168.350225 222.002282 
L 169.372437 222.060099 
L 170.39465 223.609984 
L 171.416862 221.838463 
L 172.439074 222.624492 
L 173.461286 220.881248 
L 174.483498 218.99673 
L 175.50571 223.561818 
L 176.527922 225.842588 
L 177.550134 225.120956 
L 178.572346 225.131407 
L 179.594558 226.777493 
L 180.61677 226.766595 
L 181.638982 226.690785 
L 182.661194 227.806511 
L 183.683406 226.839169 
L 184.705618 227.241741 
L 185.72783 227.713772 
L 186.750042 226.316834 
L 187.772254 226.562851 
L 188.794466 226.620899 
L 189.816678 226.584089 
L 190.83889 226.288089 
L 191.861102 225.374452 
L 192.883314 226.160558 
L 193.905527 226.269231 
L 194.927739 225.369568 
L 195.949951 223.304095 
L 196.972163 225.586142 
L 197.994375 224.266373 
L 199.016587 222.556547 
L 200.038799 219.324218 
L 201.061011 220.146663 
L 202.083223 225.229793 
L 203.105435 227.538024 
L 204.127647 225.875633 
L 205.149859 227.431793 
L 206.172071 228.970776 
L 207.194283 229.646407 
L 208.216495 228.983248 
L 209.238707 229.652924 
L 210.260919 230.798837 
L 211.283131 230.609654 
L 212.305343 230.983915 
L 213.327555 229.819311 
L 214.349767 229.745734 
L 215.371979 230.934061 
L 216.394192 230.500605 
L 217.416404 231.123916 
L 218.438616 230.914331 
L 219.460828 231.469869 
L 220.48304 231.651607 
L 221.505252 231.15153 
L 222.527464 231.075255 
L 223.549676 231.157529 
L 224.571888 231.075048 
L 225.5941 231.372331 
L 226.616312 230.698603 
L 227.638524 229.593385 
L 228.660736 231.712851 
L 229.682948 232.445355 
L 230.70516 232.748377 
L 231.727372 232.666323 
L 232.749584 232.877261 
L 233.771796 233.270152 
L 234.794008 233.520653 
L 235.81622 233.966154 
L 236.838432 233.264766 
L 237.860644 233.741302 
L 238.882857 233.840225 
L 239.905069 232.96348 
L 240.927281 233.272527 
L 241.949493 233.414356 
L 242.971705 232.844596 
L 243.993917 232.790359 
L 245.016129 232.757863 
L 246.038341 233.300479 
L 247.060553 232.653305 
L 248.082765 232.708293 
L 249.104977 231.003799 
L 250.127189 232.81279 
L 251.149401 232.178274 
L 252.171613 231.854913 
L 253.193825 229.420436 
L 254.216037 230.677696 
L 255.238249 232.698308 
L 256.260461 233.848673 
L 257.282673 232.980081 
L 258.304885 233.801893 
L 259.327097 234.450408 
L 260.349309 234.850441 
L 261.371521 234.380001 
L 262.393734 234.744526 
L 263.415946 235.360168 
L 264.438158 235.221782 
L 265.46037 234.936144 
L 266.482582 234.858859 
L 267.504794 234.731667 
L 268.527006 235.201542 
L 269.549218 235.1118 
L 270.57143 235.351141 
L 271.593642 235.315844 
L 272.615854 235.582102 
L 273.638066 235.396765 
L 274.660278 235.739462 
L 275.68249 235.448965 
L 276.704702 235.391887 
L 277.726914 235.570429 
L 278.749126 235.460293 
L 279.771338 234.925454 
L 280.79355 234.923163 
L 281.815762 235.759132 
L 282.837974 236.214237 
L 283.860186 236.344178 
L 284.882399 236.394481 
L 285.904611 236.440848 
L 286.926823 236.559739 
L 287.949035 236.543909 
L 288.971247 236.904722 
L 289.993459 236.407243 
L 291.015671 236.947976 
L 292.037883 237.077498 
L 293.060095 236.528586 
L 294.082307 236.584402 
L 295.104519 236.636489 
L 296.126731 236.607018 
L 297.148943 236.402353 
L 298.171155 236.234058 
L 299.193367 236.518839 
L 300.215579 236.514969 
L 301.237791 236.4045 
L 302.260003 235.643778 
L 303.282215 236.057361 
L 304.304427 236.074807 
L 305.326639 235.693662 
L 306.348851 234.735031 
L 307.371064 235.333062 
L 308.393276 236.034761 
L 309.415488 236.817243 
L 310.4377 236.548483 
L 311.459912 236.774029 
L 312.482124 237.224067 
L 313.504336 237.407707 
L 314.526548 237.182081 
L 315.54876 237.219152 
L 316.570972 237.538227 
L 317.593184 237.540776 
L 318.615396 237.293919 
L 319.637608 237.272255 
L 320.65982 237.223941 
L 321.682032 237.486972 
L 322.704244 237.632687 
L 323.726456 237.575967 
L 324.748668 237.583357 
L 325.77088 237.758586 
L 326.793092 237.67195 
L 327.815304 237.6501 
L 328.837516 237.596019 
L 329.859729 237.726296 
L 330.881941 237.708769 
L 331.904153 237.632649 
L 332.926365 237.528945 
L 333.948577 237.425526 
L 334.970789 237.841101 
L 335.993001 238.028412 
L 337.015213 238.215649 
L 338.037425 238.038698 
L 339.059637 238.142056 
L 340.081849 238.298975 
L 341.104061 238.275558 
L 342.126273 238.295771 
L 343.148485 238.254818 
L 344.170697 238.256724 
L 345.192909 238.392332 
L 346.215121 238.143555 
L 347.237333 238.221944 
L 348.259545 238.231363 
L 349.281757 238.119596 
L 350.303969 238.188369 
L 351.326181 238.083467 
L 352.348393 238.191109 
L 353.370606 238.011623 
L 354.392818 237.996306 
L 355.41503 237.804862 
L 356.437242 238.056325 
L 357.459454 238.024877 
L 358.481666 237.578843 
L 359.503878 237.413731 
L 360.52609 237.427837 
L 361.548302 238.10418 
L 362.570514 238.257603 
L 363.592726 238.117918 
L 364.614938 238.211857 
L 365.63715 238.448242 
L 366.659362 238.584621 
L 367.681574 238.497003 
L 368.703786 238.532066 
L 369.725998 238.659826 
L 370.74821 238.647072 
L 371.770422 238.600326 
L 372.792634 238.597251 
L 373.814846 238.494224 
L 374.837058 238.676516 
L 375.859271 238.72945 
L 376.881483 238.715284 
L 377.903695 238.7739 
L 378.925907 238.806992 
L 379.948119 238.740001 
L 380.970331 238.727752 
L 381.992543 238.705878 
L 383.014755 238.702262 
L 384.036967 238.81845 
L 385.059179 238.751355 
L 386.081391 238.674535 
L 387.103603 238.637616 
L 388.125815 238.851309 
L 389.148027 238.88172 
L 390.170239 239.000663 
L 391.192451 238.846816 
L 392.214663 238.908915 
L 393.236875 239.041879 
L 394.259087 239.030322 
L 395.281299 239.00663 
L 396.303511 239.020203 
L 397.325723 239.074336 
L 398.347936 239.061145 
L 399.370148 238.982498 
L 400.39236 238.997589 
L 401.414572 239.00446 
L 402.436784 238.933464 
L 403.458996 238.916273 
L 404.481208 238.906836 
L 405.50342 238.947576 
L 406.525632 238.952261 
L 407.547844 238.921824 
L 408.570056 238.825327 
L 409.592268 238.916931 
L 410.61448 238.878637 
L 411.636692 238.748626 
L 412.658904 238.552441 
L 413.681116 238.634067 
L 414.703328 238.850895 
L 415.72554 239.063674 
L 416.747752 238.955979 
L 417.769964 239.013345 
L 418.792176 239.133358 
L 419.814388 239.186608 
L 420.8366 239.14913 
L 421.858813 239.111859 
L 422.881025 239.203542 
L 423.903237 239.223296 
L 424.925449 239.176031 
L 425.947661 239.188987 
L 426.969873 239.117005 
L 427.992085 239.210477 
L 429.014297 239.254923 
L 430.036509 239.230619 
L 431.058721 239.276278 
L 432.080933 239.304812 
L 433.103145 239.268077 
L 434.125357 239.224966 
L 435.147569 239.212057 
L 436.169781 239.283404 
L 437.191993 239.273053 
L 438.214205 239.288159 
L 439.236417 239.173281 
L 440.258629 239.145712 
L 441.280841 239.255284 
L 442.303053 239.314896 
L 443.325265 239.387672 
L 444.347478 239.334754 
L 445.36969 239.346919 
L 446.391902 239.388491 
L 447.414114 239.39373 
L 448.436326 239.418869 
L 449.458538 239.346298 
L 450.48075 239.377791 
L 451.502962 239.435251 
L 452.525174 239.374462 
L 453.547386 239.378215 
L 454.569598 239.407202 
L 455.59181 239.379227 
L 456.614022 239.306507 
L 457.636234 239.335682 
L 458.658446 239.387548 
L 459.680658 239.369487 
L 460.70287 239.357454 
L 461.725082 239.259847 
L 462.747294 239.350883 
L 463.769506 239.333123 
L 464.791718 239.250602 
L 465.81393 239.141084 
L 466.836143 239.217109 
L 467.858355 239.305941 
L 468.880567 239.414829 
L 469.902779 239.368109 
L 470.924991 239.395125 
L 471.947203 239.457711 
L 472.969415 239.45367 
L 473.991627 239.450696 
L 475.013839 239.434909 
L 476.036051 239.461876 
L 477.058263 239.505408 
L 478.080475 239.482006 
L 479.102687 239.468055 
L 480.124899 239.450951 
L 481.147111 239.494928 
L 482.169323 239.509947 
L 483.191535 239.516817 
L 484.213747 239.519921 
L 485.235959 239.529466 
L 486.258171 239.507991 
L 487.280383 239.514873 
L 488.302595 239.506245 
L 489.324808 239.48667 
L 490.34702 239.501128 
L 491.369232 239.503172 
L 492.391444 239.511718 
L 493.413656 239.474627 
L 494.435868 239.532304 
L 495.45808 239.556814 
L 496.480292 239.555197 
L 497.502504 239.550698 
L 498.524716 239.559038 
L 498.524716 -4182.839706 
L 498.524716 -4182.839706 
L 497.502504 -4946.398096 
L 496.480292 -4942.037555 
L 495.45808 -3927.880434 
L 494.435868 -5228.749155 
L 493.413656 -5529.750477 
L 492.391444 -5555.447536 
L 491.369232 -4084.009312 
L 490.34702 -4541.964045 
L 489.324808 -4266.104006 
L 488.302595 -4614.024096 
L 487.280383 -4039.859425 
L 486.258171 -3949.686187 
L 485.235959 -3882.799904 
L 484.213747 -3901.928101 
L 483.191535 -3793.058502 
L 482.169323 -4689.143528 
L 481.147111 -4117.754696 
L 480.124899 -4881.941487 
L 479.102687 -4278.763797 
L 478.080475 -3754.826896 
L 477.058263 -3432.877405 
L 476.036051 -3453.89646 
L 475.013839 -3641.124041 
L 473.991627 -3849.337627 
L 472.969415 -3544.923367 
L 471.947203 -4168.598256 
L 470.924991 -4054.192635 
L 469.902779 -4100.435165 
L 468.880567 -4230.97092 
L 467.858355 -4871.099494 
L 466.836143 -5978.586646 
L 465.81393 -5785.371637 
L 464.791718 -4957.528415 
L 463.769506 -4257.8265 
L 462.747294 -3443.814637 
L 461.725082 -4707.45328 
L 460.70287 -4371.189279 
L 459.680658 -3333.405563 
L 458.658446 -3147.073834 
L 457.636234 -3247.279536 
L 456.614022 -3554.999536 
L 455.59181 -3078.020761 
L 454.569598 -2799.306821 
L 453.547386 -2998.489036 
L 452.525174 -2697.490106 
L 451.502962 -2284.828778 
L 450.48075 -2397.838651 
L 449.458538 -1934.551203 
L 448.436326 -2304.537104 
L 447.414114 -2203.12635 
L 446.391902 -2451.662009 
L 445.36969 -2165.624473 
L 444.347478 -2521.326741 
L 443.325265 -2437.816735 
L 442.303053 -2173.95199 
L 441.280841 -2498.350726 
L 440.258629 -3151.048854 
L 439.236417 -3071.679775 
L 438.214205 -2459.151948 
L 437.191993 -2385.356726 
L 436.169781 -2267.601006 
L 435.147569 -2521.463511 
L 434.125357 -1946.836345 
L 433.103145 -1982.439753 
L 432.080933 -2056.353915 
L 431.058721 -1923.477418 
L 430.036509 -2039.624299 
L 429.014297 -2656.948201 
L 427.992085 -2148.608706 
L 426.969873 -2192.548981 
L 425.947661 -2092.477005 
L 424.925449 -1815.807436 
L 423.903237 -1840.759981 
L 422.881025 -1751.158827 
L 421.858813 -1813.883309 
L 420.8366 -1853.253648 
L 419.814388 -1773.148535 
L 418.792176 -2036.913039 
L 417.769964 -2164.055861 
L 416.747752 -2201.472719 
L 415.72554 -2045.26578 
L 414.703328 -2365.703194 
L 413.681116 -3222.962133 
L 412.658904 -3077.166656 
L 411.636692 -2308.208579 
L 410.61448 -2203.862602 
L 409.592268 -1838.963056 
L 408.570056 -2367.462936 
L 407.547844 -2198.73167 
L 406.525632 -1680.670433 
L 405.50342 -1607.156361 
L 404.481208 -1545.933628 
L 403.458996 -1640.195499 
L 402.436784 -1622.476313 
L 401.414572 -1431.529203 
L 400.39236 -1537.998482 
L 399.370148 -1440.930656 
L 398.347936 -1187.483897 
L 397.325723 -1125.527631 
L 396.303511 -1191.256481 
L 395.281299 -1149.699239 
L 394.259087 -1102.306343 
L 393.236875 -1180.515706 
L 392.214663 -1239.280497 
L 391.192451 -1188.120996 
L 390.170239 -1195.257921 
L 389.148027 -1069.460727 
L 388.125815 -1468.208613 
L 387.103603 -1510.283362 
L 386.081391 -1394.424589 
L 385.059179 -1233.576067 
L 384.036967 -1329.292068 
L 383.014755 -1087.409746 
L 381.992543 -1134.260891 
L 380.970331 -1043.352271 
L 379.948119 -1030.194759 
L 378.925907 -1000.899394 
L 377.903695 -890.379861 
L 376.881483 -986.403213 
L 375.859271 -927.090799 
L 374.837058 -1049.020605 
L 373.814846 -1076.571884 
L 372.792634 -1024.635905 
L 371.770422 -913.479055 
L 370.74821 -886.940503 
L 369.725998 -864.625723 
L 368.703786 -882.487984 
L 367.681574 -952.4106 
L 366.659362 -883.408843 
L 365.63715 -934.294913 
L 364.614938 -1017.766976 
L 363.592726 -1174.571223 
L 362.570514 -1108.175919 
L 361.548302 -1150.860478 
L 360.52609 -1570.121436 
L 359.503878 -1551.350493 
L 358.481666 -1157.051647 
L 357.459454 -1142.461966 
L 356.437242 -968.425274 
L 355.41503 -1227.700512 
L 354.392818 -988.095331 
L 353.370606 -891.022396 
L 352.348393 -820.940831 
L 351.326181 -830.122779 
L 350.303969 -808.36932 
L 349.281757 -692.073819 
L 348.259545 -661.718543 
L 347.237333 -659.983589 
L 346.215121 -675.446835 
L 345.192909 -537.349278 
L 344.170697 -504.607652 
L 343.148485 -511.824322 
L 342.126273 -468.118665 
L 341.104061 -521.2772 
L 340.081849 -519.244082 
L 339.059637 -501.418622 
L 338.037425 -543.209721 
L 337.015213 -535.444721 
L 335.993001 -443.093386 
L 334.970789 -619.448153 
L 333.948577 -759.026205 
L 332.926365 -675.348226 
L 331.904153 -529.482516 
L 330.881941 -580.703715 
L 329.859729 -511.011205 
L 328.837516 -504.298235 
L 327.815304 -410.854699 
L 326.793092 -389.75829 
L 325.77088 -462.910759 
L 324.748668 -387.814974 
L 323.726456 -382.767866 
L 322.704244 -426.350887 
L 321.682032 -433.247703 
L 320.65982 -452.037346 
L 319.637608 -415.791837 
L 318.615396 -369.627151 
L 317.593184 -372.041387 
L 316.570972 -376.840995 
L 315.54876 -373.794878 
L 314.526548 -388.752304 
L 313.504336 -358.333209 
L 312.482124 -416.264661 
L 311.459912 -434.935255 
L 310.4377 -465.982589 
L 309.415488 -479.565848 
L 308.393276 -520.819326 
L 307.371064 -722.327443 
L 306.348851 -787.075856 
L 305.326639 -602.614274 
L 304.304427 -540.957151 
L 303.282215 -474.701498 
L 302.260003 -502.919339 
L 301.237791 -474.944759 
L 300.215579 -360.799468 
L 299.193367 -371.358571 
L 298.171155 -283.843755 
L 297.148943 -359.560766 
L 296.126731 -260.091262 
L 295.104519 -234.883225 
L 294.082307 -246.509851 
L 293.060095 -263.946745 
L 292.037883 -173.038451 
L 291.015671 -179.634629 
L 289.993459 -176.478053 
L 288.971247 -171.416158 
L 287.949035 -176.922473 
L 286.926823 -178.61875 
L 285.904611 -168.120665 
L 284.882399 -163.511019 
L 283.860186 -183.34016 
L 282.837974 -156.536005 
L 281.815762 -190.776255 
L 280.79355 -314.296662 
L 279.771338 -259.461936 
L 278.749126 -179.479867 
L 277.726914 -188.898633 
L 276.704702 -164.428914 
L 275.68249 -139.28524 
L 274.660278 -124.506822 
L 273.638066 -125.353696 
L 272.615854 -108.602445 
L 271.593642 -91.199199 
L 270.57143 -95.319252 
L 269.549218 -137.267397 
L 268.527006 -145.644082 
L 267.504794 -134.246693 
L 266.482582 -126.985855 
L 265.46037 -95.411936 
L 264.438158 -83.285742 
L 263.415946 -82.405219 
L 262.393734 -105.101905 
L 261.371521 -118.534669 
L 260.349309 -93.343212 
L 259.327097 -93.819759 
L 258.304885 -115.420385 
L 257.282673 -156.182421 
L 256.260461 -154.895774 
L 255.238249 -183.43741 
L 254.216037 -290.558194 
L 253.193825 -283.320703 
L 252.171613 -188.911299 
L 251.149401 -145.092791 
L 250.127189 -129.701898 
L 249.104977 -189.718654 
L 248.082765 -143.17622 
L 247.060553 -81.744093 
L 246.038341 -67.722637 
L 245.016129 -43.639391 
L 243.993917 -68.113486 
L 242.971705 -33.108201 
L 241.949493 -13.118262 
L 240.927281 -47.376777 
L 239.905069 -25.47959 
L 238.882857 -4.549522 
L 237.860644 12.487024 
L 236.838432 8.767074 
L 235.81622 25.34031 
L 234.794008 25.093352 
L 233.771796 19.367423 
L 232.749584 17.386871 
L 231.727372 28.997664 
L 230.70516 10.983304 
L 229.682948 35.05538 
L 228.660736 -0.978288 
L 227.638524 -48.052553 
L 226.616312 -28.819142 
L 225.5941 -1.731582 
L 224.571888 -2.803479 
L 223.549676 10.341829 
L 222.527464 15.847668 
L 221.505252 43.160456 
L 220.48304 37.14173 
L 219.460828 42.801462 
L 218.438616 44.507619 
L 217.416404 38.460463 
L 216.394192 39.662064 
L 215.371979 34.086372 
L 214.349767 27.448744 
L 213.327555 31.82009 
L 212.305343 47.466311 
L 211.283131 64.409916 
L 210.260919 62.66905 
L 209.238707 41.922325 
L 208.216495 42.316625 
L 207.194283 65.455965 
L 206.172071 55.406405 
L 205.149859 41.314825 
L 204.127647 30.922606 
L 203.105435 32.2929 
L 202.083223 16.893894 
L 201.061011 -42.613155 
L 200.038799 -48.364824 
L 199.016587 -14.590467 
L 197.994375 26.804306 
L 196.972163 45.962768 
L 195.949951 13.717598 
L 194.927739 42.087906 
L 193.905527 70.587481 
L 192.883314 69.974749 
L 191.861102 72.819353 
L 190.83889 71.585762 
L 189.816678 94.160845 
L 188.794466 96.39201 
L 187.772254 95.230785 
L 186.750042 98.364109 
L 185.72783 119.176963 
L 184.705618 111.210886 
L 183.683406 121.16306 
L 182.661194 120.662337 
L 181.638982 121.171771 
L 180.61677 117.118894 
L 179.594558 123.815149 
L 178.572346 113.131506 
L 177.550134 115.095628 
L 176.527922 123.307073 
L 175.50571 105.756118 
L 174.483498 81.975507 
L 173.461286 89.396911 
L 172.439074 106.163166 
L 171.416862 106.999752 
L 170.39465 115.431981 
L 169.372437 113.600157 
L 168.350225 129.664822 
L 167.328013 125.014249 
L 166.305801 129.415703 
L 165.283589 130.504072 
L 164.261377 133.034428 
L 163.239165 132.261374 
L 162.216953 127.816398 
L 161.194741 124.202178 
L 160.172529 124.733887 
L 159.150317 138.93632 
L 158.128105 142.282328 
L 157.105893 142.329913 
L 156.083681 134.835721 
L 155.061469 128.030665 
L 154.039257 141.063033 
L 153.017045 140.272924 
L 151.994833 131.278695 
L 150.972621 121.623965 
L 149.950409 127.243478 
L 148.928197 115.492551 
L 147.905985 82.865747 
L 146.883772 82.704529 
L 145.86156 107.307811 
L 144.839348 120.449979 
L 143.817136 131.399768 
L 142.794924 115.602481 
L 141.772712 131.357599 
L 140.7505 142.582218 
L 139.728288 145.166574 
L 138.706076 142.696789 
L 137.683864 149.995944 
L 136.661652 153.43946 
L 135.63944 157.582466 
L 134.617228 158.376245 
L 133.595016 161.005998 
L 132.572804 171.959484 
L 131.550592 170.27751 
L 130.52838 169.653988 
L 129.506168 173.627418 
L 128.483956 173.402646 
L 127.461744 170.301891 
L 126.439532 172.103259 
L 125.41732 168.196956 
L 124.395107 171.640486 
L 123.372895 172.407172 
L 122.350683 163.725731 
L 121.328471 146.419871 
L 120.306259 156.867388 
L 119.284047 163.812836 
L 118.261835 167.564681 
L 117.239623 170.068938 
L 116.217411 170.092394 
L 115.195199 175.872772 
L 114.172987 175.781807 
L 113.150775 176.093365 
L 112.128563 175.381717 
L 111.106351 177.136859 
L 110.084139 175.139435 
L 109.061927 175.106207 
L 108.039715 173.660204 
L 107.017503 174.663357 
L 105.995291 179.534692 
L 104.973079 181.758132 
L 103.950867 180.881835 
L 102.928655 176.943365 
L 101.906442 175.664124 
L 100.88423 178.511243 
L 99.862018 177.251002 
L 98.839806 171.517924 
L 97.817594 168.204397 
L 96.795382 170.142005 
L 95.77317 159.670645 
L 94.750958 138.348091 
L 93.728746 136.633563 
z
" style="fill:#ff8c00;fill-opacity:0.4;stroke:#ff8c00;stroke-opacity:0.4;"/>
   </g>
   <g id="matplotlib.axis_1">
    <g id="xtick_1">
     <g id="line2d_1">
      <defs>
       <path d="M 0 0 
L 0 3.5 
" id="m7bbb849725" style="stroke:#000000;stroke-width:0.8;"/>
      </defs>
      <g>
       <use style="stroke:#000000;stroke-width:0.8;" x="92.560504" xlink:href="#m7bbb849725" y="239.758125"/>
      </g>
     </g>
     <g id="text_1">
      <!-- 2010 -->
      <defs>
       <path d="M 19.1875 8.296875 
L 53.609375 8.296875 
L 53.609375 0 
L 7.328125 0 
L 7.328125 8.296875 
Q 12.9375 14.109375 22.625 23.890625 
Q 32.328125 33.6875 34.8125 36.53125 
Q 39.546875 41.84375 41.421875 45.53125 
Q 43.3125 49.21875 43.3125 52.78125 
Q 43.3125 58.59375 39.234375 62.25 
Q 35.15625 65.921875 28.609375 65.921875 
Q 23.96875 65.921875 18.8125 64.3125 
Q 13.671875 62.703125 7.8125 59.421875 
L 7.8125 69.390625 
Q 13.765625 71.78125 18.9375 73 
Q 24.125 74.21875 28.421875 74.21875 
Q 39.75 74.21875 46.484375 68.546875 
Q 53.21875 62.890625 53.21875 53.421875 
Q 53.21875 48.921875 51.53125 44.890625 
Q 49.859375 40.875 45.40625 35.40625 
Q 44.1875 33.984375 37.640625 27.21875 
Q 31.109375 20.453125 19.1875 8.296875 
z
" id="DejaVuSans-50"/>
       <path d="M 31.78125 66.40625 
Q 24.171875 66.40625 20.328125 58.90625 
Q 16.5 51.421875 16.5 36.375 
Q 16.5 21.390625 20.328125 13.890625 
Q 24.171875 6.390625 31.78125 6.390625 
Q 39.453125 6.390625 43.28125 13.890625 
Q 47.125 21.390625 47.125 36.375 
Q 47.125 51.421875 43.28125 58.90625 
Q 39.453125 66.40625 31.78125 66.40625 
z
M 31.78125 74.21875 
Q 44.046875 74.21875 50.515625 64.515625 
Q 56.984375 54.828125 56.984375 36.375 
Q 56.984375 17.96875 50.515625 8.265625 
Q 44.046875 -1.421875 31.78125 -1.421875 
Q 19.53125 -1.421875 13.0625 8.265625 
Q 6.59375 17.96875 6.59375 36.375 
Q 6.59375 54.828125 13.0625 64.515625 
Q 19.53125 74.21875 31.78125 74.21875 
z
" id="DejaVuSans-48"/>
       <path d="M 12.40625 8.296875 
L 28.515625 8.296875 
L 28.515625 63.921875 
L 10.984375 60.40625 
L 10.984375 69.390625 
L 28.421875 72.90625 
L 38.28125 72.90625 
L 38.28125 8.296875 
L 54.390625 8.296875 
L 54.390625 0 
L 12.40625 0 
z
" id="DejaVuSans-49"/>
      </defs>
      <g transform="translate(79.835504 254.356562)scale(0.1 -0.1)">
       <use xlink:href="#DejaVuSans-50"/>
       <use x="63.623047" xlink:href="#DejaVuSans-48"/>
       <use x="127.246094" xlink:href="#DejaVuSans-49"/>
       <use x="190.869141" xlink:href="#DejaVuSans-48"/>
      </g>
     </g>
    </g>
    <g id="xtick_2">
     <g id="line2d_2">
      <g>
       <use style="stroke:#000000;stroke-width:0.8;" x="145.86156" xlink:href="#m7bbb849725" y="239.758125"/>
      </g>
     </g>
     <g id="text_2">
      <!-- 2011 -->
      <g transform="translate(133.13656 254.356562)scale(0.1 -0.1)">
       <use xlink:href="#DejaVuSans-50"/>
       <use x="63.623047" xlink:href="#DejaVuSans-48"/>
       <use x="127.246094" xlink:href="#DejaVuSans-49"/>
       <use x="190.869141" xlink:href="#DejaVuSans-49"/>
      </g>
     </g>
    </g>
    <g id="xtick_3">
     <g id="line2d_3">
      <g>
       <use style="stroke:#000000;stroke-width:0.8;" x="199.162617" xlink:href="#m7bbb849725" y="239.758125"/>
      </g>
     </g>
     <g id="text_3">
      <!-- 2012 -->
      <g transform="translate(186.437617 254.356562)scale(0.1 -0.1)">
       <use xlink:href="#DejaVuSans-50"/>
       <use x="63.623047" xlink:href="#DejaVuSans-48"/>
       <use x="127.246094" xlink:href="#DejaVuSans-49"/>
       <use x="190.869141" xlink:href="#DejaVuSans-50"/>
      </g>
     </g>
    </g>
    <g id="xtick_4">
     <g id="line2d_4">
      <g>
       <use style="stroke:#000000;stroke-width:0.8;" x="252.609704" xlink:href="#m7bbb849725" y="239.758125"/>
      </g>
     </g>
     <g id="text_4">
      <!-- 2013 -->
      <defs>
       <path d="M 40.578125 39.3125 
Q 47.65625 37.796875 51.625 33 
Q 55.609375 28.21875 55.609375 21.1875 
Q 55.609375 10.40625 48.1875 4.484375 
Q 40.765625 -1.421875 27.09375 -1.421875 
Q 22.515625 -1.421875 17.65625 -0.515625 
Q 12.796875 0.390625 7.625 2.203125 
L 7.625 11.71875 
Q 11.71875 9.328125 16.59375 8.109375 
Q 21.484375 6.890625 26.8125 6.890625 
Q 36.078125 6.890625 40.9375 10.546875 
Q 45.796875 14.203125 45.796875 21.1875 
Q 45.796875 27.640625 41.28125 31.265625 
Q 36.765625 34.90625 28.71875 34.90625 
L 20.21875 34.90625 
L 20.21875 43.015625 
L 29.109375 43.015625 
Q 36.375 43.015625 40.234375 45.921875 
Q 44.09375 48.828125 44.09375 54.296875 
Q 44.09375 59.90625 40.109375 62.90625 
Q 36.140625 65.921875 28.71875 65.921875 
Q 24.65625 65.921875 20.015625 65.03125 
Q 15.375 64.15625 9.8125 62.3125 
L 9.8125 71.09375 
Q 15.4375 72.65625 20.34375 73.4375 
Q 25.25 74.21875 29.59375 74.21875 
Q 40.828125 74.21875 47.359375 69.109375 
Q 53.90625 64.015625 53.90625 55.328125 
Q 53.90625 49.265625 50.4375 45.09375 
Q 46.96875 40.921875 40.578125 39.3125 
z
" id="DejaVuSans-51"/>
      </defs>
      <g transform="translate(239.884704 254.356562)scale(0.1 -0.1)">
       <use xlink:href="#DejaVuSans-50"/>
       <use x="63.623047" xlink:href="#DejaVuSans-48"/>
       <use x="127.246094" xlink:href="#DejaVuSans-49"/>
       <use x="190.869141" xlink:href="#DejaVuSans-51"/>
      </g>
     </g>
    </g>
    <g id="xtick_5">
     <g id="line2d_5">
      <g>
       <use style="stroke:#000000;stroke-width:0.8;" x="305.910761" xlink:href="#m7bbb849725" y="239.758125"/>
      </g>
     </g>
     <g id="text_5">
      <!-- 2014 -->
      <defs>
       <path d="M 37.796875 64.3125 
L 12.890625 25.390625 
L 37.796875 25.390625 
z
M 35.203125 72.90625 
L 47.609375 72.90625 
L 47.609375 25.390625 
L 58.015625 25.390625 
L 58.015625 17.1875 
L 47.609375 17.1875 
L 47.609375 0 
L 37.796875 0 
L 37.796875 17.1875 
L 4.890625 17.1875 
L 4.890625 26.703125 
z
" id="DejaVuSans-52"/>
      </defs>
      <g transform="translate(293.185761 254.356562)scale(0.1 -0.1)">
       <use xlink:href="#DejaVuSans-50"/>
       <use x="63.623047" xlink:href="#DejaVuSans-48"/>
       <use x="127.246094" xlink:href="#DejaVuSans-49"/>
       <use x="190.869141" xlink:href="#DejaVuSans-52"/>
      </g>
     </g>
    </g>
    <g id="xtick_6">
     <g id="line2d_6">
      <g>
       <use style="stroke:#000000;stroke-width:0.8;" x="359.211817" xlink:href="#m7bbb849725" y="239.758125"/>
      </g>
     </g>
     <g id="text_6">
      <!-- 2015 -->
      <defs>
       <path d="M 10.796875 72.90625 
L 49.515625 72.90625 
L 49.515625 64.59375 
L 19.828125 64.59375 
L 19.828125 46.734375 
Q 21.96875 47.46875 24.109375 47.828125 
Q 26.265625 48.1875 28.421875 48.1875 
Q 40.625 48.1875 47.75 41.5 
Q 54.890625 34.8125 54.890625 23.390625 
Q 54.890625 11.625 47.5625 5.09375 
Q 40.234375 -1.421875 26.90625 -1.421875 
Q 22.3125 -1.421875 17.546875 -0.640625 
Q 12.796875 0.140625 7.71875 1.703125 
L 7.71875 11.625 
Q 12.109375 9.234375 16.796875 8.0625 
Q 21.484375 6.890625 26.703125 6.890625 
Q 35.15625 6.890625 40.078125 11.328125 
Q 45.015625 15.765625 45.015625 23.390625 
Q 45.015625 31 40.078125 35.4375 
Q 35.15625 39.890625 26.703125 39.890625 
Q 22.75 39.890625 18.8125 39.015625 
Q 14.890625 38.140625 10.796875 36.28125 
z
" id="DejaVuSans-53"/>
      </defs>
      <g transform="translate(346.486817 254.356562)scale(0.1 -0.1)">
       <use xlink:href="#DejaVuSans-50"/>
       <use x="63.623047" xlink:href="#DejaVuSans-48"/>
       <use x="127.246094" xlink:href="#DejaVuSans-49"/>
       <use x="190.869141" xlink:href="#DejaVuSans-53"/>
      </g>
     </g>
    </g>
    <g id="xtick_7">
     <g id="line2d_7">
      <g>
       <use style="stroke:#000000;stroke-width:0.8;" x="412.512874" xlink:href="#m7bbb849725" y="239.758125"/>
      </g>
     </g>
     <g id="text_7">
      <!-- 2016 -->
      <defs>
       <path d="M 33.015625 40.375 
Q 26.375 40.375 22.484375 35.828125 
Q 18.609375 31.296875 18.609375 23.390625 
Q 18.609375 15.53125 22.484375 10.953125 
Q 26.375 6.390625 33.015625 6.390625 
Q 39.65625 6.390625 43.53125 10.953125 
Q 47.40625 15.53125 47.40625 23.390625 
Q 47.40625 31.296875 43.53125 35.828125 
Q 39.65625 40.375 33.015625 40.375 
z
M 52.59375 71.296875 
L 52.59375 62.3125 
Q 48.875 64.0625 45.09375 64.984375 
Q 41.3125 65.921875 37.59375 65.921875 
Q 27.828125 65.921875 22.671875 59.328125 
Q 17.53125 52.734375 16.796875 39.40625 
Q 19.671875 43.65625 24.015625 45.921875 
Q 28.375 48.1875 33.59375 48.1875 
Q 44.578125 48.1875 50.953125 41.515625 
Q 57.328125 34.859375 57.328125 23.390625 
Q 57.328125 12.15625 50.6875 5.359375 
Q 44.046875 -1.421875 33.015625 -1.421875 
Q 20.359375 -1.421875 13.671875 8.265625 
Q 6.984375 17.96875 6.984375 36.375 
Q 6.984375 53.65625 15.1875 63.9375 
Q 23.390625 74.21875 37.203125 74.21875 
Q 40.921875 74.21875 44.703125 73.484375 
Q 48.484375 72.75 52.59375 71.296875 
z
" id="DejaVuSans-54"/>
      </defs>
      <g transform="translate(399.787874 254.356562)scale(0.1 -0.1)">
       <use xlink:href="#DejaVuSans-50"/>
       <use x="63.623047" xlink:href="#DejaVuSans-48"/>
       <use x="127.246094" xlink:href="#DejaVuSans-49"/>
       <use x="190.869141" xlink:href="#DejaVuSans-54"/>
      </g>
     </g>
    </g>
    <g id="xtick_8">
     <g id="line2d_8">
      <g>
       <use style="stroke:#000000;stroke-width:0.8;" x="465.959961" xlink:href="#m7bbb849725" y="239.758125"/>
      </g>
     </g>
     <g id="text_8">
      <!-- 2017 -->
      <defs>
       <path d="M 8.203125 72.90625 
L 55.078125 72.90625 
L 55.078125 68.703125 
L 28.609375 0 
L 18.3125 0 
L 43.21875 64.59375 
L 8.203125 64.59375 
z
" id="DejaVuSans-55"/>
      </defs>
      <g transform="translate(453.234961 254.356562)scale(0.1 -0.1)">
       <use xlink:href="#DejaVuSans-50"/>
       <use x="63.623047" xlink:href="#DejaVuSans-48"/>
       <use x="127.246094" xlink:href="#DejaVuSans-49"/>
       <use x="190.869141" xlink:href="#DejaVuSans-55"/>
      </g>
     </g>
    </g>
    <g id="text_9">
     <!-- year -->
     <defs>
      <path d="M 32.171875 -5.078125 
Q 28.375 -14.84375 24.75 -17.8125 
Q 21.140625 -20.796875 15.09375 -20.796875 
L 7.90625 -20.796875 
L 7.90625 -13.28125 
L 13.1875 -13.28125 
Q 16.890625 -13.28125 18.9375 -11.515625 
Q 21 -9.765625 23.484375 -3.21875 
L 25.09375 0.875 
L 2.984375 54.6875 
L 12.5 54.6875 
L 29.59375 11.921875 
L 46.6875 54.6875 
L 56.203125 54.6875 
z
" id="DejaVuSans-121"/>
      <path d="M 56.203125 29.59375 
L 56.203125 25.203125 
L 14.890625 25.203125 
Q 15.484375 15.921875 20.484375 11.0625 
Q 25.484375 6.203125 34.421875 6.203125 
Q 39.59375 6.203125 44.453125 7.46875 
Q 49.3125 8.734375 54.109375 11.28125 
L 54.109375 2.78125 
Q 49.265625 0.734375 44.1875 -0.34375 
Q 39.109375 -1.421875 33.890625 -1.421875 
Q 20.796875 -1.421875 13.15625 6.1875 
Q 5.515625 13.8125 5.515625 26.8125 
Q 5.515625 40.234375 12.765625 48.109375 
Q 20.015625 56 32.328125 56 
Q 43.359375 56 49.78125 48.890625 
Q 56.203125 41.796875 56.203125 29.59375 
z
M 47.21875 32.234375 
Q 47.125 39.59375 43.09375 43.984375 
Q 39.0625 48.390625 32.421875 48.390625 
Q 24.90625 48.390625 20.390625 44.140625 
Q 15.875 39.890625 15.1875 32.171875 
z
" id="DejaVuSans-101"/>
      <path d="M 34.28125 27.484375 
Q 23.390625 27.484375 19.1875 25 
Q 14.984375 22.515625 14.984375 16.5 
Q 14.984375 11.71875 18.140625 8.90625 
Q 21.296875 6.109375 26.703125 6.109375 
Q 34.1875 6.109375 38.703125 11.40625 
Q 43.21875 16.703125 43.21875 25.484375 
L 43.21875 27.484375 
z
M 52.203125 31.203125 
L 52.203125 0 
L 43.21875 0 
L 43.21875 8.296875 
Q 40.140625 3.328125 35.546875 0.953125 
Q 30.953125 -1.421875 24.3125 -1.421875 
Q 15.921875 -1.421875 10.953125 3.296875 
Q 6 8.015625 6 15.921875 
Q 6 25.140625 12.171875 29.828125 
Q 18.359375 34.515625 30.609375 34.515625 
L 43.21875 34.515625 
L 43.21875 35.40625 
Q 43.21875 41.609375 39.140625 45 
Q 35.0625 48.390625 27.6875 48.390625 
Q 23 48.390625 18.546875 47.265625 
Q 14.109375 46.140625 10.015625 43.890625 
L 10.015625 52.203125 
Q 14.9375 54.109375 19.578125 55.046875 
Q 24.21875 56 28.609375 56 
Q 40.484375 56 46.34375 49.84375 
Q 52.203125 43.703125 52.203125 31.203125 
z
" id="DejaVuSans-97"/>
      <path d="M 41.109375 46.296875 
Q 39.59375 47.171875 37.8125 47.578125 
Q 36.03125 48 33.890625 48 
Q 26.265625 48 22.1875 43.046875 
Q 18.109375 38.09375 18.109375 28.8125 
L 18.109375 0 
L 9.078125 0 
L 9.078125 54.6875 
L 18.109375 54.6875 
L 18.109375 46.1875 
Q 20.953125 51.171875 25.484375 53.578125 
Q 30.03125 56 36.53125 56 
Q 37.453125 56 38.578125 55.875 
Q 39.703125 55.765625 41.0625 55.515625 
z
" id="DejaVuSans-114"/>
     </defs>
     <g transform="translate(284.460156 268.034687)scale(0.1 -0.1)">
      <use xlink:href="#DejaVuSans-121"/>
      <use x="59.179688" xlink:href="#DejaVuSans-101"/>
      <use x="120.703125" xlink:href="#DejaVuSans-97"/>
      <use x="181.982422" xlink:href="#DejaVuSans-114"/>
     </g>
    </g>
   </g>
   <g id="matplotlib.axis_2">
    <g id="ytick_1">
     <g id="line2d_9">
      <defs>
       <path d="M 0 0 
L -3.5 0 
" id="m289dff85f8" style="stroke:#000000;stroke-width:0.8;"/>
      </defs>
      <g>
       <use style="stroke:#000000;stroke-width:0.8;" x="72.415625" xlink:href="#m289dff85f8" y="239.758125"/>
      </g>
     </g>
     <g id="text_10">
      <!-- 0 -->
      <g transform="translate(59.053125 243.557344)scale(0.1 -0.1)">
       <use xlink:href="#DejaVuSans-48"/>
      </g>
     </g>
    </g>
    <g id="ytick_2">
     <g id="line2d_10">
      <g>
       <use style="stroke:#000000;stroke-width:0.8;" x="72.415625" xlink:href="#m289dff85f8" y="212.578125"/>
      </g>
     </g>
     <g id="text_11">
      <!-- 250000 -->
      <g transform="translate(27.240625 216.377344)scale(0.1 -0.1)">
       <use xlink:href="#DejaVuSans-50"/>
       <use x="63.623047" xlink:href="#DejaVuSans-53"/>
       <use x="127.246094" xlink:href="#DejaVuSans-48"/>
       <use x="190.869141" xlink:href="#DejaVuSans-48"/>
       <use x="254.492188" xlink:href="#DejaVuSans-48"/>
       <use x="318.115234" xlink:href="#DejaVuSans-48"/>
      </g>
     </g>
    </g>
    <g id="ytick_3">
     <g id="line2d_11">
      <g>
       <use style="stroke:#000000;stroke-width:0.8;" x="72.415625" xlink:href="#m289dff85f8" y="185.398125"/>
      </g>
     </g>
     <g id="text_12">
      <!-- 500000 -->
      <g transform="translate(27.240625 189.197344)scale(0.1 -0.1)">
       <use xlink:href="#DejaVuSans-53"/>
       <use x="63.623047" xlink:href="#DejaVuSans-48"/>
       <use x="127.246094" xlink:href="#DejaVuSans-48"/>
       <use x="190.869141" xlink:href="#DejaVuSans-48"/>
       <use x="254.492188" xlink:href="#DejaVuSans-48"/>
       <use x="318.115234" xlink:href="#DejaVuSans-48"/>
      </g>
     </g>
    </g>
    <g id="ytick_4">
     <g id="line2d_12">
      <g>
       <use style="stroke:#000000;stroke-width:0.8;" x="72.415625" xlink:href="#m289dff85f8" y="158.218125"/>
      </g>
     </g>
     <g id="text_13">
      <!-- 750000 -->
      <g transform="translate(27.240625 162.017344)scale(0.1 -0.1)">
       <use xlink:href="#DejaVuSans-55"/>
       <use x="63.623047" xlink:href="#DejaVuSans-53"/>
       <use x="127.246094" xlink:href="#DejaVuSans-48"/>
       <use x="190.869141" xlink:href="#DejaVuSans-48"/>
       <use x="254.492188" xlink:href="#DejaVuSans-48"/>
       <use x="318.115234" xlink:href="#DejaVuSans-48"/>
      </g>
     </g>
    </g>
    <g id="ytick_5">
     <g id="line2d_13">
      <g>
       <use style="stroke:#000000;stroke-width:0.8;" x="72.415625" xlink:href="#m289dff85f8" y="131.038125"/>
      </g>
     </g>
     <g id="text_14">
      <!-- 1000000 -->
      <g transform="translate(20.878125 134.837344)scale(0.1 -0.1)">
       <use xlink:href="#DejaVuSans-49"/>
       <use x="63.623047" xlink:href="#DejaVuSans-48"/>
       <use x="127.246094" xlink:href="#DejaVuSans-48"/>
       <use x="190.869141" xlink:href="#DejaVuSans-48"/>
       <use x="254.492188" xlink:href="#DejaVuSans-48"/>
       <use x="318.115234" xlink:href="#DejaVuSans-48"/>
       <use x="381.738281" xlink:href="#DejaVuSans-48"/>
      </g>
     </g>
    </g>
    <g id="ytick_6">
     <g id="line2d_14">
      <g>
       <use style="stroke:#000000;stroke-width:0.8;" x="72.415625" xlink:href="#m289dff85f8" y="103.858125"/>
      </g>
     </g>
     <g id="text_15">
      <!-- 1250000 -->
      <g transform="translate(20.878125 107.657344)scale(0.1 -0.1)">
       <use xlink:href="#DejaVuSans-49"/>
       <use x="63.623047" xlink:href="#DejaVuSans-50"/>
       <use x="127.246094" xlink:href="#DejaVuSans-53"/>
       <use x="190.869141" xlink:href="#DejaVuSans-48"/>
       <use x="254.492188" xlink:href="#DejaVuSans-48"/>
       <use x="318.115234" xlink:href="#DejaVuSans-48"/>
       <use x="381.738281" xlink:href="#DejaVuSans-48"/>
      </g>
     </g>
    </g>
    <g id="ytick_7">
     <g id="line2d_15">
      <g>
       <use style="stroke:#000000;stroke-width:0.8;" x="72.415625" xlink:href="#m289dff85f8" y="76.678125"/>
      </g>
     </g>
     <g id="text_16">
      <!-- 1500000 -->
      <g transform="translate(20.878125 80.477344)scale(0.1 -0.1)">
       <use xlink:href="#DejaVuSans-49"/>
       <use x="63.623047" xlink:href="#DejaVuSans-53"/>
       <use x="127.246094" xlink:href="#DejaVuSans-48"/>
       <use x="190.869141" xlink:href="#DejaVuSans-48"/>
       <use x="254.492188" xlink:href="#DejaVuSans-48"/>
       <use x="318.115234" xlink:href="#DejaVuSans-48"/>
       <use x="381.738281" xlink:href="#DejaVuSans-48"/>
      </g>
     </g>
    </g>
    <g id="ytick_8">
     <g id="line2d_16">
      <g>
       <use style="stroke:#000000;stroke-width:0.8;" x="72.415625" xlink:href="#m289dff85f8" y="49.498125"/>
      </g>
     </g>
     <g id="text_17">
      <!-- 1750000 -->
      <g transform="translate(20.878125 53.297344)scale(0.1 -0.1)">
       <use xlink:href="#DejaVuSans-49"/>
       <use x="63.623047" xlink:href="#DejaVuSans-55"/>
       <use x="127.246094" xlink:href="#DejaVuSans-53"/>
       <use x="190.869141" xlink:href="#DejaVuSans-48"/>
       <use x="254.492188" xlink:href="#DejaVuSans-48"/>
       <use x="318.115234" xlink:href="#DejaVuSans-48"/>
       <use x="381.738281" xlink:href="#DejaVuSans-48"/>
      </g>
     </g>
    </g>
    <g id="ytick_9">
     <g id="line2d_17">
      <g>
       <use style="stroke:#000000;stroke-width:0.8;" x="72.415625" xlink:href="#m289dff85f8" y="22.318125"/>
      </g>
     </g>
     <g id="text_18">
      <!-- 2000000 -->
      <g transform="translate(20.878125 26.117344)scale(0.1 -0.1)">
       <use xlink:href="#DejaVuSans-50"/>
       <use x="63.623047" xlink:href="#DejaVuSans-48"/>
       <use x="127.246094" xlink:href="#DejaVuSans-48"/>
       <use x="190.869141" xlink:href="#DejaVuSans-48"/>
       <use x="254.492188" xlink:href="#DejaVuSans-48"/>
       <use x="318.115234" xlink:href="#DejaVuSans-48"/>
       <use x="381.738281" xlink:href="#DejaVuSans-48"/>
      </g>
     </g>
    </g>
    <g id="text_19">
     <!-- initial claim -->
     <defs>
      <path d="M 9.421875 54.6875 
L 18.40625 54.6875 
L 18.40625 0 
L 9.421875 0 
z
M 9.421875 75.984375 
L 18.40625 75.984375 
L 18.40625 64.59375 
L 9.421875 64.59375 
z
" id="DejaVuSans-105"/>
      <path d="M 54.890625 33.015625 
L 54.890625 0 
L 45.90625 0 
L 45.90625 32.71875 
Q 45.90625 40.484375 42.875 44.328125 
Q 39.84375 48.1875 33.796875 48.1875 
Q 26.515625 48.1875 22.3125 43.546875 
Q 18.109375 38.921875 18.109375 30.90625 
L 18.109375 0 
L 9.078125 0 
L 9.078125 54.6875 
L 18.109375 54.6875 
L 18.109375 46.1875 
Q 21.34375 51.125 25.703125 53.5625 
Q 30.078125 56 35.796875 56 
Q 45.21875 56 50.046875 50.171875 
Q 54.890625 44.34375 54.890625 33.015625 
z
" id="DejaVuSans-110"/>
      <path d="M 18.3125 70.21875 
L 18.3125 54.6875 
L 36.8125 54.6875 
L 36.8125 47.703125 
L 18.3125 47.703125 
L 18.3125 18.015625 
Q 18.3125 11.328125 20.140625 9.421875 
Q 21.96875 7.515625 27.59375 7.515625 
L 36.8125 7.515625 
L 36.8125 0 
L 27.59375 0 
Q 17.1875 0 13.234375 3.875 
Q 9.28125 7.765625 9.28125 18.015625 
L 9.28125 47.703125 
L 2.6875 47.703125 
L 2.6875 54.6875 
L 9.28125 54.6875 
L 9.28125 70.21875 
z
" id="DejaVuSans-116"/>
      <path d="M 9.421875 75.984375 
L 18.40625 75.984375 
L 18.40625 0 
L 9.421875 0 
z
" id="DejaVuSans-108"/>
      <path id="DejaVuSans-32"/>
      <path d="M 48.78125 52.59375 
L 48.78125 44.1875 
Q 44.96875 46.296875 41.140625 47.34375 
Q 37.3125 48.390625 33.40625 48.390625 
Q 24.65625 48.390625 19.8125 42.84375 
Q 14.984375 37.3125 14.984375 27.296875 
Q 14.984375 17.28125 19.8125 11.734375 
Q 24.65625 6.203125 33.40625 6.203125 
Q 37.3125 6.203125 41.140625 7.25 
Q 44.96875 8.296875 48.78125 10.40625 
L 48.78125 2.09375 
Q 45.015625 0.34375 40.984375 -0.53125 
Q 36.96875 -1.421875 32.421875 -1.421875 
Q 20.0625 -1.421875 12.78125 6.34375 
Q 5.515625 14.109375 5.515625 27.296875 
Q 5.515625 40.671875 12.859375 48.328125 
Q 20.21875 56 33.015625 56 
Q 37.15625 56 41.109375 55.140625 
Q 45.0625 54.296875 48.78125 52.59375 
z
" id="DejaVuSans-99"/>
      <path d="M 52 44.1875 
Q 55.375 50.25 60.0625 53.125 
Q 64.75 56 71.09375 56 
Q 79.640625 56 84.28125 50.015625 
Q 88.921875 44.046875 88.921875 33.015625 
L 88.921875 0 
L 79.890625 0 
L 79.890625 32.71875 
Q 79.890625 40.578125 77.09375 44.375 
Q 74.3125 48.1875 68.609375 48.1875 
Q 61.625 48.1875 57.5625 43.546875 
Q 53.515625 38.921875 53.515625 30.90625 
L 53.515625 0 
L 44.484375 0 
L 44.484375 32.71875 
Q 44.484375 40.625 41.703125 44.40625 
Q 38.921875 48.1875 33.109375 48.1875 
Q 26.21875 48.1875 22.15625 43.53125 
Q 18.109375 38.875 18.109375 30.90625 
L 18.109375 0 
L 9.078125 0 
L 9.078125 54.6875 
L 18.109375 54.6875 
L 18.109375 46.1875 
Q 21.1875 51.21875 25.484375 53.609375 
Q 29.78125 56 35.6875 56 
Q 41.65625 56 45.828125 52.96875 
Q 50 49.953125 52 44.1875 
z
" id="DejaVuSans-109"/>
     </defs>
     <g transform="translate(14.798438 159.838125)rotate(-90)scale(0.1 -0.1)">
      <use xlink:href="#DejaVuSans-105"/>
      <use x="27.783203" xlink:href="#DejaVuSans-110"/>
      <use x="91.162109" xlink:href="#DejaVuSans-105"/>
      <use x="118.945312" xlink:href="#DejaVuSans-116"/>
      <use x="158.154297" xlink:href="#DejaVuSans-105"/>
      <use x="185.9375" xlink:href="#DejaVuSans-97"/>
      <use x="247.216797" xlink:href="#DejaVuSans-108"/>
      <use x="275" xlink:href="#DejaVuSans-32"/>
      <use x="306.787109" xlink:href="#DejaVuSans-99"/>
      <use x="361.767578" xlink:href="#DejaVuSans-108"/>
      <use x="389.550781" xlink:href="#DejaVuSans-97"/>
      <use x="450.830078" xlink:href="#DejaVuSans-105"/>
      <use x="478.613281" xlink:href="#DejaVuSans-109"/>
     </g>
    </g>
   </g>
   <g id="line2d_18">
    <path clip-path="url(#p64ff24b0a6)" d="M 92.706534 168.95803 
L 93.728746 149.967255 
L 95.77317 184.566308 
L 96.795382 181.199685 
L 97.817594 184.043148 
L 98.839806 187.346605 
L 99.862018 189.94697 
L 100.88423 188.152872 
L 101.906442 189.455664 
L 103.950867 194.849481 
L 104.973079 194.888294 
L 105.995291 193.972871 
L 107.017503 183.861259 
L 108.039715 192.267707 
L 109.061927 193.095936 
L 110.084139 196.340793 
L 111.106351 194.712494 
L 112.128563 194.685857 
L 113.150775 195.098341 
L 114.172987 194.218252 
L 115.195199 196.393631 
L 116.217411 191.018405 
L 117.239623 193.325987 
L 118.261835 191.409036 
L 119.284047 188.619933 
L 120.306259 183.659583 
L 121.328471 185.173618 
L 122.350683 194.782944 
L 123.372895 196.037464 
L 124.395107 193.500918 
L 126.439532 197.905817 
L 128.483956 198.24198 
L 129.506168 202.598607 
L 130.52838 198.190011 
L 131.550592 199.25438 
L 132.572804 199.131527 
L 133.595016 189.456969 
L 134.617228 196.920705 
L 136.661652 193.976459 
L 137.683864 190.545256 
L 138.706076 195.232066 
L 139.728288 189.223221 
L 140.7505 194.865245 
L 141.772712 176.079625 
L 142.794924 186.292238 
L 143.817136 185.882146 
L 144.839348 182.602934 
L 145.86156 176.819682 
L 146.883772 155.663314 
L 147.905985 179.996046 
L 148.928197 186.925641 
L 149.950409 189.227787 
L 150.972621 191.844569 
L 151.994833 193.617357 
L 153.017045 198.337436 
L 154.039257 201.293315 
L 155.061469 195.476578 
L 156.083681 199.344618 
L 157.105893 201.22156 
L 158.128105 200.8954 
L 159.150317 201.291141 
L 160.172529 191.048412 
L 161.194741 198.245133 
L 162.216953 197.589225 
L 163.239165 194.533432 
L 164.261377 196.516158 
L 165.283589 200.447908 
L 166.305801 198.810694 
L 167.328013 198.281771 
L 168.350225 199.877889 
L 169.372437 196.204023 
L 170.39465 196.891351 
L 171.416862 195.548985 
L 172.439074 193.482544 
L 173.461286 188.228868 
L 174.483498 188.650375 
L 175.50571 199.61794 
L 176.527922 202.673407 
L 177.550134 201.226887 
L 178.572346 202.139483 
L 179.594558 202.263859 
L 180.61677 203.145469 
L 181.638982 201.86029 
L 182.661194 204.003596 
L 183.683406 201.290815 
L 184.705618 204.090028 
L 185.72783 203.620249 
L 186.750042 195.628025 
L 187.772254 200.883984 
L 188.794466 198.753725 
L 189.816678 199.570103 
L 190.83889 195.994846 
L 191.861102 200.291025 
L 192.883314 191.904256 
L 193.905527 199.244704 
L 194.927739 182.26775 
L 195.949951 192.3711 
L 196.972163 193.975807 
L 197.994375 185.649377 
L 199.016587 181.043128 
L 200.038799 169.501195 
L 202.083223 194.434931 
L 203.105435 193.847082 
L 204.127647 196.121722 
L 205.149859 200.073803 
L 206.172071 202.069359 
L 207.194283 203.419335 
L 208.216495 199.702089 
L 209.238707 202.782236 
L 210.260919 205.022302 
L 211.283131 204.601012 
L 212.305343 205.424349 
L 213.327555 197.350367 
L 214.349767 199.479322 
L 215.371979 199.463014 
L 216.394192 203.502614 
L 217.416404 202.675907 
L 218.438616 204.413905 
L 219.460828 203.834102 
L 220.48304 202.112738 
L 221.505252 204.490988 
L 222.527464 198.813086 
L 223.549676 200.124466 
L 224.571888 199.475082 
L 225.5941 199.550642 
L 226.616312 191.683011 
L 227.638524 190.262258 
L 228.660736 202.708523 
L 229.682948 205.736267 
L 230.70516 204.943915 
L 231.727372 205.219955 
L 232.749584 205.853032 
L 233.771796 205.778559 
L 234.794008 206.105262 
L 235.81622 207.171588 
L 236.838432 203.831166 
L 237.860644 206.741492 
L 238.882857 207.028404 
L 239.905069 203.888679 
L 240.927281 200.322119 
L 241.949493 202.225046 
L 242.971705 202.801588 
L 243.993917 200.420728 
L 245.016129 187.73006 
L 246.038341 195.874819 
L 247.060553 200.742322 
L 248.082765 185.380404 
L 249.104977 193.096479 
L 250.127189 196.114547 
L 251.149401 190.009593 
L 252.171613 186.471626 
L 253.193825 179.154988 
L 254.216037 179.087255 
L 255.238249 192.208346 
L 256.260461 199.578801 
L 257.282673 197.497791 
L 258.304885 200.427687 
L 259.327097 201.587946 
L 260.349309 205.99926 
L 261.371521 203.250601 
L 263.415946 206.982198 
L 264.438158 205.388145 
L 265.46037 205.240177 
L 266.482582 200.952152 
L 267.504794 200.682526 
L 268.527006 204.286703 
L 269.549218 206.965781 
L 270.57143 206.967956 
L 271.593642 204.940219 
L 272.615854 206.777152 
L 273.638066 205.021215 
L 274.660278 207.728343 
L 275.68249 203.558279 
L 276.704702 203.122747 
L 277.726914 203.130248 
L 278.749126 203.290828 
L 279.771338 198.030193 
L 280.79355 195.077032 
L 281.815762 202.74364 
L 282.837974 209.132571 
L 283.860186 208.353157 
L 284.882399 209.016893 
L 286.926823 209.337943 
L 287.949035 210.473415 
L 288.971247 214.790794 
L 289.993459 210.083436 
L 291.015671 212.025066 
L 292.037883 212.339376 
L 293.060095 203.235054 
L 294.082307 200.51488 
L 295.104519 205.833462 
L 296.126731 204.388682 
L 297.148943 203.677545 
L 298.171155 200.165889 
L 299.193367 204.200923 
L 300.215579 199.619027 
L 301.237791 204.761592 
L 302.260003 189.375864 
L 303.282215 194.6814 
L 304.304427 194.283593 
L 306.348851 186.644382 
L 307.371064 181.596621 
L 308.393276 194.517993 
L 309.415488 200.857457 
L 310.4377 200.864415 
L 311.459912 200.582178 
L 312.482124 204.667549 
L 313.504336 205.765186 
L 314.526548 205.20343 
L 316.570972 208.667467 
L 317.593184 209.961017 
L 318.615396 207.700728 
L 319.637608 207.233232 
L 320.65982 205.09895 
L 321.682032 207.231058 
L 322.704244 205.171358 
L 323.726456 208.365442 
L 324.748668 210.32349 
L 325.77088 208.512214 
L 327.815304 211.041585 
L 328.837516 205.68843 
L 329.859729 207.012205 
L 330.881941 206.595372 
L 331.904153 206.512527 
L 332.926365 204.668419 
L 333.948577 199.470951 
L 334.970789 208.550158 
L 335.993001 211.749135 
L 337.015213 212.808938 
L 338.037425 210.461564 
L 339.059637 212.636508 
L 340.081849 212.686193 
L 341.104061 212.602043 
L 342.126273 214.235561 
L 343.148485 213.413312 
L 344.170697 213.689243 
L 345.192909 215.016606 
L 346.215121 211.757833 
L 347.237333 209.995373 
L 348.259545 211.907757 
L 349.281757 210.259019 
L 350.303969 210.738474 
L 351.326181 206.126898 
L 352.348393 208.651702 
L 353.370606 200.923124 
L 354.392818 207.752153 
L 355.41503 197.435169 
L 356.437242 204.116774 
L 357.459454 202.703414 
L 359.503878 191.992863 
L 360.52609 182.170772 
L 361.548302 198.059874 
L 362.570514 209.111588 
L 363.592726 206.419898 
L 364.614938 204.515667 
L 365.63715 209.544402 
L 366.659362 209.247053 
L 367.681574 205.449789 
L 368.703786 209.542119 
L 369.725998 211.464615 
L 370.74821 212.792086 
L 371.770422 213.692722 
L 372.792634 212.194017 
L 373.814846 206.253556 
L 375.859271 212.493323 
L 376.881483 214.054434 
L 377.903695 213.351994 
L 378.925907 213.272628 
L 379.948119 212.202606 
L 380.970331 214.67903 
L 381.992543 209.792827 
L 383.014755 211.625303 
L 384.036967 211.14313 
L 385.059179 209.898612 
L 386.081391 206.752364 
L 387.103603 202.307238 
L 388.125815 211.17031 
L 389.148027 214.718387 
L 390.170239 215.393538 
L 391.192451 213.738602 
L 392.214663 214.833956 
L 393.236875 215.116846 
L 395.281299 214.479964 
L 396.303511 218.133391 
L 397.325723 215.911263 
L 398.347936 216.370713 
L 399.370148 215.05955 
L 400.39236 211.869053 
L 401.414572 214.441586 
L 403.458996 211.660528 
L 404.481208 208.10995 
L 405.50342 210.967329 
L 406.525632 206.552428 
L 407.547844 211.205209 
L 408.570056 197.956263 
L 409.592268 205.698758 
L 410.61448 205.006755 
L 411.636692 202.082079 
L 412.658904 195.686516 
L 413.681116 185.082402 
L 414.703328 198.580751 
L 415.72554 207.583963 
L 416.747752 205.844008 
L 417.769964 208.142784 
L 418.792176 211.667051 
L 419.814388 212.700979 
L 420.8366 210.860132 
L 421.858813 212.836009 
L 422.881025 214.003662 
L 423.903237 214.656634 
L 424.925449 214.131081 
L 425.947661 213.11792 
L 426.969873 210.358171 
L 427.992085 213.404397 
L 429.014297 213.117376 
L 430.036509 213.296547 
L 431.058721 211.284466 
L 432.080933 213.135967 
L 433.103145 213.578566 
L 434.125357 212.932552 
L 435.147569 214.502469 
L 436.169781 210.80849 
L 437.191993 212.799044 
L 438.214205 211.092792 
L 439.236417 210.682374 
L 440.258629 207.286396 
L 441.280841 210.563978 
L 442.303053 214.543239 
L 443.325265 215.926484 
L 444.347478 214.584879 
L 445.36969 215.886475 
L 446.391902 216.164689 
L 447.414114 216.308526 
L 448.436326 216.08815 
L 449.458538 218.743527 
L 450.48075 217.399966 
L 451.502962 218.182097 
L 452.525174 217.964549 
L 453.547386 213.819599 
L 454.569598 214.357545 
L 455.59181 213.957347 
L 456.614022 213.040076 
L 457.636234 211.642263 
L 458.658446 215.429851 
L 459.680658 208.469161 
L 460.70287 212.602696 
L 461.725082 201.534347 
L 462.747294 206.569388 
L 463.769506 205.503932 
L 464.791718 202.444008 
L 465.81393 201.645133 
L 466.836143 194.667375 
L 467.858355 201.401818 
L 468.880567 208.878383 
L 469.902779 209.209653 
L 470.924991 211.522128 
L 471.947203 213.025399 
L 472.969415 213.739037 
L 473.991627 216.619356 
L 475.013839 213.234903 
L 476.036051 215.597606 
L 477.058263 215.329502 
L 478.080475 214.940719 
L 479.102687 217.106639 
L 480.124899 213.684568 
L 481.147111 215.202191 
L 482.169323 213.490177 
L 483.191535 216.823097 
L 484.213747 216.378976 
L 485.235959 217.263413 
L 486.258171 216.867781 
L 487.280383 214.520082 
L 488.302595 216.633816 
L 489.324808 214.24676 
L 490.34702 214.873965 
L 491.369232 213.705008 
L 492.391444 212.264359 
L 493.413656 208.845876 
L 494.435868 211.734132 
L 495.45808 215.790257 
L 496.480292 218.147198 
L 497.502504 216.717748 
L 498.524716 218.201123 
L 498.524716 218.201123 
" style="fill:none;stroke:#1f77b4;stroke-linecap:square;stroke-width:1.5;"/>
   </g>
   <g id="line2d_19">
    <path clip-path="url(#p64ff24b0a6)" d="M 93.728746 156.770335 
L 94.750958 158.569725 
L 95.77317 175.807608 
L 96.795382 183.070301 
L 97.817594 183.132274 
L 98.839806 185.696446 
L 99.862018 189.926048 
L 100.88423 191.491038 
L 101.906442 189.174745 
L 102.928655 190.949783 
L 103.950867 194.231282 
L 105.995291 193.535593 
L 107.017503 189.877787 
L 108.039715 188.561789 
L 109.061927 191.456085 
L 110.084139 191.921977 
L 111.106351 193.394406 
L 112.128563 193.412617 
L 113.150775 193.305932 
L 114.172987 193.686411 
L 115.195199 194.409206 
L 116.217411 190.770945 
L 117.239623 191.231415 
L 118.261835 190.154489 
L 119.284047 188.128308 
L 120.306259 182.67384 
L 121.328471 179.799337 
L 122.350683 191.16357 
L 123.372895 197.083242 
L 125.41732 195.548554 
L 126.439532 197.217779 
L 128.483956 197.043257 
L 129.506168 199.739258 
L 130.52838 198.307205 
L 131.550592 199.294512 
L 132.572804 199.29814 
L 133.595016 193.167555 
L 134.617228 191.914904 
L 135.63944 194.35087 
L 136.661652 191.710748 
L 137.683864 190.46676 
L 138.706076 187.376285 
L 139.728288 189.429534 
L 140.7505 187.01844 
L 141.772712 183.775493 
L 142.794924 177.101016 
L 143.817136 182.328681 
L 144.839348 178.783179 
L 145.86156 170.645283 
L 146.883772 160.957692 
L 147.905985 162.285401 
L 148.928197 180.146963 
L 149.950409 185.861537 
L 150.972621 186.916189 
L 151.994833 187.557759 
L 153.017045 192.713884 
L 154.039257 193.486944 
L 155.061469 191.252143 
L 156.083681 194.445219 
L 157.105893 196.969582 
L 158.128105 195.97017 
L 159.150317 196.313705 
L 160.172529 191.03029 
L 161.194741 191.164821 
L 162.216953 193.162445 
L 163.239165 194.866098 
L 164.261377 197.144244 
L 165.283589 195.712762 
L 166.305801 196.287432 
L 167.328013 195.848145 
L 168.350225 197.899427 
L 169.372437 193.511121 
L 170.39465 192.619528 
L 171.416862 193.061553 
L 172.439074 190.360551 
L 173.461286 186.931356 
L 174.483498 182.979567 
L 175.50571 192.149399 
L 176.527922 198.214677 
L 177.550134 199.350927 
L 178.572346 197.95448 
L 179.594558 199.931451 
L 180.61677 199.138118 
L 181.638982 199.279923 
L 182.661194 202.118785 
L 183.683406 201.048369 
L 184.705618 201.338291 
L 185.72783 201.069481 
L 186.750042 195.856602 
L 187.772254 194.329473 
L 188.794466 196.752679 
L 189.816678 194.593285 
L 190.83889 193.569255 
L 191.861102 190.669747 
L 192.883314 191.740293 
L 193.905527 189.814766 
L 194.927739 188.160795 
L 195.949951 181.638866 
L 196.972163 185.737675 
L 197.994375 182.282821 
L 199.016587 175.222884 
L 200.038799 162.565797 
L 201.061011 166.227093 
L 202.083223 183.06073 
L 203.105435 189.578487 
L 204.127647 188.662222 
L 205.149859 190.658695 
L 206.172071 194.080593 
L 207.194283 196.263833 
L 208.216495 193.758326 
L 209.238707 196.42642 
L 210.260919 198.422353 
L 212.305343 198.231036 
L 213.327555 193.750515 
L 214.349767 195.413388 
L 215.371979 195.771362 
L 216.394192 198.589435 
L 217.416404 199.714558 
L 218.438616 198.624008 
L 219.460828 198.554672 
L 220.48304 197.659665 
L 221.505252 198.111101 
L 222.527464 194.658066 
L 223.549676 194.229546 
L 224.571888 194.903671 
L 225.5941 194.263966 
L 226.616312 189.399238 
L 227.638524 185.160915 
L 228.660736 195.776312 
L 229.682948 200.560349 
L 230.70516 202.990312 
L 231.727372 200.173377 
L 232.749584 201.676193 
L 233.771796 202.487767 
L 234.794008 201.043422 
L 235.81622 203.742743 
L 236.838432 203.104621 
L 237.860644 201.356278 
L 238.882857 204.604773 
L 239.905069 196.660178 
L 240.927281 196.509815 
L 241.949493 198.331742 
L 242.971705 196.758628 
L 243.993917 196.532079 
L 245.016129 192.538223 
L 246.038341 195.137986 
L 248.082765 190.94699 
L 249.104977 183.546841 
L 250.127189 189.475448 
L 251.149401 186.434458 
L 252.171613 181.240149 
L 253.193825 170.531222 
L 254.216037 166.108561 
L 255.238249 187.566321 
L 256.260461 193.263341 
L 257.282673 192.041264 
L 259.327097 196.253586 
L 260.349309 198.710733 
L 261.371521 195.785037 
L 262.393734 199.224951 
L 263.415946 199.402688 
L 264.438158 200.697224 
L 265.46037 199.938365 
L 266.482582 197.225203 
L 267.504794 196.795229 
L 268.527006 198.179364 
L 269.549218 199.011945 
L 270.57143 201.339538 
L 271.593642 201.722797 
L 272.615854 201.719314 
L 274.660278 200.463296 
L 275.68249 198.216182 
L 276.704702 199.377893 
L 277.726914 198.20069 
L 278.749126 196.116415 
L 279.771338 192.716935 
L 280.79355 188.411385 
L 281.815762 197.054988 
L 282.837974 203.476535 
L 283.860186 204.11763 
L 284.882399 201.802804 
L 285.904611 204.259764 
L 286.926823 204.611511 
L 287.949035 203.820624 
L 288.971247 205.850511 
L 289.993459 204.325346 
L 291.015671 204.525833 
L 292.037883 205.993814 
L 293.060095 199.458604 
L 294.082307 198.393726 
L 295.104519 200.058524 
L 297.148943 197.960538 
L 298.171155 195.517806 
L 299.193367 195.983865 
L 300.215579 194.526518 
L 301.237791 192.561635 
L 302.260003 185.669473 
L 303.282215 191.220679 
L 304.304427 187.053486 
L 305.326639 179.909314 
L 306.348851 169.020415 
L 307.371064 173.948034 
L 308.393276 189.330371 
L 309.415488 192.383195 
L 310.4377 191.792057 
L 311.459912 197.702803 
L 312.482124 198.121545 
L 313.504336 200.997651 
L 314.526548 199.766805 
L 316.570972 202.596868 
L 317.593184 203.083329 
L 318.615396 201.458138 
L 319.637608 198.183604 
L 320.65982 199.828235 
L 321.682032 200.572009 
L 322.704244 199.719749 
L 323.726456 203.178965 
L 324.748668 201.132117 
L 325.77088 204.357938 
L 326.793092 201.739988 
L 327.815304 203.829535 
L 328.837516 200.511646 
L 329.859729 199.753415 
L 330.881941 201.60298 
L 331.904153 195.473061 
L 332.926365 195.37751 
L 333.948577 189.180341 
L 334.970789 201.000311 
L 335.993001 206.727678 
L 337.015213 206.239154 
L 338.037425 204.776103 
L 339.059637 206.313393 
L 340.081849 205.953282 
L 341.104061 205.256414 
L 342.126273 207.334617 
L 343.148485 207.443123 
L 344.170697 206.898939 
L 345.192909 205.86687 
L 346.215121 202.069182 
L 347.237333 199.330807 
L 348.259545 202.445159 
L 350.303969 200.604655 
L 351.326181 197.581465 
L 352.348393 197.083446 
L 353.370606 195.598402 
L 354.392818 194.797288 
L 355.41503 186.546674 
L 356.437242 194.458914 
L 357.459454 191.231785 
L 358.481666 185.503899 
L 359.503878 174.982348 
L 360.52609 175.005016 
L 361.548302 192.869217 
L 362.570514 195.539404 
L 363.592726 197.274012 
L 364.614938 200.257964 
L 365.63715 198.602427 
L 366.659362 202.810343 
L 367.681574 201.965232 
L 368.703786 204.804614 
L 369.725998 204.755745 
L 370.74821 204.403251 
L 371.770422 205.353277 
L 372.792634 200.998983 
L 373.814846 202.250292 
L 374.837058 200.766526 
L 375.859271 203.58995 
L 376.881483 205.324262 
L 377.903695 204.254311 
L 378.925907 205.379091 
L 379.948119 201.712492 
L 380.970331 204.466444 
L 381.992543 201.796108 
L 384.036967 201.880043 
L 385.059179 198.177298 
L 386.081391 196.210169 
L 387.103603 191.411292 
L 388.125815 200.368784 
L 389.148027 206.04761 
L 390.170239 207.332888 
L 391.192451 204.751172 
L 392.214663 205.706532 
L 393.236875 207.863224 
L 394.259087 208.362228 
L 395.281299 208.713054 
L 396.303511 208.046781 
L 397.325723 206.88844 
L 398.347936 208.779893 
L 399.370148 202.84317 
L 400.39236 201.870829 
L 401.414572 203.457845 
L 402.436784 202.833946 
L 403.458996 200.393644 
L 404.481208 199.929477 
L 405.50342 199.021074 
L 406.525632 195.551041 
L 407.547844 198.367918 
L 408.570056 192.380168 
L 409.592268 197.269513 
L 410.61448 193.897878 
L 411.636692 188.564476 
L 412.658904 175.038971 
L 413.681116 180.366618 
L 414.703328 195.895816 
L 415.72554 194.507794 
L 417.769964 201.775828 
L 418.792176 201.554698 
L 419.814388 202.814926 
L 420.8366 200.670356 
L 421.858813 203.638314 
L 422.881025 206.21933 
L 423.903237 207.103213 
L 424.925449 203.681656 
L 425.947661 203.832481 
L 426.969873 203.427404 
L 427.992085 204.97205 
L 429.014297 205.969138 
L 430.036509 206.444353 
L 431.058721 204.922684 
L 432.080933 207.094835 
L 433.103145 205.381551 
L 434.125357 204.856144 
L 435.147569 205.198687 
L 436.169781 200.023866 
L 437.191993 204.545117 
L 438.214205 201.04346 
L 439.236417 197.076933 
L 440.258629 193.660526 
L 441.280841 202.503899 
L 442.303053 207.883932 
L 443.325265 208.278222 
L 444.347478 205.652844 
L 445.36969 209.053752 
L 446.391902 206.871134 
L 447.414114 208.305711 
L 448.436326 210.140137 
L 449.458538 209.455602 
L 450.48075 207.485133 
L 451.502962 209.168442 
L 452.525174 203.960971 
L 453.547386 202.63353 
L 454.569598 205.090446 
L 455.59181 203.893619 
L 456.614022 203.304336 
L 457.636234 203.305063 
L 458.658446 200.696255 
L 459.680658 199.073762 
L 460.70287 199.046283 
L 461.725082 191.94998 
L 462.747294 198.18289 
L 463.769506 194.96134 
L 464.791718 188.85662 
L 465.81393 179.560704 
L 466.836143 183.146639 
L 467.858355 198.310049 
L 468.880567 199.236934 
L 469.902779 200.813758 
L 470.924991 203.808457 
L 471.947203 201.250439 
L 472.969415 205.128614 
L 473.991627 202.82271 
L 475.013839 203.727318 
L 476.036051 205.909023 
L 477.058263 206.45563 
L 478.080475 205.925674 
L 479.102687 204.749368 
L 480.124899 204.35095 
L 481.147111 204.71844 
L 482.169323 206.569483 
L 483.191535 210.270234 
L 484.213747 207.738145 
L 485.235959 208.279092 
L 486.258171 205.257107 
L 487.280383 208.992699 
L 488.302595 205.356593 
L 489.324808 204.598169 
L 490.34702 206.265961 
L 491.369232 204.100122 
L 492.391444 199.831626 
L 493.413656 194.465006 
L 494.435868 205.33191 
L 495.45808 208.002807 
L 496.480292 208.541664 
L 497.502504 208.248426 
L 498.524716 209.577368 
L 498.524716 209.577368 
" style="fill:none;stroke:#ff8c00;stroke-linecap:square;stroke-width:1.5;"/>
   </g>
   <g id="patch_3">
    <path d="M 72.415625 239.758125 
L 72.415625 22.318125 
" style="fill:none;stroke:#000000;stroke-linecap:square;stroke-linejoin:miter;stroke-width:0.8;"/>
   </g>
   <g id="patch_4">
    <path d="M 518.815625 239.758125 
L 518.815625 22.318125 
" style="fill:none;stroke:#000000;stroke-linecap:square;stroke-linejoin:miter;stroke-width:0.8;"/>
   </g>
   <g id="patch_5">
    <path d="M 72.415625 239.758125 
L 518.815625 239.758125 
" style="fill:none;stroke:#000000;stroke-linecap:square;stroke-linejoin:miter;stroke-width:0.8;"/>
   </g>
   <g id="patch_6">
    <path d="M 72.415625 22.318125 
L 518.815625 22.318125 
" style="fill:none;stroke:#000000;stroke-linecap:square;stroke-linejoin:miter;stroke-width:0.8;"/>
   </g>
   <g id="text_20">
    <!-- Before Training - Prior Predictive (90% CI) -->
    <defs>
     <path d="M 19.671875 34.8125 
L 19.671875 8.109375 
L 35.5 8.109375 
Q 43.453125 8.109375 47.28125 11.40625 
Q 51.125 14.703125 51.125 21.484375 
Q 51.125 28.328125 47.28125 31.5625 
Q 43.453125 34.8125 35.5 34.8125 
z
M 19.671875 64.796875 
L 19.671875 42.828125 
L 34.28125 42.828125 
Q 41.5 42.828125 45.03125 45.53125 
Q 48.578125 48.25 48.578125 53.8125 
Q 48.578125 59.328125 45.03125 62.0625 
Q 41.5 64.796875 34.28125 64.796875 
z
M 9.8125 72.90625 
L 35.015625 72.90625 
Q 46.296875 72.90625 52.390625 68.21875 
Q 58.5 63.53125 58.5 54.890625 
Q 58.5 48.1875 55.375 44.234375 
Q 52.25 40.28125 46.1875 39.3125 
Q 53.46875 37.75 57.5 32.78125 
Q 61.53125 27.828125 61.53125 20.40625 
Q 61.53125 10.640625 54.890625 5.3125 
Q 48.25 0 35.984375 0 
L 9.8125 0 
z
" id="DejaVuSans-66"/>
     <path d="M 37.109375 75.984375 
L 37.109375 68.5 
L 28.515625 68.5 
Q 23.6875 68.5 21.796875 66.546875 
Q 19.921875 64.59375 19.921875 59.515625 
L 19.921875 54.6875 
L 34.71875 54.6875 
L 34.71875 47.703125 
L 19.921875 47.703125 
L 19.921875 0 
L 10.890625 0 
L 10.890625 47.703125 
L 2.296875 47.703125 
L 2.296875 54.6875 
L 10.890625 54.6875 
L 10.890625 58.5 
Q 10.890625 67.625 15.140625 71.796875 
Q 19.390625 75.984375 28.609375 75.984375 
z
" id="DejaVuSans-102"/>
     <path d="M 30.609375 48.390625 
Q 23.390625 48.390625 19.1875 42.75 
Q 14.984375 37.109375 14.984375 27.296875 
Q 14.984375 17.484375 19.15625 11.84375 
Q 23.34375 6.203125 30.609375 6.203125 
Q 37.796875 6.203125 41.984375 11.859375 
Q 46.1875 17.53125 46.1875 27.296875 
Q 46.1875 37.015625 41.984375 42.703125 
Q 37.796875 48.390625 30.609375 48.390625 
z
M 30.609375 56 
Q 42.328125 56 49.015625 48.375 
Q 55.71875 40.765625 55.71875 27.296875 
Q 55.71875 13.875 49.015625 6.21875 
Q 42.328125 -1.421875 30.609375 -1.421875 
Q 18.84375 -1.421875 12.171875 6.21875 
Q 5.515625 13.875 5.515625 27.296875 
Q 5.515625 40.765625 12.171875 48.375 
Q 18.84375 56 30.609375 56 
z
" id="DejaVuSans-111"/>
     <path d="M -0.296875 72.90625 
L 61.375 72.90625 
L 61.375 64.59375 
L 35.5 64.59375 
L 35.5 0 
L 25.59375 0 
L 25.59375 64.59375 
L -0.296875 64.59375 
z
" id="DejaVuSans-84"/>
     <path d="M 45.40625 27.984375 
Q 45.40625 37.75 41.375 43.109375 
Q 37.359375 48.484375 30.078125 48.484375 
Q 22.859375 48.484375 18.828125 43.109375 
Q 14.796875 37.75 14.796875 27.984375 
Q 14.796875 18.265625 18.828125 12.890625 
Q 22.859375 7.515625 30.078125 7.515625 
Q 37.359375 7.515625 41.375 12.890625 
Q 45.40625 18.265625 45.40625 27.984375 
z
M 54.390625 6.78125 
Q 54.390625 -7.171875 48.1875 -13.984375 
Q 42 -20.796875 29.203125 -20.796875 
Q 24.46875 -20.796875 20.265625 -20.09375 
Q 16.0625 -19.390625 12.109375 -17.921875 
L 12.109375 -9.1875 
Q 16.0625 -11.328125 19.921875 -12.34375 
Q 23.78125 -13.375 27.78125 -13.375 
Q 36.625 -13.375 41.015625 -8.765625 
Q 45.40625 -4.15625 45.40625 5.171875 
L 45.40625 9.625 
Q 42.625 4.78125 38.28125 2.390625 
Q 33.9375 0 27.875 0 
Q 17.828125 0 11.671875 7.65625 
Q 5.515625 15.328125 5.515625 27.984375 
Q 5.515625 40.671875 11.671875 48.328125 
Q 17.828125 56 27.875 56 
Q 33.9375 56 38.28125 53.609375 
Q 42.625 51.21875 45.40625 46.390625 
L 45.40625 54.6875 
L 54.390625 54.6875 
z
" id="DejaVuSans-103"/>
     <path d="M 4.890625 31.390625 
L 31.203125 31.390625 
L 31.203125 23.390625 
L 4.890625 23.390625 
z
" id="DejaVuSans-45"/>
     <path d="M 19.671875 64.796875 
L 19.671875 37.40625 
L 32.078125 37.40625 
Q 38.96875 37.40625 42.71875 40.96875 
Q 46.484375 44.53125 46.484375 51.125 
Q 46.484375 57.671875 42.71875 61.234375 
Q 38.96875 64.796875 32.078125 64.796875 
z
M 9.8125 72.90625 
L 32.078125 72.90625 
Q 44.34375 72.90625 50.609375 67.359375 
Q 56.890625 61.8125 56.890625 51.125 
Q 56.890625 40.328125 50.609375 34.8125 
Q 44.34375 29.296875 32.078125 29.296875 
L 19.671875 29.296875 
L 19.671875 0 
L 9.8125 0 
z
" id="DejaVuSans-80"/>
     <path d="M 45.40625 46.390625 
L 45.40625 75.984375 
L 54.390625 75.984375 
L 54.390625 0 
L 45.40625 0 
L 45.40625 8.203125 
Q 42.578125 3.328125 38.25 0.953125 
Q 33.9375 -1.421875 27.875 -1.421875 
Q 17.96875 -1.421875 11.734375 6.484375 
Q 5.515625 14.40625 5.515625 27.296875 
Q 5.515625 40.1875 11.734375 48.09375 
Q 17.96875 56 27.875 56 
Q 33.9375 56 38.25 53.625 
Q 42.578125 51.265625 45.40625 46.390625 
z
M 14.796875 27.296875 
Q 14.796875 17.390625 18.875 11.75 
Q 22.953125 6.109375 30.078125 6.109375 
Q 37.203125 6.109375 41.296875 11.75 
Q 45.40625 17.390625 45.40625 27.296875 
Q 45.40625 37.203125 41.296875 42.84375 
Q 37.203125 48.484375 30.078125 48.484375 
Q 22.953125 48.484375 18.875 42.84375 
Q 14.796875 37.203125 14.796875 27.296875 
z
" id="DejaVuSans-100"/>
     <path d="M 2.984375 54.6875 
L 12.5 54.6875 
L 29.59375 8.796875 
L 46.6875 54.6875 
L 56.203125 54.6875 
L 35.6875 0 
L 23.484375 0 
z
" id="DejaVuSans-118"/>
     <path d="M 31 75.875 
Q 24.46875 64.65625 21.28125 53.65625 
Q 18.109375 42.671875 18.109375 31.390625 
Q 18.109375 20.125 21.3125 9.0625 
Q 24.515625 -2 31 -13.1875 
L 23.1875 -13.1875 
Q 15.875 -1.703125 12.234375 9.375 
Q 8.59375 20.453125 8.59375 31.390625 
Q 8.59375 42.28125 12.203125 53.3125 
Q 15.828125 64.359375 23.1875 75.875 
z
" id="DejaVuSans-40"/>
     <path d="M 10.984375 1.515625 
L 10.984375 10.5 
Q 14.703125 8.734375 18.5 7.8125 
Q 22.3125 6.890625 25.984375 6.890625 
Q 35.75 6.890625 40.890625 13.453125 
Q 46.046875 20.015625 46.78125 33.40625 
Q 43.953125 29.203125 39.59375 26.953125 
Q 35.25 24.703125 29.984375 24.703125 
Q 19.046875 24.703125 12.671875 31.3125 
Q 6.296875 37.9375 6.296875 49.421875 
Q 6.296875 60.640625 12.9375 67.421875 
Q 19.578125 74.21875 30.609375 74.21875 
Q 43.265625 74.21875 49.921875 64.515625 
Q 56.59375 54.828125 56.59375 36.375 
Q 56.59375 19.140625 48.40625 8.859375 
Q 40.234375 -1.421875 26.421875 -1.421875 
Q 22.703125 -1.421875 18.890625 -0.6875 
Q 15.09375 0.046875 10.984375 1.515625 
z
M 30.609375 32.421875 
Q 37.25 32.421875 41.125 36.953125 
Q 45.015625 41.5 45.015625 49.421875 
Q 45.015625 57.28125 41.125 61.84375 
Q 37.25 66.40625 30.609375 66.40625 
Q 23.96875 66.40625 20.09375 61.84375 
Q 16.21875 57.28125 16.21875 49.421875 
Q 16.21875 41.5 20.09375 36.953125 
Q 23.96875 32.421875 30.609375 32.421875 
z
" id="DejaVuSans-57"/>
     <path d="M 72.703125 32.078125 
Q 68.453125 32.078125 66.03125 28.46875 
Q 63.625 24.859375 63.625 18.40625 
Q 63.625 12.0625 66.03125 8.421875 
Q 68.453125 4.78125 72.703125 4.78125 
Q 76.859375 4.78125 79.265625 8.421875 
Q 81.6875 12.0625 81.6875 18.40625 
Q 81.6875 24.8125 79.265625 28.4375 
Q 76.859375 32.078125 72.703125 32.078125 
z
M 72.703125 38.28125 
Q 80.421875 38.28125 84.953125 32.90625 
Q 89.5 27.546875 89.5 18.40625 
Q 89.5 9.28125 84.9375 3.921875 
Q 80.375 -1.421875 72.703125 -1.421875 
Q 64.890625 -1.421875 60.34375 3.921875 
Q 55.8125 9.28125 55.8125 18.40625 
Q 55.8125 27.59375 60.375 32.9375 
Q 64.9375 38.28125 72.703125 38.28125 
z
M 22.3125 68.015625 
Q 18.109375 68.015625 15.6875 64.375 
Q 13.28125 60.75 13.28125 54.390625 
Q 13.28125 47.953125 15.671875 44.328125 
Q 18.0625 40.71875 22.3125 40.71875 
Q 26.5625 40.71875 28.96875 44.328125 
Q 31.390625 47.953125 31.390625 54.390625 
Q 31.390625 60.6875 28.953125 64.34375 
Q 26.515625 68.015625 22.3125 68.015625 
z
M 66.40625 74.21875 
L 74.21875 74.21875 
L 28.609375 -1.421875 
L 20.796875 -1.421875 
z
M 22.3125 74.21875 
Q 30.03125 74.21875 34.609375 68.875 
Q 39.203125 63.53125 39.203125 54.390625 
Q 39.203125 45.171875 34.640625 39.84375 
Q 30.078125 34.515625 22.3125 34.515625 
Q 14.546875 34.515625 10.03125 39.859375 
Q 5.515625 45.21875 5.515625 54.390625 
Q 5.515625 63.484375 10.046875 68.84375 
Q 14.59375 74.21875 22.3125 74.21875 
z
" id="DejaVuSans-37"/>
     <path d="M 64.40625 67.28125 
L 64.40625 56.890625 
Q 59.421875 61.53125 53.78125 63.8125 
Q 48.140625 66.109375 41.796875 66.109375 
Q 29.296875 66.109375 22.65625 58.46875 
Q 16.015625 50.828125 16.015625 36.375 
Q 16.015625 21.96875 22.65625 14.328125 
Q 29.296875 6.6875 41.796875 6.6875 
Q 48.140625 6.6875 53.78125 8.984375 
Q 59.421875 11.28125 64.40625 15.921875 
L 64.40625 5.609375 
Q 59.234375 2.09375 53.4375 0.328125 
Q 47.65625 -1.421875 41.21875 -1.421875 
Q 24.65625 -1.421875 15.125 8.703125 
Q 5.609375 18.84375 5.609375 36.375 
Q 5.609375 53.953125 15.125 64.078125 
Q 24.65625 74.21875 41.21875 74.21875 
Q 47.75 74.21875 53.53125 72.484375 
Q 59.328125 70.75 64.40625 67.28125 
z
" id="DejaVuSans-67"/>
     <path d="M 9.8125 72.90625 
L 19.671875 72.90625 
L 19.671875 0 
L 9.8125 0 
z
" id="DejaVuSans-73"/>
     <path d="M 8.015625 75.875 
L 15.828125 75.875 
Q 23.140625 64.359375 26.78125 53.3125 
Q 30.421875 42.28125 30.421875 31.390625 
Q 30.421875 20.453125 26.78125 9.375 
Q 23.140625 -1.703125 15.828125 -13.1875 
L 8.015625 -13.1875 
Q 14.5 -2 17.703125 9.0625 
Q 20.90625 20.125 20.90625 31.390625 
Q 20.90625 42.671875 17.703125 53.65625 
Q 14.5 64.65625 8.015625 75.875 
z
" id="DejaVuSans-41"/>
    </defs>
    <g transform="translate(170.042188 16.318125)scale(0.12 -0.12)">
     <use xlink:href="#DejaVuSans-66"/>
     <use x="68.603516" xlink:href="#DejaVuSans-101"/>
     <use x="130.126953" xlink:href="#DejaVuSans-102"/>
     <use x="165.332031" xlink:href="#DejaVuSans-111"/>
     <use x="226.513672" xlink:href="#DejaVuSans-114"/>
     <use x="267.595703" xlink:href="#DejaVuSans-101"/>
     <use x="329.119141" xlink:href="#DejaVuSans-32"/>
     <use x="360.90625" xlink:href="#DejaVuSans-84"/>
     <use x="421.771484" xlink:href="#DejaVuSans-114"/>
     <use x="462.884766" xlink:href="#DejaVuSans-97"/>
     <use x="524.164062" xlink:href="#DejaVuSans-105"/>
     <use x="551.947266" xlink:href="#DejaVuSans-110"/>
     <use x="615.326172" xlink:href="#DejaVuSans-105"/>
     <use x="643.109375" xlink:href="#DejaVuSans-110"/>
     <use x="706.488281" xlink:href="#DejaVuSans-103"/>
     <use x="769.964844" xlink:href="#DejaVuSans-32"/>
     <use x="801.751953" xlink:href="#DejaVuSans-45"/>
     <use x="837.835938" xlink:href="#DejaVuSans-32"/>
     <use x="869.623047" xlink:href="#DejaVuSans-80"/>
     <use x="929.910156" xlink:href="#DejaVuSans-114"/>
     <use x="971.023438" xlink:href="#DejaVuSans-105"/>
     <use x="998.806641" xlink:href="#DejaVuSans-111"/>
     <use x="1059.988281" xlink:href="#DejaVuSans-114"/>
     <use x="1101.101562" xlink:href="#DejaVuSans-32"/>
     <use x="1132.888672" xlink:href="#DejaVuSans-80"/>
     <use x="1193.175781" xlink:href="#DejaVuSans-114"/>
     <use x="1234.257812" xlink:href="#DejaVuSans-101"/>
     <use x="1295.78125" xlink:href="#DejaVuSans-100"/>
     <use x="1359.257812" xlink:href="#DejaVuSans-105"/>
     <use x="1387.041016" xlink:href="#DejaVuSans-99"/>
     <use x="1442.021484" xlink:href="#DejaVuSans-116"/>
     <use x="1481.230469" xlink:href="#DejaVuSans-105"/>
     <use x="1509.013672" xlink:href="#DejaVuSans-118"/>
     <use x="1568.193359" xlink:href="#DejaVuSans-101"/>
     <use x="1629.716797" xlink:href="#DejaVuSans-32"/>
     <use x="1661.503906" xlink:href="#DejaVuSans-40"/>
     <use x="1700.517578" xlink:href="#DejaVuSans-57"/>
     <use x="1764.140625" xlink:href="#DejaVuSans-48"/>
     <use x="1827.763672" xlink:href="#DejaVuSans-37"/>
     <use x="1922.783203" xlink:href="#DejaVuSans-32"/>
     <use x="1954.570312" xlink:href="#DejaVuSans-67"/>
     <use x="2024.394531" xlink:href="#DejaVuSans-73"/>
     <use x="2053.886719" xlink:href="#DejaVuSans-41"/>
    </g>
   </g>
   <g id="legend_1">
    <g id="patch_7">
     <path d="M 403.80625 59.674375 
L 511.815625 59.674375 
Q 513.815625 59.674375 513.815625 57.674375 
L 513.815625 29.318125 
Q 513.815625 27.318125 511.815625 27.318125 
L 403.80625 27.318125 
Q 401.80625 27.318125 401.80625 29.318125 
L 401.80625 57.674375 
Q 401.80625 59.674375 403.80625 59.674375 
z
" style="fill:#ffffff;opacity:0.8;stroke:#cccccc;stroke-linejoin:miter;"/>
    </g>
    <g id="line2d_20">
     <path d="M 405.80625 35.416562 
L 425.80625 35.416562 
" style="fill:none;stroke:#1f77b4;stroke-linecap:square;stroke-width:1.5;"/>
    </g>
    <g id="line2d_21"/>
    <g id="text_21">
     <!-- Actual data -->
     <defs>
      <path d="M 34.1875 63.1875 
L 20.796875 26.90625 
L 47.609375 26.90625 
z
M 28.609375 72.90625 
L 39.796875 72.90625 
L 67.578125 0 
L 57.328125 0 
L 50.6875 18.703125 
L 17.828125 18.703125 
L 11.1875 0 
L 0.78125 0 
z
" id="DejaVuSans-65"/>
      <path d="M 8.5 21.578125 
L 8.5 54.6875 
L 17.484375 54.6875 
L 17.484375 21.921875 
Q 17.484375 14.15625 20.5 10.265625 
Q 23.53125 6.390625 29.59375 6.390625 
Q 36.859375 6.390625 41.078125 11.03125 
Q 45.3125 15.671875 45.3125 23.6875 
L 45.3125 54.6875 
L 54.296875 54.6875 
L 54.296875 0 
L 45.3125 0 
L 45.3125 8.40625 
Q 42.046875 3.421875 37.71875 1 
Q 33.40625 -1.421875 27.6875 -1.421875 
Q 18.265625 -1.421875 13.375 4.4375 
Q 8.5 10.296875 8.5 21.578125 
z
M 31.109375 56 
z
" id="DejaVuSans-117"/>
     </defs>
     <g transform="translate(433.80625 38.916562)scale(0.1 -0.1)">
      <use xlink:href="#DejaVuSans-65"/>
      <use x="68.392578" xlink:href="#DejaVuSans-99"/>
      <use x="123.373047" xlink:href="#DejaVuSans-116"/>
      <use x="162.582031" xlink:href="#DejaVuSans-117"/>
      <use x="225.960938" xlink:href="#DejaVuSans-97"/>
      <use x="287.240234" xlink:href="#DejaVuSans-108"/>
      <use x="315.023438" xlink:href="#DejaVuSans-32"/>
      <use x="346.810547" xlink:href="#DejaVuSans-100"/>
      <use x="410.287109" xlink:href="#DejaVuSans-97"/>
      <use x="471.566406" xlink:href="#DejaVuSans-116"/>
      <use x="510.775391" xlink:href="#DejaVuSans-97"/>
     </g>
    </g>
    <g id="line2d_22">
     <path d="M 405.80625 50.094687 
L 425.80625 50.094687 
" style="fill:none;stroke:#ff8c00;stroke-linecap:square;stroke-width:1.5;"/>
    </g>
    <g id="line2d_23"/>
    <g id="text_22">
     <!-- Prior Predictive -->
     <g transform="translate(433.80625 53.594687)scale(0.1 -0.1)">
      <use xlink:href="#DejaVuSans-80"/>
      <use x="60.287109" xlink:href="#DejaVuSans-114"/>
      <use x="101.400391" xlink:href="#DejaVuSans-105"/>
      <use x="129.183594" xlink:href="#DejaVuSans-111"/>
      <use x="190.365234" xlink:href="#DejaVuSans-114"/>
      <use x="231.478516" xlink:href="#DejaVuSans-32"/>
      <use x="263.265625" xlink:href="#DejaVuSans-80"/>
      <use x="323.552734" xlink:href="#DejaVuSans-114"/>
      <use x="364.634766" xlink:href="#DejaVuSans-101"/>
      <use x="426.158203" xlink:href="#DejaVuSans-100"/>
      <use x="489.634766" xlink:href="#DejaVuSans-105"/>
      <use x="517.417969" xlink:href="#DejaVuSans-99"/>
      <use x="572.398438" xlink:href="#DejaVuSans-116"/>
      <use x="611.607422" xlink:href="#DejaVuSans-105"/>
      <use x="639.390625" xlink:href="#DejaVuSans-118"/>
      <use x="698.570312" xlink:href="#DejaVuSans-101"/>
     </g>
    </g>
   </g>
  </g>
 </g>
 <defs>
  <clipPath id="p64ff24b0a6">
   <rect height="217.44" width="446.4" x="72.415625" y="22.318125"/>
  </clipPath>
 </defs>
</svg>
