<?xml version="1.0" encoding="utf-8" standalone="no"?>
<!DOCTYPE svg PUBLIC "-//W3C//DTD SVG 1.1//EN"
  "http://www.w3.org/Graphics/SVG/1.1/DTD/svg11.dtd">
<!-- Created with matplotlib (https://matplotlib.org/) -->
<svg height="263.63625pt" version="1.1" viewBox="0 0 509.475 263.63625" width="509.475pt" xmlns="http://www.w3.org/2000/svg" xmlns:xlink="http://www.w3.org/1999/xlink">
 <defs>
  <style type="text/css">
*{stroke-linecap:butt;stroke-linejoin:round;}
  </style>
 </defs>
 <g id="figure_1">
  <g id="patch_1">
   <path d="M 0 263.63625 
L 509.475 263.63625 
L 509.475 0 
L 0 0 
z
" style="fill:none;"/>
  </g>
  <g id="axes_1">
   <g id="patch_2">
    <path d="M 52.375 239.758125 
L 498.775 239.758125 
L 498.775 22.318125 
L 52.375 22.318125 
z
" style="fill:#ffffff;"/>
   </g>
   <g id="PolyCollection_1">
    <defs>
     <path d="M 276.594644 -64.407263 
L 276.594644 -48.556442 
L 278.633931 -48.534222 
L 280.673218 -43.551897 
L 282.712506 -45.85015 
L 284.751793 -43.898865 
L 286.79108 -41.713107 
L 288.830368 -57.921822 
L 290.869655 -59.990291 
L 292.908942 -57.411661 
L 294.94823 -58.55444 
L 296.987517 -63.088438 
L 299.026804 -70.231294 
L 301.066092 -67.312365 
L 303.105379 -71.188107 
L 305.144667 -78.427503 
L 307.183954 -98.257581 
L 309.223241 -82.700814 
L 311.262529 -91.611943 
L 313.301816 -109.392276 
L 315.341103 -129.172795 
L 317.380391 -127.990622 
L 319.419678 -90.874417 
L 321.458965 -72.275343 
L 323.498253 -74.066932 
L 325.53754 -68.786804 
L 327.576827 -58.833318 
L 329.616115 -55.114083 
L 331.655402 -60.019932 
L 333.694689 -55.291829 
L 335.733977 -47.438767 
L 337.773264 -47.685295 
L 339.812551 -48.680364 
L 341.851839 -57.220579 
L 343.891126 -58.770827 
L 345.930413 -55.264877 
L 347.969701 -52.724407 
L 350.008988 -49.65329 
L 352.048275 -49.18553 
L 354.087563 -48.841042 
L 356.12685 -49.683414 
L 358.166138 -46.382969 
L 360.205425 -54.645017 
L 362.244712 -55.356072 
L 364.284 -55.80446 
L 366.323287 -59.818345 
L 368.362574 -70.811515 
L 370.401862 -78.861539 
L 372.441149 -55.627678 
L 374.480436 -43.362585 
L 376.519724 -42.030959 
L 378.559011 -42.897426 
L 380.598298 -42.117107 
L 382.637586 -38.810397 
L 384.676873 -40.396105 
L 386.71616 -34.374542 
L 388.755448 -37.085548 
L 390.794735 -35.689407 
L 392.834022 -33.761761 
L 394.87331 -48.095104 
L 396.912597 -50.2704 
L 398.951884 -46.866966 
L 400.991172 -48.425678 
L 403.030459 -53.505734 
L 405.069746 -60.845815 
L 407.109034 -56.53 
L 409.148321 -61.738893 
L 411.187608 -68.865268 
L 413.226896 -84.060864 
L 415.266183 -71.638808 
L 417.305471 -78.793914 
L 419.344758 -92.7616 
L 421.384045 -112.620872 
L 423.423333 -112.044629 
L 425.46262 -77.765944 
L 427.501907 -61.41171 
L 429.541195 -61.523049 
L 431.580482 -57.229429 
L 433.619769 -48.774214 
L 435.659057 -46.071199 
L 437.698344 -49.906925 
L 439.737631 -44.491966 
L 441.776919 -39.47214 
L 443.816206 -39.228573 
L 445.855493 -39.565631 
L 447.894781 -49.226352 
L 449.934068 -50.556927 
L 451.973355 -45.94556 
L 454.012643 -42.660422 
L 456.05193 -40.356719 
L 458.091217 -40.543543 
L 460.130505 -38.973712 
L 462.169792 -41.011567 
L 464.209079 -37.962645 
L 466.248367 -45.612349 
L 468.287654 -46.293316 
L 470.326942 -47.782142 
L 472.366229 -48.766258 
L 474.405516 -59.750982 
L 476.444804 -66.297022 
L 478.484091 -45.452591 
L 478.484091 -61.149708 
L 478.484091 -61.149708 
L 476.444804 -86.278331 
L 474.405516 -76.637036 
L 472.366229 -66.017925 
L 470.326942 -62.379975 
L 468.287654 -61.526799 
L 466.248367 -60.258987 
L 464.209079 -51.694457 
L 462.169792 -56.086685 
L 460.130505 -53.55488 
L 458.091217 -54.30498 
L 456.05193 -53.977911 
L 454.012643 -57.13755 
L 451.973355 -61.498358 
L 449.934068 -66.280418 
L 447.894781 -64.255259 
L 445.855493 -54.294474 
L 443.816206 -53.989775 
L 441.776919 -53.280156 
L 439.737631 -59.513759 
L 437.698344 -65.377649 
L 435.659057 -60.588421 
L 433.619769 -64.698995 
L 431.580482 -75.746621 
L 429.541195 -79.927273 
L 427.501907 -77.799363 
L 425.46262 -97.669544 
L 423.423333 -137.98727 
L 421.384045 -139.930583 
L 419.344758 -115.574078 
L 417.305471 -99.757464 
L 415.266183 -90.609716 
L 413.226896 -104.182568 
L 411.187608 -86.672675 
L 409.148321 -80.046314 
L 407.109034 -74.350883 
L 405.069746 -76.747367 
L 403.030459 -69.210571 
L 400.991172 -65.054969 
L 398.951884 -62.882013 
L 396.912597 -66.654696 
L 394.87331 -62.238302 
L 392.834022 -48.312061 
L 390.794735 -49.444842 
L 388.755448 -51.0195 
L 386.71616 -47.437742 
L 384.676873 -53.345152 
L 382.637586 -54.494888 
L 380.598298 -54.692682 
L 378.559011 -58.913998 
L 376.519724 -57.071204 
L 374.480436 -58.64128 
L 372.441149 -71.773043 
L 370.401862 -99.420617 
L 368.362574 -88.244732 
L 366.323287 -77.290087 
L 364.284 -73.853384 
L 362.244712 -73.152256 
L 360.205425 -70.759434 
L 358.166138 -61.2192 
L 356.12685 -65.427531 
L 354.087563 -63.594173 
L 352.048275 -64.609543 
L 350.008988 -64.698224 
L 347.969701 -68.484952 
L 345.930413 -71.46143 
L 343.891126 -78.6664 
L 341.851839 -75.47633 
L 339.812551 -64.386208 
L 337.773264 -63.709648 
L 335.733977 -64.150176 
L 333.694689 -70.155853 
L 331.655402 -77.349485 
L 329.616115 -71.746205 
L 327.576827 -75.860887 
L 325.53754 -87.769067 
L 323.498253 -92.142738 
L 321.458965 -92.744926 
L 319.419678 -111.441048 
L 317.380391 -157.657914 
L 315.341103 -158.775177 
L 313.301816 -132.37649 
L 311.262529 -114.1203 
L 309.223241 -104.016755 
L 307.183954 -121.496472 
L 305.144667 -102.344382 
L 303.105379 -92.078775 
L 301.066092 -86.28747 
L 299.026804 -88.934215 
L 296.987517 -80.908708 
L 294.94823 -75.798081 
L 292.908942 -73.141049 
L 290.869655 -78.560073 
L 288.830368 -73.441105 
L 286.79108 -57.650234 
L 284.751793 -59.49507 
L 282.712506 -60.336496 
L 280.673218 -57.749893 
L 278.633931 -63.014968 
L 276.594644 -64.407263 
z
" id="mf29f8f6979" style="stroke:#ff8c00;stroke-opacity:0.4;"/>
    </defs>
    <g clip-path="url(#pcec75e1b72)">
     <use style="fill:#ff8c00;fill-opacity:0.4;stroke:#ff8c00;stroke-opacity:0.4;" x="0" xlink:href="#mf29f8f6979" y="263.63625"/>
    </g>
   </g>
   <g id="matplotlib.axis_1">
    <g id="xtick_1">
     <g id="line2d_1">
      <defs>
       <path d="M 0 0 
L 0 3.5 
" id="m18ce18f16c" style="stroke:#000000;stroke-width:0.8;"/>
      </defs>
      <g>
       <use style="stroke:#000000;stroke-width:0.8;" x="102.963893" xlink:href="#m18ce18f16c" y="239.758125"/>
      </g>
     </g>
     <g id="text_1">
      <!-- 2016-01 -->
      <defs>
       <path d="M 19.1875 8.296875 
L 53.609375 8.296875 
L 53.609375 0 
L 7.328125 0 
L 7.328125 8.296875 
Q 12.9375 14.109375 22.625 23.890625 
Q 32.328125 33.6875 34.8125 36.53125 
Q 39.546875 41.84375 41.421875 45.53125 
Q 43.3125 49.21875 43.3125 52.78125 
Q 43.3125 58.59375 39.234375 62.25 
Q 35.15625 65.921875 28.609375 65.921875 
Q 23.96875 65.921875 18.8125 64.3125 
Q 13.671875 62.703125 7.8125 59.421875 
L 7.8125 69.390625 
Q 13.765625 71.78125 18.9375 73 
Q 24.125 74.21875 28.421875 74.21875 
Q 39.75 74.21875 46.484375 68.546875 
Q 53.21875 62.890625 53.21875 53.421875 
Q 53.21875 48.921875 51.53125 44.890625 
Q 49.859375 40.875 45.40625 35.40625 
Q 44.1875 33.984375 37.640625 27.21875 
Q 31.109375 20.453125 19.1875 8.296875 
z
" id="DejaVuSans-50"/>
       <path d="M 31.78125 66.40625 
Q 24.171875 66.40625 20.328125 58.90625 
Q 16.5 51.421875 16.5 36.375 
Q 16.5 21.390625 20.328125 13.890625 
Q 24.171875 6.390625 31.78125 6.390625 
Q 39.453125 6.390625 43.28125 13.890625 
Q 47.125 21.390625 47.125 36.375 
Q 47.125 51.421875 43.28125 58.90625 
Q 39.453125 66.40625 31.78125 66.40625 
z
M 31.78125 74.21875 
Q 44.046875 74.21875 50.515625 64.515625 
Q 56.984375 54.828125 56.984375 36.375 
Q 56.984375 17.96875 50.515625 8.265625 
Q 44.046875 -1.421875 31.78125 -1.421875 
Q 19.53125 -1.421875 13.0625 8.265625 
Q 6.59375 17.96875 6.59375 36.375 
Q 6.59375 54.828125 13.0625 64.515625 
Q 19.53125 74.21875 31.78125 74.21875 
z
" id="DejaVuSans-48"/>
       <path d="M 12.40625 8.296875 
L 28.515625 8.296875 
L 28.515625 63.921875 
L 10.984375 60.40625 
L 10.984375 69.390625 
L 28.421875 72.90625 
L 38.28125 72.90625 
L 38.28125 8.296875 
L 54.390625 8.296875 
L 54.390625 0 
L 12.40625 0 
z
" id="DejaVuSans-49"/>
       <path d="M 33.015625 40.375 
Q 26.375 40.375 22.484375 35.828125 
Q 18.609375 31.296875 18.609375 23.390625 
Q 18.609375 15.53125 22.484375 10.953125 
Q 26.375 6.390625 33.015625 6.390625 
Q 39.65625 6.390625 43.53125 10.953125 
Q 47.40625 15.53125 47.40625 23.390625 
Q 47.40625 31.296875 43.53125 35.828125 
Q 39.65625 40.375 33.015625 40.375 
z
M 52.59375 71.296875 
L 52.59375 62.3125 
Q 48.875 64.0625 45.09375 64.984375 
Q 41.3125 65.921875 37.59375 65.921875 
Q 27.828125 65.921875 22.671875 59.328125 
Q 17.53125 52.734375 16.796875 39.40625 
Q 19.671875 43.65625 24.015625 45.921875 
Q 28.375 48.1875 33.59375 48.1875 
Q 44.578125 48.1875 50.953125 41.515625 
Q 57.328125 34.859375 57.328125 23.390625 
Q 57.328125 12.15625 50.6875 5.359375 
Q 44.046875 -1.421875 33.015625 -1.421875 
Q 20.359375 -1.421875 13.671875 8.265625 
Q 6.984375 17.96875 6.984375 36.375 
Q 6.984375 53.65625 15.1875 63.9375 
Q 23.390625 74.21875 37.203125 74.21875 
Q 40.921875 74.21875 44.703125 73.484375 
Q 48.484375 72.75 52.59375 71.296875 
z
" id="DejaVuSans-54"/>
       <path d="M 4.890625 31.390625 
L 31.203125 31.390625 
L 31.203125 23.390625 
L 4.890625 23.390625 
z
" id="DejaVuSans-45"/>
      </defs>
      <g transform="translate(82.072486 254.356563)scale(0.1 -0.1)">
       <use xlink:href="#DejaVuSans-50"/>
       <use x="63.623047" xlink:href="#DejaVuSans-48"/>
       <use x="127.246094" xlink:href="#DejaVuSans-49"/>
       <use x="190.869141" xlink:href="#DejaVuSans-54"/>
       <use x="254.492188" xlink:href="#DejaVuSans-45"/>
       <use x="290.576172" xlink:href="#DejaVuSans-48"/>
       <use x="354.199219" xlink:href="#DejaVuSans-49"/>
      </g>
     </g>
    </g>
    <g id="xtick_2">
     <g id="line2d_2">
      <g>
       <use style="stroke:#000000;stroke-width:0.8;" x="155.985364" xlink:href="#m18ce18f16c" y="239.758125"/>
      </g>
     </g>
     <g id="text_2">
      <!-- 2016-07 -->
      <defs>
       <path d="M 8.203125 72.90625 
L 55.078125 72.90625 
L 55.078125 68.703125 
L 28.609375 0 
L 18.3125 0 
L 43.21875 64.59375 
L 8.203125 64.59375 
z
" id="DejaVuSans-55"/>
      </defs>
      <g transform="translate(135.093957 254.356563)scale(0.1 -0.1)">
       <use xlink:href="#DejaVuSans-50"/>
       <use x="63.623047" xlink:href="#DejaVuSans-48"/>
       <use x="127.246094" xlink:href="#DejaVuSans-49"/>
       <use x="190.869141" xlink:href="#DejaVuSans-54"/>
       <use x="254.492188" xlink:href="#DejaVuSans-45"/>
       <use x="290.576172" xlink:href="#DejaVuSans-48"/>
       <use x="354.199219" xlink:href="#DejaVuSans-55"/>
      </g>
     </g>
    </g>
    <g id="xtick_3">
     <g id="line2d_3">
      <g>
       <use style="stroke:#000000;stroke-width:0.8;" x="209.589488" xlink:href="#m18ce18f16c" y="239.758125"/>
      </g>
     </g>
     <g id="text_3">
      <!-- 2017-01 -->
      <g transform="translate(188.698082 254.356563)scale(0.1 -0.1)">
       <use xlink:href="#DejaVuSans-50"/>
       <use x="63.623047" xlink:href="#DejaVuSans-48"/>
       <use x="127.246094" xlink:href="#DejaVuSans-49"/>
       <use x="190.869141" xlink:href="#DejaVuSans-55"/>
       <use x="254.492188" xlink:href="#DejaVuSans-45"/>
       <use x="290.576172" xlink:href="#DejaVuSans-48"/>
       <use x="354.199219" xlink:href="#DejaVuSans-49"/>
      </g>
     </g>
    </g>
    <g id="xtick_4">
     <g id="line2d_4">
      <g>
       <use style="stroke:#000000;stroke-width:0.8;" x="262.319632" xlink:href="#m18ce18f16c" y="239.758125"/>
      </g>
     </g>
     <g id="text_4">
      <!-- 2017-07 -->
      <g transform="translate(241.428226 254.356563)scale(0.1 -0.1)">
       <use xlink:href="#DejaVuSans-50"/>
       <use x="63.623047" xlink:href="#DejaVuSans-48"/>
       <use x="127.246094" xlink:href="#DejaVuSans-49"/>
       <use x="190.869141" xlink:href="#DejaVuSans-55"/>
       <use x="254.492188" xlink:href="#DejaVuSans-45"/>
       <use x="290.576172" xlink:href="#DejaVuSans-48"/>
       <use x="354.199219" xlink:href="#DejaVuSans-55"/>
      </g>
     </g>
    </g>
    <g id="xtick_5">
     <g id="line2d_5">
      <g>
       <use style="stroke:#000000;stroke-width:0.8;" x="315.923757" xlink:href="#m18ce18f16c" y="239.758125"/>
      </g>
     </g>
     <g id="text_5">
      <!-- 2018-01 -->
      <defs>
       <path d="M 31.78125 34.625 
Q 24.75 34.625 20.71875 30.859375 
Q 16.703125 27.09375 16.703125 20.515625 
Q 16.703125 13.921875 20.71875 10.15625 
Q 24.75 6.390625 31.78125 6.390625 
Q 38.8125 6.390625 42.859375 10.171875 
Q 46.921875 13.96875 46.921875 20.515625 
Q 46.921875 27.09375 42.890625 30.859375 
Q 38.875 34.625 31.78125 34.625 
z
M 21.921875 38.8125 
Q 15.578125 40.375 12.03125 44.71875 
Q 8.5 49.078125 8.5 55.328125 
Q 8.5 64.0625 14.71875 69.140625 
Q 20.953125 74.21875 31.78125 74.21875 
Q 42.671875 74.21875 48.875 69.140625 
Q 55.078125 64.0625 55.078125 55.328125 
Q 55.078125 49.078125 51.53125 44.71875 
Q 48 40.375 41.703125 38.8125 
Q 48.828125 37.15625 52.796875 32.3125 
Q 56.78125 27.484375 56.78125 20.515625 
Q 56.78125 9.90625 50.3125 4.234375 
Q 43.84375 -1.421875 31.78125 -1.421875 
Q 19.734375 -1.421875 13.25 4.234375 
Q 6.78125 9.90625 6.78125 20.515625 
Q 6.78125 27.484375 10.78125 32.3125 
Q 14.796875 37.15625 21.921875 38.8125 
z
M 18.3125 54.390625 
Q 18.3125 48.734375 21.84375 45.5625 
Q 25.390625 42.390625 31.78125 42.390625 
Q 38.140625 42.390625 41.71875 45.5625 
Q 45.3125 48.734375 45.3125 54.390625 
Q 45.3125 60.0625 41.71875 63.234375 
Q 38.140625 66.40625 31.78125 66.40625 
Q 25.390625 66.40625 21.84375 63.234375 
Q 18.3125 60.0625 18.3125 54.390625 
z
" id="DejaVuSans-56"/>
      </defs>
      <g transform="translate(295.032351 254.356563)scale(0.1 -0.1)">
       <use xlink:href="#DejaVuSans-50"/>
       <use x="63.623047" xlink:href="#DejaVuSans-48"/>
       <use x="127.246094" xlink:href="#DejaVuSans-49"/>
       <use x="190.869141" xlink:href="#DejaVuSans-56"/>
       <use x="254.492188" xlink:href="#DejaVuSans-45"/>
       <use x="290.576172" xlink:href="#DejaVuSans-48"/>
       <use x="354.199219" xlink:href="#DejaVuSans-49"/>
      </g>
     </g>
    </g>
    <g id="xtick_6">
     <g id="line2d_6">
      <g>
       <use style="stroke:#000000;stroke-width:0.8;" x="368.653901" xlink:href="#m18ce18f16c" y="239.758125"/>
      </g>
     </g>
     <g id="text_6">
      <!-- 2018-07 -->
      <g transform="translate(347.762495 254.356563)scale(0.1 -0.1)">
       <use xlink:href="#DejaVuSans-50"/>
       <use x="63.623047" xlink:href="#DejaVuSans-48"/>
       <use x="127.246094" xlink:href="#DejaVuSans-49"/>
       <use x="190.869141" xlink:href="#DejaVuSans-56"/>
       <use x="254.492188" xlink:href="#DejaVuSans-45"/>
       <use x="290.576172" xlink:href="#DejaVuSans-48"/>
       <use x="354.199219" xlink:href="#DejaVuSans-55"/>
      </g>
     </g>
    </g>
    <g id="xtick_7">
     <g id="line2d_7">
      <g>
       <use style="stroke:#000000;stroke-width:0.8;" x="422.258026" xlink:href="#m18ce18f16c" y="239.758125"/>
      </g>
     </g>
     <g id="text_7">
      <!-- 2019-01 -->
      <defs>
       <path d="M 10.984375 1.515625 
L 10.984375 10.5 
Q 14.703125 8.734375 18.5 7.8125 
Q 22.3125 6.890625 25.984375 6.890625 
Q 35.75 6.890625 40.890625 13.453125 
Q 46.046875 20.015625 46.78125 33.40625 
Q 43.953125 29.203125 39.59375 26.953125 
Q 35.25 24.703125 29.984375 24.703125 
Q 19.046875 24.703125 12.671875 31.3125 
Q 6.296875 37.9375 6.296875 49.421875 
Q 6.296875 60.640625 12.9375 67.421875 
Q 19.578125 74.21875 30.609375 74.21875 
Q 43.265625 74.21875 49.921875 64.515625 
Q 56.59375 54.828125 56.59375 36.375 
Q 56.59375 19.140625 48.40625 8.859375 
Q 40.234375 -1.421875 26.421875 -1.421875 
Q 22.703125 -1.421875 18.890625 -0.6875 
Q 15.09375 0.046875 10.984375 1.515625 
z
M 30.609375 32.421875 
Q 37.25 32.421875 41.125 36.953125 
Q 45.015625 41.5 45.015625 49.421875 
Q 45.015625 57.28125 41.125 61.84375 
Q 37.25 66.40625 30.609375 66.40625 
Q 23.96875 66.40625 20.09375 61.84375 
Q 16.21875 57.28125 16.21875 49.421875 
Q 16.21875 41.5 20.09375 36.953125 
Q 23.96875 32.421875 30.609375 32.421875 
z
" id="DejaVuSans-57"/>
      </defs>
      <g transform="translate(401.366619 254.356563)scale(0.1 -0.1)">
       <use xlink:href="#DejaVuSans-50"/>
       <use x="63.623047" xlink:href="#DejaVuSans-48"/>
       <use x="127.246094" xlink:href="#DejaVuSans-49"/>
       <use x="190.869141" xlink:href="#DejaVuSans-57"/>
       <use x="254.492188" xlink:href="#DejaVuSans-45"/>
       <use x="290.576172" xlink:href="#DejaVuSans-48"/>
       <use x="354.199219" xlink:href="#DejaVuSans-49"/>
      </g>
     </g>
    </g>
    <g id="xtick_8">
     <g id="line2d_8">
      <g>
       <use style="stroke:#000000;stroke-width:0.8;" x="474.98817" xlink:href="#m18ce18f16c" y="239.758125"/>
      </g>
     </g>
     <g id="text_8">
      <!-- 2019-07 -->
      <g transform="translate(454.096763 254.356563)scale(0.1 -0.1)">
       <use xlink:href="#DejaVuSans-50"/>
       <use x="63.623047" xlink:href="#DejaVuSans-48"/>
       <use x="127.246094" xlink:href="#DejaVuSans-49"/>
       <use x="190.869141" xlink:href="#DejaVuSans-57"/>
       <use x="254.492188" xlink:href="#DejaVuSans-45"/>
       <use x="290.576172" xlink:href="#DejaVuSans-48"/>
       <use x="354.199219" xlink:href="#DejaVuSans-55"/>
      </g>
     </g>
    </g>
   </g>
   <g id="matplotlib.axis_2">
    <g id="ytick_1">
     <g id="line2d_9">
      <defs>
       <path d="M 0 0 
L -3.5 0 
" id="m174d24e649" style="stroke:#000000;stroke-width:0.8;"/>
      </defs>
      <g>
       <use style="stroke:#000000;stroke-width:0.8;" x="52.375" xlink:href="#m174d24e649" y="230.09962"/>
      </g>
     </g>
     <g id="text_9">
      <!-- 150000 -->
      <defs>
       <path d="M 10.796875 72.90625 
L 49.515625 72.90625 
L 49.515625 64.59375 
L 19.828125 64.59375 
L 19.828125 46.734375 
Q 21.96875 47.46875 24.109375 47.828125 
Q 26.265625 48.1875 28.421875 48.1875 
Q 40.625 48.1875 47.75 41.5 
Q 54.890625 34.8125 54.890625 23.390625 
Q 54.890625 11.625 47.5625 5.09375 
Q 40.234375 -1.421875 26.90625 -1.421875 
Q 22.3125 -1.421875 17.546875 -0.640625 
Q 12.796875 0.140625 7.71875 1.703125 
L 7.71875 11.625 
Q 12.109375 9.234375 16.796875 8.0625 
Q 21.484375 6.890625 26.703125 6.890625 
Q 35.15625 6.890625 40.078125 11.328125 
Q 45.015625 15.765625 45.015625 23.390625 
Q 45.015625 31 40.078125 35.4375 
Q 35.15625 39.890625 26.703125 39.890625 
Q 22.75 39.890625 18.8125 39.015625 
Q 14.890625 38.140625 10.796875 36.28125 
z
" id="DejaVuSans-53"/>
      </defs>
      <g transform="translate(7.2 233.898839)scale(0.1 -0.1)">
       <use xlink:href="#DejaVuSans-49"/>
       <use x="63.623047" xlink:href="#DejaVuSans-53"/>
       <use x="127.246094" xlink:href="#DejaVuSans-48"/>
       <use x="190.869141" xlink:href="#DejaVuSans-48"/>
       <use x="254.492188" xlink:href="#DejaVuSans-48"/>
       <use x="318.115234" xlink:href="#DejaVuSans-48"/>
      </g>
     </g>
    </g>
    <g id="ytick_2">
     <g id="line2d_10">
      <g>
       <use style="stroke:#000000;stroke-width:0.8;" x="52.375" xlink:href="#m174d24e649" y="202.061137"/>
      </g>
     </g>
     <g id="text_10">
      <!-- 200000 -->
      <g transform="translate(7.2 205.860356)scale(0.1 -0.1)">
       <use xlink:href="#DejaVuSans-50"/>
       <use x="63.623047" xlink:href="#DejaVuSans-48"/>
       <use x="127.246094" xlink:href="#DejaVuSans-48"/>
       <use x="190.869141" xlink:href="#DejaVuSans-48"/>
       <use x="254.492188" xlink:href="#DejaVuSans-48"/>
       <use x="318.115234" xlink:href="#DejaVuSans-48"/>
      </g>
     </g>
    </g>
    <g id="ytick_3">
     <g id="line2d_11">
      <g>
       <use style="stroke:#000000;stroke-width:0.8;" x="52.375" xlink:href="#m174d24e649" y="174.022653"/>
      </g>
     </g>
     <g id="text_11">
      <!-- 250000 -->
      <g transform="translate(7.2 177.821872)scale(0.1 -0.1)">
       <use xlink:href="#DejaVuSans-50"/>
       <use x="63.623047" xlink:href="#DejaVuSans-53"/>
       <use x="127.246094" xlink:href="#DejaVuSans-48"/>
       <use x="190.869141" xlink:href="#DejaVuSans-48"/>
       <use x="254.492188" xlink:href="#DejaVuSans-48"/>
       <use x="318.115234" xlink:href="#DejaVuSans-48"/>
      </g>
     </g>
    </g>
    <g id="ytick_4">
     <g id="line2d_12">
      <g>
       <use style="stroke:#000000;stroke-width:0.8;" x="52.375" xlink:href="#m174d24e649" y="145.98417"/>
      </g>
     </g>
     <g id="text_12">
      <!-- 300000 -->
      <defs>
       <path d="M 40.578125 39.3125 
Q 47.65625 37.796875 51.625 33 
Q 55.609375 28.21875 55.609375 21.1875 
Q 55.609375 10.40625 48.1875 4.484375 
Q 40.765625 -1.421875 27.09375 -1.421875 
Q 22.515625 -1.421875 17.65625 -0.515625 
Q 12.796875 0.390625 7.625 2.203125 
L 7.625 11.71875 
Q 11.71875 9.328125 16.59375 8.109375 
Q 21.484375 6.890625 26.8125 6.890625 
Q 36.078125 6.890625 40.9375 10.546875 
Q 45.796875 14.203125 45.796875 21.1875 
Q 45.796875 27.640625 41.28125 31.265625 
Q 36.765625 34.90625 28.71875 34.90625 
L 20.21875 34.90625 
L 20.21875 43.015625 
L 29.109375 43.015625 
Q 36.375 43.015625 40.234375 45.921875 
Q 44.09375 48.828125 44.09375 54.296875 
Q 44.09375 59.90625 40.109375 62.90625 
Q 36.140625 65.921875 28.71875 65.921875 
Q 24.65625 65.921875 20.015625 65.03125 
Q 15.375 64.15625 9.8125 62.3125 
L 9.8125 71.09375 
Q 15.4375 72.65625 20.34375 73.4375 
Q 25.25 74.21875 29.59375 74.21875 
Q 40.828125 74.21875 47.359375 69.109375 
Q 53.90625 64.015625 53.90625 55.328125 
Q 53.90625 49.265625 50.4375 45.09375 
Q 46.96875 40.921875 40.578125 39.3125 
z
" id="DejaVuSans-51"/>
      </defs>
      <g transform="translate(7.2 149.783389)scale(0.1 -0.1)">
       <use xlink:href="#DejaVuSans-51"/>
       <use x="63.623047" xlink:href="#DejaVuSans-48"/>
       <use x="127.246094" xlink:href="#DejaVuSans-48"/>
       <use x="190.869141" xlink:href="#DejaVuSans-48"/>
       <use x="254.492188" xlink:href="#DejaVuSans-48"/>
       <use x="318.115234" xlink:href="#DejaVuSans-48"/>
      </g>
     </g>
    </g>
    <g id="ytick_5">
     <g id="line2d_13">
      <g>
       <use style="stroke:#000000;stroke-width:0.8;" x="52.375" xlink:href="#m174d24e649" y="117.945687"/>
      </g>
     </g>
     <g id="text_13">
      <!-- 350000 -->
      <g transform="translate(7.2 121.744905)scale(0.1 -0.1)">
       <use xlink:href="#DejaVuSans-51"/>
       <use x="63.623047" xlink:href="#DejaVuSans-53"/>
       <use x="127.246094" xlink:href="#DejaVuSans-48"/>
       <use x="190.869141" xlink:href="#DejaVuSans-48"/>
       <use x="254.492188" xlink:href="#DejaVuSans-48"/>
       <use x="318.115234" xlink:href="#DejaVuSans-48"/>
      </g>
     </g>
    </g>
    <g id="ytick_6">
     <g id="line2d_14">
      <g>
       <use style="stroke:#000000;stroke-width:0.8;" x="52.375" xlink:href="#m174d24e649" y="89.907203"/>
      </g>
     </g>
     <g id="text_14">
      <!-- 400000 -->
      <defs>
       <path d="M 37.796875 64.3125 
L 12.890625 25.390625 
L 37.796875 25.390625 
z
M 35.203125 72.90625 
L 47.609375 72.90625 
L 47.609375 25.390625 
L 58.015625 25.390625 
L 58.015625 17.1875 
L 47.609375 17.1875 
L 47.609375 0 
L 37.796875 0 
L 37.796875 17.1875 
L 4.890625 17.1875 
L 4.890625 26.703125 
z
" id="DejaVuSans-52"/>
      </defs>
      <g transform="translate(7.2 93.706422)scale(0.1 -0.1)">
       <use xlink:href="#DejaVuSans-52"/>
       <use x="63.623047" xlink:href="#DejaVuSans-48"/>
       <use x="127.246094" xlink:href="#DejaVuSans-48"/>
       <use x="190.869141" xlink:href="#DejaVuSans-48"/>
       <use x="254.492188" xlink:href="#DejaVuSans-48"/>
       <use x="318.115234" xlink:href="#DejaVuSans-48"/>
      </g>
     </g>
    </g>
    <g id="ytick_7">
     <g id="line2d_15">
      <g>
       <use style="stroke:#000000;stroke-width:0.8;" x="52.375" xlink:href="#m174d24e649" y="61.86872"/>
      </g>
     </g>
     <g id="text_15">
      <!-- 450000 -->
      <g transform="translate(7.2 65.667939)scale(0.1 -0.1)">
       <use xlink:href="#DejaVuSans-52"/>
       <use x="63.623047" xlink:href="#DejaVuSans-53"/>
       <use x="127.246094" xlink:href="#DejaVuSans-48"/>
       <use x="190.869141" xlink:href="#DejaVuSans-48"/>
       <use x="254.492188" xlink:href="#DejaVuSans-48"/>
       <use x="318.115234" xlink:href="#DejaVuSans-48"/>
      </g>
     </g>
    </g>
    <g id="ytick_8">
     <g id="line2d_16">
      <g>
       <use style="stroke:#000000;stroke-width:0.8;" x="52.375" xlink:href="#m174d24e649" y="33.830236"/>
      </g>
     </g>
     <g id="text_16">
      <!-- 500000 -->
      <g transform="translate(7.2 37.629455)scale(0.1 -0.1)">
       <use xlink:href="#DejaVuSans-53"/>
       <use x="63.623047" xlink:href="#DejaVuSans-48"/>
       <use x="127.246094" xlink:href="#DejaVuSans-48"/>
       <use x="190.869141" xlink:href="#DejaVuSans-48"/>
       <use x="254.492188" xlink:href="#DejaVuSans-48"/>
       <use x="318.115234" xlink:href="#DejaVuSans-48"/>
      </g>
     </g>
    </g>
   </g>
   <g id="line2d_17">
    <path clip-path="url(#pcec75e1b72)" d="M 72.665909 191.21473 
L 74.705196 193.584542 
L 76.744484 186.82166 
L 78.783771 170.365314 
L 80.823058 183.634245 
L 84.901633 169.289757 
L 86.940921 150.976142 
L 88.980208 165.71429 
L 91.019495 142.942555 
L 93.058783 166.941254 
L 95.09807 98.60418 
L 97.137357 138.539392 
L 99.176645 134.970093 
L 101.215932 119.884828 
L 103.255219 86.896992 
L 105.294507 32.201761 
L 107.333794 101.825241 
L 109.373081 148.263138 
L 111.412369 139.28858 
L 113.451656 151.145494 
L 115.490943 169.323404 
L 117.530231 174.656323 
L 119.569518 165.161371 
L 121.608805 175.352799 
L 123.648093 181.375465 
L 125.68738 184.743448 
L 127.726667 182.032687 
L 129.765955 176.806875 
L 131.805242 162.572298 
L 133.844529 178.284503 
L 135.883817 176.804071 
L 137.923104 177.728219 
L 139.962392 167.350055 
L 142.001679 176.899963 
L 144.040966 179.182856 
L 146.080254 175.850762 
L 148.119541 183.948276 
L 150.158828 164.895005 
L 152.198116 175.162137 
L 154.237403 166.361418 
L 156.27669 164.244513 
L 158.315978 146.728311 
L 160.355265 163.633835 
L 162.394552 184.158565 
L 164.43384 191.293238 
L 166.473127 184.37334 
L 168.512414 191.086874 
L 170.551702 192.521884 
L 172.590989 193.263782 
L 174.630276 192.127102 
L 176.669564 205.82334 
L 178.708851 198.893349 
L 180.748138 202.927526 
L 182.787426 201.805426 
L 184.826713 180.426082 
L 186.866 183.200771 
L 188.905288 181.136577 
L 190.944575 176.405364 
L 192.983862 169.195548 
L 195.02315 188.731642 
L 197.062437 152.828925 
L 199.101725 174.149387 
L 201.141012 117.059671 
L 203.180299 143.030035 
L 205.219587 137.534493 
L 207.258874 121.75163 
L 209.298161 117.631095 
L 211.337449 81.640337 
L 213.376736 116.376092 
L 215.416023 154.939662 
L 217.455311 156.648327 
L 219.494598 168.575898 
L 221.533885 176.32966 
L 223.573173 180.010552 
L 225.61246 194.867023 
L 227.651747 177.410263 
L 229.691035 189.596909 
L 231.730322 188.214051 
L 233.769609 186.208739 
L 235.808897 197.380392 
L 237.848184 179.729606 
L 239.887471 187.55739 
L 241.926759 178.72695 
L 243.966046 195.917905 
L 246.005333 193.627161 
L 248.044621 198.189022 
L 250.083908 196.148381 
L 252.123196 184.039121 
L 254.162483 194.941605 
L 256.20177 182.629346 
L 258.241058 185.864426 
L 260.280345 179.835031 
L 262.319632 172.404272 
L 264.35892 154.771991 
L 266.398207 169.669398 
L 268.437494 190.590593 
L 270.476782 202.747519 
L 272.516069 195.374519 
L 274.555356 203.025661 
L 276.594644 204.792085 
L 278.633931 204.176921 
L 280.673218 173.671051 
L 282.712506 195.37508 
L 284.751793 195.15638 
L 286.79108 194.778421 
L 288.830368 199.71712 
L 290.869655 185.663671 
L 292.908942 198.925313 
L 294.94823 193.086579 
L 296.987517 193.10172 
L 299.026804 178.446565 
L 301.066092 181.506685 
L 303.105379 160.001169 
L 305.144667 188.12545 
L 307.183954 131.374999 
L 309.223241 156.047182 
L 311.262529 153.005567 
L 313.301816 131.86399 
L 315.341103 117.104532 
L 317.380391 87.703378 
L 319.419678 115.305583 
L 321.458965 168.172704 
L 323.498253 163.818328 
L 325.53754 177.711396 
L 327.576827 183.414424 
L 329.616115 194.990392 
L 331.655402 204.139349 
L 333.694689 187.541128 
L 335.733977 199.153546 
L 337.773264 202.818737 
L 339.812551 204.622172 
L 341.851839 201.468403 
L 343.891126 184.251653 
L 345.930413 187.430656 
L 347.969701 201.98319 
L 350.008988 209.659005 
L 352.048275 207.521912 
L 354.087563 204.74498 
L 356.12685 198.111636 
L 358.166138 200.465186 
L 360.205425 206.814781 
L 362.244712 192.36599 
L 364.284 198.683621 
L 366.323287 189.294655 
L 368.362574 184.375022 
L 370.401862 165.684569 
L 374.480436 201.338865 
L 376.519724 213.343822 
L 378.559011 210.375108 
L 380.598298 213.255221 
L 382.637586 217.016303 
L 384.676873 215.662605 
L 386.71616 216.861531 
L 388.755448 223.011492 
L 390.794735 216.851998 
L 392.834022 217.241172 
L 394.87331 217.865869 
L 396.912597 205.461644 
L 398.951884 207.387888 
L 400.991172 202.771632 
L 403.030459 202.885468 
L 405.069746 193.753895 
L 407.109034 181.884083 
L 409.148321 187.158122 
L 411.187608 191.598296 
L 413.226896 135.926205 
L 415.266183 167.559783 
L 417.305471 171.109455 
L 421.384045 130.562443 
L 423.423333 117.413516 
L 425.46262 121.041696 
L 427.501907 162.943527 
L 429.541195 173.562261 
L 431.580482 171.591156 
L 433.619769 178.050662 
L 435.659057 196.050807 
L 437.698344 200.327798 
L 439.737631 190.518815 
L 441.776919 196.811211 
L 443.816206 205.211541 
L 445.855493 207.626776 
L 447.894781 211.145045 
L 449.934068 204.246456 
L 451.973355 204.08159 
L 454.012643 195.447419 
L 456.05193 199.376732 
L 458.091217 199.799553 
L 460.130505 208.64233 
L 462.169792 206.585987 
L 464.209079 202.569194 
L 466.248367 207.906039 
L 468.287654 190.74144 
L 470.326942 198.741941 
L 472.366229 187.582625 
L 474.405516 188.28583 
L 476.444804 184.120433 
L 478.484091 177.600925 
L 478.484091 177.600925 
" style="fill:none;stroke:#1f77b4;stroke-linecap:square;stroke-width:1.5;"/>
   </g>
   <g id="line2d_18">
    <path clip-path="url(#pcec75e1b72)" d="M 276.594644 206.196366 
L 278.633931 206.786568 
L 280.673218 212.9356 
L 282.712506 209.680279 
L 284.751793 211.163839 
L 286.79108 212.361021 
L 288.830368 197.408089 
L 290.869655 192.877631 
L 292.908942 197.028054 
L 294.94823 195.543635 
L 296.987517 190.253203 
L 299.026804 182.415938 
L 301.066092 185.733145 
L 303.105379 180.574231 
L 305.144667 171.481131 
L 307.183954 152.117763 
L 309.223241 168.676503 
L 311.262529 159.739903 
L 313.301816 141.423308 
L 315.341103 117.450825 
L 317.380391 119.182289 
L 319.419678 160.854888 
L 321.458965 180.917895 
L 323.498253 178.789073 
L 325.53754 184.29449 
L 327.576827 195.349267 
L 329.616115 199.514629 
L 331.655402 194.07972 
L 333.694689 200.756401 
L 335.733977 206.309317 
L 337.773264 206.914353 
L 339.812551 205.693312 
L 341.851839 196.369412 
L 343.891126 193.666906 
L 345.930413 199.061308 
L 347.969701 201.436781 
L 350.008988 206.505377 
L 352.048275 206.251471 
L 354.087563 206.107423 
L 356.12685 204.869173 
L 358.166138 207.893755 
L 360.205425 200.131213 
L 362.244712 199.337067 
L 364.284 198.034898 
L 366.323287 193.37442 
L 368.362574 182.807023 
L 370.401862 173.028952 
L 372.441149 199.157471 
L 374.480436 212.029738 
L 376.519724 213.190855 
L 378.559011 211.454029 
L 380.598298 214.508366 
L 382.637586 215.308908 
L 384.676873 215.823047 
L 386.71616 221.697275 
L 388.755448 218.503666 
L 390.794735 220.023378 
L 392.834022 221.254977 
L 394.87331 207.577437 
L 396.912597 203.822751 
L 398.951884 207.676342 
L 400.991172 206.253521 
L 403.030459 200.667852 
L 405.069746 193.113461 
L 407.109034 196.828954 
L 409.148321 191.884797 
L 411.187608 184.373016 
L 413.226896 167.338638 
L 415.266183 181.455936 
L 417.305471 173.144295 
L 419.344758 156.881414 
L 421.384045 135.297723 
L 423.423333 137.355677 
L 425.46262 174.695779 
L 427.501907 192.918357 
L 429.541195 191.328803 
L 431.580482 195.895763 
L 433.619769 206.050706 
L 435.659057 209.301663 
L 437.698344 205.601574 
L 439.737631 210.307053 
L 441.776919 215.561001 
L 443.816206 216.154102 
L 445.855493 215.730861 
L 447.894781 206.194517 
L 449.934068 204.262044 
L 451.973355 208.943866 
L 454.012643 212.589324 
L 456.05193 216.131838 
L 458.091217 215.355303 
L 460.130505 215.733586 
L 462.169792 213.860432 
L 464.209079 217.878022 
L 466.248367 209.870222 
L 468.287654 208.037741 
L 470.326942 207.632436 
L 472.366229 205.114896 
L 474.405516 194.139617 
L 476.444804 185.952406 
L 478.484091 209.411364 
" style="fill:none;stroke:#ff8c00;stroke-linecap:square;stroke-width:1.5;"/>
   </g>
   <g id="patch_3">
    <path d="M 52.375 239.758125 
L 52.375 22.318125 
" style="fill:none;stroke:#000000;stroke-linecap:square;stroke-linejoin:miter;stroke-width:0.8;"/>
   </g>
   <g id="patch_4">
    <path d="M 498.775 239.758125 
L 498.775 22.318125 
" style="fill:none;stroke:#000000;stroke-linecap:square;stroke-linejoin:miter;stroke-width:0.8;"/>
   </g>
   <g id="patch_5">
    <path d="M 52.375 239.758125 
L 498.775 239.758125 
" style="fill:none;stroke:#000000;stroke-linecap:square;stroke-linejoin:miter;stroke-width:0.8;"/>
   </g>
   <g id="patch_6">
    <path d="M 52.375 22.318125 
L 498.775 22.318125 
" style="fill:none;stroke:#000000;stroke-linecap:square;stroke-linejoin:miter;stroke-width:0.8;"/>
   </g>
   <g id="text_17">
    <!-- Forecast (Diagonal Normal Autoguide) -->
    <defs>
     <path d="M 9.8125 72.90625 
L 51.703125 72.90625 
L 51.703125 64.59375 
L 19.671875 64.59375 
L 19.671875 43.109375 
L 48.578125 43.109375 
L 48.578125 34.8125 
L 19.671875 34.8125 
L 19.671875 0 
L 9.8125 0 
z
" id="DejaVuSans-70"/>
     <path d="M 30.609375 48.390625 
Q 23.390625 48.390625 19.1875 42.75 
Q 14.984375 37.109375 14.984375 27.296875 
Q 14.984375 17.484375 19.15625 11.84375 
Q 23.34375 6.203125 30.609375 6.203125 
Q 37.796875 6.203125 41.984375 11.859375 
Q 46.1875 17.53125 46.1875 27.296875 
Q 46.1875 37.015625 41.984375 42.703125 
Q 37.796875 48.390625 30.609375 48.390625 
z
M 30.609375 56 
Q 42.328125 56 49.015625 48.375 
Q 55.71875 40.765625 55.71875 27.296875 
Q 55.71875 13.875 49.015625 6.21875 
Q 42.328125 -1.421875 30.609375 -1.421875 
Q 18.84375 -1.421875 12.171875 6.21875 
Q 5.515625 13.875 5.515625 27.296875 
Q 5.515625 40.765625 12.171875 48.375 
Q 18.84375 56 30.609375 56 
z
" id="DejaVuSans-111"/>
     <path d="M 41.109375 46.296875 
Q 39.59375 47.171875 37.8125 47.578125 
Q 36.03125 48 33.890625 48 
Q 26.265625 48 22.1875 43.046875 
Q 18.109375 38.09375 18.109375 28.8125 
L 18.109375 0 
L 9.078125 0 
L 9.078125 54.6875 
L 18.109375 54.6875 
L 18.109375 46.1875 
Q 20.953125 51.171875 25.484375 53.578125 
Q 30.03125 56 36.53125 56 
Q 37.453125 56 38.578125 55.875 
Q 39.703125 55.765625 41.0625 55.515625 
z
" id="DejaVuSans-114"/>
     <path d="M 56.203125 29.59375 
L 56.203125 25.203125 
L 14.890625 25.203125 
Q 15.484375 15.921875 20.484375 11.0625 
Q 25.484375 6.203125 34.421875 6.203125 
Q 39.59375 6.203125 44.453125 7.46875 
Q 49.3125 8.734375 54.109375 11.28125 
L 54.109375 2.78125 
Q 49.265625 0.734375 44.1875 -0.34375 
Q 39.109375 -1.421875 33.890625 -1.421875 
Q 20.796875 -1.421875 13.15625 6.1875 
Q 5.515625 13.8125 5.515625 26.8125 
Q 5.515625 40.234375 12.765625 48.109375 
Q 20.015625 56 32.328125 56 
Q 43.359375 56 49.78125 48.890625 
Q 56.203125 41.796875 56.203125 29.59375 
z
M 47.21875 32.234375 
Q 47.125 39.59375 43.09375 43.984375 
Q 39.0625 48.390625 32.421875 48.390625 
Q 24.90625 48.390625 20.390625 44.140625 
Q 15.875 39.890625 15.1875 32.171875 
z
" id="DejaVuSans-101"/>
     <path d="M 48.78125 52.59375 
L 48.78125 44.1875 
Q 44.96875 46.296875 41.140625 47.34375 
Q 37.3125 48.390625 33.40625 48.390625 
Q 24.65625 48.390625 19.8125 42.84375 
Q 14.984375 37.3125 14.984375 27.296875 
Q 14.984375 17.28125 19.8125 11.734375 
Q 24.65625 6.203125 33.40625 6.203125 
Q 37.3125 6.203125 41.140625 7.25 
Q 44.96875 8.296875 48.78125 10.40625 
L 48.78125 2.09375 
Q 45.015625 0.34375 40.984375 -0.53125 
Q 36.96875 -1.421875 32.421875 -1.421875 
Q 20.0625 -1.421875 12.78125 6.34375 
Q 5.515625 14.109375 5.515625 27.296875 
Q 5.515625 40.671875 12.859375 48.328125 
Q 20.21875 56 33.015625 56 
Q 37.15625 56 41.109375 55.140625 
Q 45.0625 54.296875 48.78125 52.59375 
z
" id="DejaVuSans-99"/>
     <path d="M 34.28125 27.484375 
Q 23.390625 27.484375 19.1875 25 
Q 14.984375 22.515625 14.984375 16.5 
Q 14.984375 11.71875 18.140625 8.90625 
Q 21.296875 6.109375 26.703125 6.109375 
Q 34.1875 6.109375 38.703125 11.40625 
Q 43.21875 16.703125 43.21875 25.484375 
L 43.21875 27.484375 
z
M 52.203125 31.203125 
L 52.203125 0 
L 43.21875 0 
L 43.21875 8.296875 
Q 40.140625 3.328125 35.546875 0.953125 
Q 30.953125 -1.421875 24.3125 -1.421875 
Q 15.921875 -1.421875 10.953125 3.296875 
Q 6 8.015625 6 15.921875 
Q 6 25.140625 12.171875 29.828125 
Q 18.359375 34.515625 30.609375 34.515625 
L 43.21875 34.515625 
L 43.21875 35.40625 
Q 43.21875 41.609375 39.140625 45 
Q 35.0625 48.390625 27.6875 48.390625 
Q 23 48.390625 18.546875 47.265625 
Q 14.109375 46.140625 10.015625 43.890625 
L 10.015625 52.203125 
Q 14.9375 54.109375 19.578125 55.046875 
Q 24.21875 56 28.609375 56 
Q 40.484375 56 46.34375 49.84375 
Q 52.203125 43.703125 52.203125 31.203125 
z
" id="DejaVuSans-97"/>
     <path d="M 44.28125 53.078125 
L 44.28125 44.578125 
Q 40.484375 46.53125 36.375 47.5 
Q 32.28125 48.484375 27.875 48.484375 
Q 21.1875 48.484375 17.84375 46.4375 
Q 14.5 44.390625 14.5 40.28125 
Q 14.5 37.15625 16.890625 35.375 
Q 19.28125 33.59375 26.515625 31.984375 
L 29.59375 31.296875 
Q 39.15625 29.25 43.1875 25.515625 
Q 47.21875 21.78125 47.21875 15.09375 
Q 47.21875 7.46875 41.1875 3.015625 
Q 35.15625 -1.421875 24.609375 -1.421875 
Q 20.21875 -1.421875 15.453125 -0.5625 
Q 10.6875 0.296875 5.421875 2 
L 5.421875 11.28125 
Q 10.40625 8.6875 15.234375 7.390625 
Q 20.0625 6.109375 24.8125 6.109375 
Q 31.15625 6.109375 34.5625 8.28125 
Q 37.984375 10.453125 37.984375 14.40625 
Q 37.984375 18.0625 35.515625 20.015625 
Q 33.0625 21.96875 24.703125 23.78125 
L 21.578125 24.515625 
Q 13.234375 26.265625 9.515625 29.90625 
Q 5.8125 33.546875 5.8125 39.890625 
Q 5.8125 47.609375 11.28125 51.796875 
Q 16.75 56 26.8125 56 
Q 31.78125 56 36.171875 55.265625 
Q 40.578125 54.546875 44.28125 53.078125 
z
" id="DejaVuSans-115"/>
     <path d="M 18.3125 70.21875 
L 18.3125 54.6875 
L 36.8125 54.6875 
L 36.8125 47.703125 
L 18.3125 47.703125 
L 18.3125 18.015625 
Q 18.3125 11.328125 20.140625 9.421875 
Q 21.96875 7.515625 27.59375 7.515625 
L 36.8125 7.515625 
L 36.8125 0 
L 27.59375 0 
Q 17.1875 0 13.234375 3.875 
Q 9.28125 7.765625 9.28125 18.015625 
L 9.28125 47.703125 
L 2.6875 47.703125 
L 2.6875 54.6875 
L 9.28125 54.6875 
L 9.28125 70.21875 
z
" id="DejaVuSans-116"/>
     <path id="DejaVuSans-32"/>
     <path d="M 31 75.875 
Q 24.46875 64.65625 21.28125 53.65625 
Q 18.109375 42.671875 18.109375 31.390625 
Q 18.109375 20.125 21.3125 9.0625 
Q 24.515625 -2 31 -13.1875 
L 23.1875 -13.1875 
Q 15.875 -1.703125 12.234375 9.375 
Q 8.59375 20.453125 8.59375 31.390625 
Q 8.59375 42.28125 12.203125 53.3125 
Q 15.828125 64.359375 23.1875 75.875 
z
" id="DejaVuSans-40"/>
     <path d="M 19.671875 64.796875 
L 19.671875 8.109375 
L 31.59375 8.109375 
Q 46.6875 8.109375 53.6875 14.9375 
Q 60.6875 21.78125 60.6875 36.53125 
Q 60.6875 51.171875 53.6875 57.984375 
Q 46.6875 64.796875 31.59375 64.796875 
z
M 9.8125 72.90625 
L 30.078125 72.90625 
Q 51.265625 72.90625 61.171875 64.09375 
Q 71.09375 55.28125 71.09375 36.53125 
Q 71.09375 17.671875 61.125 8.828125 
Q 51.171875 0 30.078125 0 
L 9.8125 0 
z
" id="DejaVuSans-68"/>
     <path d="M 9.421875 54.6875 
L 18.40625 54.6875 
L 18.40625 0 
L 9.421875 0 
z
M 9.421875 75.984375 
L 18.40625 75.984375 
L 18.40625 64.59375 
L 9.421875 64.59375 
z
" id="DejaVuSans-105"/>
     <path d="M 45.40625 27.984375 
Q 45.40625 37.75 41.375 43.109375 
Q 37.359375 48.484375 30.078125 48.484375 
Q 22.859375 48.484375 18.828125 43.109375 
Q 14.796875 37.75 14.796875 27.984375 
Q 14.796875 18.265625 18.828125 12.890625 
Q 22.859375 7.515625 30.078125 7.515625 
Q 37.359375 7.515625 41.375 12.890625 
Q 45.40625 18.265625 45.40625 27.984375 
z
M 54.390625 6.78125 
Q 54.390625 -7.171875 48.1875 -13.984375 
Q 42 -20.796875 29.203125 -20.796875 
Q 24.46875 -20.796875 20.265625 -20.09375 
Q 16.0625 -19.390625 12.109375 -17.921875 
L 12.109375 -9.1875 
Q 16.0625 -11.328125 19.921875 -12.34375 
Q 23.78125 -13.375 27.78125 -13.375 
Q 36.625 -13.375 41.015625 -8.765625 
Q 45.40625 -4.15625 45.40625 5.171875 
L 45.40625 9.625 
Q 42.625 4.78125 38.28125 2.390625 
Q 33.9375 0 27.875 0 
Q 17.828125 0 11.671875 7.65625 
Q 5.515625 15.328125 5.515625 27.984375 
Q 5.515625 40.671875 11.671875 48.328125 
Q 17.828125 56 27.875 56 
Q 33.9375 56 38.28125 53.609375 
Q 42.625 51.21875 45.40625 46.390625 
L 45.40625 54.6875 
L 54.390625 54.6875 
z
" id="DejaVuSans-103"/>
     <path d="M 54.890625 33.015625 
L 54.890625 0 
L 45.90625 0 
L 45.90625 32.71875 
Q 45.90625 40.484375 42.875 44.328125 
Q 39.84375 48.1875 33.796875 48.1875 
Q 26.515625 48.1875 22.3125 43.546875 
Q 18.109375 38.921875 18.109375 30.90625 
L 18.109375 0 
L 9.078125 0 
L 9.078125 54.6875 
L 18.109375 54.6875 
L 18.109375 46.1875 
Q 21.34375 51.125 25.703125 53.5625 
Q 30.078125 56 35.796875 56 
Q 45.21875 56 50.046875 50.171875 
Q 54.890625 44.34375 54.890625 33.015625 
z
" id="DejaVuSans-110"/>
     <path d="M 9.421875 75.984375 
L 18.40625 75.984375 
L 18.40625 0 
L 9.421875 0 
z
" id="DejaVuSans-108"/>
     <path d="M 9.8125 72.90625 
L 23.09375 72.90625 
L 55.421875 11.921875 
L 55.421875 72.90625 
L 64.984375 72.90625 
L 64.984375 0 
L 51.703125 0 
L 19.390625 60.984375 
L 19.390625 0 
L 9.8125 0 
z
" id="DejaVuSans-78"/>
     <path d="M 52 44.1875 
Q 55.375 50.25 60.0625 53.125 
Q 64.75 56 71.09375 56 
Q 79.640625 56 84.28125 50.015625 
Q 88.921875 44.046875 88.921875 33.015625 
L 88.921875 0 
L 79.890625 0 
L 79.890625 32.71875 
Q 79.890625 40.578125 77.09375 44.375 
Q 74.3125 48.1875 68.609375 48.1875 
Q 61.625 48.1875 57.5625 43.546875 
Q 53.515625 38.921875 53.515625 30.90625 
L 53.515625 0 
L 44.484375 0 
L 44.484375 32.71875 
Q 44.484375 40.625 41.703125 44.40625 
Q 38.921875 48.1875 33.109375 48.1875 
Q 26.21875 48.1875 22.15625 43.53125 
Q 18.109375 38.875 18.109375 30.90625 
L 18.109375 0 
L 9.078125 0 
L 9.078125 54.6875 
L 18.109375 54.6875 
L 18.109375 46.1875 
Q 21.1875 51.21875 25.484375 53.609375 
Q 29.78125 56 35.6875 56 
Q 41.65625 56 45.828125 52.96875 
Q 50 49.953125 52 44.1875 
z
" id="DejaVuSans-109"/>
     <path d="M 34.1875 63.1875 
L 20.796875 26.90625 
L 47.609375 26.90625 
z
M 28.609375 72.90625 
L 39.796875 72.90625 
L 67.578125 0 
L 57.328125 0 
L 50.6875 18.703125 
L 17.828125 18.703125 
L 11.1875 0 
L 0.78125 0 
z
" id="DejaVuSans-65"/>
     <path d="M 8.5 21.578125 
L 8.5 54.6875 
L 17.484375 54.6875 
L 17.484375 21.921875 
Q 17.484375 14.15625 20.5 10.265625 
Q 23.53125 6.390625 29.59375 6.390625 
Q 36.859375 6.390625 41.078125 11.03125 
Q 45.3125 15.671875 45.3125 23.6875 
L 45.3125 54.6875 
L 54.296875 54.6875 
L 54.296875 0 
L 45.3125 0 
L 45.3125 8.40625 
Q 42.046875 3.421875 37.71875 1 
Q 33.40625 -1.421875 27.6875 -1.421875 
Q 18.265625 -1.421875 13.375 4.4375 
Q 8.5 10.296875 8.5 21.578125 
z
M 31.109375 56 
z
" id="DejaVuSans-117"/>
     <path d="M 45.40625 46.390625 
L 45.40625 75.984375 
L 54.390625 75.984375 
L 54.390625 0 
L 45.40625 0 
L 45.40625 8.203125 
Q 42.578125 3.328125 38.25 0.953125 
Q 33.9375 -1.421875 27.875 -1.421875 
Q 17.96875 -1.421875 11.734375 6.484375 
Q 5.515625 14.40625 5.515625 27.296875 
Q 5.515625 40.1875 11.734375 48.09375 
Q 17.96875 56 27.875 56 
Q 33.9375 56 38.25 53.625 
Q 42.578125 51.265625 45.40625 46.390625 
z
M 14.796875 27.296875 
Q 14.796875 17.390625 18.875 11.75 
Q 22.953125 6.109375 30.078125 6.109375 
Q 37.203125 6.109375 41.296875 11.75 
Q 45.40625 17.390625 45.40625 27.296875 
Q 45.40625 37.203125 41.296875 42.84375 
Q 37.203125 48.484375 30.078125 48.484375 
Q 22.953125 48.484375 18.875 42.84375 
Q 14.796875 37.203125 14.796875 27.296875 
z
" id="DejaVuSans-100"/>
     <path d="M 8.015625 75.875 
L 15.828125 75.875 
Q 23.140625 64.359375 26.78125 53.3125 
Q 30.421875 42.28125 30.421875 31.390625 
Q 30.421875 20.453125 26.78125 9.375 
Q 23.140625 -1.703125 15.828125 -13.1875 
L 8.015625 -13.1875 
Q 14.5 -2 17.703125 9.0625 
Q 20.90625 20.125 20.90625 31.390625 
Q 20.90625 42.671875 17.703125 53.65625 
Q 14.5 64.65625 8.015625 75.875 
z
" id="DejaVuSans-41"/>
    </defs>
    <g transform="translate(160.329062 16.318125)scale(0.12 -0.12)">
     <use xlink:href="#DejaVuSans-70"/>
     <use x="57.472656" xlink:href="#DejaVuSans-111"/>
     <use x="118.654297" xlink:href="#DejaVuSans-114"/>
     <use x="159.736328" xlink:href="#DejaVuSans-101"/>
     <use x="221.259766" xlink:href="#DejaVuSans-99"/>
     <use x="276.240234" xlink:href="#DejaVuSans-97"/>
     <use x="337.519531" xlink:href="#DejaVuSans-115"/>
     <use x="389.619141" xlink:href="#DejaVuSans-116"/>
     <use x="428.828125" xlink:href="#DejaVuSans-32"/>
     <use x="460.615234" xlink:href="#DejaVuSans-40"/>
     <use x="499.628906" xlink:href="#DejaVuSans-68"/>
     <use x="576.630859" xlink:href="#DejaVuSans-105"/>
     <use x="604.414062" xlink:href="#DejaVuSans-97"/>
     <use x="665.693359" xlink:href="#DejaVuSans-103"/>
     <use x="729.169922" xlink:href="#DejaVuSans-111"/>
     <use x="790.351562" xlink:href="#DejaVuSans-110"/>
     <use x="853.730469" xlink:href="#DejaVuSans-97"/>
     <use x="915.009766" xlink:href="#DejaVuSans-108"/>
     <use x="942.792969" xlink:href="#DejaVuSans-32"/>
     <use x="974.580078" xlink:href="#DejaVuSans-78"/>
     <use x="1049.384766" xlink:href="#DejaVuSans-111"/>
     <use x="1110.566406" xlink:href="#DejaVuSans-114"/>
     <use x="1151.664062" xlink:href="#DejaVuSans-109"/>
     <use x="1249.076172" xlink:href="#DejaVuSans-97"/>
     <use x="1310.355469" xlink:href="#DejaVuSans-108"/>
     <use x="1338.138672" xlink:href="#DejaVuSans-32"/>
     <use x="1369.925781" xlink:href="#DejaVuSans-65"/>
     <use x="1438.333984" xlink:href="#DejaVuSans-117"/>
     <use x="1501.712891" xlink:href="#DejaVuSans-116"/>
     <use x="1540.921875" xlink:href="#DejaVuSans-111"/>
     <use x="1602.103516" xlink:href="#DejaVuSans-103"/>
     <use x="1665.580078" xlink:href="#DejaVuSans-117"/>
     <use x="1728.958984" xlink:href="#DejaVuSans-105"/>
     <use x="1756.742188" xlink:href="#DejaVuSans-100"/>
     <use x="1820.21875" xlink:href="#DejaVuSans-101"/>
     <use x="1881.742188" xlink:href="#DejaVuSans-41"/>
    </g>
   </g>
   <g id="legend_1">
    <g id="patch_7">
     <path d="M 402.570312 59.674375 
L 491.775 59.674375 
Q 493.775 59.674375 493.775 57.674375 
L 493.775 29.318125 
Q 493.775 27.318125 491.775 27.318125 
L 402.570312 27.318125 
Q 400.570312 27.318125 400.570312 29.318125 
L 400.570312 57.674375 
Q 400.570312 59.674375 402.570312 59.674375 
z
" style="fill:#ffffff;opacity:0.8;stroke:#cccccc;stroke-linejoin:miter;"/>
    </g>
    <g id="line2d_19">
     <path d="M 404.570312 35.416562 
L 424.570312 35.416562 
" style="fill:none;stroke:#1f77b4;stroke-linecap:square;stroke-width:1.5;"/>
    </g>
    <g id="line2d_20"/>
    <g id="text_18">
     <!-- Actual data -->
     <g transform="translate(432.570312 38.916562)scale(0.1 -0.1)">
      <use xlink:href="#DejaVuSans-65"/>
      <use x="68.392578" xlink:href="#DejaVuSans-99"/>
      <use x="123.373047" xlink:href="#DejaVuSans-116"/>
      <use x="162.582031" xlink:href="#DejaVuSans-117"/>
      <use x="225.960938" xlink:href="#DejaVuSans-97"/>
      <use x="287.240234" xlink:href="#DejaVuSans-108"/>
      <use x="315.023438" xlink:href="#DejaVuSans-32"/>
      <use x="346.810547" xlink:href="#DejaVuSans-100"/>
      <use x="410.287109" xlink:href="#DejaVuSans-97"/>
      <use x="471.566406" xlink:href="#DejaVuSans-116"/>
      <use x="510.775391" xlink:href="#DejaVuSans-97"/>
     </g>
    </g>
    <g id="line2d_21">
     <path d="M 404.570312 50.094687 
L 424.570312 50.094687 
" style="fill:none;stroke:#ff8c00;stroke-linecap:square;stroke-width:1.5;"/>
    </g>
    <g id="line2d_22"/>
    <g id="text_19">
     <!-- Forecast -->
     <g transform="translate(432.570312 53.594687)scale(0.1 -0.1)">
      <use xlink:href="#DejaVuSans-70"/>
      <use x="57.472656" xlink:href="#DejaVuSans-111"/>
      <use x="118.654297" xlink:href="#DejaVuSans-114"/>
      <use x="159.736328" xlink:href="#DejaVuSans-101"/>
      <use x="221.259766" xlink:href="#DejaVuSans-99"/>
      <use x="276.240234" xlink:href="#DejaVuSans-97"/>
      <use x="337.519531" xlink:href="#DejaVuSans-115"/>
      <use x="389.619141" xlink:href="#DejaVuSans-116"/>
     </g>
    </g>
   </g>
  </g>
 </g>
 <defs>
  <clipPath id="pcec75e1b72">
   <rect height="217.44" width="446.4" x="52.375" y="22.318125"/>
  </clipPath>
 </defs>
</svg>
