<?xml version="1.0" encoding="utf-8" standalone="no"?>
<!DOCTYPE svg PUBLIC "-//W3C//DTD SVG 1.1//EN"
  "http://www.w3.org/Graphics/SVG/1.1/DTD/svg11.dtd">
<!-- Created with matplotlib (https://matplotlib.org/) -->
<svg height="263.63625pt" version="1.1" viewBox="0 0 509.475 263.63625" width="509.475pt" xmlns="http://www.w3.org/2000/svg" xmlns:xlink="http://www.w3.org/1999/xlink">
 <defs>
  <style type="text/css">
*{stroke-linecap:butt;stroke-linejoin:round;}
  </style>
 </defs>
 <g id="figure_1">
  <g id="patch_1">
   <path d="M 0 263.63625 
L 509.475 263.63625 
L 509.475 0 
L 0 0 
z
" style="fill:none;"/>
  </g>
  <g id="axes_1">
   <g id="patch_2">
    <path d="M 52.375 239.758125 
L 498.775 239.758125 
L 498.775 22.318125 
L 52.375 22.318125 
z
" style="fill:#ffffff;"/>
   </g>
   <g id="PolyCollection_1">
    <defs>
     <path d="M 276.594644 -73.728183 
L 276.594644 -46.594967 
L 278.633931 -46.672336 
L 280.673218 -40.853386 
L 282.712506 -43.053497 
L 284.751793 -41.959017 
L 286.79108 -41.453838 
L 288.830368 -54.296769 
L 290.869655 -58.54026 
L 292.908942 -53.835565 
L 294.94823 -56.975393 
L 296.987517 -61.462167 
L 299.026804 -69.035899 
L 301.066092 -63.184177 
L 303.105379 -70.13616 
L 305.144667 -79.141834 
L 307.183954 -94.590315 
L 309.223241 -80.152019 
L 311.262529 -89.608183 
L 313.301816 -105.471547 
L 315.341103 -126.912852 
L 317.380391 -125.224856 
L 319.419678 -88.146748 
L 321.458965 -71.534657 
L 323.498253 -70.423778 
L 325.53754 -66.902302 
L 327.576827 -55.562753 
L 329.616115 -53.567573 
L 331.655402 -58.972313 
L 333.694689 -52.598015 
L 335.733977 -46.680085 
L 337.773264 -46.137883 
L 339.812551 -47.060325 
L 341.851839 -57.75006 
L 343.891126 -57.94447 
L 345.930413 -53.817338 
L 347.969701 -51.788171 
L 350.008988 -47.356077 
L 352.048275 -45.773595 
L 354.087563 -45.794254 
L 356.12685 -48.371658 
L 358.166138 -44.514635 
L 360.205425 -52.269657 
L 362.244712 -53.616709 
L 364.284 -55.67836 
L 366.323287 -58.082896 
L 368.362574 -68.480735 
L 370.401862 -75.646405 
L 372.441149 -52.861345 
L 374.480436 -41.366769 
L 376.519724 -40.212702 
L 378.559011 -43.219718 
L 380.598298 -41.044263 
L 382.637586 -37.524361 
L 384.676873 -38.282366 
L 386.71616 -33.761761 
L 388.755448 -35.900553 
L 390.794735 -35.695744 
L 392.834022 -34.019826 
L 394.87331 -46.01401 
L 396.912597 -47.493034 
L 398.951884 -44.733272 
L 400.991172 -47.53659 
L 403.030459 -51.631317 
L 405.069746 -58.457119 
L 407.109034 -52.83376 
L 409.148321 -61.477806 
L 411.187608 -66.239228 
L 413.226896 -81.819278 
L 415.266183 -69.076455 
L 417.305471 -76.371918 
L 419.344758 -92.819379 
L 421.384045 -111.690556 
L 423.423333 -109.547916 
L 425.46262 -76.718949 
L 427.501907 -61.083834 
L 429.541195 -59.78269 
L 431.580482 -55.918959 
L 433.619769 -48.233372 
L 435.659057 -44.037417 
L 437.698344 -48.760435 
L 439.737631 -44.463504 
L 441.776919 -37.77675 
L 443.816206 -38.117037 
L 445.855493 -37.848661 
L 447.894781 -47.704193 
L 449.934068 -50.116976 
L 451.973355 -44.502101 
L 454.012643 -41.975959 
L 456.05193 -39.205482 
L 458.091217 -39.24338 
L 460.130505 -38.370292 
L 462.169792 -39.478862 
L 464.209079 -37.622239 
L 466.248367 -44.940994 
L 468.287654 -45.447293 
L 470.326942 -44.875415 
L 472.366229 -47.319107 
L 474.405516 -58.022363 
L 476.444804 -64.971276 
L 478.484091 -43.84305 
L 478.484091 -69.937657 
L 478.484091 -69.937657 
L 476.444804 -96.080988 
L 474.405516 -87.581639 
L 472.366229 -75.034181 
L 470.326942 -71.361404 
L 468.287654 -71.34762 
L 466.248367 -70.783868 
L 464.209079 -61.285005 
L 462.169792 -64.876957 
L 460.130505 -62.185118 
L 458.091217 -62.901982 
L 456.05193 -63.145843 
L 454.012643 -66.845872 
L 451.973355 -70.101079 
L 449.934068 -76.784257 
L 447.894781 -74.352529 
L 445.855493 -61.052671 
L 443.816206 -62.217243 
L 441.776919 -61.192645 
L 439.737631 -69.401297 
L 437.698344 -75.457837 
L 435.659057 -70.06292 
L 433.619769 -75.213862 
L 431.580482 -84.847679 
L 429.541195 -90.227894 
L 427.501907 -91.925948 
L 425.46262 -111.58415 
L 423.423333 -154.110807 
L 421.384045 -155.453136 
L 419.344758 -129.684308 
L 417.305471 -112.050707 
L 415.266183 -102.582001 
L 413.226896 -117.572207 
L 411.187608 -98.719703 
L 409.148321 -90.978491 
L 407.109034 -81.826572 
L 405.069746 -89.120434 
L 403.030459 -80.343788 
L 400.991172 -73.873842 
L 398.951884 -70.701723 
L 396.912597 -74.532902 
L 394.87331 -71.7114 
L 392.834022 -57.544087 
L 390.794735 -58.532178 
L 388.755448 -59.898297 
L 386.71616 -55.807934 
L 384.676873 -62.050847 
L 382.637586 -62.427755 
L 380.598298 -63.415767 
L 378.559011 -68.76824 
L 376.519724 -65.297798 
L 374.480436 -67.533156 
L 372.441149 -80.64449 
L 370.401862 -110.284555 
L 368.362574 -101.035553 
L 366.323287 -88.595768 
L 364.284 -83.970594 
L 362.244712 -81.981887 
L 360.205425 -81.150081 
L 358.166138 -70.373225 
L 356.12685 -74.507354 
L 354.087563 -72.307374 
L 352.048275 -72.992489 
L 350.008988 -74.091989 
L 347.969701 -79.046991 
L 345.930413 -82.07952 
L 343.891126 -87.505521 
L 341.851839 -87.145581 
L 339.812551 -73.007629 
L 337.773264 -72.312972 
L 335.733977 -73.521152 
L 333.694689 -81.043631 
L 331.655402 -88.35754 
L 329.616115 -81.040998 
L 327.576827 -84.736296 
L 325.53754 -97.495518 
L 323.498253 -103.288237 
L 321.458965 -103.871293 
L 319.419678 -125.422555 
L 317.380391 -174.059978 
L 315.341103 -173.61861 
L 313.301816 -146.867743 
L 311.262529 -128.639943 
L 309.223241 -115.223315 
L 307.183954 -134.718174 
L 305.144667 -113.525068 
L 303.105379 -102.928594 
L 301.066092 -95.440138 
L 299.026804 -102.60691 
L 296.987517 -91.813323 
L 294.94823 -85.191141 
L 292.908942 -82.338757 
L 290.869655 -88.16599 
L 288.830368 -83.549028 
L 286.79108 -66.226476 
L 284.751793 -68.007628 
L 282.712506 -70.394015 
L 280.673218 -65.955292 
L 278.633931 -73.052943 
L 276.594644 -73.728183 
z
" id="mc9b94ec757" style="stroke:#ff8c00;stroke-opacity:0.4;"/>
    </defs>
    <g clip-path="url(#p6e28d976bf)">
     <use style="fill:#ff8c00;fill-opacity:0.4;stroke:#ff8c00;stroke-opacity:0.4;" x="0" xlink:href="#mc9b94ec757" y="263.63625"/>
    </g>
   </g>
   <g id="matplotlib.axis_1">
    <g id="xtick_1">
     <g id="line2d_1">
      <defs>
       <path d="M 0 0 
L 0 3.5 
" id="m4c3698168f" style="stroke:#000000;stroke-width:0.8;"/>
      </defs>
      <g>
       <use style="stroke:#000000;stroke-width:0.8;" x="102.963893" xlink:href="#m4c3698168f" y="239.758125"/>
      </g>
     </g>
     <g id="text_1">
      <!-- 2016-01 -->
      <defs>
       <path d="M 19.1875 8.296875 
L 53.609375 8.296875 
L 53.609375 0 
L 7.328125 0 
L 7.328125 8.296875 
Q 12.9375 14.109375 22.625 23.890625 
Q 32.328125 33.6875 34.8125 36.53125 
Q 39.546875 41.84375 41.421875 45.53125 
Q 43.3125 49.21875 43.3125 52.78125 
Q 43.3125 58.59375 39.234375 62.25 
Q 35.15625 65.921875 28.609375 65.921875 
Q 23.96875 65.921875 18.8125 64.3125 
Q 13.671875 62.703125 7.8125 59.421875 
L 7.8125 69.390625 
Q 13.765625 71.78125 18.9375 73 
Q 24.125 74.21875 28.421875 74.21875 
Q 39.75 74.21875 46.484375 68.546875 
Q 53.21875 62.890625 53.21875 53.421875 
Q 53.21875 48.921875 51.53125 44.890625 
Q 49.859375 40.875 45.40625 35.40625 
Q 44.1875 33.984375 37.640625 27.21875 
Q 31.109375 20.453125 19.1875 8.296875 
z
" id="DejaVuSans-50"/>
       <path d="M 31.78125 66.40625 
Q 24.171875 66.40625 20.328125 58.90625 
Q 16.5 51.421875 16.5 36.375 
Q 16.5 21.390625 20.328125 13.890625 
Q 24.171875 6.390625 31.78125 6.390625 
Q 39.453125 6.390625 43.28125 13.890625 
Q 47.125 21.390625 47.125 36.375 
Q 47.125 51.421875 43.28125 58.90625 
Q 39.453125 66.40625 31.78125 66.40625 
z
M 31.78125 74.21875 
Q 44.046875 74.21875 50.515625 64.515625 
Q 56.984375 54.828125 56.984375 36.375 
Q 56.984375 17.96875 50.515625 8.265625 
Q 44.046875 -1.421875 31.78125 -1.421875 
Q 19.53125 -1.421875 13.0625 8.265625 
Q 6.59375 17.96875 6.59375 36.375 
Q 6.59375 54.828125 13.0625 64.515625 
Q 19.53125 74.21875 31.78125 74.21875 
z
" id="DejaVuSans-48"/>
       <path d="M 12.40625 8.296875 
L 28.515625 8.296875 
L 28.515625 63.921875 
L 10.984375 60.40625 
L 10.984375 69.390625 
L 28.421875 72.90625 
L 38.28125 72.90625 
L 38.28125 8.296875 
L 54.390625 8.296875 
L 54.390625 0 
L 12.40625 0 
z
" id="DejaVuSans-49"/>
       <path d="M 33.015625 40.375 
Q 26.375 40.375 22.484375 35.828125 
Q 18.609375 31.296875 18.609375 23.390625 
Q 18.609375 15.53125 22.484375 10.953125 
Q 26.375 6.390625 33.015625 6.390625 
Q 39.65625 6.390625 43.53125 10.953125 
Q 47.40625 15.53125 47.40625 23.390625 
Q 47.40625 31.296875 43.53125 35.828125 
Q 39.65625 40.375 33.015625 40.375 
z
M 52.59375 71.296875 
L 52.59375 62.3125 
Q 48.875 64.0625 45.09375 64.984375 
Q 41.3125 65.921875 37.59375 65.921875 
Q 27.828125 65.921875 22.671875 59.328125 
Q 17.53125 52.734375 16.796875 39.40625 
Q 19.671875 43.65625 24.015625 45.921875 
Q 28.375 48.1875 33.59375 48.1875 
Q 44.578125 48.1875 50.953125 41.515625 
Q 57.328125 34.859375 57.328125 23.390625 
Q 57.328125 12.15625 50.6875 5.359375 
Q 44.046875 -1.421875 33.015625 -1.421875 
Q 20.359375 -1.421875 13.671875 8.265625 
Q 6.984375 17.96875 6.984375 36.375 
Q 6.984375 53.65625 15.1875 63.9375 
Q 23.390625 74.21875 37.203125 74.21875 
Q 40.921875 74.21875 44.703125 73.484375 
Q 48.484375 72.75 52.59375 71.296875 
z
" id="DejaVuSans-54"/>
       <path d="M 4.890625 31.390625 
L 31.203125 31.390625 
L 31.203125 23.390625 
L 4.890625 23.390625 
z
" id="DejaVuSans-45"/>
      </defs>
      <g transform="translate(82.072486 254.356563)scale(0.1 -0.1)">
       <use xlink:href="#DejaVuSans-50"/>
       <use x="63.623047" xlink:href="#DejaVuSans-48"/>
       <use x="127.246094" xlink:href="#DejaVuSans-49"/>
       <use x="190.869141" xlink:href="#DejaVuSans-54"/>
       <use x="254.492188" xlink:href="#DejaVuSans-45"/>
       <use x="290.576172" xlink:href="#DejaVuSans-48"/>
       <use x="354.199219" xlink:href="#DejaVuSans-49"/>
      </g>
     </g>
    </g>
    <g id="xtick_2">
     <g id="line2d_2">
      <g>
       <use style="stroke:#000000;stroke-width:0.8;" x="155.985364" xlink:href="#m4c3698168f" y="239.758125"/>
      </g>
     </g>
     <g id="text_2">
      <!-- 2016-07 -->
      <defs>
       <path d="M 8.203125 72.90625 
L 55.078125 72.90625 
L 55.078125 68.703125 
L 28.609375 0 
L 18.3125 0 
L 43.21875 64.59375 
L 8.203125 64.59375 
z
" id="DejaVuSans-55"/>
      </defs>
      <g transform="translate(135.093957 254.356563)scale(0.1 -0.1)">
       <use xlink:href="#DejaVuSans-50"/>
       <use x="63.623047" xlink:href="#DejaVuSans-48"/>
       <use x="127.246094" xlink:href="#DejaVuSans-49"/>
       <use x="190.869141" xlink:href="#DejaVuSans-54"/>
       <use x="254.492188" xlink:href="#DejaVuSans-45"/>
       <use x="290.576172" xlink:href="#DejaVuSans-48"/>
       <use x="354.199219" xlink:href="#DejaVuSans-55"/>
      </g>
     </g>
    </g>
    <g id="xtick_3">
     <g id="line2d_3">
      <g>
       <use style="stroke:#000000;stroke-width:0.8;" x="209.589488" xlink:href="#m4c3698168f" y="239.758125"/>
      </g>
     </g>
     <g id="text_3">
      <!-- 2017-01 -->
      <g transform="translate(188.698082 254.356563)scale(0.1 -0.1)">
       <use xlink:href="#DejaVuSans-50"/>
       <use x="63.623047" xlink:href="#DejaVuSans-48"/>
       <use x="127.246094" xlink:href="#DejaVuSans-49"/>
       <use x="190.869141" xlink:href="#DejaVuSans-55"/>
       <use x="254.492188" xlink:href="#DejaVuSans-45"/>
       <use x="290.576172" xlink:href="#DejaVuSans-48"/>
       <use x="354.199219" xlink:href="#DejaVuSans-49"/>
      </g>
     </g>
    </g>
    <g id="xtick_4">
     <g id="line2d_4">
      <g>
       <use style="stroke:#000000;stroke-width:0.8;" x="262.319632" xlink:href="#m4c3698168f" y="239.758125"/>
      </g>
     </g>
     <g id="text_4">
      <!-- 2017-07 -->
      <g transform="translate(241.428226 254.356563)scale(0.1 -0.1)">
       <use xlink:href="#DejaVuSans-50"/>
       <use x="63.623047" xlink:href="#DejaVuSans-48"/>
       <use x="127.246094" xlink:href="#DejaVuSans-49"/>
       <use x="190.869141" xlink:href="#DejaVuSans-55"/>
       <use x="254.492188" xlink:href="#DejaVuSans-45"/>
       <use x="290.576172" xlink:href="#DejaVuSans-48"/>
       <use x="354.199219" xlink:href="#DejaVuSans-55"/>
      </g>
     </g>
    </g>
    <g id="xtick_5">
     <g id="line2d_5">
      <g>
       <use style="stroke:#000000;stroke-width:0.8;" x="315.923757" xlink:href="#m4c3698168f" y="239.758125"/>
      </g>
     </g>
     <g id="text_5">
      <!-- 2018-01 -->
      <defs>
       <path d="M 31.78125 34.625 
Q 24.75 34.625 20.71875 30.859375 
Q 16.703125 27.09375 16.703125 20.515625 
Q 16.703125 13.921875 20.71875 10.15625 
Q 24.75 6.390625 31.78125 6.390625 
Q 38.8125 6.390625 42.859375 10.171875 
Q 46.921875 13.96875 46.921875 20.515625 
Q 46.921875 27.09375 42.890625 30.859375 
Q 38.875 34.625 31.78125 34.625 
z
M 21.921875 38.8125 
Q 15.578125 40.375 12.03125 44.71875 
Q 8.5 49.078125 8.5 55.328125 
Q 8.5 64.0625 14.71875 69.140625 
Q 20.953125 74.21875 31.78125 74.21875 
Q 42.671875 74.21875 48.875 69.140625 
Q 55.078125 64.0625 55.078125 55.328125 
Q 55.078125 49.078125 51.53125 44.71875 
Q 48 40.375 41.703125 38.8125 
Q 48.828125 37.15625 52.796875 32.3125 
Q 56.78125 27.484375 56.78125 20.515625 
Q 56.78125 9.90625 50.3125 4.234375 
Q 43.84375 -1.421875 31.78125 -1.421875 
Q 19.734375 -1.421875 13.25 4.234375 
Q 6.78125 9.90625 6.78125 20.515625 
Q 6.78125 27.484375 10.78125 32.3125 
Q 14.796875 37.15625 21.921875 38.8125 
z
M 18.3125 54.390625 
Q 18.3125 48.734375 21.84375 45.5625 
Q 25.390625 42.390625 31.78125 42.390625 
Q 38.140625 42.390625 41.71875 45.5625 
Q 45.3125 48.734375 45.3125 54.390625 
Q 45.3125 60.0625 41.71875 63.234375 
Q 38.140625 66.40625 31.78125 66.40625 
Q 25.390625 66.40625 21.84375 63.234375 
Q 18.3125 60.0625 18.3125 54.390625 
z
" id="DejaVuSans-56"/>
      </defs>
      <g transform="translate(295.032351 254.356563)scale(0.1 -0.1)">
       <use xlink:href="#DejaVuSans-50"/>
       <use x="63.623047" xlink:href="#DejaVuSans-48"/>
       <use x="127.246094" xlink:href="#DejaVuSans-49"/>
       <use x="190.869141" xlink:href="#DejaVuSans-56"/>
       <use x="254.492188" xlink:href="#DejaVuSans-45"/>
       <use x="290.576172" xlink:href="#DejaVuSans-48"/>
       <use x="354.199219" xlink:href="#DejaVuSans-49"/>
      </g>
     </g>
    </g>
    <g id="xtick_6">
     <g id="line2d_6">
      <g>
       <use style="stroke:#000000;stroke-width:0.8;" x="368.653901" xlink:href="#m4c3698168f" y="239.758125"/>
      </g>
     </g>
     <g id="text_6">
      <!-- 2018-07 -->
      <g transform="translate(347.762495 254.356563)scale(0.1 -0.1)">
       <use xlink:href="#DejaVuSans-50"/>
       <use x="63.623047" xlink:href="#DejaVuSans-48"/>
       <use x="127.246094" xlink:href="#DejaVuSans-49"/>
       <use x="190.869141" xlink:href="#DejaVuSans-56"/>
       <use x="254.492188" xlink:href="#DejaVuSans-45"/>
       <use x="290.576172" xlink:href="#DejaVuSans-48"/>
       <use x="354.199219" xlink:href="#DejaVuSans-55"/>
      </g>
     </g>
    </g>
    <g id="xtick_7">
     <g id="line2d_7">
      <g>
       <use style="stroke:#000000;stroke-width:0.8;" x="422.258026" xlink:href="#m4c3698168f" y="239.758125"/>
      </g>
     </g>
     <g id="text_7">
      <!-- 2019-01 -->
      <defs>
       <path d="M 10.984375 1.515625 
L 10.984375 10.5 
Q 14.703125 8.734375 18.5 7.8125 
Q 22.3125 6.890625 25.984375 6.890625 
Q 35.75 6.890625 40.890625 13.453125 
Q 46.046875 20.015625 46.78125 33.40625 
Q 43.953125 29.203125 39.59375 26.953125 
Q 35.25 24.703125 29.984375 24.703125 
Q 19.046875 24.703125 12.671875 31.3125 
Q 6.296875 37.9375 6.296875 49.421875 
Q 6.296875 60.640625 12.9375 67.421875 
Q 19.578125 74.21875 30.609375 74.21875 
Q 43.265625 74.21875 49.921875 64.515625 
Q 56.59375 54.828125 56.59375 36.375 
Q 56.59375 19.140625 48.40625 8.859375 
Q 40.234375 -1.421875 26.421875 -1.421875 
Q 22.703125 -1.421875 18.890625 -0.6875 
Q 15.09375 0.046875 10.984375 1.515625 
z
M 30.609375 32.421875 
Q 37.25 32.421875 41.125 36.953125 
Q 45.015625 41.5 45.015625 49.421875 
Q 45.015625 57.28125 41.125 61.84375 
Q 37.25 66.40625 30.609375 66.40625 
Q 23.96875 66.40625 20.09375 61.84375 
Q 16.21875 57.28125 16.21875 49.421875 
Q 16.21875 41.5 20.09375 36.953125 
Q 23.96875 32.421875 30.609375 32.421875 
z
" id="DejaVuSans-57"/>
      </defs>
      <g transform="translate(401.366619 254.356563)scale(0.1 -0.1)">
       <use xlink:href="#DejaVuSans-50"/>
       <use x="63.623047" xlink:href="#DejaVuSans-48"/>
       <use x="127.246094" xlink:href="#DejaVuSans-49"/>
       <use x="190.869141" xlink:href="#DejaVuSans-57"/>
       <use x="254.492188" xlink:href="#DejaVuSans-45"/>
       <use x="290.576172" xlink:href="#DejaVuSans-48"/>
       <use x="354.199219" xlink:href="#DejaVuSans-49"/>
      </g>
     </g>
    </g>
    <g id="xtick_8">
     <g id="line2d_8">
      <g>
       <use style="stroke:#000000;stroke-width:0.8;" x="474.98817" xlink:href="#m4c3698168f" y="239.758125"/>
      </g>
     </g>
     <g id="text_8">
      <!-- 2019-07 -->
      <g transform="translate(454.096763 254.356563)scale(0.1 -0.1)">
       <use xlink:href="#DejaVuSans-50"/>
       <use x="63.623047" xlink:href="#DejaVuSans-48"/>
       <use x="127.246094" xlink:href="#DejaVuSans-49"/>
       <use x="190.869141" xlink:href="#DejaVuSans-57"/>
       <use x="254.492188" xlink:href="#DejaVuSans-45"/>
       <use x="290.576172" xlink:href="#DejaVuSans-48"/>
       <use x="354.199219" xlink:href="#DejaVuSans-55"/>
      </g>
     </g>
    </g>
   </g>
   <g id="matplotlib.axis_2">
    <g id="ytick_1">
     <g id="line2d_9">
      <defs>
       <path d="M 0 0 
L -3.5 0 
" id="m42eeea26a8" style="stroke:#000000;stroke-width:0.8;"/>
      </defs>
      <g>
       <use style="stroke:#000000;stroke-width:0.8;" x="52.375" xlink:href="#m42eeea26a8" y="229.741809"/>
      </g>
     </g>
     <g id="text_9">
      <!-- 150000 -->
      <defs>
       <path d="M 10.796875 72.90625 
L 49.515625 72.90625 
L 49.515625 64.59375 
L 19.828125 64.59375 
L 19.828125 46.734375 
Q 21.96875 47.46875 24.109375 47.828125 
Q 26.265625 48.1875 28.421875 48.1875 
Q 40.625 48.1875 47.75 41.5 
Q 54.890625 34.8125 54.890625 23.390625 
Q 54.890625 11.625 47.5625 5.09375 
Q 40.234375 -1.421875 26.90625 -1.421875 
Q 22.3125 -1.421875 17.546875 -0.640625 
Q 12.796875 0.140625 7.71875 1.703125 
L 7.71875 11.625 
Q 12.109375 9.234375 16.796875 8.0625 
Q 21.484375 6.890625 26.703125 6.890625 
Q 35.15625 6.890625 40.078125 11.328125 
Q 45.015625 15.765625 45.015625 23.390625 
Q 45.015625 31 40.078125 35.4375 
Q 35.15625 39.890625 26.703125 39.890625 
Q 22.75 39.890625 18.8125 39.015625 
Q 14.890625 38.140625 10.796875 36.28125 
z
" id="DejaVuSans-53"/>
      </defs>
      <g transform="translate(7.2 233.541028)scale(0.1 -0.1)">
       <use xlink:href="#DejaVuSans-49"/>
       <use x="63.623047" xlink:href="#DejaVuSans-53"/>
       <use x="127.246094" xlink:href="#DejaVuSans-48"/>
       <use x="190.869141" xlink:href="#DejaVuSans-48"/>
       <use x="254.492188" xlink:href="#DejaVuSans-48"/>
       <use x="318.115234" xlink:href="#DejaVuSans-48"/>
      </g>
     </g>
    </g>
    <g id="ytick_2">
     <g id="line2d_10">
      <g>
       <use style="stroke:#000000;stroke-width:0.8;" x="52.375" xlink:href="#m42eeea26a8" y="201.754021"/>
      </g>
     </g>
     <g id="text_10">
      <!-- 200000 -->
      <g transform="translate(7.2 205.55324)scale(0.1 -0.1)">
       <use xlink:href="#DejaVuSans-50"/>
       <use x="63.623047" xlink:href="#DejaVuSans-48"/>
       <use x="127.246094" xlink:href="#DejaVuSans-48"/>
       <use x="190.869141" xlink:href="#DejaVuSans-48"/>
       <use x="254.492188" xlink:href="#DejaVuSans-48"/>
       <use x="318.115234" xlink:href="#DejaVuSans-48"/>
      </g>
     </g>
    </g>
    <g id="ytick_3">
     <g id="line2d_11">
      <g>
       <use style="stroke:#000000;stroke-width:0.8;" x="52.375" xlink:href="#m42eeea26a8" y="173.766233"/>
      </g>
     </g>
     <g id="text_11">
      <!-- 250000 -->
      <g transform="translate(7.2 177.565452)scale(0.1 -0.1)">
       <use xlink:href="#DejaVuSans-50"/>
       <use x="63.623047" xlink:href="#DejaVuSans-53"/>
       <use x="127.246094" xlink:href="#DejaVuSans-48"/>
       <use x="190.869141" xlink:href="#DejaVuSans-48"/>
       <use x="254.492188" xlink:href="#DejaVuSans-48"/>
       <use x="318.115234" xlink:href="#DejaVuSans-48"/>
      </g>
     </g>
    </g>
    <g id="ytick_4">
     <g id="line2d_12">
      <g>
       <use style="stroke:#000000;stroke-width:0.8;" x="52.375" xlink:href="#m42eeea26a8" y="145.778445"/>
      </g>
     </g>
     <g id="text_12">
      <!-- 300000 -->
      <defs>
       <path d="M 40.578125 39.3125 
Q 47.65625 37.796875 51.625 33 
Q 55.609375 28.21875 55.609375 21.1875 
Q 55.609375 10.40625 48.1875 4.484375 
Q 40.765625 -1.421875 27.09375 -1.421875 
Q 22.515625 -1.421875 17.65625 -0.515625 
Q 12.796875 0.390625 7.625 2.203125 
L 7.625 11.71875 
Q 11.71875 9.328125 16.59375 8.109375 
Q 21.484375 6.890625 26.8125 6.890625 
Q 36.078125 6.890625 40.9375 10.546875 
Q 45.796875 14.203125 45.796875 21.1875 
Q 45.796875 27.640625 41.28125 31.265625 
Q 36.765625 34.90625 28.71875 34.90625 
L 20.21875 34.90625 
L 20.21875 43.015625 
L 29.109375 43.015625 
Q 36.375 43.015625 40.234375 45.921875 
Q 44.09375 48.828125 44.09375 54.296875 
Q 44.09375 59.90625 40.109375 62.90625 
Q 36.140625 65.921875 28.71875 65.921875 
Q 24.65625 65.921875 20.015625 65.03125 
Q 15.375 64.15625 9.8125 62.3125 
L 9.8125 71.09375 
Q 15.4375 72.65625 20.34375 73.4375 
Q 25.25 74.21875 29.59375 74.21875 
Q 40.828125 74.21875 47.359375 69.109375 
Q 53.90625 64.015625 53.90625 55.328125 
Q 53.90625 49.265625 50.4375 45.09375 
Q 46.96875 40.921875 40.578125 39.3125 
z
" id="DejaVuSans-51"/>
      </defs>
      <g transform="translate(7.2 149.577663)scale(0.1 -0.1)">
       <use xlink:href="#DejaVuSans-51"/>
       <use x="63.623047" xlink:href="#DejaVuSans-48"/>
       <use x="127.246094" xlink:href="#DejaVuSans-48"/>
       <use x="190.869141" xlink:href="#DejaVuSans-48"/>
       <use x="254.492188" xlink:href="#DejaVuSans-48"/>
       <use x="318.115234" xlink:href="#DejaVuSans-48"/>
      </g>
     </g>
    </g>
    <g id="ytick_5">
     <g id="line2d_13">
      <g>
       <use style="stroke:#000000;stroke-width:0.8;" x="52.375" xlink:href="#m42eeea26a8" y="117.790656"/>
      </g>
     </g>
     <g id="text_13">
      <!-- 350000 -->
      <g transform="translate(7.2 121.589875)scale(0.1 -0.1)">
       <use xlink:href="#DejaVuSans-51"/>
       <use x="63.623047" xlink:href="#DejaVuSans-53"/>
       <use x="127.246094" xlink:href="#DejaVuSans-48"/>
       <use x="190.869141" xlink:href="#DejaVuSans-48"/>
       <use x="254.492188" xlink:href="#DejaVuSans-48"/>
       <use x="318.115234" xlink:href="#DejaVuSans-48"/>
      </g>
     </g>
    </g>
    <g id="ytick_6">
     <g id="line2d_14">
      <g>
       <use style="stroke:#000000;stroke-width:0.8;" x="52.375" xlink:href="#m42eeea26a8" y="89.802868"/>
      </g>
     </g>
     <g id="text_14">
      <!-- 400000 -->
      <defs>
       <path d="M 37.796875 64.3125 
L 12.890625 25.390625 
L 37.796875 25.390625 
z
M 35.203125 72.90625 
L 47.609375 72.90625 
L 47.609375 25.390625 
L 58.015625 25.390625 
L 58.015625 17.1875 
L 47.609375 17.1875 
L 47.609375 0 
L 37.796875 0 
L 37.796875 17.1875 
L 4.890625 17.1875 
L 4.890625 26.703125 
z
" id="DejaVuSans-52"/>
      </defs>
      <g transform="translate(7.2 93.602087)scale(0.1 -0.1)">
       <use xlink:href="#DejaVuSans-52"/>
       <use x="63.623047" xlink:href="#DejaVuSans-48"/>
       <use x="127.246094" xlink:href="#DejaVuSans-48"/>
       <use x="190.869141" xlink:href="#DejaVuSans-48"/>
       <use x="254.492188" xlink:href="#DejaVuSans-48"/>
       <use x="318.115234" xlink:href="#DejaVuSans-48"/>
      </g>
     </g>
    </g>
    <g id="ytick_7">
     <g id="line2d_15">
      <g>
       <use style="stroke:#000000;stroke-width:0.8;" x="52.375" xlink:href="#m42eeea26a8" y="61.81508"/>
      </g>
     </g>
     <g id="text_15">
      <!-- 450000 -->
      <g transform="translate(7.2 65.614299)scale(0.1 -0.1)">
       <use xlink:href="#DejaVuSans-52"/>
       <use x="63.623047" xlink:href="#DejaVuSans-53"/>
       <use x="127.246094" xlink:href="#DejaVuSans-48"/>
       <use x="190.869141" xlink:href="#DejaVuSans-48"/>
       <use x="254.492188" xlink:href="#DejaVuSans-48"/>
       <use x="318.115234" xlink:href="#DejaVuSans-48"/>
      </g>
     </g>
    </g>
    <g id="ytick_8">
     <g id="line2d_16">
      <g>
       <use style="stroke:#000000;stroke-width:0.8;" x="52.375" xlink:href="#m42eeea26a8" y="33.827292"/>
      </g>
     </g>
     <g id="text_16">
      <!-- 500000 -->
      <g transform="translate(7.2 37.626511)scale(0.1 -0.1)">
       <use xlink:href="#DejaVuSans-53"/>
       <use x="63.623047" xlink:href="#DejaVuSans-48"/>
       <use x="127.246094" xlink:href="#DejaVuSans-48"/>
       <use x="190.869141" xlink:href="#DejaVuSans-48"/>
       <use x="254.492188" xlink:href="#DejaVuSans-48"/>
       <use x="318.115234" xlink:href="#DejaVuSans-48"/>
      </g>
     </g>
    </g>
   </g>
   <g id="line2d_17">
    <path clip-path="url(#p6e28d976bf)" d="M 72.665909 190.927225 
L 74.705196 193.292753 
L 76.744484 186.542098 
L 78.783771 170.115506 
L 80.823058 183.360447 
L 84.901633 169.041894 
L 86.940921 150.76139 
L 88.980208 165.472891 
L 91.019495 142.742329 
L 93.058783 166.697637 
L 95.09807 98.48412 
L 97.137357 138.347127 
L 99.176645 134.784282 
L 101.215932 119.726292 
L 103.255219 86.798099 
L 105.294507 32.201761 
L 107.333794 101.699358 
L 109.373081 148.053292 
L 111.412369 139.094961 
L 113.451656 150.930437 
L 115.490943 169.075479 
L 117.530231 174.398757 
L 119.569518 164.920972 
L 121.608805 175.093973 
L 123.648093 181.10575 
L 125.68738 184.467643 
L 127.726667 181.761784 
L 129.765955 176.54542 
L 131.805242 162.33658 
L 133.844529 178.020377 
L 135.883817 176.542621 
L 137.923104 177.465099 
L 139.962392 167.105699 
L 142.001679 176.63834 
L 144.040966 178.917105 
L 146.080254 175.591037 
L 148.119541 183.67391 
L 150.158828 164.655088 
L 152.198116 174.903656 
L 154.237403 166.11885 
L 156.27669 164.005772 
L 158.315978 146.521241 
L 160.355265 163.396198 
L 162.394552 183.883818 
L 164.43384 191.005591 
L 166.473127 184.098205 
L 168.512414 190.799601 
L 170.551702 192.232016 
L 172.590989 192.972572 
L 174.630276 191.837948 
L 176.669564 205.509422 
L 178.708851 198.591961 
L 180.748138 202.618844 
L 182.787426 201.498772 
L 184.826713 180.158084 
L 186.866 182.927755 
L 188.905288 180.867294 
L 190.944575 176.144635 
L 192.983862 168.947855 
L 195.02315 188.448626 
L 197.062437 152.610823 
L 199.101725 173.892738 
L 201.141012 116.906242 
L 203.180299 142.829651 
L 205.219587 137.344045 
L 207.258874 121.589719 
L 209.298161 117.476634 
L 211.337449 81.550949 
L 213.376736 116.2239 
L 215.416023 154.717744 
L 217.455311 156.42332 
L 219.494598 168.329325 
L 221.533885 176.069068 
L 223.573173 179.743305 
L 225.61246 194.572914 
L 227.651747 177.147717 
L 229.691035 189.31233 
L 231.730322 187.931972 
L 233.769609 185.930285 
L 235.808897 197.08174 
L 237.848184 179.462867 
L 239.887471 187.276498 
L 241.926759 178.462024 
L 243.966046 195.621897 
L 246.005333 193.335294 
L 248.044621 197.888907 
L 250.083908 195.851956 
L 252.123196 183.76459 
L 254.162483 194.647362 
L 256.20177 182.357364 
L 258.241058 185.586595 
L 260.280345 179.568101 
L 262.319632 172.150778 
L 264.35892 154.550377 
L 266.398207 169.420849 
L 268.437494 190.304217 
L 270.476782 202.439162 
L 272.516069 195.079493 
L 274.555356 202.716801 
L 276.594644 204.480031 
L 278.633931 203.865979 
L 280.673218 173.415266 
L 282.712506 195.080053 
L 284.751793 194.861748 
L 286.79108 194.484473 
L 288.830368 199.414242 
L 290.869655 185.386203 
L 292.908942 198.623867 
L 294.94823 192.79569 
L 296.987517 192.810803 
L 299.026804 178.182146 
L 301.066092 181.236733 
L 303.105379 159.7701 
L 305.144667 187.84353 
L 307.183954 131.195688 
L 309.223241 155.823262 
L 311.262529 152.787147 
L 313.301816 131.683795 
L 315.341103 116.951023 
L 317.380391 87.603028 
L 319.419678 115.155326 
L 321.458965 167.926861 
L 323.498253 163.580357 
L 325.53754 177.448306 
L 327.576827 183.141022 
L 329.616115 194.69606 
L 331.655402 203.828476 
L 333.694689 187.260265 
L 335.733977 198.851687 
L 337.773264 202.510251 
L 339.812551 204.310425 
L 341.851839 201.162359 
L 343.891126 183.976738 
L 345.930413 187.149993 
L 347.969701 201.676215 
L 350.008988 209.338152 
L 352.048275 207.204923 
L 354.087563 204.433012 
L 356.12685 197.811661 
L 358.166138 200.160956 
L 360.205425 206.49907 
L 362.244712 192.076404 
L 364.284 198.382612 
L 366.323287 189.010621 
L 368.362574 184.099884 
L 370.401862 165.443224 
L 374.480436 201.033055 
L 376.519724 213.016307 
L 378.559011 210.05296 
L 380.598298 212.927865 
L 382.637586 216.682147 
L 384.676873 215.330897 
L 386.71616 216.527655 
L 388.755448 222.666496 
L 390.794735 216.518139 
L 392.834022 216.906609 
L 394.87331 217.530177 
L 396.912597 205.14838 
L 398.951884 207.071141 
L 400.991172 202.463231 
L 403.030459 202.576862 
L 405.069746 193.461799 
L 407.109034 181.613449 
L 409.148321 186.877952 
L 411.187608 191.310098 
L 413.226896 135.738665 
L 415.266183 167.315048 
L 417.305471 170.858302 
L 421.384045 130.384601 
L 423.423333 117.259448 
L 425.46262 120.881068 
L 427.501907 162.707138 
L 429.541195 173.306673 
L 431.580482 171.339132 
L 433.619769 177.786958 
L 435.659057 195.754559 
L 437.698344 200.023816 
L 439.737631 190.232568 
L 441.776919 196.513587 
L 443.816206 204.898729 
L 445.855493 207.309597 
L 447.894781 210.821504 
L 449.934068 203.935389 
L 451.973355 203.770821 
L 454.012643 195.152261 
L 456.05193 199.07447 
L 458.091217 199.496526 
L 460.130505 208.323315 
L 462.169792 206.27069 
L 464.209079 202.26116 
L 466.248367 207.588355 
L 468.287654 190.454791 
L 470.326942 198.440827 
L 472.366229 187.301687 
L 474.405516 188.003621 
L 476.444804 183.845755 
L 478.484091 177.338034 
L 478.484091 177.338034 
" style="fill:none;stroke:#1f77b4;stroke-linecap:square;stroke-width:1.5;"/>
   </g>
   <g id="line2d_18">
    <path clip-path="url(#p6e28d976bf)" d="M 276.594644 203.56372 
L 278.633931 203.520855 
L 280.673218 209.73278 
L 282.712506 207.199832 
L 284.751793 208.461032 
L 286.79108 209.831594 
L 288.830368 194.458628 
L 290.869655 190.311773 
L 292.908942 195.381534 
L 294.94823 192.533978 
L 296.987517 186.866993 
L 299.026804 178.201869 
L 301.066092 183.442494 
L 303.105379 177.054291 
L 305.144667 168.306804 
L 307.183954 149.525537 
L 309.223241 165.930054 
L 311.262529 156.048231 
L 313.301816 138.092806 
L 315.341103 113.283783 
L 317.380391 114.80345 
L 319.419678 157.16141 
L 321.458965 176.406242 
L 323.498253 176.424828 
L 325.53754 181.794705 
L 327.576827 193.115336 
L 329.616115 196.743542 
L 331.655402 191.212228 
L 333.694689 196.897475 
L 335.733977 204.146504 
L 337.773264 204.542409 
L 339.812551 203.23098 
L 341.851839 192.311326 
L 343.891126 190.121929 
L 345.930413 196.665771 
L 347.969701 199.1173 
L 350.008988 203.3285 
L 352.048275 203.227823 
L 354.087563 203.846335 
L 356.12685 202.231186 
L 358.166138 206.00171 
L 360.205425 195.866317 
L 362.244712 195.711589 
L 364.284 195.336386 
L 366.323287 191.440512 
L 368.362574 179.699784 
L 370.401862 169.778839 
L 372.441149 196.629369 
L 374.480436 209.584444 
L 376.519724 210.863705 
L 378.559011 208.12224 
L 380.598298 212.383354 
L 382.637586 213.204149 
L 384.676873 213.467951 
L 386.71616 219.236103 
L 388.755448 216.312778 
L 390.794735 217.426045 
L 392.834022 218.900267 
L 394.87331 205.008117 
L 396.912597 201.577383 
L 398.951884 205.984445 
L 400.991172 203.169748 
L 403.030459 198.355612 
L 405.069746 189.991628 
L 407.109034 194.856334 
L 409.148321 188.956036 
L 411.187608 181.31656 
L 413.226896 163.967656 
L 415.266183 179.123848 
L 417.305471 170.272666 
L 419.344758 153.021509 
L 421.384045 130.398403 
L 423.423333 133.11446 
L 425.46262 170.838806 
L 427.501907 188.570093 
L 429.541195 188.209654 
L 431.580482 193.639758 
L 433.619769 203.459474 
L 435.659057 207.468856 
L 437.698344 201.683518 
L 439.737631 207.485063 
L 441.776919 213.971985 
L 443.816206 214.29485 
L 445.855493 213.946114 
L 447.894781 203.047826 
L 449.934068 201.266421 
L 451.973355 206.864521 
L 454.012643 209.435287 
L 456.05193 213.220635 
L 458.091217 213.087824 
L 460.130505 214.07219 
L 462.169792 211.98689 
L 464.209079 215.195943 
L 466.248367 206.400518 
L 468.287654 205.964005 
L 470.326942 205.443765 
L 472.366229 201.60796 
L 474.405516 191.307631 
L 476.444804 182.948624 
L 478.484091 207.177984 
" style="fill:none;stroke:#ff8c00;stroke-linecap:square;stroke-width:1.5;"/>
   </g>
   <g id="patch_3">
    <path d="M 52.375 239.758125 
L 52.375 22.318125 
" style="fill:none;stroke:#000000;stroke-linecap:square;stroke-linejoin:miter;stroke-width:0.8;"/>
   </g>
   <g id="patch_4">
    <path d="M 498.775 239.758125 
L 498.775 22.318125 
" style="fill:none;stroke:#000000;stroke-linecap:square;stroke-linejoin:miter;stroke-width:0.8;"/>
   </g>
   <g id="patch_5">
    <path d="M 52.375 239.758125 
L 498.775 239.758125 
" style="fill:none;stroke:#000000;stroke-linecap:square;stroke-linejoin:miter;stroke-width:0.8;"/>
   </g>
   <g id="patch_6">
    <path d="M 52.375 22.318125 
L 498.775 22.318125 
" style="fill:none;stroke:#000000;stroke-linecap:square;stroke-linejoin:miter;stroke-width:0.8;"/>
   </g>
   <g id="text_17">
    <!-- Forecast (MCMC) -->
    <defs>
     <path d="M 9.8125 72.90625 
L 51.703125 72.90625 
L 51.703125 64.59375 
L 19.671875 64.59375 
L 19.671875 43.109375 
L 48.578125 43.109375 
L 48.578125 34.8125 
L 19.671875 34.8125 
L 19.671875 0 
L 9.8125 0 
z
" id="DejaVuSans-70"/>
     <path d="M 30.609375 48.390625 
Q 23.390625 48.390625 19.1875 42.75 
Q 14.984375 37.109375 14.984375 27.296875 
Q 14.984375 17.484375 19.15625 11.84375 
Q 23.34375 6.203125 30.609375 6.203125 
Q 37.796875 6.203125 41.984375 11.859375 
Q 46.1875 17.53125 46.1875 27.296875 
Q 46.1875 37.015625 41.984375 42.703125 
Q 37.796875 48.390625 30.609375 48.390625 
z
M 30.609375 56 
Q 42.328125 56 49.015625 48.375 
Q 55.71875 40.765625 55.71875 27.296875 
Q 55.71875 13.875 49.015625 6.21875 
Q 42.328125 -1.421875 30.609375 -1.421875 
Q 18.84375 -1.421875 12.171875 6.21875 
Q 5.515625 13.875 5.515625 27.296875 
Q 5.515625 40.765625 12.171875 48.375 
Q 18.84375 56 30.609375 56 
z
" id="DejaVuSans-111"/>
     <path d="M 41.109375 46.296875 
Q 39.59375 47.171875 37.8125 47.578125 
Q 36.03125 48 33.890625 48 
Q 26.265625 48 22.1875 43.046875 
Q 18.109375 38.09375 18.109375 28.8125 
L 18.109375 0 
L 9.078125 0 
L 9.078125 54.6875 
L 18.109375 54.6875 
L 18.109375 46.1875 
Q 20.953125 51.171875 25.484375 53.578125 
Q 30.03125 56 36.53125 56 
Q 37.453125 56 38.578125 55.875 
Q 39.703125 55.765625 41.0625 55.515625 
z
" id="DejaVuSans-114"/>
     <path d="M 56.203125 29.59375 
L 56.203125 25.203125 
L 14.890625 25.203125 
Q 15.484375 15.921875 20.484375 11.0625 
Q 25.484375 6.203125 34.421875 6.203125 
Q 39.59375 6.203125 44.453125 7.46875 
Q 49.3125 8.734375 54.109375 11.28125 
L 54.109375 2.78125 
Q 49.265625 0.734375 44.1875 -0.34375 
Q 39.109375 -1.421875 33.890625 -1.421875 
Q 20.796875 -1.421875 13.15625 6.1875 
Q 5.515625 13.8125 5.515625 26.8125 
Q 5.515625 40.234375 12.765625 48.109375 
Q 20.015625 56 32.328125 56 
Q 43.359375 56 49.78125 48.890625 
Q 56.203125 41.796875 56.203125 29.59375 
z
M 47.21875 32.234375 
Q 47.125 39.59375 43.09375 43.984375 
Q 39.0625 48.390625 32.421875 48.390625 
Q 24.90625 48.390625 20.390625 44.140625 
Q 15.875 39.890625 15.1875 32.171875 
z
" id="DejaVuSans-101"/>
     <path d="M 48.78125 52.59375 
L 48.78125 44.1875 
Q 44.96875 46.296875 41.140625 47.34375 
Q 37.3125 48.390625 33.40625 48.390625 
Q 24.65625 48.390625 19.8125 42.84375 
Q 14.984375 37.3125 14.984375 27.296875 
Q 14.984375 17.28125 19.8125 11.734375 
Q 24.65625 6.203125 33.40625 6.203125 
Q 37.3125 6.203125 41.140625 7.25 
Q 44.96875 8.296875 48.78125 10.40625 
L 48.78125 2.09375 
Q 45.015625 0.34375 40.984375 -0.53125 
Q 36.96875 -1.421875 32.421875 -1.421875 
Q 20.0625 -1.421875 12.78125 6.34375 
Q 5.515625 14.109375 5.515625 27.296875 
Q 5.515625 40.671875 12.859375 48.328125 
Q 20.21875 56 33.015625 56 
Q 37.15625 56 41.109375 55.140625 
Q 45.0625 54.296875 48.78125 52.59375 
z
" id="DejaVuSans-99"/>
     <path d="M 34.28125 27.484375 
Q 23.390625 27.484375 19.1875 25 
Q 14.984375 22.515625 14.984375 16.5 
Q 14.984375 11.71875 18.140625 8.90625 
Q 21.296875 6.109375 26.703125 6.109375 
Q 34.1875 6.109375 38.703125 11.40625 
Q 43.21875 16.703125 43.21875 25.484375 
L 43.21875 27.484375 
z
M 52.203125 31.203125 
L 52.203125 0 
L 43.21875 0 
L 43.21875 8.296875 
Q 40.140625 3.328125 35.546875 0.953125 
Q 30.953125 -1.421875 24.3125 -1.421875 
Q 15.921875 -1.421875 10.953125 3.296875 
Q 6 8.015625 6 15.921875 
Q 6 25.140625 12.171875 29.828125 
Q 18.359375 34.515625 30.609375 34.515625 
L 43.21875 34.515625 
L 43.21875 35.40625 
Q 43.21875 41.609375 39.140625 45 
Q 35.0625 48.390625 27.6875 48.390625 
Q 23 48.390625 18.546875 47.265625 
Q 14.109375 46.140625 10.015625 43.890625 
L 10.015625 52.203125 
Q 14.9375 54.109375 19.578125 55.046875 
Q 24.21875 56 28.609375 56 
Q 40.484375 56 46.34375 49.84375 
Q 52.203125 43.703125 52.203125 31.203125 
z
" id="DejaVuSans-97"/>
     <path d="M 44.28125 53.078125 
L 44.28125 44.578125 
Q 40.484375 46.53125 36.375 47.5 
Q 32.28125 48.484375 27.875 48.484375 
Q 21.1875 48.484375 17.84375 46.4375 
Q 14.5 44.390625 14.5 40.28125 
Q 14.5 37.15625 16.890625 35.375 
Q 19.28125 33.59375 26.515625 31.984375 
L 29.59375 31.296875 
Q 39.15625 29.25 43.1875 25.515625 
Q 47.21875 21.78125 47.21875 15.09375 
Q 47.21875 7.46875 41.1875 3.015625 
Q 35.15625 -1.421875 24.609375 -1.421875 
Q 20.21875 -1.421875 15.453125 -0.5625 
Q 10.6875 0.296875 5.421875 2 
L 5.421875 11.28125 
Q 10.40625 8.6875 15.234375 7.390625 
Q 20.0625 6.109375 24.8125 6.109375 
Q 31.15625 6.109375 34.5625 8.28125 
Q 37.984375 10.453125 37.984375 14.40625 
Q 37.984375 18.0625 35.515625 20.015625 
Q 33.0625 21.96875 24.703125 23.78125 
L 21.578125 24.515625 
Q 13.234375 26.265625 9.515625 29.90625 
Q 5.8125 33.546875 5.8125 39.890625 
Q 5.8125 47.609375 11.28125 51.796875 
Q 16.75 56 26.8125 56 
Q 31.78125 56 36.171875 55.265625 
Q 40.578125 54.546875 44.28125 53.078125 
z
" id="DejaVuSans-115"/>
     <path d="M 18.3125 70.21875 
L 18.3125 54.6875 
L 36.8125 54.6875 
L 36.8125 47.703125 
L 18.3125 47.703125 
L 18.3125 18.015625 
Q 18.3125 11.328125 20.140625 9.421875 
Q 21.96875 7.515625 27.59375 7.515625 
L 36.8125 7.515625 
L 36.8125 0 
L 27.59375 0 
Q 17.1875 0 13.234375 3.875 
Q 9.28125 7.765625 9.28125 18.015625 
L 9.28125 47.703125 
L 2.6875 47.703125 
L 2.6875 54.6875 
L 9.28125 54.6875 
L 9.28125 70.21875 
z
" id="DejaVuSans-116"/>
     <path id="DejaVuSans-32"/>
     <path d="M 31 75.875 
Q 24.46875 64.65625 21.28125 53.65625 
Q 18.109375 42.671875 18.109375 31.390625 
Q 18.109375 20.125 21.3125 9.0625 
Q 24.515625 -2 31 -13.1875 
L 23.1875 -13.1875 
Q 15.875 -1.703125 12.234375 9.375 
Q 8.59375 20.453125 8.59375 31.390625 
Q 8.59375 42.28125 12.203125 53.3125 
Q 15.828125 64.359375 23.1875 75.875 
z
" id="DejaVuSans-40"/>
     <path d="M 9.8125 72.90625 
L 24.515625 72.90625 
L 43.109375 23.296875 
L 61.8125 72.90625 
L 76.515625 72.90625 
L 76.515625 0 
L 66.890625 0 
L 66.890625 64.015625 
L 48.09375 14.015625 
L 38.1875 14.015625 
L 19.390625 64.015625 
L 19.390625 0 
L 9.8125 0 
z
" id="DejaVuSans-77"/>
     <path d="M 64.40625 67.28125 
L 64.40625 56.890625 
Q 59.421875 61.53125 53.78125 63.8125 
Q 48.140625 66.109375 41.796875 66.109375 
Q 29.296875 66.109375 22.65625 58.46875 
Q 16.015625 50.828125 16.015625 36.375 
Q 16.015625 21.96875 22.65625 14.328125 
Q 29.296875 6.6875 41.796875 6.6875 
Q 48.140625 6.6875 53.78125 8.984375 
Q 59.421875 11.28125 64.40625 15.921875 
L 64.40625 5.609375 
Q 59.234375 2.09375 53.4375 0.328125 
Q 47.65625 -1.421875 41.21875 -1.421875 
Q 24.65625 -1.421875 15.125 8.703125 
Q 5.609375 18.84375 5.609375 36.375 
Q 5.609375 53.953125 15.125 64.078125 
Q 24.65625 74.21875 41.21875 74.21875 
Q 47.75 74.21875 53.53125 72.484375 
Q 59.328125 70.75 64.40625 67.28125 
z
" id="DejaVuSans-67"/>
     <path d="M 8.015625 75.875 
L 15.828125 75.875 
Q 23.140625 64.359375 26.78125 53.3125 
Q 30.421875 42.28125 30.421875 31.390625 
Q 30.421875 20.453125 26.78125 9.375 
Q 23.140625 -1.703125 15.828125 -13.1875 
L 8.015625 -13.1875 
Q 14.5 -2 17.703125 9.0625 
Q 20.90625 20.125 20.90625 31.390625 
Q 20.90625 42.671875 17.703125 53.65625 
Q 14.5 64.65625 8.015625 75.875 
z
" id="DejaVuSans-41"/>
    </defs>
    <g transform="translate(224.523438 16.318125)scale(0.12 -0.12)">
     <use xlink:href="#DejaVuSans-70"/>
     <use x="57.472656" xlink:href="#DejaVuSans-111"/>
     <use x="118.654297" xlink:href="#DejaVuSans-114"/>
     <use x="159.736328" xlink:href="#DejaVuSans-101"/>
     <use x="221.259766" xlink:href="#DejaVuSans-99"/>
     <use x="276.240234" xlink:href="#DejaVuSans-97"/>
     <use x="337.519531" xlink:href="#DejaVuSans-115"/>
     <use x="389.619141" xlink:href="#DejaVuSans-116"/>
     <use x="428.828125" xlink:href="#DejaVuSans-32"/>
     <use x="460.615234" xlink:href="#DejaVuSans-40"/>
     <use x="499.628906" xlink:href="#DejaVuSans-77"/>
     <use x="585.908203" xlink:href="#DejaVuSans-67"/>
     <use x="655.732422" xlink:href="#DejaVuSans-77"/>
     <use x="742.011719" xlink:href="#DejaVuSans-67"/>
     <use x="811.835938" xlink:href="#DejaVuSans-41"/>
    </g>
   </g>
   <g id="legend_1">
    <g id="patch_7">
     <path d="M 402.570312 59.674375 
L 491.775 59.674375 
Q 493.775 59.674375 493.775 57.674375 
L 493.775 29.318125 
Q 493.775 27.318125 491.775 27.318125 
L 402.570312 27.318125 
Q 400.570312 27.318125 400.570312 29.318125 
L 400.570312 57.674375 
Q 400.570312 59.674375 402.570312 59.674375 
z
" style="fill:#ffffff;opacity:0.8;stroke:#cccccc;stroke-linejoin:miter;"/>
    </g>
    <g id="line2d_19">
     <path d="M 404.570312 35.416562 
L 424.570312 35.416562 
" style="fill:none;stroke:#1f77b4;stroke-linecap:square;stroke-width:1.5;"/>
    </g>
    <g id="line2d_20"/>
    <g id="text_18">
     <!-- Actual data -->
     <defs>
      <path d="M 34.1875 63.1875 
L 20.796875 26.90625 
L 47.609375 26.90625 
z
M 28.609375 72.90625 
L 39.796875 72.90625 
L 67.578125 0 
L 57.328125 0 
L 50.6875 18.703125 
L 17.828125 18.703125 
L 11.1875 0 
L 0.78125 0 
z
" id="DejaVuSans-65"/>
      <path d="M 8.5 21.578125 
L 8.5 54.6875 
L 17.484375 54.6875 
L 17.484375 21.921875 
Q 17.484375 14.15625 20.5 10.265625 
Q 23.53125 6.390625 29.59375 6.390625 
Q 36.859375 6.390625 41.078125 11.03125 
Q 45.3125 15.671875 45.3125 23.6875 
L 45.3125 54.6875 
L 54.296875 54.6875 
L 54.296875 0 
L 45.3125 0 
L 45.3125 8.40625 
Q 42.046875 3.421875 37.71875 1 
Q 33.40625 -1.421875 27.6875 -1.421875 
Q 18.265625 -1.421875 13.375 4.4375 
Q 8.5 10.296875 8.5 21.578125 
z
M 31.109375 56 
z
" id="DejaVuSans-117"/>
      <path d="M 9.421875 75.984375 
L 18.40625 75.984375 
L 18.40625 0 
L 9.421875 0 
z
" id="DejaVuSans-108"/>
      <path d="M 45.40625 46.390625 
L 45.40625 75.984375 
L 54.390625 75.984375 
L 54.390625 0 
L 45.40625 0 
L 45.40625 8.203125 
Q 42.578125 3.328125 38.25 0.953125 
Q 33.9375 -1.421875 27.875 -1.421875 
Q 17.96875 -1.421875 11.734375 6.484375 
Q 5.515625 14.40625 5.515625 27.296875 
Q 5.515625 40.1875 11.734375 48.09375 
Q 17.96875 56 27.875 56 
Q 33.9375 56 38.25 53.625 
Q 42.578125 51.265625 45.40625 46.390625 
z
M 14.796875 27.296875 
Q 14.796875 17.390625 18.875 11.75 
Q 22.953125 6.109375 30.078125 6.109375 
Q 37.203125 6.109375 41.296875 11.75 
Q 45.40625 17.390625 45.40625 27.296875 
Q 45.40625 37.203125 41.296875 42.84375 
Q 37.203125 48.484375 30.078125 48.484375 
Q 22.953125 48.484375 18.875 42.84375 
Q 14.796875 37.203125 14.796875 27.296875 
z
" id="DejaVuSans-100"/>
     </defs>
     <g transform="translate(432.570312 38.916562)scale(0.1 -0.1)">
      <use xlink:href="#DejaVuSans-65"/>
      <use x="68.392578" xlink:href="#DejaVuSans-99"/>
      <use x="123.373047" xlink:href="#DejaVuSans-116"/>
      <use x="162.582031" xlink:href="#DejaVuSans-117"/>
      <use x="225.960938" xlink:href="#DejaVuSans-97"/>
      <use x="287.240234" xlink:href="#DejaVuSans-108"/>
      <use x="315.023438" xlink:href="#DejaVuSans-32"/>
      <use x="346.810547" xlink:href="#DejaVuSans-100"/>
      <use x="410.287109" xlink:href="#DejaVuSans-97"/>
      <use x="471.566406" xlink:href="#DejaVuSans-116"/>
      <use x="510.775391" xlink:href="#DejaVuSans-97"/>
     </g>
    </g>
    <g id="line2d_21">
     <path d="M 404.570312 50.094687 
L 424.570312 50.094687 
" style="fill:none;stroke:#ff8c00;stroke-linecap:square;stroke-width:1.5;"/>
    </g>
    <g id="line2d_22"/>
    <g id="text_19">
     <!-- Forecast -->
     <g transform="translate(432.570312 53.594687)scale(0.1 -0.1)">
      <use xlink:href="#DejaVuSans-70"/>
      <use x="57.472656" xlink:href="#DejaVuSans-111"/>
      <use x="118.654297" xlink:href="#DejaVuSans-114"/>
      <use x="159.736328" xlink:href="#DejaVuSans-101"/>
      <use x="221.259766" xlink:href="#DejaVuSans-99"/>
      <use x="276.240234" xlink:href="#DejaVuSans-97"/>
      <use x="337.519531" xlink:href="#DejaVuSans-115"/>
      <use x="389.619141" xlink:href="#DejaVuSans-116"/>
     </g>
    </g>
   </g>
  </g>
 </g>
 <defs>
  <clipPath id="p6e28d976bf">
   <rect height="217.44" width="446.4" x="52.375" y="22.318125"/>
  </clipPath>
 </defs>
</svg>
