<?xml version="1.0" encoding="utf-8" standalone="no"?>
<!DOCTYPE svg PUBLIC "-//W3C//DTD SVG 1.1//EN"
  "http://www.w3.org/Graphics/SVG/1.1/DTD/svg11.dtd">
<!-- Created with matplotlib (https://matplotlib.org/) -->
<svg height="263.63625pt" version="1.1" viewBox="0 0 509.475 263.63625" width="509.475pt" xmlns="http://www.w3.org/2000/svg" xmlns:xlink="http://www.w3.org/1999/xlink">
 <defs>
  <style type="text/css">
*{stroke-linecap:butt;stroke-linejoin:round;}
  </style>
 </defs>
 <g id="figure_1">
  <g id="patch_1">
   <path d="M 0 263.63625 
L 509.475 263.63625 
L 509.475 0 
L 0 0 
z
" style="fill:none;"/>
  </g>
  <g id="axes_1">
   <g id="patch_2">
    <path d="M 52.375 239.758125 
L 498.775 239.758125 
L 498.775 22.318125 
L 52.375 22.318125 
z
" style="fill:#ffffff;"/>
   </g>
   <g id="PolyCollection_1">
    <defs>
     <path d="M 276.594644 -64.124324 
L 276.594644 -46.56392 
L 278.633931 -48.515984 
L 280.673218 -42.384822 
L 282.712506 -43.974525 
L 284.751793 -43.170828 
L 286.79108 -41.981481 
L 288.830368 -55.196779 
L 290.869655 -59.239234 
L 292.908942 -55.350527 
L 294.94823 -56.746322 
L 296.987517 -63.78271 
L 299.026804 -72.768106 
L 301.066092 -65.612925 
L 303.105379 -69.923294 
L 305.144667 -80.269547 
L 307.183954 -95.973173 
L 309.223241 -79.123119 
L 311.262529 -89.06493 
L 313.301816 -106.241622 
L 315.341103 -127.813989 
L 317.380391 -125.212954 
L 319.419678 -89.103029 
L 321.458965 -73.23212 
L 323.498253 -72.626138 
L 325.53754 -67.203317 
L 327.576827 -57.384037 
L 329.616115 -53.634748 
L 331.655402 -59.137329 
L 333.694689 -53.710107 
L 335.733977 -48.320303 
L 337.773264 -44.994555 
L 339.812551 -48.581615 
L 341.851839 -58.056698 
L 343.891126 -59.823307 
L 345.930413 -53.558952 
L 347.969701 -52.12898 
L 350.008988 -48.774921 
L 352.048275 -48.212757 
L 354.087563 -46.8165 
L 356.12685 -49.594223 
L 358.166138 -44.788421 
L 360.205425 -53.186104 
L 362.244712 -53.452838 
L 364.284 -54.480116 
L 366.323287 -58.214646 
L 368.362574 -68.168543 
L 370.401862 -76.516024 
L 372.441149 -52.537735 
L 374.480436 -42.467517 
L 376.519724 -41.471169 
L 378.559011 -42.697454 
L 380.598298 -41.556431 
L 382.637586 -39.959436 
L 384.676873 -38.463727 
L 386.71616 -34.541096 
L 388.755448 -35.516346 
L 390.794735 -35.970771 
L 392.834022 -33.761761 
L 394.87331 -46.365166 
L 396.912597 -49.705742 
L 398.951884 -44.782117 
L 400.991172 -47.418465 
L 403.030459 -53.138172 
L 405.069746 -60.661278 
L 407.109034 -55.885167 
L 409.148321 -59.788352 
L 411.187608 -68.433042 
L 413.226896 -82.902018 
L 415.266183 -69.651023 
L 417.305471 -77.047878 
L 419.344758 -92.615979 
L 421.384045 -114.430167 
L 423.423333 -108.993358 
L 425.46262 -76.586895 
L 427.501907 -62.011255 
L 429.541195 -61.518163 
L 431.580482 -56.943391 
L 433.619769 -48.271368 
L 435.659057 -46.081455 
L 437.698344 -49.09749 
L 439.737631 -43.961313 
L 441.776919 -39.074014 
L 443.816206 -37.063383 
L 445.855493 -39.045259 
L 447.894781 -47.894005 
L 449.934068 -50.574346 
L 451.973355 -45.266179 
L 454.012643 -42.396759 
L 456.05193 -39.370212 
L 458.091217 -39.229701 
L 460.130505 -39.062252 
L 462.169792 -41.023843 
L 464.209079 -37.126316 
L 466.248367 -45.301746 
L 468.287654 -45.082575 
L 470.326942 -45.129729 
L 472.366229 -48.584052 
L 474.405516 -57.690625 
L 476.444804 -65.484316 
L 478.484091 -44.247163 
L 478.484091 -61.555162 
L 478.484091 -61.555162 
L 476.444804 -87.53093 
L 474.405516 -78.478436 
L 472.366229 -65.7846 
L 470.326942 -62.818253 
L 468.287654 -62.597249 
L 466.248367 -62.551998 
L 464.209079 -52.133058 
L 462.169792 -55.951488 
L 460.130505 -54.992855 
L 458.091217 -55.516946 
L 456.05193 -55.924916 
L 454.012643 -58.235621 
L 451.973355 -62.174582 
L 449.934068 -66.91201 
L 447.894781 -65.275389 
L 445.855493 -55.314498 
L 443.816206 -53.841248 
L 441.776919 -54.341919 
L 439.737631 -60.935269 
L 437.698344 -66.584735 
L 435.659057 -61.538308 
L 433.619769 -65.34598 
L 431.580482 -77.226059 
L 429.541195 -80.152544 
L 427.501907 -81.608652 
L 425.46262 -98.066228 
L 423.423333 -137.488323 
L 421.384045 -142.090855 
L 419.344758 -115.520788 
L 417.305471 -99.961506 
L 415.266183 -90.218781 
L 413.226896 -105.857125 
L 411.187608 -89.582236 
L 409.148321 -81.897436 
L 407.109034 -75.549829 
L 405.069746 -79.859805 
L 403.030459 -71.513206 
L 400.991172 -65.416825 
L 398.951884 -63.330581 
L 396.912597 -67.749387 
L 394.87331 -63.711569 
L 392.834022 -48.929307 
L 390.794735 -50.674251 
L 388.755448 -51.479284 
L 386.71616 -48.914086 
L 384.676873 -55.287183 
L 382.637586 -54.818804 
L 380.598298 -55.074501 
L 378.559011 -60.699874 
L 376.519724 -58.479879 
L 374.480436 -59.042776 
L 372.441149 -72.005748 
L 370.401862 -99.362283 
L 368.362574 -90.94601 
L 366.323287 -78.345583 
L 364.284 -73.779779 
L 362.244712 -72.879739 
L 360.205425 -72.305726 
L 358.166138 -62.53146 
L 356.12685 -67.094522 
L 354.087563 -64.767985 
L 352.048275 -66.13258 
L 350.008988 -66.186571 
L 347.969701 -69.100971 
L 345.930413 -72.836052 
L 343.891126 -78.958577 
L 341.851839 -76.109014 
L 339.812551 -65.013702 
L 337.773264 -64.166535 
L 335.733977 -65.186565 
L 333.694689 -72.066079 
L 331.655402 -77.558198 
L 329.616115 -73.036264 
L 327.576827 -75.440649 
L 325.53754 -88.166104 
L 323.498253 -91.990804 
L 321.458965 -93.713918 
L 319.419678 -112.067889 
L 317.380391 -156.016092 
L 315.341103 -160.360273 
L 313.301816 -133.119273 
L 311.262529 -115.566475 
L 309.223241 -104.072431 
L 307.183954 -120.588172 
L 305.144667 -102.501642 
L 303.105379 -93.511889 
L 301.066092 -86.304986 
L 299.026804 -92.992356 
L 296.987517 -82.442275 
L 294.94823 -76.219739 
L 292.908942 -73.418431 
L 290.869655 -78.847163 
L 288.830368 -74.332119 
L 286.79108 -57.919078 
L 284.751793 -60.501216 
L 282.712506 -61.108211 
L 280.673218 -58.936819 
L 278.633931 -66.548837 
L 276.594644 -64.124324 
z
" id="ma3eb9bd57a" style="stroke:#ff8c00;stroke-opacity:0.4;"/>
    </defs>
    <g clip-path="url(#p525721db79)">
     <use style="fill:#ff8c00;fill-opacity:0.4;stroke:#ff8c00;stroke-opacity:0.4;" x="0" xlink:href="#ma3eb9bd57a" y="263.63625"/>
    </g>
   </g>
   <g id="matplotlib.axis_1">
    <g id="xtick_1">
     <g id="line2d_1">
      <defs>
       <path d="M 0 0 
L 0 3.5 
" id="mc099523575" style="stroke:#000000;stroke-width:0.8;"/>
      </defs>
      <g>
       <use style="stroke:#000000;stroke-width:0.8;" x="102.963893" xlink:href="#mc099523575" y="239.758125"/>
      </g>
     </g>
     <g id="text_1">
      <!-- 2016-01 -->
      <defs>
       <path d="M 19.1875 8.296875 
L 53.609375 8.296875 
L 53.609375 0 
L 7.328125 0 
L 7.328125 8.296875 
Q 12.9375 14.109375 22.625 23.890625 
Q 32.328125 33.6875 34.8125 36.53125 
Q 39.546875 41.84375 41.421875 45.53125 
Q 43.3125 49.21875 43.3125 52.78125 
Q 43.3125 58.59375 39.234375 62.25 
Q 35.15625 65.921875 28.609375 65.921875 
Q 23.96875 65.921875 18.8125 64.3125 
Q 13.671875 62.703125 7.8125 59.421875 
L 7.8125 69.390625 
Q 13.765625 71.78125 18.9375 73 
Q 24.125 74.21875 28.421875 74.21875 
Q 39.75 74.21875 46.484375 68.546875 
Q 53.21875 62.890625 53.21875 53.421875 
Q 53.21875 48.921875 51.53125 44.890625 
Q 49.859375 40.875 45.40625 35.40625 
Q 44.1875 33.984375 37.640625 27.21875 
Q 31.109375 20.453125 19.1875 8.296875 
z
" id="DejaVuSans-50"/>
       <path d="M 31.78125 66.40625 
Q 24.171875 66.40625 20.328125 58.90625 
Q 16.5 51.421875 16.5 36.375 
Q 16.5 21.390625 20.328125 13.890625 
Q 24.171875 6.390625 31.78125 6.390625 
Q 39.453125 6.390625 43.28125 13.890625 
Q 47.125 21.390625 47.125 36.375 
Q 47.125 51.421875 43.28125 58.90625 
Q 39.453125 66.40625 31.78125 66.40625 
z
M 31.78125 74.21875 
Q 44.046875 74.21875 50.515625 64.515625 
Q 56.984375 54.828125 56.984375 36.375 
Q 56.984375 17.96875 50.515625 8.265625 
Q 44.046875 -1.421875 31.78125 -1.421875 
Q 19.53125 -1.421875 13.0625 8.265625 
Q 6.59375 17.96875 6.59375 36.375 
Q 6.59375 54.828125 13.0625 64.515625 
Q 19.53125 74.21875 31.78125 74.21875 
z
" id="DejaVuSans-48"/>
       <path d="M 12.40625 8.296875 
L 28.515625 8.296875 
L 28.515625 63.921875 
L 10.984375 60.40625 
L 10.984375 69.390625 
L 28.421875 72.90625 
L 38.28125 72.90625 
L 38.28125 8.296875 
L 54.390625 8.296875 
L 54.390625 0 
L 12.40625 0 
z
" id="DejaVuSans-49"/>
       <path d="M 33.015625 40.375 
Q 26.375 40.375 22.484375 35.828125 
Q 18.609375 31.296875 18.609375 23.390625 
Q 18.609375 15.53125 22.484375 10.953125 
Q 26.375 6.390625 33.015625 6.390625 
Q 39.65625 6.390625 43.53125 10.953125 
Q 47.40625 15.53125 47.40625 23.390625 
Q 47.40625 31.296875 43.53125 35.828125 
Q 39.65625 40.375 33.015625 40.375 
z
M 52.59375 71.296875 
L 52.59375 62.3125 
Q 48.875 64.0625 45.09375 64.984375 
Q 41.3125 65.921875 37.59375 65.921875 
Q 27.828125 65.921875 22.671875 59.328125 
Q 17.53125 52.734375 16.796875 39.40625 
Q 19.671875 43.65625 24.015625 45.921875 
Q 28.375 48.1875 33.59375 48.1875 
Q 44.578125 48.1875 50.953125 41.515625 
Q 57.328125 34.859375 57.328125 23.390625 
Q 57.328125 12.15625 50.6875 5.359375 
Q 44.046875 -1.421875 33.015625 -1.421875 
Q 20.359375 -1.421875 13.671875 8.265625 
Q 6.984375 17.96875 6.984375 36.375 
Q 6.984375 53.65625 15.1875 63.9375 
Q 23.390625 74.21875 37.203125 74.21875 
Q 40.921875 74.21875 44.703125 73.484375 
Q 48.484375 72.75 52.59375 71.296875 
z
" id="DejaVuSans-54"/>
       <path d="M 4.890625 31.390625 
L 31.203125 31.390625 
L 31.203125 23.390625 
L 4.890625 23.390625 
z
" id="DejaVuSans-45"/>
      </defs>
      <g transform="translate(82.072486 254.356563)scale(0.1 -0.1)">
       <use xlink:href="#DejaVuSans-50"/>
       <use x="63.623047" xlink:href="#DejaVuSans-48"/>
       <use x="127.246094" xlink:href="#DejaVuSans-49"/>
       <use x="190.869141" xlink:href="#DejaVuSans-54"/>
       <use x="254.492188" xlink:href="#DejaVuSans-45"/>
       <use x="290.576172" xlink:href="#DejaVuSans-48"/>
       <use x="354.199219" xlink:href="#DejaVuSans-49"/>
      </g>
     </g>
    </g>
    <g id="xtick_2">
     <g id="line2d_2">
      <g>
       <use style="stroke:#000000;stroke-width:0.8;" x="155.985364" xlink:href="#mc099523575" y="239.758125"/>
      </g>
     </g>
     <g id="text_2">
      <!-- 2016-07 -->
      <defs>
       <path d="M 8.203125 72.90625 
L 55.078125 72.90625 
L 55.078125 68.703125 
L 28.609375 0 
L 18.3125 0 
L 43.21875 64.59375 
L 8.203125 64.59375 
z
" id="DejaVuSans-55"/>
      </defs>
      <g transform="translate(135.093957 254.356563)scale(0.1 -0.1)">
       <use xlink:href="#DejaVuSans-50"/>
       <use x="63.623047" xlink:href="#DejaVuSans-48"/>
       <use x="127.246094" xlink:href="#DejaVuSans-49"/>
       <use x="190.869141" xlink:href="#DejaVuSans-54"/>
       <use x="254.492188" xlink:href="#DejaVuSans-45"/>
       <use x="290.576172" xlink:href="#DejaVuSans-48"/>
       <use x="354.199219" xlink:href="#DejaVuSans-55"/>
      </g>
     </g>
    </g>
    <g id="xtick_3">
     <g id="line2d_3">
      <g>
       <use style="stroke:#000000;stroke-width:0.8;" x="209.589488" xlink:href="#mc099523575" y="239.758125"/>
      </g>
     </g>
     <g id="text_3">
      <!-- 2017-01 -->
      <g transform="translate(188.698082 254.356563)scale(0.1 -0.1)">
       <use xlink:href="#DejaVuSans-50"/>
       <use x="63.623047" xlink:href="#DejaVuSans-48"/>
       <use x="127.246094" xlink:href="#DejaVuSans-49"/>
       <use x="190.869141" xlink:href="#DejaVuSans-55"/>
       <use x="254.492188" xlink:href="#DejaVuSans-45"/>
       <use x="290.576172" xlink:href="#DejaVuSans-48"/>
       <use x="354.199219" xlink:href="#DejaVuSans-49"/>
      </g>
     </g>
    </g>
    <g id="xtick_4">
     <g id="line2d_4">
      <g>
       <use style="stroke:#000000;stroke-width:0.8;" x="262.319632" xlink:href="#mc099523575" y="239.758125"/>
      </g>
     </g>
     <g id="text_4">
      <!-- 2017-07 -->
      <g transform="translate(241.428226 254.356563)scale(0.1 -0.1)">
       <use xlink:href="#DejaVuSans-50"/>
       <use x="63.623047" xlink:href="#DejaVuSans-48"/>
       <use x="127.246094" xlink:href="#DejaVuSans-49"/>
       <use x="190.869141" xlink:href="#DejaVuSans-55"/>
       <use x="254.492188" xlink:href="#DejaVuSans-45"/>
       <use x="290.576172" xlink:href="#DejaVuSans-48"/>
       <use x="354.199219" xlink:href="#DejaVuSans-55"/>
      </g>
     </g>
    </g>
    <g id="xtick_5">
     <g id="line2d_5">
      <g>
       <use style="stroke:#000000;stroke-width:0.8;" x="315.923757" xlink:href="#mc099523575" y="239.758125"/>
      </g>
     </g>
     <g id="text_5">
      <!-- 2018-01 -->
      <defs>
       <path d="M 31.78125 34.625 
Q 24.75 34.625 20.71875 30.859375 
Q 16.703125 27.09375 16.703125 20.515625 
Q 16.703125 13.921875 20.71875 10.15625 
Q 24.75 6.390625 31.78125 6.390625 
Q 38.8125 6.390625 42.859375 10.171875 
Q 46.921875 13.96875 46.921875 20.515625 
Q 46.921875 27.09375 42.890625 30.859375 
Q 38.875 34.625 31.78125 34.625 
z
M 21.921875 38.8125 
Q 15.578125 40.375 12.03125 44.71875 
Q 8.5 49.078125 8.5 55.328125 
Q 8.5 64.0625 14.71875 69.140625 
Q 20.953125 74.21875 31.78125 74.21875 
Q 42.671875 74.21875 48.875 69.140625 
Q 55.078125 64.0625 55.078125 55.328125 
Q 55.078125 49.078125 51.53125 44.71875 
Q 48 40.375 41.703125 38.8125 
Q 48.828125 37.15625 52.796875 32.3125 
Q 56.78125 27.484375 56.78125 20.515625 
Q 56.78125 9.90625 50.3125 4.234375 
Q 43.84375 -1.421875 31.78125 -1.421875 
Q 19.734375 -1.421875 13.25 4.234375 
Q 6.78125 9.90625 6.78125 20.515625 
Q 6.78125 27.484375 10.78125 32.3125 
Q 14.796875 37.15625 21.921875 38.8125 
z
M 18.3125 54.390625 
Q 18.3125 48.734375 21.84375 45.5625 
Q 25.390625 42.390625 31.78125 42.390625 
Q 38.140625 42.390625 41.71875 45.5625 
Q 45.3125 48.734375 45.3125 54.390625 
Q 45.3125 60.0625 41.71875 63.234375 
Q 38.140625 66.40625 31.78125 66.40625 
Q 25.390625 66.40625 21.84375 63.234375 
Q 18.3125 60.0625 18.3125 54.390625 
z
" id="DejaVuSans-56"/>
      </defs>
      <g transform="translate(295.032351 254.356563)scale(0.1 -0.1)">
       <use xlink:href="#DejaVuSans-50"/>
       <use x="63.623047" xlink:href="#DejaVuSans-48"/>
       <use x="127.246094" xlink:href="#DejaVuSans-49"/>
       <use x="190.869141" xlink:href="#DejaVuSans-56"/>
       <use x="254.492188" xlink:href="#DejaVuSans-45"/>
       <use x="290.576172" xlink:href="#DejaVuSans-48"/>
       <use x="354.199219" xlink:href="#DejaVuSans-49"/>
      </g>
     </g>
    </g>
    <g id="xtick_6">
     <g id="line2d_6">
      <g>
       <use style="stroke:#000000;stroke-width:0.8;" x="368.653901" xlink:href="#mc099523575" y="239.758125"/>
      </g>
     </g>
     <g id="text_6">
      <!-- 2018-07 -->
      <g transform="translate(347.762495 254.356563)scale(0.1 -0.1)">
       <use xlink:href="#DejaVuSans-50"/>
       <use x="63.623047" xlink:href="#DejaVuSans-48"/>
       <use x="127.246094" xlink:href="#DejaVuSans-49"/>
       <use x="190.869141" xlink:href="#DejaVuSans-56"/>
       <use x="254.492188" xlink:href="#DejaVuSans-45"/>
       <use x="290.576172" xlink:href="#DejaVuSans-48"/>
       <use x="354.199219" xlink:href="#DejaVuSans-55"/>
      </g>
     </g>
    </g>
    <g id="xtick_7">
     <g id="line2d_7">
      <g>
       <use style="stroke:#000000;stroke-width:0.8;" x="422.258026" xlink:href="#mc099523575" y="239.758125"/>
      </g>
     </g>
     <g id="text_7">
      <!-- 2019-01 -->
      <defs>
       <path d="M 10.984375 1.515625 
L 10.984375 10.5 
Q 14.703125 8.734375 18.5 7.8125 
Q 22.3125 6.890625 25.984375 6.890625 
Q 35.75 6.890625 40.890625 13.453125 
Q 46.046875 20.015625 46.78125 33.40625 
Q 43.953125 29.203125 39.59375 26.953125 
Q 35.25 24.703125 29.984375 24.703125 
Q 19.046875 24.703125 12.671875 31.3125 
Q 6.296875 37.9375 6.296875 49.421875 
Q 6.296875 60.640625 12.9375 67.421875 
Q 19.578125 74.21875 30.609375 74.21875 
Q 43.265625 74.21875 49.921875 64.515625 
Q 56.59375 54.828125 56.59375 36.375 
Q 56.59375 19.140625 48.40625 8.859375 
Q 40.234375 -1.421875 26.421875 -1.421875 
Q 22.703125 -1.421875 18.890625 -0.6875 
Q 15.09375 0.046875 10.984375 1.515625 
z
M 30.609375 32.421875 
Q 37.25 32.421875 41.125 36.953125 
Q 45.015625 41.5 45.015625 49.421875 
Q 45.015625 57.28125 41.125 61.84375 
Q 37.25 66.40625 30.609375 66.40625 
Q 23.96875 66.40625 20.09375 61.84375 
Q 16.21875 57.28125 16.21875 49.421875 
Q 16.21875 41.5 20.09375 36.953125 
Q 23.96875 32.421875 30.609375 32.421875 
z
" id="DejaVuSans-57"/>
      </defs>
      <g transform="translate(401.366619 254.356563)scale(0.1 -0.1)">
       <use xlink:href="#DejaVuSans-50"/>
       <use x="63.623047" xlink:href="#DejaVuSans-48"/>
       <use x="127.246094" xlink:href="#DejaVuSans-49"/>
       <use x="190.869141" xlink:href="#DejaVuSans-57"/>
       <use x="254.492188" xlink:href="#DejaVuSans-45"/>
       <use x="290.576172" xlink:href="#DejaVuSans-48"/>
       <use x="354.199219" xlink:href="#DejaVuSans-49"/>
      </g>
     </g>
    </g>
    <g id="xtick_8">
     <g id="line2d_8">
      <g>
       <use style="stroke:#000000;stroke-width:0.8;" x="474.98817" xlink:href="#mc099523575" y="239.758125"/>
      </g>
     </g>
     <g id="text_8">
      <!-- 2019-07 -->
      <g transform="translate(454.096763 254.356563)scale(0.1 -0.1)">
       <use xlink:href="#DejaVuSans-50"/>
       <use x="63.623047" xlink:href="#DejaVuSans-48"/>
       <use x="127.246094" xlink:href="#DejaVuSans-49"/>
       <use x="190.869141" xlink:href="#DejaVuSans-57"/>
       <use x="254.492188" xlink:href="#DejaVuSans-45"/>
       <use x="290.576172" xlink:href="#DejaVuSans-48"/>
       <use x="354.199219" xlink:href="#DejaVuSans-55"/>
      </g>
     </g>
    </g>
   </g>
   <g id="matplotlib.axis_2">
    <g id="ytick_1">
     <g id="line2d_9">
      <defs>
       <path d="M 0 0 
L -3.5 0 
" id="ma55def391e" style="stroke:#000000;stroke-width:0.8;"/>
      </defs>
      <g>
       <use style="stroke:#000000;stroke-width:0.8;" x="52.375" xlink:href="#ma55def391e" y="229.426682"/>
      </g>
     </g>
     <g id="text_9">
      <!-- 150000 -->
      <defs>
       <path d="M 10.796875 72.90625 
L 49.515625 72.90625 
L 49.515625 64.59375 
L 19.828125 64.59375 
L 19.828125 46.734375 
Q 21.96875 47.46875 24.109375 47.828125 
Q 26.265625 48.1875 28.421875 48.1875 
Q 40.625 48.1875 47.75 41.5 
Q 54.890625 34.8125 54.890625 23.390625 
Q 54.890625 11.625 47.5625 5.09375 
Q 40.234375 -1.421875 26.90625 -1.421875 
Q 22.3125 -1.421875 17.546875 -0.640625 
Q 12.796875 0.140625 7.71875 1.703125 
L 7.71875 11.625 
Q 12.109375 9.234375 16.796875 8.0625 
Q 21.484375 6.890625 26.703125 6.890625 
Q 35.15625 6.890625 40.078125 11.328125 
Q 45.015625 15.765625 45.015625 23.390625 
Q 45.015625 31 40.078125 35.4375 
Q 35.15625 39.890625 26.703125 39.890625 
Q 22.75 39.890625 18.8125 39.015625 
Q 14.890625 38.140625 10.796875 36.28125 
z
" id="DejaVuSans-53"/>
      </defs>
      <g transform="translate(7.2 233.225901)scale(0.1 -0.1)">
       <use xlink:href="#DejaVuSans-49"/>
       <use x="63.623047" xlink:href="#DejaVuSans-53"/>
       <use x="127.246094" xlink:href="#DejaVuSans-48"/>
       <use x="190.869141" xlink:href="#DejaVuSans-48"/>
       <use x="254.492188" xlink:href="#DejaVuSans-48"/>
       <use x="318.115234" xlink:href="#DejaVuSans-48"/>
      </g>
     </g>
    </g>
    <g id="ytick_2">
     <g id="line2d_10">
      <g>
       <use style="stroke:#000000;stroke-width:0.8;" x="52.375" xlink:href="#ma55def391e" y="201.483542"/>
      </g>
     </g>
     <g id="text_10">
      <!-- 200000 -->
      <g transform="translate(7.2 205.282761)scale(0.1 -0.1)">
       <use xlink:href="#DejaVuSans-50"/>
       <use x="63.623047" xlink:href="#DejaVuSans-48"/>
       <use x="127.246094" xlink:href="#DejaVuSans-48"/>
       <use x="190.869141" xlink:href="#DejaVuSans-48"/>
       <use x="254.492188" xlink:href="#DejaVuSans-48"/>
       <use x="318.115234" xlink:href="#DejaVuSans-48"/>
      </g>
     </g>
    </g>
    <g id="ytick_3">
     <g id="line2d_11">
      <g>
       <use style="stroke:#000000;stroke-width:0.8;" x="52.375" xlink:href="#ma55def391e" y="173.540401"/>
      </g>
     </g>
     <g id="text_11">
      <!-- 250000 -->
      <g transform="translate(7.2 177.33962)scale(0.1 -0.1)">
       <use xlink:href="#DejaVuSans-50"/>
       <use x="63.623047" xlink:href="#DejaVuSans-53"/>
       <use x="127.246094" xlink:href="#DejaVuSans-48"/>
       <use x="190.869141" xlink:href="#DejaVuSans-48"/>
       <use x="254.492188" xlink:href="#DejaVuSans-48"/>
       <use x="318.115234" xlink:href="#DejaVuSans-48"/>
      </g>
     </g>
    </g>
    <g id="ytick_4">
     <g id="line2d_12">
      <g>
       <use style="stroke:#000000;stroke-width:0.8;" x="52.375" xlink:href="#ma55def391e" y="145.597261"/>
      </g>
     </g>
     <g id="text_12">
      <!-- 300000 -->
      <defs>
       <path d="M 40.578125 39.3125 
Q 47.65625 37.796875 51.625 33 
Q 55.609375 28.21875 55.609375 21.1875 
Q 55.609375 10.40625 48.1875 4.484375 
Q 40.765625 -1.421875 27.09375 -1.421875 
Q 22.515625 -1.421875 17.65625 -0.515625 
Q 12.796875 0.390625 7.625 2.203125 
L 7.625 11.71875 
Q 11.71875 9.328125 16.59375 8.109375 
Q 21.484375 6.890625 26.8125 6.890625 
Q 36.078125 6.890625 40.9375 10.546875 
Q 45.796875 14.203125 45.796875 21.1875 
Q 45.796875 27.640625 41.28125 31.265625 
Q 36.765625 34.90625 28.71875 34.90625 
L 20.21875 34.90625 
L 20.21875 43.015625 
L 29.109375 43.015625 
Q 36.375 43.015625 40.234375 45.921875 
Q 44.09375 48.828125 44.09375 54.296875 
Q 44.09375 59.90625 40.109375 62.90625 
Q 36.140625 65.921875 28.71875 65.921875 
Q 24.65625 65.921875 20.015625 65.03125 
Q 15.375 64.15625 9.8125 62.3125 
L 9.8125 71.09375 
Q 15.4375 72.65625 20.34375 73.4375 
Q 25.25 74.21875 29.59375 74.21875 
Q 40.828125 74.21875 47.359375 69.109375 
Q 53.90625 64.015625 53.90625 55.328125 
Q 53.90625 49.265625 50.4375 45.09375 
Q 46.96875 40.921875 40.578125 39.3125 
z
" id="DejaVuSans-51"/>
      </defs>
      <g transform="translate(7.2 149.39648)scale(0.1 -0.1)">
       <use xlink:href="#DejaVuSans-51"/>
       <use x="63.623047" xlink:href="#DejaVuSans-48"/>
       <use x="127.246094" xlink:href="#DejaVuSans-48"/>
       <use x="190.869141" xlink:href="#DejaVuSans-48"/>
       <use x="254.492188" xlink:href="#DejaVuSans-48"/>
       <use x="318.115234" xlink:href="#DejaVuSans-48"/>
      </g>
     </g>
    </g>
    <g id="ytick_5">
     <g id="line2d_13">
      <g>
       <use style="stroke:#000000;stroke-width:0.8;" x="52.375" xlink:href="#ma55def391e" y="117.65412"/>
      </g>
     </g>
     <g id="text_13">
      <!-- 350000 -->
      <g transform="translate(7.2 121.453339)scale(0.1 -0.1)">
       <use xlink:href="#DejaVuSans-51"/>
       <use x="63.623047" xlink:href="#DejaVuSans-53"/>
       <use x="127.246094" xlink:href="#DejaVuSans-48"/>
       <use x="190.869141" xlink:href="#DejaVuSans-48"/>
       <use x="254.492188" xlink:href="#DejaVuSans-48"/>
       <use x="318.115234" xlink:href="#DejaVuSans-48"/>
      </g>
     </g>
    </g>
    <g id="ytick_6">
     <g id="line2d_14">
      <g>
       <use style="stroke:#000000;stroke-width:0.8;" x="52.375" xlink:href="#ma55def391e" y="89.71098"/>
      </g>
     </g>
     <g id="text_14">
      <!-- 400000 -->
      <defs>
       <path d="M 37.796875 64.3125 
L 12.890625 25.390625 
L 37.796875 25.390625 
z
M 35.203125 72.90625 
L 47.609375 72.90625 
L 47.609375 25.390625 
L 58.015625 25.390625 
L 58.015625 17.1875 
L 47.609375 17.1875 
L 47.609375 0 
L 37.796875 0 
L 37.796875 17.1875 
L 4.890625 17.1875 
L 4.890625 26.703125 
z
" id="DejaVuSans-52"/>
      </defs>
      <g transform="translate(7.2 93.510199)scale(0.1 -0.1)">
       <use xlink:href="#DejaVuSans-52"/>
       <use x="63.623047" xlink:href="#DejaVuSans-48"/>
       <use x="127.246094" xlink:href="#DejaVuSans-48"/>
       <use x="190.869141" xlink:href="#DejaVuSans-48"/>
       <use x="254.492188" xlink:href="#DejaVuSans-48"/>
       <use x="318.115234" xlink:href="#DejaVuSans-48"/>
      </g>
     </g>
    </g>
    <g id="ytick_7">
     <g id="line2d_15">
      <g>
       <use style="stroke:#000000;stroke-width:0.8;" x="52.375" xlink:href="#ma55def391e" y="61.767839"/>
      </g>
     </g>
     <g id="text_15">
      <!-- 450000 -->
      <g transform="translate(7.2 65.567058)scale(0.1 -0.1)">
       <use xlink:href="#DejaVuSans-52"/>
       <use x="63.623047" xlink:href="#DejaVuSans-53"/>
       <use x="127.246094" xlink:href="#DejaVuSans-48"/>
       <use x="190.869141" xlink:href="#DejaVuSans-48"/>
       <use x="254.492188" xlink:href="#DejaVuSans-48"/>
       <use x="318.115234" xlink:href="#DejaVuSans-48"/>
      </g>
     </g>
    </g>
    <g id="ytick_8">
     <g id="line2d_16">
      <g>
       <use style="stroke:#000000;stroke-width:0.8;" x="52.375" xlink:href="#ma55def391e" y="33.824699"/>
      </g>
     </g>
     <g id="text_16">
      <!-- 500000 -->
      <g transform="translate(7.2 37.623918)scale(0.1 -0.1)">
       <use xlink:href="#DejaVuSans-53"/>
       <use x="63.623047" xlink:href="#DejaVuSans-48"/>
       <use x="127.246094" xlink:href="#DejaVuSans-48"/>
       <use x="190.869141" xlink:href="#DejaVuSans-48"/>
       <use x="254.492188" xlink:href="#DejaVuSans-48"/>
       <use x="318.115234" xlink:href="#DejaVuSans-48"/>
      </g>
     </g>
    </g>
   </g>
   <g id="line2d_17">
    <path clip-path="url(#p525721db79)" d="M 72.665909 190.674017 
L 74.705196 193.035772 
L 76.744484 186.295886 
L 78.783771 169.895498 
L 80.823058 183.11931 
L 84.901633 168.823599 
L 86.940921 150.572258 
L 88.980208 165.26029 
L 91.019495 142.565989 
L 93.058783 166.483082 
L 95.09807 98.378383 
L 97.137357 138.177798 
L 99.176645 134.620636 
L 101.215932 119.586668 
L 103.255219 86.711004 
L 105.294507 32.201761 
L 107.333794 101.588491 
L 109.373081 147.868479 
L 111.412369 138.924439 
L 113.451656 150.741034 
L 115.490943 168.857131 
L 117.530231 174.171916 
L 119.569518 164.709251 
L 121.608805 174.866024 
L 123.648093 180.868211 
L 125.68738 184.224741 
L 127.726667 181.523198 
L 129.765955 176.315155 
L 131.805242 162.128982 
L 133.844529 177.787759 
L 135.883817 176.312361 
L 137.923104 177.233367 
L 139.962392 166.890493 
L 142.001679 176.407926 
L 144.040966 178.683057 
L 146.080254 175.362294 
L 148.119541 183.432273 
L 150.158828 164.443791 
L 152.198116 174.676011 
L 154.237403 165.905218 
L 156.27669 163.795511 
L 158.315978 146.338872 
L 160.355265 163.186909 
L 162.394552 183.641847 
L 164.43384 190.752258 
L 166.473127 183.855891 
L 168.512414 190.546597 
L 170.551702 191.976727 
L 172.590989 192.716102 
L 174.630276 191.583287 
L 176.669564 205.232952 
L 178.708851 198.326526 
L 180.748138 202.346985 
L 182.787426 201.2287 
L 184.826713 179.922056 
L 186.866 182.687309 
L 188.905288 180.630135 
L 190.944575 175.915009 
L 192.983862 168.72971 
L 195.02315 188.199373 
L 197.062437 152.41874 
L 199.101725 173.666704 
L 201.141012 116.771117 
L 203.180299 142.653172 
L 205.219587 137.176316 
L 207.258874 121.447122 
L 209.298161 117.340598 
L 211.337449 81.472224 
L 213.376736 116.089863 
L 215.416023 154.5223 
L 217.455311 156.225155 
L 219.494598 168.112167 
L 221.533885 175.839563 
L 223.573173 179.507938 
L 225.61246 194.313891 
L 227.651747 176.916492 
L 229.691035 189.061698 
L 231.730322 187.683543 
L 233.769609 185.685049 
L 235.808897 196.818714 
L 237.848184 179.227948 
L 239.887471 187.029114 
L 241.926759 178.228701 
L 243.966046 195.3612 
L 246.005333 193.078245 
L 248.044621 197.624594 
L 250.083908 195.590892 
L 252.123196 183.522809 
L 254.162483 194.38822 
L 256.20177 182.117828 
L 258.241058 185.341907 
L 260.280345 179.333014 
L 262.319632 171.927523 
L 264.35892 154.3552 
L 266.398207 169.201949 
L 268.437494 190.052003 
L 270.476782 202.16759 
L 272.516069 194.819662 
L 274.555356 202.444786 
L 276.594644 204.205204 
L 278.633931 203.592131 
L 280.673218 173.189994 
L 282.712506 194.820221 
L 284.751793 194.602264 
L 286.79108 194.225591 
L 288.830368 199.147495 
L 290.869655 185.141834 
L 292.908942 198.358381 
L 294.94823 192.539501 
L 296.987517 192.554591 
L 299.026804 177.94927 
L 301.066092 180.998984 
L 303.105379 159.566596 
L 305.144667 187.595242 
L 307.183954 131.037767 
L 309.223241 155.626054 
L 311.262529 152.594782 
L 313.301816 131.525095 
L 315.341103 116.815826 
L 317.380391 87.514649 
L 319.419678 115.022994 
L 321.458965 167.710345 
L 323.498253 163.370775 
L 325.53754 177.216601 
L 327.576827 182.900236 
L 329.616115 194.436841 
L 331.655402 203.554687 
L 333.694689 187.012907 
L 335.733977 198.585838 
L 337.773264 202.238566 
L 339.812551 204.035868 
L 341.851839 200.892824 
L 343.891126 183.734618 
L 345.930413 186.902811 
L 347.969701 201.40586 
L 350.008988 209.055574 
L 352.048275 206.925748 
L 354.087563 204.158259 
L 356.12685 197.547471 
L 358.166138 199.893018 
L 360.205425 206.221022 
L 362.244712 191.821363 
L 364.284 198.117511 
L 366.323287 188.760471 
L 368.362574 183.857568 
L 370.401862 165.23067 
L 374.480436 200.763727 
L 376.519724 212.727862 
L 378.559011 209.769242 
L 380.598298 212.639561 
L 382.637586 216.387854 
L 384.676873 215.038759 
L 386.71616 216.233608 
L 388.755448 222.362656 
L 390.794735 216.224107 
L 392.834022 216.611958 
L 394.87331 217.234531 
L 396.912597 204.872486 
L 398.951884 206.79218 
L 400.991172 202.191621 
L 403.030459 202.30507 
L 405.069746 193.204548 
L 407.109034 181.375099 
L 409.148321 186.631204 
L 411.187608 191.05628 
L 413.226896 135.573498 
L 415.266183 167.099507 
L 417.305471 170.637109 
L 421.384045 130.227975 
L 423.423333 117.12376 
L 425.46262 120.739602 
L 427.501907 162.498949 
L 429.541195 173.081575 
L 431.580482 171.117172 
L 433.619769 177.554713 
L 435.659057 195.49365 
L 437.698344 199.756097 
L 439.737631 189.980469 
L 441.776919 196.251468 
L 443.816206 204.623233 
L 445.855493 207.030255 
L 447.894781 210.536561 
L 449.934068 203.66143 
L 451.973355 203.497125 
L 454.012643 194.892314 
L 456.05193 198.808266 
L 458.091217 199.229648 
L 460.130505 208.042356 
L 462.169792 205.993006 
L 464.209079 201.989872 
L 466.248367 207.308569 
L 468.287654 190.202337 
L 470.326942 198.175633 
L 472.366229 187.054263 
L 474.405516 187.755077 
L 476.444804 183.603844 
L 478.484091 177.106505 
L 478.484091 177.106505 
" style="fill:none;stroke:#1f77b4;stroke-linecap:square;stroke-width:1.5;"/>
   </g>
   <g id="line2d_18">
    <path clip-path="url(#p525721db79)" d="M 276.594644 206.432988 
L 278.633931 205.400934 
L 280.673218 211.986844 
L 282.712506 210.719702 
L 284.751793 211.013419 
L 286.79108 212.986388 
L 288.830368 197.198479 
L 290.869655 192.945751 
L 292.908942 198.518975 
L 294.94823 195.751007 
L 296.987517 189.779959 
L 299.026804 179.751271 
L 301.066092 185.987909 
L 303.105379 180.954083 
L 305.144667 171.027457 
L 307.183954 153.528712 
L 309.223241 169.640194 
L 311.262529 159.475693 
L 313.301816 142.922229 
L 315.341103 116.780373 
L 317.380391 121.613401 
L 319.419678 160.653951 
L 321.458965 179.42493 
L 323.498253 180.387361 
L 325.53754 183.872229 
L 327.576827 196.334957 
L 329.616115 198.433042 
L 331.655402 194.199333 
L 333.694689 199.773806 
L 335.733977 205.965988 
L 337.773264 207.676004 
L 339.812551 206.340846 
L 341.851839 195.579768 
L 343.891126 192.514946 
L 345.930413 198.951684 
L 347.969701 201.906112 
L 350.008988 204.327018 
L 352.048275 206.080328 
L 354.087563 206.361034 
L 356.12685 203.451315 
L 358.166138 208.262495 
L 360.205425 198.501249 
L 362.244712 198.800284 
L 364.284 198.938498 
L 366.323287 194.094258 
L 368.362574 182.134812 
L 370.401862 174.173575 
L 372.441149 200.201676 
L 374.480436 211.879193 
L 376.519724 212.516629 
L 378.559011 210.777675 
L 380.598298 214.391692 
L 382.637586 214.976778 
L 384.676873 215.550765 
L 386.71616 221.27862 
L 388.755448 219.317631 
L 390.794735 219.141965 
L 392.834022 221.341841 
L 394.87331 207.258123 
L 396.912597 203.363949 
L 398.951884 208.548878 
L 400.991172 204.985717 
L 403.030459 199.634981 
L 405.069746 191.818726 
L 407.109034 196.285664 
L 409.148321 191.323084 
L 411.187608 182.842655 
L 413.226896 166.762365 
L 415.266183 183.209907 
L 417.305471 172.544447 
L 419.344758 157.811155 
L 421.384045 135.0697 
L 423.423333 137.774841 
L 425.46262 175.334735 
L 427.501907 190.924274 
L 429.541195 192.240702 
L 431.580482 195.480176 
L 433.619769 205.749368 
L 435.659057 209.057897 
L 437.698344 205.005233 
L 439.737631 210.285299 
L 441.776919 216.297982 
L 443.816206 216.495846 
L 445.855493 215.867151 
L 447.894781 205.41667 
L 449.934068 204.217272 
L 451.973355 209.634835 
L 454.012643 212.435611 
L 456.05193 214.562381 
L 458.091217 215.02691 
L 460.130505 215.700575 
L 462.169792 214.74209 
L 464.209079 217.807462 
L 466.248367 209.733702 
L 468.287654 208.857876 
L 470.326942 208.648879 
L 472.366229 205.707942 
L 474.405516 194.027308 
L 476.444804 184.704035 
L 478.484091 209.921907 
" style="fill:none;stroke:#ff8c00;stroke-linecap:square;stroke-width:1.5;"/>
   </g>
   <g id="patch_3">
    <path d="M 52.375 239.758125 
L 52.375 22.318125 
" style="fill:none;stroke:#000000;stroke-linecap:square;stroke-linejoin:miter;stroke-width:0.8;"/>
   </g>
   <g id="patch_4">
    <path d="M 498.775 239.758125 
L 498.775 22.318125 
" style="fill:none;stroke:#000000;stroke-linecap:square;stroke-linejoin:miter;stroke-width:0.8;"/>
   </g>
   <g id="patch_5">
    <path d="M 52.375 239.758125 
L 498.775 239.758125 
" style="fill:none;stroke:#000000;stroke-linecap:square;stroke-linejoin:miter;stroke-width:0.8;"/>
   </g>
   <g id="patch_6">
    <path d="M 52.375 22.318125 
L 498.775 22.318125 
" style="fill:none;stroke:#000000;stroke-linecap:square;stroke-linejoin:miter;stroke-width:0.8;"/>
   </g>
   <g id="text_17">
    <!-- Forecast (AutoMultivariateNormal) -->
    <defs>
     <path d="M 9.8125 72.90625 
L 51.703125 72.90625 
L 51.703125 64.59375 
L 19.671875 64.59375 
L 19.671875 43.109375 
L 48.578125 43.109375 
L 48.578125 34.8125 
L 19.671875 34.8125 
L 19.671875 0 
L 9.8125 0 
z
" id="DejaVuSans-70"/>
     <path d="M 30.609375 48.390625 
Q 23.390625 48.390625 19.1875 42.75 
Q 14.984375 37.109375 14.984375 27.296875 
Q 14.984375 17.484375 19.15625 11.84375 
Q 23.34375 6.203125 30.609375 6.203125 
Q 37.796875 6.203125 41.984375 11.859375 
Q 46.1875 17.53125 46.1875 27.296875 
Q 46.1875 37.015625 41.984375 42.703125 
Q 37.796875 48.390625 30.609375 48.390625 
z
M 30.609375 56 
Q 42.328125 56 49.015625 48.375 
Q 55.71875 40.765625 55.71875 27.296875 
Q 55.71875 13.875 49.015625 6.21875 
Q 42.328125 -1.421875 30.609375 -1.421875 
Q 18.84375 -1.421875 12.171875 6.21875 
Q 5.515625 13.875 5.515625 27.296875 
Q 5.515625 40.765625 12.171875 48.375 
Q 18.84375 56 30.609375 56 
z
" id="DejaVuSans-111"/>
     <path d="M 41.109375 46.296875 
Q 39.59375 47.171875 37.8125 47.578125 
Q 36.03125 48 33.890625 48 
Q 26.265625 48 22.1875 43.046875 
Q 18.109375 38.09375 18.109375 28.8125 
L 18.109375 0 
L 9.078125 0 
L 9.078125 54.6875 
L 18.109375 54.6875 
L 18.109375 46.1875 
Q 20.953125 51.171875 25.484375 53.578125 
Q 30.03125 56 36.53125 56 
Q 37.453125 56 38.578125 55.875 
Q 39.703125 55.765625 41.0625 55.515625 
z
" id="DejaVuSans-114"/>
     <path d="M 56.203125 29.59375 
L 56.203125 25.203125 
L 14.890625 25.203125 
Q 15.484375 15.921875 20.484375 11.0625 
Q 25.484375 6.203125 34.421875 6.203125 
Q 39.59375 6.203125 44.453125 7.46875 
Q 49.3125 8.734375 54.109375 11.28125 
L 54.109375 2.78125 
Q 49.265625 0.734375 44.1875 -0.34375 
Q 39.109375 -1.421875 33.890625 -1.421875 
Q 20.796875 -1.421875 13.15625 6.1875 
Q 5.515625 13.8125 5.515625 26.8125 
Q 5.515625 40.234375 12.765625 48.109375 
Q 20.015625 56 32.328125 56 
Q 43.359375 56 49.78125 48.890625 
Q 56.203125 41.796875 56.203125 29.59375 
z
M 47.21875 32.234375 
Q 47.125 39.59375 43.09375 43.984375 
Q 39.0625 48.390625 32.421875 48.390625 
Q 24.90625 48.390625 20.390625 44.140625 
Q 15.875 39.890625 15.1875 32.171875 
z
" id="DejaVuSans-101"/>
     <path d="M 48.78125 52.59375 
L 48.78125 44.1875 
Q 44.96875 46.296875 41.140625 47.34375 
Q 37.3125 48.390625 33.40625 48.390625 
Q 24.65625 48.390625 19.8125 42.84375 
Q 14.984375 37.3125 14.984375 27.296875 
Q 14.984375 17.28125 19.8125 11.734375 
Q 24.65625 6.203125 33.40625 6.203125 
Q 37.3125 6.203125 41.140625 7.25 
Q 44.96875 8.296875 48.78125 10.40625 
L 48.78125 2.09375 
Q 45.015625 0.34375 40.984375 -0.53125 
Q 36.96875 -1.421875 32.421875 -1.421875 
Q 20.0625 -1.421875 12.78125 6.34375 
Q 5.515625 14.109375 5.515625 27.296875 
Q 5.515625 40.671875 12.859375 48.328125 
Q 20.21875 56 33.015625 56 
Q 37.15625 56 41.109375 55.140625 
Q 45.0625 54.296875 48.78125 52.59375 
z
" id="DejaVuSans-99"/>
     <path d="M 34.28125 27.484375 
Q 23.390625 27.484375 19.1875 25 
Q 14.984375 22.515625 14.984375 16.5 
Q 14.984375 11.71875 18.140625 8.90625 
Q 21.296875 6.109375 26.703125 6.109375 
Q 34.1875 6.109375 38.703125 11.40625 
Q 43.21875 16.703125 43.21875 25.484375 
L 43.21875 27.484375 
z
M 52.203125 31.203125 
L 52.203125 0 
L 43.21875 0 
L 43.21875 8.296875 
Q 40.140625 3.328125 35.546875 0.953125 
Q 30.953125 -1.421875 24.3125 -1.421875 
Q 15.921875 -1.421875 10.953125 3.296875 
Q 6 8.015625 6 15.921875 
Q 6 25.140625 12.171875 29.828125 
Q 18.359375 34.515625 30.609375 34.515625 
L 43.21875 34.515625 
L 43.21875 35.40625 
Q 43.21875 41.609375 39.140625 45 
Q 35.0625 48.390625 27.6875 48.390625 
Q 23 48.390625 18.546875 47.265625 
Q 14.109375 46.140625 10.015625 43.890625 
L 10.015625 52.203125 
Q 14.9375 54.109375 19.578125 55.046875 
Q 24.21875 56 28.609375 56 
Q 40.484375 56 46.34375 49.84375 
Q 52.203125 43.703125 52.203125 31.203125 
z
" id="DejaVuSans-97"/>
     <path d="M 44.28125 53.078125 
L 44.28125 44.578125 
Q 40.484375 46.53125 36.375 47.5 
Q 32.28125 48.484375 27.875 48.484375 
Q 21.1875 48.484375 17.84375 46.4375 
Q 14.5 44.390625 14.5 40.28125 
Q 14.5 37.15625 16.890625 35.375 
Q 19.28125 33.59375 26.515625 31.984375 
L 29.59375 31.296875 
Q 39.15625 29.25 43.1875 25.515625 
Q 47.21875 21.78125 47.21875 15.09375 
Q 47.21875 7.46875 41.1875 3.015625 
Q 35.15625 -1.421875 24.609375 -1.421875 
Q 20.21875 -1.421875 15.453125 -0.5625 
Q 10.6875 0.296875 5.421875 2 
L 5.421875 11.28125 
Q 10.40625 8.6875 15.234375 7.390625 
Q 20.0625 6.109375 24.8125 6.109375 
Q 31.15625 6.109375 34.5625 8.28125 
Q 37.984375 10.453125 37.984375 14.40625 
Q 37.984375 18.0625 35.515625 20.015625 
Q 33.0625 21.96875 24.703125 23.78125 
L 21.578125 24.515625 
Q 13.234375 26.265625 9.515625 29.90625 
Q 5.8125 33.546875 5.8125 39.890625 
Q 5.8125 47.609375 11.28125 51.796875 
Q 16.75 56 26.8125 56 
Q 31.78125 56 36.171875 55.265625 
Q 40.578125 54.546875 44.28125 53.078125 
z
" id="DejaVuSans-115"/>
     <path d="M 18.3125 70.21875 
L 18.3125 54.6875 
L 36.8125 54.6875 
L 36.8125 47.703125 
L 18.3125 47.703125 
L 18.3125 18.015625 
Q 18.3125 11.328125 20.140625 9.421875 
Q 21.96875 7.515625 27.59375 7.515625 
L 36.8125 7.515625 
L 36.8125 0 
L 27.59375 0 
Q 17.1875 0 13.234375 3.875 
Q 9.28125 7.765625 9.28125 18.015625 
L 9.28125 47.703125 
L 2.6875 47.703125 
L 2.6875 54.6875 
L 9.28125 54.6875 
L 9.28125 70.21875 
z
" id="DejaVuSans-116"/>
     <path id="DejaVuSans-32"/>
     <path d="M 31 75.875 
Q 24.46875 64.65625 21.28125 53.65625 
Q 18.109375 42.671875 18.109375 31.390625 
Q 18.109375 20.125 21.3125 9.0625 
Q 24.515625 -2 31 -13.1875 
L 23.1875 -13.1875 
Q 15.875 -1.703125 12.234375 9.375 
Q 8.59375 20.453125 8.59375 31.390625 
Q 8.59375 42.28125 12.203125 53.3125 
Q 15.828125 64.359375 23.1875 75.875 
z
" id="DejaVuSans-40"/>
     <path d="M 34.1875 63.1875 
L 20.796875 26.90625 
L 47.609375 26.90625 
z
M 28.609375 72.90625 
L 39.796875 72.90625 
L 67.578125 0 
L 57.328125 0 
L 50.6875 18.703125 
L 17.828125 18.703125 
L 11.1875 0 
L 0.78125 0 
z
" id="DejaVuSans-65"/>
     <path d="M 8.5 21.578125 
L 8.5 54.6875 
L 17.484375 54.6875 
L 17.484375 21.921875 
Q 17.484375 14.15625 20.5 10.265625 
Q 23.53125 6.390625 29.59375 6.390625 
Q 36.859375 6.390625 41.078125 11.03125 
Q 45.3125 15.671875 45.3125 23.6875 
L 45.3125 54.6875 
L 54.296875 54.6875 
L 54.296875 0 
L 45.3125 0 
L 45.3125 8.40625 
Q 42.046875 3.421875 37.71875 1 
Q 33.40625 -1.421875 27.6875 -1.421875 
Q 18.265625 -1.421875 13.375 4.4375 
Q 8.5 10.296875 8.5 21.578125 
z
M 31.109375 56 
z
" id="DejaVuSans-117"/>
     <path d="M 9.8125 72.90625 
L 24.515625 72.90625 
L 43.109375 23.296875 
L 61.8125 72.90625 
L 76.515625 72.90625 
L 76.515625 0 
L 66.890625 0 
L 66.890625 64.015625 
L 48.09375 14.015625 
L 38.1875 14.015625 
L 19.390625 64.015625 
L 19.390625 0 
L 9.8125 0 
z
" id="DejaVuSans-77"/>
     <path d="M 9.421875 75.984375 
L 18.40625 75.984375 
L 18.40625 0 
L 9.421875 0 
z
" id="DejaVuSans-108"/>
     <path d="M 9.421875 54.6875 
L 18.40625 54.6875 
L 18.40625 0 
L 9.421875 0 
z
M 9.421875 75.984375 
L 18.40625 75.984375 
L 18.40625 64.59375 
L 9.421875 64.59375 
z
" id="DejaVuSans-105"/>
     <path d="M 2.984375 54.6875 
L 12.5 54.6875 
L 29.59375 8.796875 
L 46.6875 54.6875 
L 56.203125 54.6875 
L 35.6875 0 
L 23.484375 0 
z
" id="DejaVuSans-118"/>
     <path d="M 9.8125 72.90625 
L 23.09375 72.90625 
L 55.421875 11.921875 
L 55.421875 72.90625 
L 64.984375 72.90625 
L 64.984375 0 
L 51.703125 0 
L 19.390625 60.984375 
L 19.390625 0 
L 9.8125 0 
z
" id="DejaVuSans-78"/>
     <path d="M 52 44.1875 
Q 55.375 50.25 60.0625 53.125 
Q 64.75 56 71.09375 56 
Q 79.640625 56 84.28125 50.015625 
Q 88.921875 44.046875 88.921875 33.015625 
L 88.921875 0 
L 79.890625 0 
L 79.890625 32.71875 
Q 79.890625 40.578125 77.09375 44.375 
Q 74.3125 48.1875 68.609375 48.1875 
Q 61.625 48.1875 57.5625 43.546875 
Q 53.515625 38.921875 53.515625 30.90625 
L 53.515625 0 
L 44.484375 0 
L 44.484375 32.71875 
Q 44.484375 40.625 41.703125 44.40625 
Q 38.921875 48.1875 33.109375 48.1875 
Q 26.21875 48.1875 22.15625 43.53125 
Q 18.109375 38.875 18.109375 30.90625 
L 18.109375 0 
L 9.078125 0 
L 9.078125 54.6875 
L 18.109375 54.6875 
L 18.109375 46.1875 
Q 21.1875 51.21875 25.484375 53.609375 
Q 29.78125 56 35.6875 56 
Q 41.65625 56 45.828125 52.96875 
Q 50 49.953125 52 44.1875 
z
" id="DejaVuSans-109"/>
     <path d="M 8.015625 75.875 
L 15.828125 75.875 
Q 23.140625 64.359375 26.78125 53.3125 
Q 30.421875 42.28125 30.421875 31.390625 
Q 30.421875 20.453125 26.78125 9.375 
Q 23.140625 -1.703125 15.828125 -13.1875 
L 8.015625 -13.1875 
Q 14.5 -2 17.703125 9.0625 
Q 20.90625 20.125 20.90625 31.390625 
Q 20.90625 42.671875 17.703125 53.65625 
Q 14.5 64.65625 8.015625 75.875 
z
" id="DejaVuSans-41"/>
    </defs>
    <g transform="translate(171.764687 16.318125)scale(0.12 -0.12)">
     <use xlink:href="#DejaVuSans-70"/>
     <use x="57.472656" xlink:href="#DejaVuSans-111"/>
     <use x="118.654297" xlink:href="#DejaVuSans-114"/>
     <use x="159.736328" xlink:href="#DejaVuSans-101"/>
     <use x="221.259766" xlink:href="#DejaVuSans-99"/>
     <use x="276.240234" xlink:href="#DejaVuSans-97"/>
     <use x="337.519531" xlink:href="#DejaVuSans-115"/>
     <use x="389.619141" xlink:href="#DejaVuSans-116"/>
     <use x="428.828125" xlink:href="#DejaVuSans-32"/>
     <use x="460.615234" xlink:href="#DejaVuSans-40"/>
     <use x="499.628906" xlink:href="#DejaVuSans-65"/>
     <use x="568.037109" xlink:href="#DejaVuSans-117"/>
     <use x="631.416016" xlink:href="#DejaVuSans-116"/>
     <use x="670.625" xlink:href="#DejaVuSans-111"/>
     <use x="731.806641" xlink:href="#DejaVuSans-77"/>
     <use x="818.085938" xlink:href="#DejaVuSans-117"/>
     <use x="881.464844" xlink:href="#DejaVuSans-108"/>
     <use x="909.248047" xlink:href="#DejaVuSans-116"/>
     <use x="948.457031" xlink:href="#DejaVuSans-105"/>
     <use x="976.240234" xlink:href="#DejaVuSans-118"/>
     <use x="1035.419922" xlink:href="#DejaVuSans-97"/>
     <use x="1096.699219" xlink:href="#DejaVuSans-114"/>
     <use x="1137.8125" xlink:href="#DejaVuSans-105"/>
     <use x="1165.595703" xlink:href="#DejaVuSans-97"/>
     <use x="1226.875" xlink:href="#DejaVuSans-116"/>
     <use x="1266.083984" xlink:href="#DejaVuSans-101"/>
     <use x="1327.607422" xlink:href="#DejaVuSans-78"/>
     <use x="1402.412109" xlink:href="#DejaVuSans-111"/>
     <use x="1463.59375" xlink:href="#DejaVuSans-114"/>
     <use x="1504.691406" xlink:href="#DejaVuSans-109"/>
     <use x="1602.103516" xlink:href="#DejaVuSans-97"/>
     <use x="1663.382812" xlink:href="#DejaVuSans-108"/>
     <use x="1691.166016" xlink:href="#DejaVuSans-41"/>
    </g>
   </g>
   <g id="legend_1">
    <g id="patch_7">
     <path d="M 402.570312 59.674375 
L 491.775 59.674375 
Q 493.775 59.674375 493.775 57.674375 
L 493.775 29.318125 
Q 493.775 27.318125 491.775 27.318125 
L 402.570312 27.318125 
Q 400.570312 27.318125 400.570312 29.318125 
L 400.570312 57.674375 
Q 400.570312 59.674375 402.570312 59.674375 
z
" style="fill:#ffffff;opacity:0.8;stroke:#cccccc;stroke-linejoin:miter;"/>
    </g>
    <g id="line2d_19">
     <path d="M 404.570312 35.416562 
L 424.570312 35.416562 
" style="fill:none;stroke:#1f77b4;stroke-linecap:square;stroke-width:1.5;"/>
    </g>
    <g id="line2d_20"/>
    <g id="text_18">
     <!-- Actual data -->
     <defs>
      <path d="M 45.40625 46.390625 
L 45.40625 75.984375 
L 54.390625 75.984375 
L 54.390625 0 
L 45.40625 0 
L 45.40625 8.203125 
Q 42.578125 3.328125 38.25 0.953125 
Q 33.9375 -1.421875 27.875 -1.421875 
Q 17.96875 -1.421875 11.734375 6.484375 
Q 5.515625 14.40625 5.515625 27.296875 
Q 5.515625 40.1875 11.734375 48.09375 
Q 17.96875 56 27.875 56 
Q 33.9375 56 38.25 53.625 
Q 42.578125 51.265625 45.40625 46.390625 
z
M 14.796875 27.296875 
Q 14.796875 17.390625 18.875 11.75 
Q 22.953125 6.109375 30.078125 6.109375 
Q 37.203125 6.109375 41.296875 11.75 
Q 45.40625 17.390625 45.40625 27.296875 
Q 45.40625 37.203125 41.296875 42.84375 
Q 37.203125 48.484375 30.078125 48.484375 
Q 22.953125 48.484375 18.875 42.84375 
Q 14.796875 37.203125 14.796875 27.296875 
z
" id="DejaVuSans-100"/>
     </defs>
     <g transform="translate(432.570312 38.916562)scale(0.1 -0.1)">
      <use xlink:href="#DejaVuSans-65"/>
      <use x="68.392578" xlink:href="#DejaVuSans-99"/>
      <use x="123.373047" xlink:href="#DejaVuSans-116"/>
      <use x="162.582031" xlink:href="#DejaVuSans-117"/>
      <use x="225.960938" xlink:href="#DejaVuSans-97"/>
      <use x="287.240234" xlink:href="#DejaVuSans-108"/>
      <use x="315.023438" xlink:href="#DejaVuSans-32"/>
      <use x="346.810547" xlink:href="#DejaVuSans-100"/>
      <use x="410.287109" xlink:href="#DejaVuSans-97"/>
      <use x="471.566406" xlink:href="#DejaVuSans-116"/>
      <use x="510.775391" xlink:href="#DejaVuSans-97"/>
     </g>
    </g>
    <g id="line2d_21">
     <path d="M 404.570312 50.094687 
L 424.570312 50.094687 
" style="fill:none;stroke:#ff8c00;stroke-linecap:square;stroke-width:1.5;"/>
    </g>
    <g id="line2d_22"/>
    <g id="text_19">
     <!-- Forecast -->
     <g transform="translate(432.570312 53.594687)scale(0.1 -0.1)">
      <use xlink:href="#DejaVuSans-70"/>
      <use x="57.472656" xlink:href="#DejaVuSans-111"/>
      <use x="118.654297" xlink:href="#DejaVuSans-114"/>
      <use x="159.736328" xlink:href="#DejaVuSans-101"/>
      <use x="221.259766" xlink:href="#DejaVuSans-99"/>
      <use x="276.240234" xlink:href="#DejaVuSans-97"/>
      <use x="337.519531" xlink:href="#DejaVuSans-115"/>
      <use x="389.619141" xlink:href="#DejaVuSans-116"/>
     </g>
    </g>
   </g>
  </g>
 </g>
 <defs>
  <clipPath id="p525721db79">
   <rect height="217.44" width="446.4" x="52.375" y="22.318125"/>
  </clipPath>
 </defs>
</svg>
