<?xml version="1.0" encoding="utf-8" standalone="no"?>
<!DOCTYPE svg PUBLIC "-//W3C//DTD SVG 1.1//EN"
  "http://www.w3.org/Graphics/SVG/1.1/DTD/svg11.dtd">
<!-- Created with matplotlib (https://matplotlib.org/) -->
<svg height="277.314375pt" version="1.1" viewBox="0 0 516.241287 277.314375" width="516.241287pt" xmlns="http://www.w3.org/2000/svg" xmlns:xlink="http://www.w3.org/1999/xlink">
 <defs>
  <style type="text/css">
*{stroke-linecap:butt;stroke-linejoin:round;}
  </style>
 </defs>
 <g id="figure_1">
  <g id="patch_1">
   <path d="M 0 277.314375 
L 516.241287 277.314375 
L 516.241287 0 
L 0 0 
z
" style="fill:none;"/>
  </g>
  <g id="axes_1">
   <g id="patch_2">
    <path d="M 50.14375 239.758125 
L 496.54375 239.758125 
L 496.54375 22.318125 
L 50.14375 22.318125 
z
" style="fill:#ffffff;"/>
   </g>
   <g id="matplotlib.axis_1">
    <g id="xtick_1">
     <g id="line2d_1">
      <defs>
       <path d="M 0 0 
L 0 3.5 
" id="m35bda77187" style="stroke:#000000;stroke-width:0.8;"/>
      </defs>
      <g>
       <use style="stroke:#000000;stroke-width:0.8;" x="70.318011" xlink:href="#m35bda77187" y="239.758125"/>
      </g>
     </g>
     <g id="text_1">
      <!-- 2010 -->
      <defs>
       <path d="M 19.1875 8.296875 
L 53.609375 8.296875 
L 53.609375 0 
L 7.328125 0 
L 7.328125 8.296875 
Q 12.9375 14.109375 22.625 23.890625 
Q 32.328125 33.6875 34.8125 36.53125 
Q 39.546875 41.84375 41.421875 45.53125 
Q 43.3125 49.21875 43.3125 52.78125 
Q 43.3125 58.59375 39.234375 62.25 
Q 35.15625 65.921875 28.609375 65.921875 
Q 23.96875 65.921875 18.8125 64.3125 
Q 13.671875 62.703125 7.8125 59.421875 
L 7.8125 69.390625 
Q 13.765625 71.78125 18.9375 73 
Q 24.125 74.21875 28.421875 74.21875 
Q 39.75 74.21875 46.484375 68.546875 
Q 53.21875 62.890625 53.21875 53.421875 
Q 53.21875 48.921875 51.53125 44.890625 
Q 49.859375 40.875 45.40625 35.40625 
Q 44.1875 33.984375 37.640625 27.21875 
Q 31.109375 20.453125 19.1875 8.296875 
z
" id="DejaVuSans-50"/>
       <path d="M 31.78125 66.40625 
Q 24.171875 66.40625 20.328125 58.90625 
Q 16.5 51.421875 16.5 36.375 
Q 16.5 21.390625 20.328125 13.890625 
Q 24.171875 6.390625 31.78125 6.390625 
Q 39.453125 6.390625 43.28125 13.890625 
Q 47.125 21.390625 47.125 36.375 
Q 47.125 51.421875 43.28125 58.90625 
Q 39.453125 66.40625 31.78125 66.40625 
z
M 31.78125 74.21875 
Q 44.046875 74.21875 50.515625 64.515625 
Q 56.984375 54.828125 56.984375 36.375 
Q 56.984375 17.96875 50.515625 8.265625 
Q 44.046875 -1.421875 31.78125 -1.421875 
Q 19.53125 -1.421875 13.0625 8.265625 
Q 6.59375 17.96875 6.59375 36.375 
Q 6.59375 54.828125 13.0625 64.515625 
Q 19.53125 74.21875 31.78125 74.21875 
z
" id="DejaVuSans-48"/>
       <path d="M 12.40625 8.296875 
L 28.515625 8.296875 
L 28.515625 63.921875 
L 10.984375 60.40625 
L 10.984375 69.390625 
L 28.421875 72.90625 
L 38.28125 72.90625 
L 38.28125 8.296875 
L 54.390625 8.296875 
L 54.390625 0 
L 12.40625 0 
z
" id="DejaVuSans-49"/>
      </defs>
      <g transform="translate(57.593011 254.356562)scale(0.1 -0.1)">
       <use xlink:href="#DejaVuSans-50"/>
       <use x="63.623047" xlink:href="#DejaVuSans-48"/>
       <use x="127.246094" xlink:href="#DejaVuSans-49"/>
       <use x="190.869141" xlink:href="#DejaVuSans-48"/>
      </g>
     </g>
    </g>
    <g id="xtick_2">
     <g id="line2d_2">
      <g>
       <use style="stroke:#000000;stroke-width:0.8;" x="112.894509" xlink:href="#m35bda77187" y="239.758125"/>
      </g>
     </g>
     <g id="text_2">
      <!-- 2011 -->
      <g transform="translate(100.169509 254.356562)scale(0.1 -0.1)">
       <use xlink:href="#DejaVuSans-50"/>
       <use x="63.623047" xlink:href="#DejaVuSans-48"/>
       <use x="127.246094" xlink:href="#DejaVuSans-49"/>
       <use x="190.869141" xlink:href="#DejaVuSans-49"/>
      </g>
     </g>
    </g>
    <g id="xtick_3">
     <g id="line2d_3">
      <g>
       <use style="stroke:#000000;stroke-width:0.8;" x="155.471007" xlink:href="#m35bda77187" y="239.758125"/>
      </g>
     </g>
     <g id="text_3">
      <!-- 2012 -->
      <g transform="translate(142.746007 254.356562)scale(0.1 -0.1)">
       <use xlink:href="#DejaVuSans-50"/>
       <use x="63.623047" xlink:href="#DejaVuSans-48"/>
       <use x="127.246094" xlink:href="#DejaVuSans-49"/>
       <use x="190.869141" xlink:href="#DejaVuSans-50"/>
      </g>
     </g>
    </g>
    <g id="xtick_4">
     <g id="line2d_4">
      <g>
       <use style="stroke:#000000;stroke-width:0.8;" x="198.164153" xlink:href="#m35bda77187" y="239.758125"/>
      </g>
     </g>
     <g id="text_4">
      <!-- 2013 -->
      <defs>
       <path d="M 40.578125 39.3125 
Q 47.65625 37.796875 51.625 33 
Q 55.609375 28.21875 55.609375 21.1875 
Q 55.609375 10.40625 48.1875 4.484375 
Q 40.765625 -1.421875 27.09375 -1.421875 
Q 22.515625 -1.421875 17.65625 -0.515625 
Q 12.796875 0.390625 7.625 2.203125 
L 7.625 11.71875 
Q 11.71875 9.328125 16.59375 8.109375 
Q 21.484375 6.890625 26.8125 6.890625 
Q 36.078125 6.890625 40.9375 10.546875 
Q 45.796875 14.203125 45.796875 21.1875 
Q 45.796875 27.640625 41.28125 31.265625 
Q 36.765625 34.90625 28.71875 34.90625 
L 20.21875 34.90625 
L 20.21875 43.015625 
L 29.109375 43.015625 
Q 36.375 43.015625 40.234375 45.921875 
Q 44.09375 48.828125 44.09375 54.296875 
Q 44.09375 59.90625 40.109375 62.90625 
Q 36.140625 65.921875 28.71875 65.921875 
Q 24.65625 65.921875 20.015625 65.03125 
Q 15.375 64.15625 9.8125 62.3125 
L 9.8125 71.09375 
Q 15.4375 72.65625 20.34375 73.4375 
Q 25.25 74.21875 29.59375 74.21875 
Q 40.828125 74.21875 47.359375 69.109375 
Q 53.90625 64.015625 53.90625 55.328125 
Q 53.90625 49.265625 50.4375 45.09375 
Q 46.96875 40.921875 40.578125 39.3125 
z
" id="DejaVuSans-51"/>
      </defs>
      <g transform="translate(185.439153 254.356562)scale(0.1 -0.1)">
       <use xlink:href="#DejaVuSans-50"/>
       <use x="63.623047" xlink:href="#DejaVuSans-48"/>
       <use x="127.246094" xlink:href="#DejaVuSans-49"/>
       <use x="190.869141" xlink:href="#DejaVuSans-51"/>
      </g>
     </g>
    </g>
    <g id="xtick_5">
     <g id="line2d_5">
      <g>
       <use style="stroke:#000000;stroke-width:0.8;" x="240.740651" xlink:href="#m35bda77187" y="239.758125"/>
      </g>
     </g>
     <g id="text_5">
      <!-- 2014 -->
      <defs>
       <path d="M 37.796875 64.3125 
L 12.890625 25.390625 
L 37.796875 25.390625 
z
M 35.203125 72.90625 
L 47.609375 72.90625 
L 47.609375 25.390625 
L 58.015625 25.390625 
L 58.015625 17.1875 
L 47.609375 17.1875 
L 47.609375 0 
L 37.796875 0 
L 37.796875 17.1875 
L 4.890625 17.1875 
L 4.890625 26.703125 
z
" id="DejaVuSans-52"/>
      </defs>
      <g transform="translate(228.015651 254.356562)scale(0.1 -0.1)">
       <use xlink:href="#DejaVuSans-50"/>
       <use x="63.623047" xlink:href="#DejaVuSans-48"/>
       <use x="127.246094" xlink:href="#DejaVuSans-49"/>
       <use x="190.869141" xlink:href="#DejaVuSans-52"/>
      </g>
     </g>
    </g>
    <g id="xtick_6">
     <g id="line2d_6">
      <g>
       <use style="stroke:#000000;stroke-width:0.8;" x="283.317149" xlink:href="#m35bda77187" y="239.758125"/>
      </g>
     </g>
     <g id="text_6">
      <!-- 2015 -->
      <defs>
       <path d="M 10.796875 72.90625 
L 49.515625 72.90625 
L 49.515625 64.59375 
L 19.828125 64.59375 
L 19.828125 46.734375 
Q 21.96875 47.46875 24.109375 47.828125 
Q 26.265625 48.1875 28.421875 48.1875 
Q 40.625 48.1875 47.75 41.5 
Q 54.890625 34.8125 54.890625 23.390625 
Q 54.890625 11.625 47.5625 5.09375 
Q 40.234375 -1.421875 26.90625 -1.421875 
Q 22.3125 -1.421875 17.546875 -0.640625 
Q 12.796875 0.140625 7.71875 1.703125 
L 7.71875 11.625 
Q 12.109375 9.234375 16.796875 8.0625 
Q 21.484375 6.890625 26.703125 6.890625 
Q 35.15625 6.890625 40.078125 11.328125 
Q 45.015625 15.765625 45.015625 23.390625 
Q 45.015625 31 40.078125 35.4375 
Q 35.15625 39.890625 26.703125 39.890625 
Q 22.75 39.890625 18.8125 39.015625 
Q 14.890625 38.140625 10.796875 36.28125 
z
" id="DejaVuSans-53"/>
      </defs>
      <g transform="translate(270.592149 254.356562)scale(0.1 -0.1)">
       <use xlink:href="#DejaVuSans-50"/>
       <use x="63.623047" xlink:href="#DejaVuSans-48"/>
       <use x="127.246094" xlink:href="#DejaVuSans-49"/>
       <use x="190.869141" xlink:href="#DejaVuSans-53"/>
      </g>
     </g>
    </g>
    <g id="xtick_7">
     <g id="line2d_7">
      <g>
       <use style="stroke:#000000;stroke-width:0.8;" x="325.893647" xlink:href="#m35bda77187" y="239.758125"/>
      </g>
     </g>
     <g id="text_7">
      <!-- 2016 -->
      <defs>
       <path d="M 33.015625 40.375 
Q 26.375 40.375 22.484375 35.828125 
Q 18.609375 31.296875 18.609375 23.390625 
Q 18.609375 15.53125 22.484375 10.953125 
Q 26.375 6.390625 33.015625 6.390625 
Q 39.65625 6.390625 43.53125 10.953125 
Q 47.40625 15.53125 47.40625 23.390625 
Q 47.40625 31.296875 43.53125 35.828125 
Q 39.65625 40.375 33.015625 40.375 
z
M 52.59375 71.296875 
L 52.59375 62.3125 
Q 48.875 64.0625 45.09375 64.984375 
Q 41.3125 65.921875 37.59375 65.921875 
Q 27.828125 65.921875 22.671875 59.328125 
Q 17.53125 52.734375 16.796875 39.40625 
Q 19.671875 43.65625 24.015625 45.921875 
Q 28.375 48.1875 33.59375 48.1875 
Q 44.578125 48.1875 50.953125 41.515625 
Q 57.328125 34.859375 57.328125 23.390625 
Q 57.328125 12.15625 50.6875 5.359375 
Q 44.046875 -1.421875 33.015625 -1.421875 
Q 20.359375 -1.421875 13.671875 8.265625 
Q 6.984375 17.96875 6.984375 36.375 
Q 6.984375 53.65625 15.1875 63.9375 
Q 23.390625 74.21875 37.203125 74.21875 
Q 40.921875 74.21875 44.703125 73.484375 
Q 48.484375 72.75 52.59375 71.296875 
z
" id="DejaVuSans-54"/>
      </defs>
      <g transform="translate(313.168647 254.356562)scale(0.1 -0.1)">
       <use xlink:href="#DejaVuSans-50"/>
       <use x="63.623047" xlink:href="#DejaVuSans-48"/>
       <use x="127.246094" xlink:href="#DejaVuSans-49"/>
       <use x="190.869141" xlink:href="#DejaVuSans-54"/>
      </g>
     </g>
    </g>
    <g id="xtick_8">
     <g id="line2d_8">
      <g>
       <use style="stroke:#000000;stroke-width:0.8;" x="368.586793" xlink:href="#m35bda77187" y="239.758125"/>
      </g>
     </g>
     <g id="text_8">
      <!-- 2017 -->
      <defs>
       <path d="M 8.203125 72.90625 
L 55.078125 72.90625 
L 55.078125 68.703125 
L 28.609375 0 
L 18.3125 0 
L 43.21875 64.59375 
L 8.203125 64.59375 
z
" id="DejaVuSans-55"/>
      </defs>
      <g transform="translate(355.861793 254.356562)scale(0.1 -0.1)">
       <use xlink:href="#DejaVuSans-50"/>
       <use x="63.623047" xlink:href="#DejaVuSans-48"/>
       <use x="127.246094" xlink:href="#DejaVuSans-49"/>
       <use x="190.869141" xlink:href="#DejaVuSans-55"/>
      </g>
     </g>
    </g>
    <g id="xtick_9">
     <g id="line2d_9">
      <g>
       <use style="stroke:#000000;stroke-width:0.8;" x="411.163291" xlink:href="#m35bda77187" y="239.758125"/>
      </g>
     </g>
     <g id="text_9">
      <!-- 2018 -->
      <defs>
       <path d="M 31.78125 34.625 
Q 24.75 34.625 20.71875 30.859375 
Q 16.703125 27.09375 16.703125 20.515625 
Q 16.703125 13.921875 20.71875 10.15625 
Q 24.75 6.390625 31.78125 6.390625 
Q 38.8125 6.390625 42.859375 10.171875 
Q 46.921875 13.96875 46.921875 20.515625 
Q 46.921875 27.09375 42.890625 30.859375 
Q 38.875 34.625 31.78125 34.625 
z
M 21.921875 38.8125 
Q 15.578125 40.375 12.03125 44.71875 
Q 8.5 49.078125 8.5 55.328125 
Q 8.5 64.0625 14.71875 69.140625 
Q 20.953125 74.21875 31.78125 74.21875 
Q 42.671875 74.21875 48.875 69.140625 
Q 55.078125 64.0625 55.078125 55.328125 
Q 55.078125 49.078125 51.53125 44.71875 
Q 48 40.375 41.703125 38.8125 
Q 48.828125 37.15625 52.796875 32.3125 
Q 56.78125 27.484375 56.78125 20.515625 
Q 56.78125 9.90625 50.3125 4.234375 
Q 43.84375 -1.421875 31.78125 -1.421875 
Q 19.734375 -1.421875 13.25 4.234375 
Q 6.78125 9.90625 6.78125 20.515625 
Q 6.78125 27.484375 10.78125 32.3125 
Q 14.796875 37.15625 21.921875 38.8125 
z
M 18.3125 54.390625 
Q 18.3125 48.734375 21.84375 45.5625 
Q 25.390625 42.390625 31.78125 42.390625 
Q 38.140625 42.390625 41.71875 45.5625 
Q 45.3125 48.734375 45.3125 54.390625 
Q 45.3125 60.0625 41.71875 63.234375 
Q 38.140625 66.40625 31.78125 66.40625 
Q 25.390625 66.40625 21.84375 63.234375 
Q 18.3125 60.0625 18.3125 54.390625 
z
" id="DejaVuSans-56"/>
      </defs>
      <g transform="translate(398.438291 254.356562)scale(0.1 -0.1)">
       <use xlink:href="#DejaVuSans-50"/>
       <use x="63.623047" xlink:href="#DejaVuSans-48"/>
       <use x="127.246094" xlink:href="#DejaVuSans-49"/>
       <use x="190.869141" xlink:href="#DejaVuSans-56"/>
      </g>
     </g>
    </g>
    <g id="xtick_10">
     <g id="line2d_10">
      <g>
       <use style="stroke:#000000;stroke-width:0.8;" x="453.739789" xlink:href="#m35bda77187" y="239.758125"/>
      </g>
     </g>
     <g id="text_10">
      <!-- 2019 -->
      <defs>
       <path d="M 10.984375 1.515625 
L 10.984375 10.5 
Q 14.703125 8.734375 18.5 7.8125 
Q 22.3125 6.890625 25.984375 6.890625 
Q 35.75 6.890625 40.890625 13.453125 
Q 46.046875 20.015625 46.78125 33.40625 
Q 43.953125 29.203125 39.59375 26.953125 
Q 35.25 24.703125 29.984375 24.703125 
Q 19.046875 24.703125 12.671875 31.3125 
Q 6.296875 37.9375 6.296875 49.421875 
Q 6.296875 60.640625 12.9375 67.421875 
Q 19.578125 74.21875 30.609375 74.21875 
Q 43.265625 74.21875 49.921875 64.515625 
Q 56.59375 54.828125 56.59375 36.375 
Q 56.59375 19.140625 48.40625 8.859375 
Q 40.234375 -1.421875 26.421875 -1.421875 
Q 22.703125 -1.421875 18.890625 -0.6875 
Q 15.09375 0.046875 10.984375 1.515625 
z
M 30.609375 32.421875 
Q 37.25 32.421875 41.125 36.953125 
Q 45.015625 41.5 45.015625 49.421875 
Q 45.015625 57.28125 41.125 61.84375 
Q 37.25 66.40625 30.609375 66.40625 
Q 23.96875 66.40625 20.09375 61.84375 
Q 16.21875 57.28125 16.21875 49.421875 
Q 16.21875 41.5 20.09375 36.953125 
Q 23.96875 32.421875 30.609375 32.421875 
z
" id="DejaVuSans-57"/>
      </defs>
      <g transform="translate(441.014789 254.356562)scale(0.1 -0.1)">
       <use xlink:href="#DejaVuSans-50"/>
       <use x="63.623047" xlink:href="#DejaVuSans-48"/>
       <use x="127.246094" xlink:href="#DejaVuSans-49"/>
       <use x="190.869141" xlink:href="#DejaVuSans-57"/>
      </g>
     </g>
    </g>
    <g id="xtick_11">
     <g id="line2d_11">
      <g>
       <use style="stroke:#000000;stroke-width:0.8;" x="496.316287" xlink:href="#m35bda77187" y="239.758125"/>
      </g>
     </g>
     <g id="text_11">
      <!-- 2020 -->
      <g transform="translate(483.591287 254.356562)scale(0.1 -0.1)">
       <use xlink:href="#DejaVuSans-50"/>
       <use x="63.623047" xlink:href="#DejaVuSans-48"/>
       <use x="127.246094" xlink:href="#DejaVuSans-50"/>
       <use x="190.869141" xlink:href="#DejaVuSans-48"/>
      </g>
     </g>
    </g>
    <g id="text_12">
     <!-- date -->
     <defs>
      <path d="M 45.40625 46.390625 
L 45.40625 75.984375 
L 54.390625 75.984375 
L 54.390625 0 
L 45.40625 0 
L 45.40625 8.203125 
Q 42.578125 3.328125 38.25 0.953125 
Q 33.9375 -1.421875 27.875 -1.421875 
Q 17.96875 -1.421875 11.734375 6.484375 
Q 5.515625 14.40625 5.515625 27.296875 
Q 5.515625 40.1875 11.734375 48.09375 
Q 17.96875 56 27.875 56 
Q 33.9375 56 38.25 53.625 
Q 42.578125 51.265625 45.40625 46.390625 
z
M 14.796875 27.296875 
Q 14.796875 17.390625 18.875 11.75 
Q 22.953125 6.109375 30.078125 6.109375 
Q 37.203125 6.109375 41.296875 11.75 
Q 45.40625 17.390625 45.40625 27.296875 
Q 45.40625 37.203125 41.296875 42.84375 
Q 37.203125 48.484375 30.078125 48.484375 
Q 22.953125 48.484375 18.875 42.84375 
Q 14.796875 37.203125 14.796875 27.296875 
z
" id="DejaVuSans-100"/>
      <path d="M 34.28125 27.484375 
Q 23.390625 27.484375 19.1875 25 
Q 14.984375 22.515625 14.984375 16.5 
Q 14.984375 11.71875 18.140625 8.90625 
Q 21.296875 6.109375 26.703125 6.109375 
Q 34.1875 6.109375 38.703125 11.40625 
Q 43.21875 16.703125 43.21875 25.484375 
L 43.21875 27.484375 
z
M 52.203125 31.203125 
L 52.203125 0 
L 43.21875 0 
L 43.21875 8.296875 
Q 40.140625 3.328125 35.546875 0.953125 
Q 30.953125 -1.421875 24.3125 -1.421875 
Q 15.921875 -1.421875 10.953125 3.296875 
Q 6 8.015625 6 15.921875 
Q 6 25.140625 12.171875 29.828125 
Q 18.359375 34.515625 30.609375 34.515625 
L 43.21875 34.515625 
L 43.21875 35.40625 
Q 43.21875 41.609375 39.140625 45 
Q 35.0625 48.390625 27.6875 48.390625 
Q 23 48.390625 18.546875 47.265625 
Q 14.109375 46.140625 10.015625 43.890625 
L 10.015625 52.203125 
Q 14.9375 54.109375 19.578125 55.046875 
Q 24.21875 56 28.609375 56 
Q 40.484375 56 46.34375 49.84375 
Q 52.203125 43.703125 52.203125 31.203125 
z
" id="DejaVuSans-97"/>
      <path d="M 18.3125 70.21875 
L 18.3125 54.6875 
L 36.8125 54.6875 
L 36.8125 47.703125 
L 18.3125 47.703125 
L 18.3125 18.015625 
Q 18.3125 11.328125 20.140625 9.421875 
Q 21.96875 7.515625 27.59375 7.515625 
L 36.8125 7.515625 
L 36.8125 0 
L 27.59375 0 
Q 17.1875 0 13.234375 3.875 
Q 9.28125 7.765625 9.28125 18.015625 
L 9.28125 47.703125 
L 2.6875 47.703125 
L 2.6875 54.6875 
L 9.28125 54.6875 
L 9.28125 70.21875 
z
" id="DejaVuSans-116"/>
      <path d="M 56.203125 29.59375 
L 56.203125 25.203125 
L 14.890625 25.203125 
Q 15.484375 15.921875 20.484375 11.0625 
Q 25.484375 6.203125 34.421875 6.203125 
Q 39.59375 6.203125 44.453125 7.46875 
Q 49.3125 8.734375 54.109375 11.28125 
L 54.109375 2.78125 
Q 49.265625 0.734375 44.1875 -0.34375 
Q 39.109375 -1.421875 33.890625 -1.421875 
Q 20.796875 -1.421875 13.15625 6.1875 
Q 5.515625 13.8125 5.515625 26.8125 
Q 5.515625 40.234375 12.765625 48.109375 
Q 20.015625 56 32.328125 56 
Q 43.359375 56 49.78125 48.890625 
Q 56.203125 41.796875 56.203125 29.59375 
z
M 47.21875 32.234375 
Q 47.125 39.59375 43.09375 43.984375 
Q 39.0625 48.390625 32.421875 48.390625 
Q 24.90625 48.390625 20.390625 44.140625 
Q 15.875 39.890625 15.1875 32.171875 
z
" id="DejaVuSans-101"/>
     </defs>
     <g transform="translate(262.06875 268.034687)scale(0.1 -0.1)">
      <use xlink:href="#DejaVuSans-100"/>
      <use x="63.476562" xlink:href="#DejaVuSans-97"/>
      <use x="124.755859" xlink:href="#DejaVuSans-116"/>
      <use x="163.964844" xlink:href="#DejaVuSans-101"/>
     </g>
    </g>
   </g>
   <g id="matplotlib.axis_2">
    <g id="ytick_1">
     <g id="line2d_12">
      <defs>
       <path d="M 0 0 
L -3.5 0 
" id="mc97fa6dc5e" style="stroke:#000000;stroke-width:0.8;"/>
      </defs>
      <g>
       <use style="stroke:#000000;stroke-width:0.8;" x="50.14375" xlink:href="#mc97fa6dc5e" y="229.788638"/>
      </g>
     </g>
     <g id="text_13">
      <!-- 12.0 -->
      <defs>
       <path d="M 10.6875 12.40625 
L 21 12.40625 
L 21 0 
L 10.6875 0 
z
" id="DejaVuSans-46"/>
      </defs>
      <g transform="translate(20.878125 233.587856)scale(0.1 -0.1)">
       <use xlink:href="#DejaVuSans-49"/>
       <use x="63.623047" xlink:href="#DejaVuSans-50"/>
       <use x="127.246094" xlink:href="#DejaVuSans-46"/>
       <use x="159.033203" xlink:href="#DejaVuSans-48"/>
      </g>
     </g>
    </g>
    <g id="ytick_2">
     <g id="line2d_13">
      <g>
       <use style="stroke:#000000;stroke-width:0.8;" x="50.14375" xlink:href="#mc97fa6dc5e" y="205.458544"/>
      </g>
     </g>
     <g id="text_14">
      <!-- 12.2 -->
      <g transform="translate(20.878125 209.257763)scale(0.1 -0.1)">
       <use xlink:href="#DejaVuSans-49"/>
       <use x="63.623047" xlink:href="#DejaVuSans-50"/>
       <use x="127.246094" xlink:href="#DejaVuSans-46"/>
       <use x="159.033203" xlink:href="#DejaVuSans-50"/>
      </g>
     </g>
    </g>
    <g id="ytick_3">
     <g id="line2d_14">
      <g>
       <use style="stroke:#000000;stroke-width:0.8;" x="50.14375" xlink:href="#mc97fa6dc5e" y="181.128451"/>
      </g>
     </g>
     <g id="text_15">
      <!-- 12.4 -->
      <g transform="translate(20.878125 184.92767)scale(0.1 -0.1)">
       <use xlink:href="#DejaVuSans-49"/>
       <use x="63.623047" xlink:href="#DejaVuSans-50"/>
       <use x="127.246094" xlink:href="#DejaVuSans-46"/>
       <use x="159.033203" xlink:href="#DejaVuSans-52"/>
      </g>
     </g>
    </g>
    <g id="ytick_4">
     <g id="line2d_15">
      <g>
       <use style="stroke:#000000;stroke-width:0.8;" x="50.14375" xlink:href="#mc97fa6dc5e" y="156.798358"/>
      </g>
     </g>
     <g id="text_16">
      <!-- 12.6 -->
      <g transform="translate(20.878125 160.597576)scale(0.1 -0.1)">
       <use xlink:href="#DejaVuSans-49"/>
       <use x="63.623047" xlink:href="#DejaVuSans-50"/>
       <use x="127.246094" xlink:href="#DejaVuSans-46"/>
       <use x="159.033203" xlink:href="#DejaVuSans-54"/>
      </g>
     </g>
    </g>
    <g id="ytick_5">
     <g id="line2d_16">
      <g>
       <use style="stroke:#000000;stroke-width:0.8;" x="50.14375" xlink:href="#mc97fa6dc5e" y="132.468264"/>
      </g>
     </g>
     <g id="text_17">
      <!-- 12.8 -->
      <g transform="translate(20.878125 136.267483)scale(0.1 -0.1)">
       <use xlink:href="#DejaVuSans-49"/>
       <use x="63.623047" xlink:href="#DejaVuSans-50"/>
       <use x="127.246094" xlink:href="#DejaVuSans-46"/>
       <use x="159.033203" xlink:href="#DejaVuSans-56"/>
      </g>
     </g>
    </g>
    <g id="ytick_6">
     <g id="line2d_17">
      <g>
       <use style="stroke:#000000;stroke-width:0.8;" x="50.14375" xlink:href="#mc97fa6dc5e" y="108.138171"/>
      </g>
     </g>
     <g id="text_18">
      <!-- 13.0 -->
      <g transform="translate(20.878125 111.93739)scale(0.1 -0.1)">
       <use xlink:href="#DejaVuSans-49"/>
       <use x="63.623047" xlink:href="#DejaVuSans-51"/>
       <use x="127.246094" xlink:href="#DejaVuSans-46"/>
       <use x="159.033203" xlink:href="#DejaVuSans-48"/>
      </g>
     </g>
    </g>
    <g id="ytick_7">
     <g id="line2d_18">
      <g>
       <use style="stroke:#000000;stroke-width:0.8;" x="50.14375" xlink:href="#mc97fa6dc5e" y="83.808077"/>
      </g>
     </g>
     <g id="text_19">
      <!-- 13.2 -->
      <g transform="translate(20.878125 87.607296)scale(0.1 -0.1)">
       <use xlink:href="#DejaVuSans-49"/>
       <use x="63.623047" xlink:href="#DejaVuSans-51"/>
       <use x="127.246094" xlink:href="#DejaVuSans-46"/>
       <use x="159.033203" xlink:href="#DejaVuSans-50"/>
      </g>
     </g>
    </g>
    <g id="ytick_8">
     <g id="line2d_19">
      <g>
       <use style="stroke:#000000;stroke-width:0.8;" x="50.14375" xlink:href="#mc97fa6dc5e" y="59.477984"/>
      </g>
     </g>
     <g id="text_20">
      <!-- 13.4 -->
      <g transform="translate(20.878125 63.277203)scale(0.1 -0.1)">
       <use xlink:href="#DejaVuSans-49"/>
       <use x="63.623047" xlink:href="#DejaVuSans-51"/>
       <use x="127.246094" xlink:href="#DejaVuSans-46"/>
       <use x="159.033203" xlink:href="#DejaVuSans-52"/>
      </g>
     </g>
    </g>
    <g id="ytick_9">
     <g id="line2d_20">
      <g>
       <use style="stroke:#000000;stroke-width:0.8;" x="50.14375" xlink:href="#mc97fa6dc5e" y="35.147891"/>
      </g>
     </g>
     <g id="text_21">
      <!-- 13.6 -->
      <g transform="translate(20.878125 38.94711)scale(0.1 -0.1)">
       <use xlink:href="#DejaVuSans-49"/>
       <use x="63.623047" xlink:href="#DejaVuSans-51"/>
       <use x="127.246094" xlink:href="#DejaVuSans-46"/>
       <use x="159.033203" xlink:href="#DejaVuSans-54"/>
      </g>
     </g>
    </g>
    <g id="text_22">
     <!-- initial claim -->
     <defs>
      <path d="M 9.421875 54.6875 
L 18.40625 54.6875 
L 18.40625 0 
L 9.421875 0 
z
M 9.421875 75.984375 
L 18.40625 75.984375 
L 18.40625 64.59375 
L 9.421875 64.59375 
z
" id="DejaVuSans-105"/>
      <path d="M 54.890625 33.015625 
L 54.890625 0 
L 45.90625 0 
L 45.90625 32.71875 
Q 45.90625 40.484375 42.875 44.328125 
Q 39.84375 48.1875 33.796875 48.1875 
Q 26.515625 48.1875 22.3125 43.546875 
Q 18.109375 38.921875 18.109375 30.90625 
L 18.109375 0 
L 9.078125 0 
L 9.078125 54.6875 
L 18.109375 54.6875 
L 18.109375 46.1875 
Q 21.34375 51.125 25.703125 53.5625 
Q 30.078125 56 35.796875 56 
Q 45.21875 56 50.046875 50.171875 
Q 54.890625 44.34375 54.890625 33.015625 
z
" id="DejaVuSans-110"/>
      <path d="M 9.421875 75.984375 
L 18.40625 75.984375 
L 18.40625 0 
L 9.421875 0 
z
" id="DejaVuSans-108"/>
      <path id="DejaVuSans-32"/>
      <path d="M 48.78125 52.59375 
L 48.78125 44.1875 
Q 44.96875 46.296875 41.140625 47.34375 
Q 37.3125 48.390625 33.40625 48.390625 
Q 24.65625 48.390625 19.8125 42.84375 
Q 14.984375 37.3125 14.984375 27.296875 
Q 14.984375 17.28125 19.8125 11.734375 
Q 24.65625 6.203125 33.40625 6.203125 
Q 37.3125 6.203125 41.140625 7.25 
Q 44.96875 8.296875 48.78125 10.40625 
L 48.78125 2.09375 
Q 45.015625 0.34375 40.984375 -0.53125 
Q 36.96875 -1.421875 32.421875 -1.421875 
Q 20.0625 -1.421875 12.78125 6.34375 
Q 5.515625 14.109375 5.515625 27.296875 
Q 5.515625 40.671875 12.859375 48.328125 
Q 20.21875 56 33.015625 56 
Q 37.15625 56 41.109375 55.140625 
Q 45.0625 54.296875 48.78125 52.59375 
z
" id="DejaVuSans-99"/>
      <path d="M 52 44.1875 
Q 55.375 50.25 60.0625 53.125 
Q 64.75 56 71.09375 56 
Q 79.640625 56 84.28125 50.015625 
Q 88.921875 44.046875 88.921875 33.015625 
L 88.921875 0 
L 79.890625 0 
L 79.890625 32.71875 
Q 79.890625 40.578125 77.09375 44.375 
Q 74.3125 48.1875 68.609375 48.1875 
Q 61.625 48.1875 57.5625 43.546875 
Q 53.515625 38.921875 53.515625 30.90625 
L 53.515625 0 
L 44.484375 0 
L 44.484375 32.71875 
Q 44.484375 40.625 41.703125 44.40625 
Q 38.921875 48.1875 33.109375 48.1875 
Q 26.21875 48.1875 22.15625 43.53125 
Q 18.109375 38.875 18.109375 30.90625 
L 18.109375 0 
L 9.078125 0 
L 9.078125 54.6875 
L 18.109375 54.6875 
L 18.109375 46.1875 
Q 21.1875 51.21875 25.484375 53.609375 
Q 29.78125 56 35.6875 56 
Q 41.65625 56 45.828125 52.96875 
Q 50 49.953125 52 44.1875 
z
" id="DejaVuSans-109"/>
     </defs>
     <g transform="translate(14.798437 159.838125)rotate(-90)scale(0.1 -0.1)">
      <use xlink:href="#DejaVuSans-105"/>
      <use x="27.783203" xlink:href="#DejaVuSans-110"/>
      <use x="91.162109" xlink:href="#DejaVuSans-105"/>
      <use x="118.945312" xlink:href="#DejaVuSans-116"/>
      <use x="158.154297" xlink:href="#DejaVuSans-105"/>
      <use x="185.9375" xlink:href="#DejaVuSans-97"/>
      <use x="247.216797" xlink:href="#DejaVuSans-108"/>
      <use x="275" xlink:href="#DejaVuSans-32"/>
      <use x="306.787109" xlink:href="#DejaVuSans-99"/>
      <use x="361.767578" xlink:href="#DejaVuSans-108"/>
      <use x="389.550781" xlink:href="#DejaVuSans-97"/>
      <use x="450.830078" xlink:href="#DejaVuSans-105"/>
      <use x="478.613281" xlink:href="#DejaVuSans-109"/>
     </g>
    </g>
   </g>
   <g id="line2d_21">
    <path clip-path="url(#pa9de967275)" d="M 70.434659 61.108736 
L 71.251195 32.201761 
L 72.06773 59.631054 
L 72.884266 91.405222 
L 73.700801 84.202203 
L 74.517337 90.257486 
L 75.333873 97.693115 
L 76.150408 103.883555 
L 76.966944 99.579054 
L 77.783479 102.689646 
L 78.600015 109.063506 
L 79.41655 116.487649 
L 80.233086 116.592875 
L 81.049622 114.13591 
L 81.866157 89.861063 
L 82.682693 109.687666 
L 83.499228 111.82791 
L 84.315764 120.59597 
L 85.132299 116.117097 
L 85.948835 116.045168 
L 86.765371 117.163668 
L 87.581906 114.789655 
L 88.398442 120.744121 
L 89.214977 106.528812 
L 90.031513 112.429215 
L 90.848049 107.507746 
L 91.664584 100.68514 
L 92.48112 89.422875 
L 93.297655 92.751227 
L 94.114191 116.307594 
L 94.930726 119.749061 
L 95.747262 112.888402 
L 97.380333 125.061964 
L 98.196869 125.638442 
L 99.013404 126.042986 
L 99.82994 139.529489 
L 100.646475 125.890891 
L 101.463011 129.046381 
L 102.279547 128.677917 
L 103.096082 102.692778 
L 103.912618 122.23178 
L 104.729153 117.843399 
L 105.545689 114.145424 
L 106.362224 105.353581 
L 107.17876 117.528419 
L 107.995296 102.128714 
L 108.811831 116.530343 
L 109.628367 74.005304 
L 110.444902 95.270143 
L 111.261438 94.340632 
L 112.077974 87.152811 
L 112.894509 75.427298 
L 113.711045 40.174539 
L 114.52758 81.727141 
L 115.344116 96.719982 
L 116.160651 102.139735 
L 116.977187 108.608611 
L 117.793723 113.195029 
L 118.610258 126.323046 
L 119.426794 135.329633 
L 120.243329 118.198289 
L 121.059865 129.317624 
L 121.8764 135.10294 
L 122.692936 134.0776 
L 123.509472 135.322788 
L 124.326007 106.603757 
L 125.142543 126.052268 
L 125.959078 124.145214 
L 126.775614 115.634475 
L 127.592149 121.088337 
L 128.408685 132.684841 
L 129.225221 127.721026 
L 130.041756 126.159697 
L 130.858292 130.933596 
L 131.674827 120.213352 
L 132.491363 122.148481 
L 133.307899 118.397371 
L 134.124434 112.840024 
L 134.94097 99.758297 
L 135.757505 100.757533 
L 136.574041 130.143186 
L 137.390576 139.774629 
L 138.207112 135.119762 
L 139.023648 138.035681 
L 139.840183 138.438485 
L 140.656719 141.333057 
L 141.473254 137.136102 
L 142.28979 144.218233 
L 143.106325 135.321744 
L 143.922861 144.512679 
L 144.739397 142.920954 
L 145.555932 118.615131 
L 146.372468 134.041983 
L 147.189003 127.551876 
L 148.005539 129.998283 
L 148.822074 119.630493 
L 149.63861 132.200363 
L 150.455146 108.760243 
L 151.271681 129.017261 
L 152.088217 86.441523 
L 152.904752 109.95276 
L 153.721288 114.143683 
L 154.537824 93.816128 
L 155.354359 83.877478 
L 156.170895 62.045557 
L 157.803966 115.369845 
L 158.620501 113.802136 
L 159.437037 119.983643 
L 160.253573 131.532697 
L 161.070108 137.809104 
L 161.886644 142.246443 
L 162.703179 130.398535 
L 163.519715 140.132187 
L 164.33625 147.734645 
L 165.152786 146.2681 
L 165.969322 149.150839 
L 166.785857 123.458058 
L 167.602393 129.723792 
L 168.418928 129.674602 
L 169.235464 142.525575 
L 170.051999 139.782866 
L 170.868535 145.622361 
L 171.685071 143.642915 
L 172.501606 137.94925 
L 173.318142 145.887919 
L 174.134677 127.728103 
L 174.951213 131.688041 
L 175.767749 129.71103 
L 176.584284 129.939464 
L 177.40082 108.199079 
L 178.217355 104.656099 
L 179.033891 139.889832 
L 179.850426 150.261102 
L 180.666962 147.460386 
L 181.483498 148.428878 
L 182.300033 150.679336 
L 183.116569 150.412386 
L 183.933104 151.587733 
L 184.74964 155.504745 
L 185.566175 143.633053 
L 186.382711 153.909656 
L 187.199247 154.971424 
L 188.832318 132.296191 
L 189.648853 138.312609 
L 190.465389 140.195879 
L 191.281925 132.600846 
L 192.09846 98.58643 
L 192.914996 119.297299 
L 193.731531 133.599387 
L 194.548067 93.212967 
L 195.364602 111.829418 
L 196.181138 119.963688 
L 196.997674 104.036579 
L 197.814209 95.67898 
L 198.630745 80.027058 
L 199.44728 79.891089 
L 200.263816 109.535687 
L 201.080351 130.024619 
L 201.896887 123.881744 
L 202.713423 132.622309 
L 203.529958 136.265061 
L 204.346494 151.205116 
L 205.163029 141.682958 
L 206.7961 154.799722 
L 207.612636 149.022643 
L 208.429172 148.500112 
L 209.245707 134.255451 
L 210.062243 133.413183 
L 210.878778 145.185333 
L 211.695314 154.738814 
L 212.51185 154.746935 
L 213.328385 147.447508 
L 214.144921 154.0411 
L 214.961456 147.730817 
L 215.777992 157.601134 
L 216.594527 142.712475 
L 217.411063 141.257648 
L 218.227599 141.282475 
L 219.044134 141.817072 
L 219.86067 125.424047 
L 220.677205 117.105661 
L 222.310276 163.05488 
L 223.126812 159.997655 
L 223.943348 162.596273 
L 225.576419 163.873365 
L 226.392954 168.501085 
L 227.20949 187.904001 
L 228.026025 166.891842 
L 228.842561 175.123797 
L 229.659097 176.510407 
L 230.475632 141.6311 
L 231.292168 132.892276 
L 232.108703 150.609147 
L 232.925239 145.535582 
L 233.741775 143.114003 
L 234.55831 131.815309 
L 235.374846 144.891467 
L 236.191381 130.146434 
L 237.007917 146.824972 
L 237.824452 102.496713 
L 238.640988 116.033219 
L 239.457524 114.964373 
L 241.90713 85.029622 
L 242.723666 115.592942 
L 243.540201 133.958917 
L 244.356737 133.980728 
L 245.173273 133.101102 
L 245.989808 146.498506 
L 246.806344 150.364587 
L 247.622879 148.370639 
L 250.072486 166.391005 
L 250.889022 157.496257 
L 251.705557 155.735034 
L 252.522093 148.003336 
L 253.338628 155.726913 
L 254.155164 148.257756 
L 254.9717 160.045221 
L 255.788235 167.879825 
L 256.604771 160.615318 
L 258.237842 170.884495 
L 259.054377 150.090212 
L 259.870913 154.911212 
L 260.687449 153.37239 
L 261.503984 153.068895 
L 262.32052 146.501522 
L 263.137055 129.698501 
L 263.953591 160.763121 
L 264.770126 173.919446 
L 265.586662 178.611786 
L 266.403198 168.451894 
L 267.219733 177.835878 
L 268.036269 178.058974 
L 268.852804 177.681346 
L 269.66934 185.228349 
L 270.485875 181.370968 
L 271.302411 182.651889 
L 272.118947 189.009275 
L 272.935482 173.957151 
L 273.752018 166.531267 
L 274.568553 174.610315 
L 275.385089 167.613687 
L 276.201625 169.607171 
L 277.01816 151.665927 
L 277.834696 161.15966 
L 278.651231 134.164495 
L 279.467767 157.691626 
L 280.284302 123.701573 
L 281.100838 144.603982 
L 281.917374 139.873126 
L 283.550445 108.98566 
L 284.36698 86.236525 
L 286.000051 162.971581 
L 286.816587 152.73048 
L 287.633123 145.973074 
L 288.449658 164.701828 
L 289.266194 163.510471 
L 290.082729 149.241099 
L 290.899265 164.692663 
L 291.7158 172.68992 
L 292.532336 178.53568 
L 293.348872 182.668131 
L 294.165407 175.867104 
L 294.981943 152.124998 
L 296.615014 177.195359 
L 297.43155 184.368098 
L 298.248085 181.08824 
L 299.064621 180.723141 
L 299.881156 175.905041 
L 300.697692 187.360703 
L 301.514227 165.706285 
L 302.330763 173.382761 
L 303.147299 171.315491 
L 303.963834 166.136469 
L 304.78037 153.949681 
L 305.596905 138.579327 
L 306.413441 171.431042 
L 307.229976 187.55178 
L 308.046512 190.876883 
L 308.863048 182.882411 
L 309.679583 188.114452 
L 310.496119 189.503151 
L 311.312654 187.675916 
L 312.12919 186.398939 
L 312.945725 205.388842 
L 313.762261 193.489656 
L 314.578797 195.85636 
L 315.395332 189.220654 
L 316.211868 174.441397 
L 317.028403 186.21436 
L 318.661475 173.535204 
L 319.47801 159.05921 
L 320.294546 170.570327 
L 321.111081 153.214958 
L 321.927617 171.579657 
L 322.744152 125.208723 
L 323.560688 150.127105 
L 324.377224 147.680234 
L 325.193759 137.850173 
L 326.010295 118.776391 
L 326.82683 92.548085 
L 328.459901 157.054008 
L 329.276437 150.646968 
L 330.092973 159.185434 
L 330.909508 173.563396 
L 331.726044 178.125451 
L 332.542579 170.118217 
L 333.359115 178.734065 
L 334.17565 184.128063 
L 334.992186 187.252113 
L 335.808722 184.731341 
L 336.625257 180.014522 
L 337.441793 168.023335 
L 338.258328 181.329783 
L 339.074864 180.012086 
L 339.8914 180.833007 
L 340.707935 171.917724 
L 341.524471 180.097009 
L 342.341006 182.136435 
L 343.157542 179.171093 
L 343.974077 186.507181 
L 344.790613 169.901037 
L 345.607149 178.56712 
L 346.423684 171.101675 
L 347.24022 169.372241 
L 348.056755 155.934116 
L 348.873291 168.877901 
L 349.689826 186.703827 
L 350.506362 193.567386 
L 351.322898 186.90488 
L 352.139433 193.363315 
L 352.955969 194.789371 
L 353.772504 195.533259 
L 354.58904 194.395384 
L 355.405575 208.870566 
L 356.222111 201.331452 
L 357.038647 205.663218 
L 357.855182 204.442741 
L 358.671718 183.261664 
L 359.488253 185.811208 
L 360.304789 183.909491 
L 361.121325 179.659632 
L 361.93786 173.456082 
L 362.754396 191.058331 
L 363.570931 160.447793 
L 364.387467 177.684362 
L 365.204002 136.094404 
L 366.020538 153.277142 
L 366.837074 149.43322 
L 367.653609 139.024476 
L 368.470145 136.447437 
L 369.28668 115.995398 
L 370.103216 135.673269 
L 370.919751 162.049379 
L 371.736287 163.361508 
L 372.552823 172.937379 
L 373.369358 179.592808 
L 374.185894 182.884499 
L 375.002429 197.156539 
L 375.818965 180.549931 
L 376.635501 191.900019 
L 377.452036 190.557494 
L 378.268572 188.636751 
L 379.085107 199.74576 
L 379.901643 182.630078 
L 380.718178 189.925213 
L 381.534714 181.726438 
L 382.35125 198.232462 
L 383.167785 195.899286 
L 383.984321 200.590697 
L 384.800856 198.469712 
L 385.617392 186.592104 
L 386.433927 197.232645 
L 387.250463 185.281716 
L 388.066999 188.309937 
L 388.883534 182.725443 
L 389.70007 176.178024 
L 390.516605 161.921414 
L 391.333141 173.854245 
L 392.149676 192.873964 
L 392.966212 205.466572 
L 393.782748 197.67501 
L 394.599283 205.770532 
L 395.415819 207.718654 
L 396.232354 207.036718 
L 397.04889 177.269609 
L 397.865426 197.67559 
L 398.681961 197.451913 
L 399.498497 197.06628 
L 400.315032 202.203537 
L 401.131568 188.119789 
L 401.948103 201.365097 
L 402.764639 195.355176 
L 403.581175 195.370374 
L 404.39771 181.474918 
L 405.214246 184.248255 
L 406.030781 165.977992 
L 406.847317 190.471991 
L 407.663852 145.264455 
L 408.480388 162.89826 
L 409.296924 160.581094 
L 410.113459 145.590225 
L 410.929995 136.122015 
L 411.74653 119.208779 
L 412.563066 135.016857 
L 413.379601 172.601052 
L 414.196137 169.02698 
L 415.012673 180.818041 
L 415.829208 186.009709 
L 416.645744 197.282416 
L 417.462279 206.995185 
L 418.278815 189.909551 
L 419.095351 201.606176 
L 419.911886 205.544302 
L 420.728422 207.529898 
L 421.544957 204.07857 
L 422.361493 186.790838 
L 423.178028 189.803513 
L 423.994564 204.635326 
L 424.8111 213.253494 
L 425.627635 210.792006 
L 426.444171 207.666331 
L 427.260706 200.509603 
L 428.077242 203.000907 
L 428.893777 209.98837 
L 429.710313 194.633679 
L 430.526849 201.110328 
L 431.343384 191.605341 
L 432.15992 186.906389 
L 432.976455 170.545964 
L 435.426062 217.618092 
L 436.242598 214.089498 
L 437.059133 217.511242 
L 437.875669 222.12968 
L 438.692204 220.447232 
L 439.50874 221.936167 
L 440.325276 229.874489 
L 441.141811 221.924218 
L 441.958347 222.41148 
L 442.774882 223.197714 
L 443.591418 208.465326 
L 444.407953 210.63933 
L 445.224489 205.492908 
L 446.041025 205.617276 
L 446.85756 196.02725 
L 447.674096 184.594675 
L 449.307167 193.869604 
L 450.123702 148.330846 
L 450.940238 172.091631 
L 451.756774 175.072286 
L 453.389845 144.724986 
L 454.20638 136.31286 
L 455.022916 138.576543 
L 455.839451 168.321494 
L 456.655987 177.175405 
L 457.472523 175.482515 
L 458.289058 181.120724 
L 459.105594 198.369243 
L 459.922129 202.854032 
L 460.738665 192.803311 
L 461.555201 199.154548 
L 462.371736 208.185846 
L 463.188272 210.911617 
L 464.004807 214.994878 
L 464.821343 207.11352 
L 465.637878 206.931261 
L 466.454414 197.749608 
L 467.27095 201.842382 
L 468.087485 202.291128 
L 468.904021 212.076291 
L 469.720556 209.729541 
L 470.537092 205.272131 
L 471.353627 211.230774 
L 472.170163 193.022463 
L 472.986699 201.171816 
L 473.803234 189.94946 
L 474.61977 190.626871 
L 475.436305 186.668094 
L 476.252841 180.719661 
L 476.252841 180.719661 
" style="fill:none;stroke:#1f77b4;stroke-linecap:square;stroke-width:1.5;"/>
   </g>
   <g id="patch_3">
    <path d="M 50.14375 239.758125 
L 50.14375 22.318125 
" style="fill:none;stroke:#000000;stroke-linecap:square;stroke-linejoin:miter;stroke-width:0.8;"/>
   </g>
   <g id="patch_4">
    <path d="M 496.54375 239.758125 
L 496.54375 22.318125 
" style="fill:none;stroke:#000000;stroke-linecap:square;stroke-linejoin:miter;stroke-width:0.8;"/>
   </g>
   <g id="patch_5">
    <path d="M 50.14375 239.758125 
L 496.54375 239.758125 
" style="fill:none;stroke:#000000;stroke-linecap:square;stroke-linejoin:miter;stroke-width:0.8;"/>
   </g>
   <g id="patch_6">
    <path d="M 50.14375 22.318125 
L 496.54375 22.318125 
" style="fill:none;stroke:#000000;stroke-linecap:square;stroke-linejoin:miter;stroke-width:0.8;"/>
   </g>
   <g id="text_23">
    <!-- Weekly Claims (Log Scale) -->
    <defs>
     <path d="M 3.328125 72.90625 
L 13.28125 72.90625 
L 28.609375 11.28125 
L 43.890625 72.90625 
L 54.984375 72.90625 
L 70.3125 11.28125 
L 85.59375 72.90625 
L 95.609375 72.90625 
L 77.296875 0 
L 64.890625 0 
L 49.515625 63.28125 
L 33.984375 0 
L 21.578125 0 
z
" id="DejaVuSans-87"/>
     <path d="M 9.078125 75.984375 
L 18.109375 75.984375 
L 18.109375 31.109375 
L 44.921875 54.6875 
L 56.390625 54.6875 
L 27.390625 29.109375 
L 57.625 0 
L 45.90625 0 
L 18.109375 26.703125 
L 18.109375 0 
L 9.078125 0 
z
" id="DejaVuSans-107"/>
     <path d="M 32.171875 -5.078125 
Q 28.375 -14.84375 24.75 -17.8125 
Q 21.140625 -20.796875 15.09375 -20.796875 
L 7.90625 -20.796875 
L 7.90625 -13.28125 
L 13.1875 -13.28125 
Q 16.890625 -13.28125 18.9375 -11.515625 
Q 21 -9.765625 23.484375 -3.21875 
L 25.09375 0.875 
L 2.984375 54.6875 
L 12.5 54.6875 
L 29.59375 11.921875 
L 46.6875 54.6875 
L 56.203125 54.6875 
z
" id="DejaVuSans-121"/>
     <path d="M 64.40625 67.28125 
L 64.40625 56.890625 
Q 59.421875 61.53125 53.78125 63.8125 
Q 48.140625 66.109375 41.796875 66.109375 
Q 29.296875 66.109375 22.65625 58.46875 
Q 16.015625 50.828125 16.015625 36.375 
Q 16.015625 21.96875 22.65625 14.328125 
Q 29.296875 6.6875 41.796875 6.6875 
Q 48.140625 6.6875 53.78125 8.984375 
Q 59.421875 11.28125 64.40625 15.921875 
L 64.40625 5.609375 
Q 59.234375 2.09375 53.4375 0.328125 
Q 47.65625 -1.421875 41.21875 -1.421875 
Q 24.65625 -1.421875 15.125 8.703125 
Q 5.609375 18.84375 5.609375 36.375 
Q 5.609375 53.953125 15.125 64.078125 
Q 24.65625 74.21875 41.21875 74.21875 
Q 47.75 74.21875 53.53125 72.484375 
Q 59.328125 70.75 64.40625 67.28125 
z
" id="DejaVuSans-67"/>
     <path d="M 44.28125 53.078125 
L 44.28125 44.578125 
Q 40.484375 46.53125 36.375 47.5 
Q 32.28125 48.484375 27.875 48.484375 
Q 21.1875 48.484375 17.84375 46.4375 
Q 14.5 44.390625 14.5 40.28125 
Q 14.5 37.15625 16.890625 35.375 
Q 19.28125 33.59375 26.515625 31.984375 
L 29.59375 31.296875 
Q 39.15625 29.25 43.1875 25.515625 
Q 47.21875 21.78125 47.21875 15.09375 
Q 47.21875 7.46875 41.1875 3.015625 
Q 35.15625 -1.421875 24.609375 -1.421875 
Q 20.21875 -1.421875 15.453125 -0.5625 
Q 10.6875 0.296875 5.421875 2 
L 5.421875 11.28125 
Q 10.40625 8.6875 15.234375 7.390625 
Q 20.0625 6.109375 24.8125 6.109375 
Q 31.15625 6.109375 34.5625 8.28125 
Q 37.984375 10.453125 37.984375 14.40625 
Q 37.984375 18.0625 35.515625 20.015625 
Q 33.0625 21.96875 24.703125 23.78125 
L 21.578125 24.515625 
Q 13.234375 26.265625 9.515625 29.90625 
Q 5.8125 33.546875 5.8125 39.890625 
Q 5.8125 47.609375 11.28125 51.796875 
Q 16.75 56 26.8125 56 
Q 31.78125 56 36.171875 55.265625 
Q 40.578125 54.546875 44.28125 53.078125 
z
" id="DejaVuSans-115"/>
     <path d="M 31 75.875 
Q 24.46875 64.65625 21.28125 53.65625 
Q 18.109375 42.671875 18.109375 31.390625 
Q 18.109375 20.125 21.3125 9.0625 
Q 24.515625 -2 31 -13.1875 
L 23.1875 -13.1875 
Q 15.875 -1.703125 12.234375 9.375 
Q 8.59375 20.453125 8.59375 31.390625 
Q 8.59375 42.28125 12.203125 53.3125 
Q 15.828125 64.359375 23.1875 75.875 
z
" id="DejaVuSans-40"/>
     <path d="M 9.8125 72.90625 
L 19.671875 72.90625 
L 19.671875 8.296875 
L 55.171875 8.296875 
L 55.171875 0 
L 9.8125 0 
z
" id="DejaVuSans-76"/>
     <path d="M 30.609375 48.390625 
Q 23.390625 48.390625 19.1875 42.75 
Q 14.984375 37.109375 14.984375 27.296875 
Q 14.984375 17.484375 19.15625 11.84375 
Q 23.34375 6.203125 30.609375 6.203125 
Q 37.796875 6.203125 41.984375 11.859375 
Q 46.1875 17.53125 46.1875 27.296875 
Q 46.1875 37.015625 41.984375 42.703125 
Q 37.796875 48.390625 30.609375 48.390625 
z
M 30.609375 56 
Q 42.328125 56 49.015625 48.375 
Q 55.71875 40.765625 55.71875 27.296875 
Q 55.71875 13.875 49.015625 6.21875 
Q 42.328125 -1.421875 30.609375 -1.421875 
Q 18.84375 -1.421875 12.171875 6.21875 
Q 5.515625 13.875 5.515625 27.296875 
Q 5.515625 40.765625 12.171875 48.375 
Q 18.84375 56 30.609375 56 
z
" id="DejaVuSans-111"/>
     <path d="M 45.40625 27.984375 
Q 45.40625 37.75 41.375 43.109375 
Q 37.359375 48.484375 30.078125 48.484375 
Q 22.859375 48.484375 18.828125 43.109375 
Q 14.796875 37.75 14.796875 27.984375 
Q 14.796875 18.265625 18.828125 12.890625 
Q 22.859375 7.515625 30.078125 7.515625 
Q 37.359375 7.515625 41.375 12.890625 
Q 45.40625 18.265625 45.40625 27.984375 
z
M 54.390625 6.78125 
Q 54.390625 -7.171875 48.1875 -13.984375 
Q 42 -20.796875 29.203125 -20.796875 
Q 24.46875 -20.796875 20.265625 -20.09375 
Q 16.0625 -19.390625 12.109375 -17.921875 
L 12.109375 -9.1875 
Q 16.0625 -11.328125 19.921875 -12.34375 
Q 23.78125 -13.375 27.78125 -13.375 
Q 36.625 -13.375 41.015625 -8.765625 
Q 45.40625 -4.15625 45.40625 5.171875 
L 45.40625 9.625 
Q 42.625 4.78125 38.28125 2.390625 
Q 33.9375 0 27.875 0 
Q 17.828125 0 11.671875 7.65625 
Q 5.515625 15.328125 5.515625 27.984375 
Q 5.515625 40.671875 11.671875 48.328125 
Q 17.828125 56 27.875 56 
Q 33.9375 56 38.28125 53.609375 
Q 42.625 51.21875 45.40625 46.390625 
L 45.40625 54.6875 
L 54.390625 54.6875 
z
" id="DejaVuSans-103"/>
     <path d="M 53.515625 70.515625 
L 53.515625 60.890625 
Q 47.90625 63.578125 42.921875 64.890625 
Q 37.9375 66.21875 33.296875 66.21875 
Q 25.25 66.21875 20.875 63.09375 
Q 16.5 59.96875 16.5 54.203125 
Q 16.5 49.359375 19.40625 46.890625 
Q 22.3125 44.4375 30.421875 42.921875 
L 36.375 41.703125 
Q 47.40625 39.59375 52.65625 34.296875 
Q 57.90625 29 57.90625 20.125 
Q 57.90625 9.515625 50.796875 4.046875 
Q 43.703125 -1.421875 29.984375 -1.421875 
Q 24.8125 -1.421875 18.96875 -0.25 
Q 13.140625 0.921875 6.890625 3.21875 
L 6.890625 13.375 
Q 12.890625 10.015625 18.65625 8.296875 
Q 24.421875 6.59375 29.984375 6.59375 
Q 38.421875 6.59375 43.015625 9.90625 
Q 47.609375 13.234375 47.609375 19.390625 
Q 47.609375 24.75 44.3125 27.78125 
Q 41.015625 30.8125 33.5 32.328125 
L 27.484375 33.5 
Q 16.453125 35.6875 11.515625 40.375 
Q 6.59375 45.0625 6.59375 53.421875 
Q 6.59375 63.09375 13.40625 68.65625 
Q 20.21875 74.21875 32.171875 74.21875 
Q 37.3125 74.21875 42.625 73.28125 
Q 47.953125 72.359375 53.515625 70.515625 
z
" id="DejaVuSans-83"/>
     <path d="M 8.015625 75.875 
L 15.828125 75.875 
Q 23.140625 64.359375 26.78125 53.3125 
Q 30.421875 42.28125 30.421875 31.390625 
Q 30.421875 20.453125 26.78125 9.375 
Q 23.140625 -1.703125 15.828125 -13.1875 
L 8.015625 -13.1875 
Q 14.5 -2 17.703125 9.0625 
Q 20.90625 20.125 20.90625 31.390625 
Q 20.90625 42.671875 17.703125 53.65625 
Q 14.5 64.65625 8.015625 75.875 
z
" id="DejaVuSans-41"/>
    </defs>
    <g transform="translate(193.800625 16.318125)scale(0.12 -0.12)">
     <use xlink:href="#DejaVuSans-87"/>
     <use x="98.798828" xlink:href="#DejaVuSans-101"/>
     <use x="160.322266" xlink:href="#DejaVuSans-101"/>
     <use x="221.845703" xlink:href="#DejaVuSans-107"/>
     <use x="279.755859" xlink:href="#DejaVuSans-108"/>
     <use x="307.539062" xlink:href="#DejaVuSans-121"/>
     <use x="366.71875" xlink:href="#DejaVuSans-32"/>
     <use x="398.505859" xlink:href="#DejaVuSans-67"/>
     <use x="468.330078" xlink:href="#DejaVuSans-108"/>
     <use x="496.113281" xlink:href="#DejaVuSans-97"/>
     <use x="557.392578" xlink:href="#DejaVuSans-105"/>
     <use x="585.175781" xlink:href="#DejaVuSans-109"/>
     <use x="682.587891" xlink:href="#DejaVuSans-115"/>
     <use x="734.6875" xlink:href="#DejaVuSans-32"/>
     <use x="766.474609" xlink:href="#DejaVuSans-40"/>
     <use x="805.488281" xlink:href="#DejaVuSans-76"/>
     <use x="861.185547" xlink:href="#DejaVuSans-111"/>
     <use x="922.367188" xlink:href="#DejaVuSans-103"/>
     <use x="985.84375" xlink:href="#DejaVuSans-32"/>
     <use x="1017.630859" xlink:href="#DejaVuSans-83"/>
     <use x="1081.107422" xlink:href="#DejaVuSans-99"/>
     <use x="1136.087891" xlink:href="#DejaVuSans-97"/>
     <use x="1197.367188" xlink:href="#DejaVuSans-108"/>
     <use x="1225.150391" xlink:href="#DejaVuSans-101"/>
     <use x="1286.673828" xlink:href="#DejaVuSans-41"/>
    </g>
   </g>
  </g>
 </g>
 <defs>
  <clipPath id="pa9de967275">
   <rect height="217.44" width="446.4" x="50.14375" y="22.318125"/>
  </clipPath>
 </defs>
</svg>
